{
    "asset" : {
        "generator" : "Khronos glTF Blender I/O v3.2.43",
        "version" : "2.0"
    },
    "scene" : 0,
    "scenes" : [
        {
            "name" : "Scene",
            "nodes" : [
                0,
                1,
                2
            ]
        }
    ],
    "nodes" : [
        {
            "mesh" : 0,
            "name" : "Celler",
            "rotation" : [
                0.7071067094802856,
                0,
                0,
                0.7071068286895752
            ],
            "translation" : [
                0,
                0,
                -3.5013370513916016
            ]
        },
        {
            "mesh" : 1,
            "name" : "PileOfLogs",
            "rotation" : [
                0.7071067094802856,
                0,
                0,
                0.7071068286895752
            ],
            "translation" : [
                -6.299885272979736,
                -1.2229913473129272,
                0
            ]
        },
        {
            "mesh" : 2,
            "name" : "WoodChop",
            "rotation" : [
                0.7071067094802856,
                0,
                0,
                0.7071068286895752
            ],
            "translation" : [
                -1.0754635334014893,
                -0.5771908760070801,
                0
            ]
        }
    ],
    "materials" : [
        {
            "doubleSided" : true,
            "name" : "Stone Wall2",
            "pbrMetallicRoughness" : {
                "baseColorFactor" : [
                    0.800000011920929,
                    0.800000011920929,
                    0.800000011920929,
                    1
                ],
                "metallicFactor" : 0,
                "roughnessFactor" : 0.5
            }
        },
        {
            "doubleSided" : true,
            "name" : "Door",
            "pbrMetallicRoughness" : {
                "baseColorFactor" : [
                    0.800000011920929,
                    0.800000011920929,
                    0.800000011920929,
                    1
                ],
                "metallicFactor" : 0,
                "roughnessFactor" : 0.5
            }
        },
        {
            "doubleSided" : true,
            "name" : "WoodenRings",
            "pbrMetallicRoughness" : {
                "baseColorFactor" : [
                    0.800000011920929,
                    0.800000011920929,
                    0.800000011920929,
                    1
                ],
                "metallicFactor" : 0,
                "roughnessFactor" : 0.5
            }
        },
        {
            "doubleSided" : true,
            "name" : "Bark",
            "pbrMetallicRoughness" : {
                "baseColorFactor" : [
                    0.800000011920929,
                    0.800000011920929,
                    0.800000011920929,
                    1
                ],
                "metallicFactor" : 0,
                "roughnessFactor" : 0.5
            }
        },
        {
            "doubleSided" : true,
            "name" : "Wood",
            "pbrMetallicRoughness" : {
                "baseColorFactor" : [
                    0.800000011920929,
                    0.800000011920929,
                    0.800000011920929,
                    1
                ],
                "metallicFactor" : 0,
                "roughnessFactor" : 0.5
            }
        },
        {
            "doubleSided" : true,
            "name" : "AxeHead",
            "pbrMetallicRoughness" : {
                "baseColorFactor" : [
                    0.800000011920929,
                    0.800000011920929,
                    0.800000011920929,
                    1
                ],
                "metallicFactor" : 0,
                "roughnessFactor" : 0.5
            }
        }
    ],
    "meshes" : [
        {
            "name" : "Celler",
            "primitives" : [
                {
                    "attributes" : {
                        "POSITION" : 0,
                        "NORMAL" : 1,
                        "TEXCOORD_0" : 2
                    },
                    "indices" : 3,
                    "material" : 0
                },
                {
                    "attributes" : {
                        "POSITION" : 4,
                        "NORMAL" : 5,
                        "TEXCOORD_0" : 6
                    },
                    "indices" : 7,
                    "material" : 1
                }
            ]
        },
        {
            "name" : "PileOfLogs",
            "primitives" : [
                {
                    "attributes" : {
                        "POSITION" : 8,
                        "NORMAL" : 9,
                        "TEXCOORD_0" : 10
                    },
                    "indices" : 11,
                    "material" : 2
                },
                {
                    "attributes" : {
                        "POSITION" : 12,
                        "NORMAL" : 13,
                        "TEXCOORD_0" : 14
                    },
                    "indices" : 15,
                    "material" : 3
                }
            ]
        },
        {
            "name" : "WoodChop",
            "primitives" : [
                {
                    "attributes" : {
                        "POSITION" : 16,
                        "NORMAL" : 17,
                        "TEXCOORD_0" : 18
                    },
                    "indices" : 19,
                    "material" : 3
                },
                {
                    "attributes" : {
                        "POSITION" : 20,
                        "NORMAL" : 21,
                        "TEXCOORD_0" : 22
                    },
                    "indices" : 23,
                    "material" : 2
                },
                {
                    "attributes" : {
                        "POSITION" : 24,
                        "NORMAL" : 25,
                        "TEXCOORD_0" : 26
                    },
                    "indices" : 27,
                    "material" : 4
                },
                {
                    "attributes" : {
                        "POSITION" : 28,
                        "NORMAL" : 29,
                        "TEXCOORD_0" : 30
                    },
                    "indices" : 31,
                    "material" : 5
                }
            ]
        }
    ],
    "accessors" : [
        {
            "bufferView" : 0,
            "componentType" : 5126,
            "count" : 84,
            "max" : [
                1.1878563165664673,
                1,
                0.009550800547003746
            ],
            "min" : [
                -1.1878560781478882,
                -1.3245689868927002,
                -2.118867874145508
            ],
            "type" : "VEC3"
        },
        {
            "bufferView" : 1,
            "componentType" : 5126,
            "count" : 84,
            "type" : "VEC3"
        },
        {
            "bufferView" : 2,
            "componentType" : 5126,
            "count" : 84,
            "type" : "VEC2"
        },
        {
            "bufferView" : 3,
            "componentType" : 5123,
            "count" : 126,
            "type" : "SCALAR"
        },
        {
            "bufferView" : 4,
            "componentType" : 5126,
            "count" : 4,
            "max" : [
                0.450905442237854,
                0.9486516714096069,
                -0.11075006425380707
            ],
            "min" : [
                -0.4509059488773346,
                0.9486514329910278,
                -1.581315279006958
            ],
            "type" : "VEC3"
        },
        {
            "bufferView" : 5,
            "componentType" : 5126,
            "count" : 4,
            "type" : "VEC3"
        },
        {
            "bufferView" : 6,
            "componentType" : 5126,
            "count" : 4,
            "type" : "VEC2"
        },
        {
            "bufferView" : 7,
            "componentType" : 5123,
            "count" : 6,
            "type" : "SCALAR"
        },
        {
            "bufferView" : 8,
            "componentType" : 5126,
            "count" : 216,
            "max" : [
                5.831742286682129,
                1.0517398118972778,
                -1.18989896774292
            ],
            "min" : [
                3.5909366607666016,
                0.4697611927986145,
                -1.8946884870529175
            ],
            "type" : "VEC3"
        },
        {
            "bufferView" : 9,
            "componentType" : 5126,
            "count" : 216,
            "type" : "VEC3"
        },
        {
            "bufferView" : 10,
            "componentType" : 5126,
            "count" : 216,
            "type" : "VEC2"
        },
        {
            "bufferView" : 11,
            "componentType" : 5123,
            "count" : 540,
            "type" : "SCALAR"
        },
        {
            "bufferView" : 12,
            "componentType" : 5126,
            "count" : 624,
            "max" : [
                5.831742286682129,
                1.1052545309066772,
                -1.172001600265503
            ],
            "min" : [
                3.5909366607666016,
                0.4230388104915619,
                -1.951674222946167
            ],
            "type" : "VEC3"
        },
        {
            "bufferView" : 13,
            "componentType" : 5126,
            "count" : 624,
            "type" : "VEC3"
        },
        {
            "bufferView" : 14,
            "componentType" : 5126,
            "count" : 624,
            "type" : "VEC2"
        },
        {
            "bufferView" : 15,
            "componentType" : 5123,
            "count" : 984,
            "type" : "SCALAR"
        },
        {
            "bufferView" : 16,
            "componentType" : 5126,
            "count" : 32,
            "max" : [
                3.036581039428711,
                -0.5737517476081848,
                -0.5067224502563477
            ],
            "min" : [
                2.6365809440612793,
                -0.9737517833709717,
                -0.9233309626579285
            ],
            "type" : "VEC3"
        },
        {
            "bufferView" : 17,
            "componentType" : 5126,
            "count" : 32,
            "type" : "VEC3"
        },
        {
            "bufferView" : 18,
            "componentType" : 5126,
            "count" : 32,
            "type" : "VEC2"
        },
        {
            "bufferView" : 19,
            "componentType" : 5123,
            "count" : 48,
            "type" : "SCALAR"
        },
        {
            "bufferView" : 20,
            "componentType" : 5126,
            "count" : 16,
            "max" : [
                3.036581039428711,
                -0.5737517476081848,
                -0.5067224502563477
            ],
            "min" : [
                2.6365809440612793,
                -0.9737517833709717,
                -0.9233309626579285
            ],
            "type" : "VEC3"
        },
        {
            "bufferView" : 21,
            "componentType" : 5126,
            "count" : 16,
            "type" : "VEC3"
        },
        {
            "bufferView" : 22,
            "componentType" : 5126,
            "count" : 16,
            "type" : "VEC2"
        },
        {
            "bufferView" : 23,
            "componentType" : 5123,
            "count" : 36,
            "type" : "SCALAR"
        },
        {
            "bufferView" : 24,
            "componentType" : 5126,
            "count" : 162,
            "max" : [
                2.8738832473754883,
                0.12063330411911011,
                -1.0091712474822998
            ],
            "min" : [
                2.799278736114502,
                -0.8688379526138306,
                -1.5189272165298462
            ],
            "type" : "VEC3"
        },
        {
            "bufferView" : 25,
            "componentType" : 5126,
            "count" : 162,
            "type" : "VEC3"
        },
        {
            "bufferView" : 26,
            "componentType" : 5126,
            "count" : 162,
            "type" : "VEC2"
        },
        {
            "bufferView" : 27,
            "componentType" : 5123,
            "count" : 276,
            "type" : "SCALAR"
        },
        {
            "bufferView" : 28,
            "componentType" : 5126,
            "count" : 106,
            "max" : [
                2.8756141662597656,
                -0.597196638584137,
                -0.8660897612571716
            ],
            "min" : [
                2.7975478172302246,
                -0.8645431995391846,
                -1.1906952857971191
            ],
            "type" : "VEC3"
        },
        {
            "bufferView" : 29,
            "componentType" : 5126,
            "count" : 106,
            "type" : "VEC3"
        },
        {
            "bufferView" : 30,
            "componentType" : 5126,
            "count" : 106,
            "type" : "VEC2"
        },
        {
            "bufferView" : 31,
            "componentType" : 5123,
            "count" : 168,
            "type" : "SCALAR"
        }
    ],
    "bufferViews" : [
        {
            "buffer" : 0,
            "byteLength" : 1008,
            "byteOffset" : 0
        },
        {
            "buffer" : 0,
            "byteLength" : 1008,
            "byteOffset" : 1008
        },
        {
            "buffer" : 0,
            "byteLength" : 672,
            "byteOffset" : 2016
        },
        {
            "buffer" : 0,
            "byteLength" : 252,
            "byteOffset" : 2688
        },
        {
            "buffer" : 0,
            "byteLength" : 48,
            "byteOffset" : 2940
        },
        {
            "buffer" : 0,
            "byteLength" : 48,
            "byteOffset" : 2988
        },
        {
            "buffer" : 0,
            "byteLength" : 32,
            "byteOffset" : 3036
        },
        {
            "buffer" : 0,
            "byteLength" : 12,
            "byteOffset" : 3068
        },
        {
            "buffer" : 0,
            "byteLength" : 2592,
            "byteOffset" : 3080
        },
        {
            "buffer" : 0,
            "byteLength" : 2592,
            "byteOffset" : 5672
        },
        {
            "buffer" : 0,
            "byteLength" : 1728,
            "byteOffset" : 8264
        },
        {
            "buffer" : 0,
            "byteLength" : 1080,
            "byteOffset" : 9992
        },
        {
            "buffer" : 0,
            "byteLength" : 7488,
            "byteOffset" : 11072
        },
        {
            "buffer" : 0,
            "byteLength" : 7488,
            "byteOffset" : 18560
        },
        {
            "buffer" : 0,
            "byteLength" : 4992,
            "byteOffset" : 26048
        },
        {
            "buffer" : 0,
            "byteLength" : 1968,
            "byteOffset" : 31040
        },
        {
            "buffer" : 0,
            "byteLength" : 384,
            "byteOffset" : 33008
        },
        {
            "buffer" : 0,
            "byteLength" : 384,
            "byteOffset" : 33392
        },
        {
            "buffer" : 0,
            "byteLength" : 256,
            "byteOffset" : 33776
        },
        {
            "buffer" : 0,
            "byteLength" : 96,
            "byteOffset" : 34032
        },
        {
            "buffer" : 0,
            "byteLength" : 192,
            "byteOffset" : 34128
        },
        {
            "buffer" : 0,
            "byteLength" : 192,
            "byteOffset" : 34320
        },
        {
            "buffer" : 0,
            "byteLength" : 128,
            "byteOffset" : 34512
        },
        {
            "buffer" : 0,
            "byteLength" : 72,
            "byteOffset" : 34640
        },
        {
            "buffer" : 0,
            "byteLength" : 1944,
            "byteOffset" : 34712
        },
        {
            "buffer" : 0,
            "byteLength" : 1944,
            "byteOffset" : 36656
        },
        {
            "buffer" : 0,
            "byteLength" : 1296,
            "byteOffset" : 38600
        },
        {
            "buffer" : 0,
            "byteLength" : 552,
            "byteOffset" : 39896
        },
        {
            "buffer" : 0,
            "byteLength" : 1272,
            "byteOffset" : 40448
        },
        {
            "buffer" : 0,
            "byteLength" : 1272,
            "byteOffset" : 41720
        },
        {
            "buffer" : 0,
            "byteLength" : 848,
            "byteOffset" : 42992
        },
        {
            "buffer" : 0,
            "byteLength" : 336,
            "byteOffset" : 43840
        }
    ],
    "buffers" : [
        {
            "byteLength" : 44176,
            "uri" : "woodchopper.bin"
        }
    ]
}
