# Blender v2.79 (sub 0) OBJ File: 'Apple_1.blend'
# www.blender.org
mtllib Apple_1.mtl
o Apple_1_Plane.030
v -0.001928 0.106390 -0.020074
v -0.000393 -0.000345 -0.005102
v -0.019458 0.106394 0.003110
v -0.005016 -0.000345 0.001012
v -0.017333 0.193012 -0.036834
v -0.039781 0.193012 -0.007145
v -0.044316 0.230475 -0.052124
v -0.061845 0.230475 -0.028940
v -0.095302 0.240098 -0.077271
v -0.099934 0.240098 -0.071145
v -0.106262 0.240037 -0.080744
v 0.003407 0.107734 -0.016040
v 0.005016 0.000345 -0.001012
v -0.014123 0.107734 0.007144
v 0.000393 0.000345 0.005102
v -0.012492 0.196197 -0.033174
v -0.034941 0.196197 -0.003485
v -0.041144 0.236161 -0.049726
v -0.058674 0.236161 -0.026542
v -0.094590 0.247038 -0.076733
v -0.099223 0.247038 -0.070607
v -0.106262 0.247038 -0.080744
v 0.010951 0.106390 0.016934
v 0.002697 -0.000345 0.004349
v 0.015844 0.106394 -0.011716
v 0.003988 -0.000345 -0.003207
v 0.032341 0.193012 0.024723
v 0.038606 0.193012 -0.011966
v 0.063333 0.230475 0.025879
v 0.068226 0.230475 -0.002771
v 0.120172 0.240098 0.024739
v 0.121465 0.240098 0.017168
v 0.131501 0.240037 0.022778
v 0.004358 0.107734 0.015808
v -0.003987 0.000345 0.003207
v 0.009251 0.107734 -0.012842
v -0.002697 0.000345 -0.004349
v 0.026358 0.196197 0.023702
v 0.032624 0.196197 -0.012987
v 0.059414 0.236161 0.025210
v 0.064307 0.236161 -0.003440
v 0.119292 0.247038 0.024589
v 0.120585 0.247038 0.017018
v 0.131501 0.247038 0.022778
vn -0.7940 -0.0956 -0.6004
vn -0.7723 -0.2503 -0.5839
vn -0.6166 -0.6344 -0.4662
vn -0.1355 -0.9855 -0.1024
vn 0.0045 -1.0000 0.0034
vn 0.7940 0.0959 0.6003
vn 0.7720 0.2518 0.5837
vn 0.6163 0.6349 0.4660
vn 0.1448 0.9834 0.1095
vn 0.0000 1.0000 0.0000
vn 0.6121 -0.1009 -0.7843
vn 0.0807 -0.9949 0.0610
vn -0.5889 -0.0952 0.8026
vn 0.6146 -0.0426 -0.7877
vn -0.5904 -0.0426 0.8059
vn 0.5583 0.0609 -0.8274
vn -0.6440 0.0609 0.7626
vn 0.4562 0.0661 -0.8874
vn -0.7296 0.0661 0.6807
vn 0.3138 0.0206 -0.9493
vn -0.8278 0.0206 0.5606
vn 0.9812 -0.0956 0.1676
vn 0.9543 -0.2503 0.1630
vn 0.7620 -0.6344 0.1301
vn 0.1674 -0.9855 0.0286
vn -0.0055 -1.0000 -0.0009
vn -0.9812 0.0959 -0.1676
vn -0.9540 0.2518 -0.1629
vn -0.7616 0.6349 -0.1301
vn -0.1790 0.9834 -0.0306
vn -0.1825 -0.1009 0.9780
vn -0.0997 -0.9949 -0.0170
vn 0.1534 -0.0952 -0.9836
vn -0.1831 -0.0426 0.9822
vn 0.1533 -0.0426 -0.9873
vn -0.1148 0.0609 0.9915
vn 0.2208 0.0609 -0.9734
vn 0.0035 0.0661 0.9978
vn 0.3344 0.0661 -0.9401
vn 0.1583 0.0206 0.9872
vn 0.4769 0.0206 -0.8787
usemtl Green_Tree
s off
f 1//1 2//1 4//1 3//1
f 1//2 3//2 6//2 5//2
f 5//3 6//3 8//3 7//3
f 7//4 8//4 10//4 9//4
f 9//5 10//5 11//5
f 12//6 14//6 15//6 13//6
f 12//7 16//7 17//7 14//7
f 16//8 18//8 19//8 17//8
f 18//9 20//9 21//9 19//9
f 20//10 22//10 21//10
f 2//11 1//11 12//11 13//11
f 4//12 2//12 13//12 15//12
f 3//13 4//13 15//13 14//13
f 1//14 5//14 16//14 12//14
f 6//15 3//15 14//15 17//15
f 5//16 7//16 18//16 16//16
f 8//17 6//17 17//17 19//17
f 7//18 9//18 20//18 18//18
f 10//19 8//19 19//19 21//19
f 9//20 11//20 22//20 20//20
f 11//21 10//21 21//21 22//21
f 23//22 24//22 26//22 25//22
f 23//23 25//23 28//23 27//23
f 27//24 28//24 30//24 29//24
f 29//25 30//25 32//25 31//25
f 31//26 32//26 33//26
f 34//27 36//27 37//27 35//27
f 34//28 38//28 39//28 36//28
f 38//29 40//29 41//29 39//29
f 40//30 42//30 43//30 41//30
f 42//10 44//10 43//10
f 24//31 23//31 34//31 35//31
f 26//32 24//32 35//32 37//32
f 25//33 26//33 37//33 36//33
f 23//34 27//34 38//34 34//34
f 28//35 25//35 36//35 39//35
f 27//36 29//36 40//36 38//36
f 30//37 28//37 39//37 41//37
f 29//38 31//38 42//38 40//38
f 32//39 30//39 41//39 43//39
f 31//40 33//40 44//40 42//40
f 33//41 32//41 43//41 44//41
