# Blender v2.79 (sub 0) OBJ File: 'Apple_2.blend'
# www.blender.org
mtllib Apple_2.mtl
o Apple_2_Cube.057
v 0.015770 0.011459 0.048051
v 0.048051 0.011470 -0.015769
v -0.015769 0.011459 -0.048051
v -0.048050 0.011447 0.015769
v 0.035934 0.411378 -0.011793
v -0.021579 0.429661 0.007082
v 0.015974 0.420519 0.024449
v -0.001619 0.420519 -0.029160
v 0.067207 0.593678 0.000902
v 0.054050 0.594495 -0.041417
v 0.075109 0.577589 -0.024927
v 0.088102 0.732498 -0.040994
v 0.099256 0.722076 -0.048568
v 0.097876 0.732096 -0.012461
v 0.045222 0.517996 -0.014957
v 0.015831 0.528929 -0.032223
v 0.031481 0.528588 0.016395
v 0.002091 0.539521 -0.000871
v -0.031414 0.227930 0.010310
v -0.007439 0.224746 -0.036408
v 0.039557 0.221562 -0.012982
v 0.015581 0.224746 0.033736
v -0.024209 0.011450 0.047868
v 0.014121 0.048235 0.041944
v 0.042360 0.047964 -0.013902
v -0.013478 0.048235 -0.042155
v -0.041717 0.048507 0.013691
v -0.047866 0.011450 -0.024215
v 0.024213 0.011467 -0.047862
v 0.047864 0.011467 0.024207
v -0.054115 -0.000003 0.017759
v -0.017759 -0.000000 -0.054115
v 0.054115 0.000003 -0.017759
v 0.017759 -0.000000 0.054115
v -0.018040 0.368853 0.005921
v 0.003661 0.359010 -0.032252
v 0.043761 0.349166 -0.014361
v 0.022060 0.359010 0.023811
v 0.022071 0.413663 -0.029770
v 0.035419 0.413663 0.010903
v -0.007869 0.427375 0.024593
v -0.020911 0.427375 -0.015148
v 0.066653 0.650608 -0.024522
v 0.074708 0.635184 -0.047891
v 0.096845 0.627726 -0.033265
v 0.088507 0.637286 -0.013646
v 0.052814 0.609708 0.005178
v 0.001593 0.536928 -0.021053
v 0.076469 0.581333 -0.008051
v 0.033982 0.520845 -0.031239
v 0.113055 0.724178 -0.014323
v 0.091201 0.737500 -0.025198
v 0.121393 0.714618 -0.033942
v 0.013372 0.536733 0.015789
v 0.040035 0.610294 -0.036830
v 0.045679 0.520528 0.004847
v 0.066508 0.582093 -0.039468
v 0.063402 0.554246 -0.021022
v 0.039080 0.568813 -0.037816
v 0.053213 0.568183 0.006971
v 0.022657 0.581628 -0.007928
v -0.013973 0.227134 0.033513
v -0.031113 0.227134 -0.018716
v 0.039380 0.222358 0.016423
v 0.021991 0.222358 -0.036564
v -0.020862 0.048439 0.041767
v -0.041553 0.048439 -0.021283
v 0.021496 0.048031 -0.042002
v 0.042204 0.048031 0.021097
v -0.053906 -0.000002 -0.027268
v 0.027267 0.000002 -0.053905
v 0.053905 0.000002 0.027266
v -0.027266 -0.000002 0.053907
v -0.003579 0.366392 0.023911
v -0.017051 0.366392 -0.017141
v 0.028973 0.351627 -0.033348
v 0.043099 0.351627 0.009695
v 0.073328 0.645204 -0.011784
v 0.063554 0.645606 -0.040318
v 0.088750 0.630709 -0.047939
v 0.097578 0.630544 -0.020794
v 0.122126 0.717436 -0.021470
v 0.113298 0.717601 -0.048616
v 0.037120 0.585492 0.007952
v 0.025561 0.585878 -0.029422
v 0.064409 0.557516 -0.002999
v 0.053768 0.558103 -0.036245
v 0.224804 0.828869 -0.130935
v -0.165634 0.625480 -0.024432
v -0.135404 0.793572 -0.024215
v 0.285201 0.742871 -0.135413
v 0.018116 0.589332 0.129316
v 0.337717 0.745541 -0.044915
v -0.101554 0.628226 -0.104419
v 0.086314 0.734560 -0.251134
v -0.177176 0.635269 0.053572
v -0.153852 0.549507 -0.012480
v -0.099455 0.847974 -0.015235
v 0.034109 0.883797 -0.021999
v -0.030922 0.886858 -0.103553
v 0.132593 0.925684 -0.158216
v 0.071104 0.883855 -0.201737
v 0.146769 0.715328 0.175144
v -0.086008 0.799860 -0.100204
v 0.079429 0.820112 -0.218350
v -0.147587 0.774410 0.048509
v -0.135616 0.707059 -0.010925
v 0.082036 0.549288 0.117584
v 0.103406 0.822491 0.067283
v 0.240027 0.842102 -0.091181
v 0.298592 0.669870 -0.126958
v 0.253251 0.792488 -0.123995
v 0.013779 0.606072 0.158403
v 0.115549 0.622277 0.177850
v 0.047442 0.889371 0.029046
v 0.166750 0.888811 -0.151873
v 0.333639 0.701853 -0.047089
v -0.075097 0.886670 -0.096243
v -0.076264 0.582955 -0.075934
v 0.088752 0.685842 -0.259961
v 0.075673 0.865675 -0.216386
v -0.105079 0.797945 0.031727
v -0.163211 0.599871 0.045499
v 0.025856 0.938923 -0.040008
v 0.109597 0.937407 -0.156769
v -0.015779 0.890309 -0.102957
v 0.068090 0.888729 -0.188373
v 0.137333 0.774305 0.109756
v 0.318873 0.834470 -0.062038
v -0.090166 0.715913 -0.097727
v 0.083579 0.773941 -0.229860
v -0.172118 0.705066 0.055469
v 0.040642 0.611773 -0.022577
vt 0.000000 0.000000
vt 0.000000 0.000000
vt 0.000000 0.000000
vt 0.000000 0.000000
vt 0.000000 0.000000
vt 0.000000 0.000000
vt 0.000000 0.000000
vt 0.000000 0.000000
vt 0.000000 0.000000
vt 0.000000 0.000000
vt 0.000000 0.000000
vt 0.000000 0.000000
vt 0.000000 0.000000
vt 0.000000 0.000000
vt 0.000000 0.000000
vt 0.000000 0.000000
vt 0.000000 0.000000
vt 0.000000 0.000000
vt 0.000000 0.000000
vt 0.000000 0.000000
vt 0.000000 0.000000
vt 0.000000 0.000000
vt 0.000000 0.000000
vt 0.000000 0.000000
vt 0.000000 0.000000
vt 0.000000 0.000000
vt 0.000000 0.000000
vt 0.000000 0.000000
vt 0.000000 0.000000
vt 0.000000 0.000000
vt 0.000000 0.000000
vt 0.000000 0.000000
vt 0.000000 0.000000
vt 0.000000 0.000000
vt 0.000000 0.000000
vt 0.000000 0.000000
vt 0.000000 0.000000
vt 0.000000 0.000000
vt 0.000000 0.000000
vt 0.000000 0.000000
vt 0.000000 0.000000
vt 0.000000 0.000000
vt 0.000000 0.000000
vt 0.000000 0.000000
vt 0.000000 0.000000
vt 0.000000 0.000000
vt 0.000000 0.000000
vt 0.000000 0.000000
vt 0.000000 0.000000
vt 0.000000 0.000000
vt 0.000000 0.000000
vt 0.000000 0.000000
vt 0.000000 0.000000
vt 0.000000 0.000000
vt 0.000000 0.000000
vt 0.000000 0.000000
vt 0.000000 0.000000
vt 0.000000 0.000000
vt 0.000000 0.000000
vt 0.000000 0.000000
vt 0.000000 0.000000
vt 0.000000 0.000000
vt 0.000000 0.000000
vt 0.000000 0.000000
vt 0.000000 0.000000
vt 0.000000 0.000000
vt 0.000000 0.000000
vt 0.000000 0.000000
vt 0.000000 0.000000
vt 0.000000 0.000000
vt 0.000000 0.000000
vt 0.000000 0.000000
vt 0.000000 0.000000
vt 0.000000 0.000000
vt 0.000000 0.000000
vt 0.000000 0.000000
vt 0.000000 0.000000
vt 0.000000 0.000000
vt 0.000000 0.000000
vt 0.000000 0.000000
vt 0.000000 0.000000
vt 0.000000 0.000000
vt 0.000000 0.000000
vt 0.000000 0.000000
vt 0.000000 0.000000
vt 0.000000 0.000000
vt 0.000000 0.000000
vt 0.000000 0.000000
vt 0.000000 0.000000
vt 0.000000 0.000000
vt 0.000000 0.000000
vt 0.000000 0.000000
vt 0.000000 0.000000
vt 0.000000 0.000000
vt 0.000000 0.000000
vt 0.000000 0.000000
vt 0.000000 0.000000
vt 0.000000 0.000000
vt 0.000000 0.000000
vt 0.000000 0.000000
vt 0.000000 0.000000
vt 0.000000 0.000000
vt 0.000000 0.000000
vt 0.000000 0.000000
vt 0.000000 0.000000
vt 0.000000 0.000000
vt 0.000000 0.000000
vt 0.000000 0.000000
vt 0.000000 0.000000
vt 0.000000 0.000000
vt 0.000000 0.000000
vt 0.000000 0.000000
vt 0.000000 0.000000
vt 0.000000 0.000000
vt 0.000000 0.000000
vt 0.000000 0.000000
vt 0.000000 0.000000
vt 0.000000 0.000000
vt 0.000000 0.000000
vt 0.000000 0.000000
vt 0.000000 0.000000
vt 0.000000 0.000000
vt 0.000000 0.000000
vt 0.000000 0.000000
vt 0.000000 0.000000
vt 0.000000 0.000000
vt 0.000000 0.000000
vt 0.000000 0.000000
vt 0.000000 0.000000
vt 0.000000 0.000000
vt 0.000000 0.000000
vt 0.000000 0.000000
vt 0.000000 0.000000
vn -0.9983 0.0578 -0.0080
vn -0.5954 0.0464 -0.8021
vn 0.0012 0.0318 -0.9995
vn 0.8025 0.0162 -0.5964
vn 0.9999 0.0162 0.0049
vn 0.5932 0.0318 0.8044
vn -0.0043 0.0464 0.9989
vn 0.7947 -0.0303 -0.6063
vn -0.7832 0.0971 0.6142
vn 0.9994 -0.0303 0.0175
vn 0.5272 0.4672 0.7098
vn 0.5890 0.1583 0.7925
vn -0.0043 0.1634 0.9866
vn -0.0041 0.4672 0.8841
vn 0.7099 0.4670 -0.5273
vn 0.7934 0.1536 -0.5890
vn 0.9881 0.1536 0.0044
vn 0.8843 0.4670 0.0041
vn -0.5272 0.4672 -0.7098
vn -0.5880 0.1634 -0.7922
vn 0.0049 0.1583 -0.9874
vn 0.0041 0.4672 -0.8842
vn -0.7097 0.4674 0.5271
vn -0.7912 0.1684 0.5879
vn -0.9857 0.1684 -0.0047
vn -0.8840 0.4674 -0.0041
vn 0.9923 0.1235 0.0125
vn 0.7919 0.1235 -0.5980
vn 0.9958 -0.0907 0.0116
vn 0.5926 -0.0182 0.8053
vn 0.5780 0.0292 0.8155
vn -0.9948 0.0971 -0.0307
vn -0.5828 0.0706 -0.8096
vn 0.0103 0.0706 0.9975
vn -0.7754 0.2045 0.5974
vn -0.0176 0.0292 -0.9994
vn -0.9978 -0.0598 -0.0302
vn -0.7858 -0.0598 0.6156
vn -0.9785 0.2042 -0.0274
vn -0.5782 0.0726 -0.8127
vn 0.0019 -0.0106 0.9999
vn 0.5758 0.0520 0.8159
vn 0.0157 0.0747 0.9971
vn -0.0196 0.0520 -0.9985
vn -0.5910 -0.0106 -0.8066
vn 0.0014 -0.0212 -0.9998
vn 0.7966 -0.0919 -0.5975
vn 0.2165 0.0442 0.9753
vn 0.5893 -0.1316 0.7971
vn 0.6249 -0.0566 0.7786
vn 0.3419 0.1862 0.9211
vn 0.0085 -0.1408 -0.9900
vn -0.3958 0.0309 -0.9178
vn -0.3587 0.0867 -0.9294
vn -0.0264 -0.1527 -0.9879
vn 0.8948 -0.4455 0.0289
vn 0.7019 -0.4461 -0.5553
vn 0.7380 -0.4187 -0.5291
vn 0.9197 -0.3920 0.0221
vn 0.5426 -0.1468 0.8271
vn -0.9571 0.2712 0.1019
vn 0.9623 -0.2718 0.0049
vn -0.0054 -0.0063 -1.0000
vn 0.5040 0.8388 -0.2060
vn 0.1097 -0.0233 0.9937
vn -0.8165 0.2348 0.5275
vn -0.4733 0.1269 -0.8717
vn 0.8291 -0.2382 -0.5058
vn 0.6997 -0.4455 -0.5584
vn 0.8950 -0.4447 0.0336
vn -0.4926 0.1265 -0.8610
vn -0.0006 -0.1358 -0.9907
vn 0.5845 -0.1281 0.8012
vn 0.1113 0.1351 0.9846
vn -0.7122 0.4374 0.5490
vn -0.9001 0.4343 -0.0347
vn -0.7106 0.5717 0.4102
vn -0.8320 0.5545 -0.0170
vn -0.7994 0.0578 0.5980
vn -0.8622 0.5064 -0.0161
vn -0.7104 0.5548 0.4330
vn 0.4624 0.5716 -0.6778
vn 0.4343 0.4549 -0.7775
vn -0.6003 0.0681 -0.7968
vn 0.4052 0.4085 -0.8179
vn -0.2769 0.9118 -0.3031
vn -0.8149 0.2511 0.5224
vn -0.0242 -0.9988 0.0421
vn -0.3004 -0.7777 0.5522
vn -0.3509 0.1752 0.9199
vn -0.3707 0.2376 0.8979
vn -0.3814 0.6396 0.6674
vn -0.8151 0.2611 -0.5171
vn -0.5942 -0.4121 -0.6908
vn -0.9727 -0.2266 -0.0493
vn -0.9160 0.2446 -0.3180
vn -0.1441 0.7267 0.6717
vn 0.1698 -0.9277 -0.3325
vn -0.0175 0.6503 -0.7595
vn 0.2527 0.9219 0.2937
vn 0.7457 -0.1900 0.6386
vn -0.8885 0.3246 -0.3244
vn -0.8628 -0.0246 -0.5050
vn -0.9433 0.1090 -0.3135
vn -0.6566 0.6912 0.3019
vn -0.4897 -0.3729 0.7881
vn 0.4923 0.2407 -0.8365
vn 0.5711 0.2311 -0.7877
vn 0.0653 0.9962 -0.0574
vn 0.6179 -0.7438 0.2549
vn 0.8847 0.0456 -0.4640
vn 0.7314 0.2419 -0.6376
vn -0.5389 -0.3218 -0.7785
vn 0.6840 0.4600 0.5661
vn -0.3067 0.8401 -0.4475
vn 0.5784 0.4790 0.6603
vn -0.4677 0.7883 -0.3998
vn -0.6011 0.0554 -0.7973
vn 0.5195 0.0702 -0.8516
vn 0.4344 0.8196 0.3736
vn 0.1900 0.8967 0.3997
vn -0.1312 -0.6778 0.7235
vn -0.6544 0.2048 -0.7279
vn -0.2021 0.6269 0.7524
usemtl Wood
s off
f 63/1/1 67/2/1 27/3/1 19/4/1
f 63/1/2 20/5/2 26/6/2 67/2/2
f 65/7/3 68/8/3 26/6/3 20/5/3
f 65/7/4 21/9/4 25/10/4 68/8/4
f 64/11/5 69/12/5 25/10/5 21/9/5
f 64/11/6 22/13/6 24/14/6 69/12/6
f 66/15/7 24/14/7 22/13/7 62/16/7
f 65/7/8 76/17/8 37/18/8 21/9/8
f 62/16/9 74/19/9 35/20/9 19/4/9
f 21/9/10 37/18/10 77/21/10 64/11/10
f 1/22/11 34/23/11 72/24/11 30/25/11
f 1/22/12 30/25/12 69/12/12 24/14/12
f 1/22/13 24/14/13 66/15/13 23/26/13
f 1/22/14 23/26/14 73/27/14 34/23/14
f 2/28/15 33/29/15 71/30/15 29/31/15
f 2/28/16 29/31/16 68/8/16 25/10/16
f 2/28/17 25/10/17 69/12/17 30/25/17
f 2/28/18 30/25/18 72/24/18 33/29/18
f 3/32/19 32/33/19 70/34/19 28/35/19
f 3/32/20 28/35/20 67/2/20 26/6/20
f 3/32/21 26/6/21 68/8/21 29/31/21
f 3/32/22 29/31/22 71/30/22 32/33/22
f 4/36/23 31/37/23 73/27/23 23/26/23
f 4/36/24 23/26/24 66/15/24 27/3/24
f 4/36/25 27/3/25 67/2/25 28/35/25
f 4/36/26 28/35/26 70/34/26 31/37/26
f 5/38/27 40/39/27 77/21/27 37/18/27
f 5/38/28 37/18/28 76/17/28 39/40/28
f 15/41/29 56/42/29 40/39/29 5/38/29
f 17/43/30 7/44/30 40/39/30 56/42/30
f 77/21/31 38/45/31 22/13/31 64/11/31
f 19/4/32 35/20/32 75/46/32 63/1/32
f 75/46/33 36/47/33 20/5/33 63/1/33
f 22/13/34 38/45/34 74/19/34 62/16/34
f 18/48/35 6/49/35 41/50/35 54/51/35
f 20/5/36 36/47/36 76/17/36 65/7/36
f 6/49/37 42/52/37 75/46/37 35/20/37
f 6/49/38 35/20/38 74/19/38 41/50/38
f 18/48/39 48/53/39 42/52/39 6/49/39
f 16/54/40 8/55/40 42/52/40 48/53/40
f 7/44/41 41/50/41 74/19/41 38/45/41
f 7/44/42 38/45/42 77/21/42 40/39/42
f 17/43/43 54/51/43 41/50/43 7/44/43
f 8/55/44 39/40/44 76/17/44 36/47/44
f 8/55/45 36/47/45 75/46/45 42/52/45
f 16/54/46 50/56/46 39/40/46 8/55/46
f 15/41/47 5/38/47 39/40/47 50/56/47
f 9/57/48 47/58/48 84/59/48 60/60/48
f 9/57/49 60/60/49 86/61/49 49/62/49
f 9/57/50 49/62/50 81/63/50 46/64/50
f 9/57/51 46/64/51 78/65/51 47/58/51
f 10/66/52 57/67/52 87/68/52 59/69/52
f 10/66/53 59/69/53 85/70/53 55/71/53
f 10/66/54 55/71/54 79/72/54 44/73/54
f 10/66/55 44/73/55 80/74/55 57/67/55
f 11/75/56 49/62/56 86/61/56 58/76/56
f 11/75/57 58/76/57 87/68/57 57/67/57
f 11/75/58 57/67/58 80/74/58 45/77/58
f 11/75/59 45/77/59 81/63/59 49/62/59
f 46/64/60 81/63/60 82/78/60 51/79/60
f 79/72/61 43/80/61 52/81/61 12/82/61
f 81/63/62 45/77/62 53/83/62 82/78/62
f 80/74/63 44/73/63 13/84/63 83/85/63
f 51/79/64 82/78/64 53/83/64 83/85/64 13/84/64 12/82/64 52/81/64 14/86/64
f 78/65/65 46/64/65 51/79/65 14/86/65
f 43/80/66 78/65/66 14/86/66 52/81/66
f 44/73/67 79/72/67 12/82/67 13/84/67
f 45/77/68 80/74/68 83/85/68 53/83/68
f 15/41/69 50/56/69 87/68/69 58/76/69
f 15/41/70 58/76/70 86/61/70 56/42/70
f 16/54/71 48/53/71 85/70/71 59/69/71
f 16/54/72 59/69/72 87/68/72 50/56/72
f 17/43/73 56/42/73 86/61/73 60/60/73
f 17/43/74 60/60/74 84/59/74 54/51/74
f 18/48/75 54/51/75 84/59/75 61/87/75
f 18/48/76 61/87/76 85/70/76 48/53/76
f 47/58/77 133/88/77 61/87/77 84/59/77
f 43/80/78 79/72/78 55/71/78 133/88/78
f 66/15/79 62/16/79 19/4/79 27/3/79
f 61/87/80 133/88/80 55/71/80 85/70/80
f 133/88/81 47/58/81 78/65/81 43/80/81
usemtl Green_Tree
f 88/89/82 110/90/82 129/91/82 112/92/82
f 91/93/83 95/94/83 131/95/83 112/92/83
f 118/96/84 121/97/84 105/98/84 104/99/84
f 121/97/85 102/100/85 101/101/85 116/102/85
f 126/103/86 127/104/86 102/100/86 100/105/86
f 126/103/87 100/105/87 99/106/87 124/107/87
f 92/108/88 97/109/88 119/110/88 108/111/88
f 92/108/89 113/112/89 123/113/89 97/109/89
f 114/114/90 103/115/90 106/116/90 132/117/90
f 113/112/91 114/114/91 132/117/91 96/118/91
f 98/119/92 109/120/92 115/121/92 118/96/92
f 89/122/93 107/123/93 130/124/93 94/125/93
f 89/122/94 94/125/94 119/110/94 97/109/94
f 89/122/95 97/109/95 123/113/95 96/118/95
f 89/122/96 96/118/96 132/117/96 107/123/96
f 103/115/97 128/126/97 122/127/97 106/116/97
f 120/128/98 111/129/98 108/111/98 119/110/98
f 127/104/99 125/130/99 101/101/99 102/100/99
f 115/121/100 116/102/100 101/101/100 99/106/100
f 93/131/101 103/115/101 114/114/101 117/132/101
f 90/133/102 98/119/102 118/96/102 104/99/102
f 90/133/103 104/99/103 130/124/103 107/123/103
f 90/133/104 107/123/104 132/117/104 106/116/104
f 90/133/105 106/116/105 122/127/105 98/119/105
f 113/112/106 96/118/106 123/113/106
f 88/89/107 112/92/107 131/95/107 105/98/107
f 121/97/108 116/102/108 110/90/108 88/89/108 105/98/108
f 118/96/109 115/121/109 99/106/109 100/105/109
f 111/129/110 117/132/110 114/114/110 108/111/110
f 91/93/111 93/131/111 117/132/111 111/129/111
f 91/93/112 112/92/112 129/91/112 93/131/112
f 94/125/113 95/94/113 120/128/113 119/110/113
f 101/101/114 125/130/114 124/107/114 99/106/114
f 100/105/115 102/100/115 121/97/115 118/96/115
f 129/91/116 128/126/116 103/115/116 93/131/116
f 126/103/117 124/107/117 125/130/117 127/104/117
f 104/99/118 105/98/118 131/95/118 130/124/118
f 91/93/119 111/129/119 120/128/119 95/94/119
f 109/120/120 110/90/120 116/102/120 115/121/120
f 129/91/121 110/90/121 109/120/121 128/126/121
f 92/108/122 108/111/122 114/114/122 113/112/122
f 130/124/123 131/95/123 95/94/123 94/125/123
f 122/127/124 128/126/124 109/120/124 98/119/124
