# Blender v2.79 (sub 0) OBJ File: 'Bamboo_3.blend'
# www.blender.org
mtllib Bamboo_3.mtl
o Bamboo_3_Cylinder.017
v 0.033218 -0.004029 0.001834
v 0.019278 -0.004029 0.027114
v -0.009179 -0.004029 0.031977
v -0.030724 -0.004029 0.012761
v -0.029133 -0.004029 -0.016065
v -0.005604 -0.004029 -0.032793
v 0.022145 -0.004029 -0.024828
v 0.031678 0.241909 0.001749
v 0.030138 0.571636 0.001664
v 0.028598 0.901362 0.001579
v 0.027059 1.231089 0.001494
v 0.015703 1.231089 0.022086
v 0.016597 0.901362 0.023343
v 0.017490 0.571636 0.024600
v 0.018384 0.241909 0.025857
v -0.007477 1.231089 0.026048
v -0.007903 0.901362 0.027530
v -0.008328 0.571636 0.029012
v -0.008754 0.241909 0.030495
v -0.025027 1.231089 0.010395
v -0.026451 0.901362 0.010986
v -0.027875 0.571636 0.011578
v -0.029300 0.241909 0.012169
v -0.023731 1.231089 -0.013086
v -0.025081 0.901362 -0.013831
v -0.026432 0.571636 -0.014575
v -0.027782 0.241909 -0.015320
v -0.004565 1.231089 -0.026713
v -0.004825 0.901362 -0.028233
v -0.005085 0.571636 -0.029753
v -0.005344 0.241909 -0.031273
v 0.018038 1.231089 -0.020224
v 0.019065 0.901362 -0.021375
v 0.020092 0.571636 -0.022526
v 0.021118 0.241909 -0.023677
v 0.018432 0.224107 0.025925
v -0.008777 0.224107 0.030575
v -0.029377 0.224107 0.012201
v -0.027855 0.224107 -0.015360
v -0.005358 0.224107 -0.031355
v 0.021173 0.224107 -0.023739
v 0.031761 0.224107 0.001753
v 0.030234 0.551053 0.001669
v 0.017546 0.551053 0.024679
v -0.008355 0.551053 0.029105
v -0.027964 0.551053 0.011615
v -0.026516 0.551053 -0.014622
v -0.005101 0.551053 -0.029848
v 0.020156 0.551053 -0.022598
v 0.028680 0.883950 0.001583
v 0.016644 0.883950 0.023410
v -0.007925 0.883950 0.027608
v -0.026526 0.883950 0.011017
v -0.025153 0.883950 -0.013870
v -0.004838 0.883950 -0.028313
v 0.019119 0.883950 -0.021436
v 0.027136 1.214517 0.001498
v 0.015748 1.214517 0.022150
v -0.007499 1.214517 0.026122
v -0.025099 1.214517 0.010424
v -0.023799 1.214517 -0.013123
v -0.004578 1.214517 -0.026789
v 0.018090 1.214517 -0.020282
v 0.025604 1.542653 0.001413
v 0.014859 1.542653 0.020899
v -0.007075 1.542653 0.024647
v -0.023681 1.542653 0.009836
v -0.022455 1.542653 -0.012382
v -0.004320 1.542653 -0.025276
v 0.017068 1.542653 -0.019137
v -0.001035 0.908841 -0.012657
v 0.010154 0.908926 -0.011130
v -0.018765 0.901550 0.060578
v -0.016068 0.900216 0.065291
v 0.048125 0.884748 0.121746
v -0.009222 0.904169 0.052145
v -0.015463 0.902686 0.056873
v 0.000392 0.903021 0.056603
v -0.012224 0.899897 0.066594
v 0.010453 0.893113 0.091050
v 0.022992 0.896363 0.080626
v -0.030890 0.863453 0.190228
v -0.012505 0.901514 0.061046
v -0.021807 0.901770 0.059658
v -0.008408 0.897691 0.074351
v -0.031270 0.898176 0.071430
v -0.035444 0.883578 0.121134
v -0.011658 0.883237 0.123615
v -0.055071 0.896307 0.076508
v -0.060334 0.900683 0.061250
v -0.028630 0.904489 0.049980
v -0.023807 0.900134 0.065144
v -0.018174 0.904443 0.050716
v -0.015992 0.902308 0.058137
v -0.103548 0.893418 0.083717
v -0.001060 0.901788 -0.012209
v 0.010129 0.901874 -0.010683
v -0.018790 0.894498 0.061026
v -0.016093 0.893164 0.065739
v 0.000367 0.895969 0.057050
v -0.009247 0.897117 0.052593
v -0.015488 0.895634 0.057321
v 0.022967 0.889311 0.081074
v -0.012248 0.892845 0.067041
v 0.010428 0.886061 0.091498
v 0.048100 0.877696 0.122194
v -0.008433 0.890639 0.074798
v -0.012530 0.894462 0.061493
v -0.021832 0.894718 0.060105
v -0.011683 0.876185 0.124062
v -0.031295 0.891124 0.071877
v -0.035469 0.876526 0.121582
v -0.030915 0.856401 0.190675
v -0.103573 0.886366 0.084164
v -0.055096 0.889255 0.076956
v -0.028655 0.897437 0.050427
v -0.060359 0.893631 0.061698
v -0.018199 0.897390 0.051164
v -0.023832 0.893082 0.065591
v -0.016017 0.895256 0.058585
v 0.011636 0.730726 0.001982
v 0.004659 0.730812 0.010862
v -0.042568 0.723436 -0.050358
v -0.047998 0.722102 -0.050416
v -0.129170 0.706634 -0.023601
v -0.040122 0.726055 -0.037861
v -0.041043 0.724572 -0.045636
v -0.048830 0.724907 -0.031822
v -0.051067 0.721783 -0.047759
v -0.083634 0.714999 -0.040569
v -0.080986 0.718249 -0.024480
v -0.148272 0.685339 -0.126402
v -0.046138 0.723400 -0.045195
v -0.040236 0.723656 -0.052517
v -0.059688 0.719577 -0.048391
v -0.045603 0.720062 -0.066635
v -0.086368 0.705464 -0.095379
v -0.100540 0.705123 -0.076115
v -0.037944 0.718193 -0.089734
v -0.022120 0.722569 -0.086556
v -0.028436 0.726375 -0.053507
v -0.043956 0.722020 -0.057018
v -0.034361 0.726328 -0.044860
v -0.041866 0.724194 -0.046732
v -0.019640 0.715304 -0.135198
v 0.011263 0.723674 0.001734
v 0.004286 0.723760 0.010615
v -0.042942 0.716384 -0.050606
v -0.048371 0.715050 -0.050664
v -0.049204 0.717855 -0.032070
v -0.040495 0.719003 -0.038108
v -0.041416 0.717520 -0.045884
v -0.081359 0.711197 -0.024727
v -0.051440 0.714731 -0.048006
v -0.084008 0.707947 -0.040817
v -0.129543 0.699581 -0.023849
v -0.060062 0.712525 -0.048639
v -0.046512 0.716348 -0.045443
v -0.040609 0.716604 -0.052765
v -0.100914 0.698070 -0.076363
v -0.045976 0.713010 -0.066883
v -0.086741 0.698412 -0.095627
v -0.148646 0.678287 -0.126650
v -0.020013 0.708251 -0.135446
v -0.038317 0.711141 -0.089982
v -0.028809 0.719323 -0.053754
v -0.022494 0.715517 -0.086804
v -0.034734 0.719276 -0.045107
v -0.044329 0.714968 -0.057265
v -0.042239 0.717142 -0.046980
v -0.000057 1.338334 0.011804
v -0.009957 1.338420 0.006369
v 0.042739 1.331044 -0.050214
v 0.041910 1.329710 -0.055580
v 0.002211 1.314241 -0.131290
v 0.030807 1.333663 -0.045761
v 0.038329 1.332180 -0.047938
v 0.023429 1.332515 -0.053368
v 0.038787 1.329391 -0.058174
v 0.026380 1.322607 -0.089133
v 0.010939 1.325857 -0.083894
v 0.100517 1.292947 -0.166908
v 0.037062 1.331008 -0.052894
v 0.045249 1.331264 -0.048265
v 0.038005 1.327185 -0.066784
v 0.058302 1.327670 -0.055864
v 0.080010 1.313072 -0.100772
v 0.058692 1.312730 -0.111612
v 0.082342 1.325801 -0.052076
v 0.081787 1.330176 -0.035946
v 0.048150 1.333983 -0.036785
v 0.049082 1.329628 -0.052670
v 0.038653 1.333936 -0.041219
v 0.039275 1.331802 -0.048929
v 0.130182 1.322911 -0.041434
v 0.000126 1.331282 0.011395
v -0.009773 1.331368 0.005960
v 0.042922 1.323992 -0.050623
v 0.042093 1.322657 -0.055989
v 0.023612 1.325463 -0.053777
v 0.030991 1.326611 -0.046170
v 0.038512 1.325128 -0.048347
v 0.011122 1.318805 -0.084303
v 0.038971 1.322339 -0.058583
v 0.026564 1.315555 -0.089541
v 0.002394 1.307189 -0.131698
v 0.038188 1.320132 -0.067192
v 0.037246 1.323956 -0.053303
v 0.045432 1.324211 -0.048673
v 0.058876 1.305678 -0.112020
v 0.058485 1.320618 -0.056272
v 0.080194 1.306020 -0.101180
v 0.100701 1.285895 -0.167317
v 0.130366 1.315859 -0.041843
v 0.082525 1.318749 -0.052485
v 0.048334 1.326931 -0.037194
v 0.081971 1.323124 -0.036354
v 0.038836 1.326884 -0.041628
v 0.049266 1.322575 -0.053078
v 0.039459 1.324750 -0.049338
v -0.014915 0.364680 0.008896
v -0.013829 0.364766 -0.002345
v 0.058961 0.357390 0.023732
v 0.063564 0.356055 0.020852
v 0.117452 0.340587 -0.045511
v 0.050159 0.360009 0.014528
v 0.055129 0.358526 0.020579
v 0.054235 0.358861 0.004746
v 0.064714 0.355737 0.016959
v 0.088260 0.348953 -0.006662
v 0.077352 0.352203 -0.018781
v 0.188986 0.319293 0.030750
v 0.059182 0.357354 0.017459
v 0.058161 0.357610 0.026808
v 0.072315 0.353531 0.012842
v 0.070295 0.354016 0.035801
v 0.120126 0.339418 0.038017
v 0.121669 0.339076 0.014152
v 0.076306 0.352147 0.059383
v 0.061267 0.356522 0.065242
v 0.048758 0.360329 0.034006
v 0.063721 0.355974 0.028591
v 0.049083 0.360282 0.023529
v 0.056413 0.358148 0.021058
v 0.085415 0.349257 0.107539
v -0.014467 0.357628 0.008903
v -0.013381 0.357714 -0.002338
v 0.059409 0.350338 0.023740
v 0.064012 0.349003 0.020859
v 0.054683 0.351809 0.004753
v 0.050607 0.352957 0.014535
v 0.055577 0.351474 0.020586
v 0.077800 0.345151 -0.018774
v 0.065162 0.348685 0.016966
v 0.088708 0.341901 -0.006654
v 0.117900 0.333535 -0.045504
v 0.072763 0.346478 0.012849
v 0.059630 0.350302 0.017466
v 0.058609 0.350558 0.026815
v 0.122117 0.332024 0.014159
v 0.070743 0.346964 0.035808
v 0.120574 0.332366 0.038025
v 0.189434 0.312240 0.030757
v 0.085863 0.342205 0.107547
v 0.076754 0.345095 0.059391
v 0.049207 0.353277 0.034013
v 0.061715 0.349470 0.065249
v 0.049531 0.353230 0.023536
v 0.064169 0.348921 0.028598
v 0.056861 0.351096 0.021065
v 0.017393 1.542653 0.000960
v 0.010094 1.542653 0.014197
v -0.004806 1.542653 0.016744
v -0.016087 1.542653 0.006682
v -0.015254 1.542653 -0.008412
v -0.002934 1.542653 -0.017171
v 0.011595 1.542653 -0.013000
v 0.017393 0.651554 0.000960
v 0.010094 0.651554 0.014197
v -0.004806 0.651554 0.016744
v -0.016087 0.651554 0.006682
v -0.015254 0.651554 -0.008412
v -0.002934 0.651554 -0.017171
v 0.011595 0.651554 -0.013000
vn 0.0000 -1.0000 -0.0000
vn 0.8757 0.0058 0.4829
vn 0.1684 0.0058 0.9857
vn -0.6656 0.0058 0.7463
vn -0.9985 0.0058 -0.0551
vn -0.5794 0.0058 -0.8150
vn 0.2759 0.0058 -0.9612
vn 0.9235 0.0058 -0.3836
vn 0.8757 0.0042 0.4829
vn 0.1684 0.0042 0.9857
vn -0.6656 0.0042 0.7463
vn -0.9985 0.0042 -0.0551
vn -0.5794 0.0042 -0.8150
vn 0.2759 0.0042 -0.9612
vn 0.9235 0.0042 -0.3836
vn 0.0367 0.9925 0.1169
vn -0.0367 -0.9925 -0.1169
vn -0.8631 0.0350 0.5038
vn 0.9451 0.0174 0.3263
vn -0.9716 -0.0116 -0.2364
vn -0.1194 0.9925 -0.0275
vn 0.1194 -0.9925 0.0275
vn 0.0020 0.0350 -0.9994
vn -0.7595 0.0174 0.6502
vn 0.6954 -0.0116 -0.7185
vn 0.0076 0.9925 -0.1223
vn -0.0076 -0.9925 0.1223
vn 0.9863 0.0350 -0.1611
vn -0.7654 0.0174 -0.6433
vn 0.8224 -0.0116 0.5688
vn 0.0000 1.0000 0.0000
vn 0.1154 0.9925 -0.0413
vn -0.1154 -0.9925 0.0413
vn 0.5374 0.0350 0.8426
vn 0.2889 0.0174 -0.9572
vn -0.1980 -0.0116 0.9801
vn -0.2759 0.0000 0.9612
vn 0.9985 0.0000 0.0551
vn -0.1685 0.0000 -0.9857
vn -0.9235 0.0000 0.3836
vn 0.5795 0.0000 0.8150
vn 0.6656 0.0000 -0.7463
vn -0.8757 0.0000 -0.4829
vn -0.5795 0.0042 -0.8150
vn 0.1685 0.0042 0.9857
vn -0.0155 0.9597 0.2806
vn 0.0155 -0.9597 -0.2806
vn -0.9977 0.0079 0.0680
vn 0.1432 0.0622 0.9877
vn -0.3281 -0.0587 -0.9428
vn 0.0698 -0.0634 -0.9955
vn 0.3347 0.0585 0.9405
vn 0.9575 -0.0216 -0.2877
vn -0.4533 -0.0548 -0.8897
vn 0.6599 0.0452 0.7500
vn 0.4141 -0.0591 -0.9083
vn -0.5957 -0.0488 -0.8017
vn 0.7211 -0.0464 -0.6912
vn -0.9464 0.0238 0.3223
vn -0.7261 0.0461 0.6860
vn 0.8481 -0.0365 -0.5286
vn -0.6239 0.0517 0.7798
vn 0.9536 -0.0224 -0.3001
vn 0.1456 -0.0632 -0.9873
vn 0.9978 0.0007 0.0660
vn -0.7732 -0.0374 -0.6330
vn -0.9964 -0.0018 -0.0842
vn 0.9595 0.0145 0.2813
vn -0.2342 0.9597 -0.1553
vn 0.2342 -0.9597 0.1553
vn 0.4460 0.0079 -0.8950
vn -0.9245 0.0622 -0.3762
vn 0.9793 -0.0587 0.1939
vn 0.8234 -0.0634 0.5638
vn -0.9806 0.0585 -0.1870
vn -0.2362 -0.0216 0.9715
vn 0.9967 -0.0548 0.0590
vn -0.9808 0.0452 0.1898
vn 0.5741 -0.0591 0.8167
vn 0.9929 -0.0488 -0.1083
vn 0.2315 -0.0464 0.9717
vn 0.2007 0.0238 -0.9794
vn -0.2245 0.0461 -0.9734
vn 0.0270 -0.0365 0.9990
vn -0.3570 0.0517 -0.9327
vn -0.2235 -0.0224 0.9744
vn 0.7780 -0.0632 0.6250
vn -0.5617 0.0007 0.8273
vn 0.9372 -0.0374 -0.3468
vn 0.5767 -0.0018 -0.8170
vn -0.7280 0.0144 0.6854
vn 0.1150 0.9597 -0.2564
vn -0.1150 -0.9597 0.2564
vn 0.9558 0.0079 0.2940
vn 0.2203 0.0622 -0.9735
vn -0.0315 -0.0587 0.9978
vn -0.4220 -0.0634 0.9044
vn 0.0245 0.0585 -0.9980
vn -0.9970 -0.0216 -0.0746
vn 0.1044 -0.0548 0.9930
vn -0.3473 0.0452 -0.9367
vn -0.7121 -0.0591 0.6996
vn 0.2689 -0.0488 0.9619
vn -0.9209 -0.0464 0.3869
vn 0.9990 0.0238 0.0383
vn 0.9237 0.0461 -0.3803
vn -0.9812 -0.0365 0.1896
vn 0.8619 0.0517 -0.5044
vn -0.9979 -0.0224 -0.0615
vn -0.4897 -0.0632 0.8696
vn -0.9079 0.0007 -0.4192
vn 0.4950 -0.0374 0.8681
vn 0.9001 -0.0018 0.4357
vn -0.7950 0.0145 -0.6065
vn 0.2809 0.9597 0.0044
vn 0.2810 0.9597 0.0044
vn 0.2810 0.9597 0.0045
vn -0.2810 -0.9597 -0.0044
vn -0.2810 -0.9597 -0.0045
vn 0.1072 0.0078 0.9942
vn 0.9813 0.0622 -0.1819
vn -0.9292 -0.0587 0.3649
vn -0.9975 -0.0634 -0.0306
vn 0.9266 0.0585 -0.3714
vn -0.3251 -0.0216 -0.9454
vn -0.8712 -0.0548 0.4879
vn 0.7235 0.0452 -0.6888
vn -0.9239 -0.0591 -0.3780
vn -0.7777 -0.0488 0.6268
vn -0.7191 -0.0464 -0.6934
vn 0.3592 0.0238 0.9329
vn 0.7141 0.0461 0.6986
vn -0.5616 -0.0365 -0.8266
vn 0.8037 0.0517 0.5928
vn -0.3374 -0.0224 -0.9411
vn -0.9923 -0.0632 -0.1067
vn 0.0267 0.0007 -0.9996
vn -0.6021 -0.0374 0.7975
vn -0.0450 -0.0018 0.9990
vn 0.2434 0.0145 -0.9698
usemtl Green
s off
f 1//1 2//1 3//1 4//1 5//1 6//1 7//1
f 1//2 42//2 36//2 2//2
f 2//3 36//3 37//3 3//3
f 3//4 37//4 38//4 4//4
f 4//5 38//5 39//5 5//5
f 5//6 39//6 40//6 6//6
f 6//7 40//7 41//7 7//7
f 7//8 41//8 42//8 1//8
f 8//9 43//9 44//9 15//9
f 15//10 44//10 45//10 19//10
f 19//11 45//11 46//11 23//11
f 23//12 46//12 47//12 27//12
f 27//13 47//13 48//13 31//13
f 31//14 48//14 49//14 35//14
f 35//15 49//15 43//15 8//15
f 9//9 50//9 51//9 14//9
f 14//10 51//10 52//10 18//10
f 18//11 52//11 53//11 22//11
f 22//12 53//12 54//12 26//12
f 26//13 54//13 55//13 30//13
f 30//14 55//14 56//14 34//14
f 34//15 56//15 50//15 9//15
f 10//9 57//9 58//9 13//9
f 13//10 58//10 59//10 17//10
f 17//11 59//11 60//11 21//11
f 21//12 60//12 61//12 25//12
f 25//13 61//13 62//13 29//13
f 29//14 62//14 63//14 33//14
f 33//15 63//15 57//15 10//15
f 11//9 64//9 65//9 12//9
f 12//10 65//10 66//10 16//10
f 16//11 66//11 67//11 20//11
f 20//12 67//12 68//12 24//12
f 24//13 68//13 69//13 28//13
f 28//14 69//14 70//14 32//14
f 32//15 70//15 64//15 11//15
f 72//16 71//16 73//16 74//16
f 97//17 99//17 98//17 96//17
f 73//18 98//18 99//18 74//18
f 74//19 99//19 97//19 72//19
f 71//20 96//20 98//20 73//20
f 122//21 121//21 123//21 124//21
f 147//22 149//22 148//22 146//22
f 123//23 148//23 149//23 124//23
f 124//24 149//24 147//24 122//24
f 121//25 146//25 148//25 123//25
f 172//26 171//26 173//26 174//26
f 197//27 199//27 198//27 196//27
f 173//28 198//28 199//28 174//28
f 174//29 199//29 197//29 172//29
f 171//30 196//30 198//30 173//30
f 64//31 70//31 277//31 271//31
f 222//32 221//32 223//32 224//32
f 247//33 249//33 248//33 246//33
f 223//34 248//34 249//34 224//34
f 224//35 249//35 247//35 222//35
f 221//36 246//36 248//36 223//36
f 277//37 276//37 283//37 284//37
f 69//31 68//31 275//31 276//31
f 67//31 66//31 273//31 274//31
f 65//31 64//31 271//31 272//31
f 70//31 69//31 276//31 277//31
f 68//31 67//31 274//31 275//31
f 66//31 65//31 272//31 273//31
f 278//31 284//31 283//31 282//31 281//31 280//31 279//31
f 275//38 274//38 281//38 282//38
f 273//39 272//39 279//39 280//39
f 271//40 277//40 284//40 278//40
f 276//41 275//41 282//41 283//41
f 274//42 273//42 280//42 281//42
f 272//43 271//43 278//43 279//43
usemtl DarkGreen2
f 41//15 35//15 8//15 42//15
f 49//15 34//15 9//15 43//15
f 56//15 33//15 10//15 50//15
f 63//15 32//15 11//15 57//15
f 40//14 31//14 35//14 41//14
f 48//14 30//14 34//14 49//14
f 55//14 29//14 33//14 56//14
f 62//14 28//14 32//14 63//14
f 39//13 27//13 31//13 40//13
f 47//13 26//13 30//13 48//13
f 54//13 25//13 29//13 55//13
f 61//44 24//44 28//44 62//44
f 38//12 23//12 27//12 39//12
f 46//12 22//12 26//12 47//12
f 53//12 21//12 25//12 54//12
f 60//12 20//12 24//12 61//12
f 37//11 19//11 23//11 38//11
f 45//11 18//11 22//11 46//11
f 52//11 17//11 21//11 53//11
f 59//11 16//11 20//11 60//11
f 36//10 15//10 19//10 37//10
f 44//45 14//45 18//45 45//45
f 51//10 13//10 17//10 52//10
f 58//10 12//10 16//10 59//10
f 42//9 8//9 15//9 36//9
f 43//9 9//9 14//9 44//9
f 50//9 10//9 13//9 51//9
f 57//9 11//9 12//9 58//9
f 78//46 76//46 77//46 79//46
f 81//46 78//46 79//46 80//46
f 75//46 81//46 80//46
f 85//46 83//46 84//46 86//46
f 88//46 85//46 86//46 87//46
f 82//46 88//46 87//46
f 89//46 92//46 91//46 90//46
f 92//46 94//46 93//46 91//46
f 95//46 89//46 90//46
f 100//47 104//47 102//47 101//47
f 103//47 105//47 104//47 100//47
f 106//47 105//47 103//47
f 107//47 111//47 109//47 108//47
f 110//47 112//47 111//47 107//47
f 113//47 112//47 110//47
f 115//47 117//47 116//47 119//47
f 119//47 116//47 118//47 120//47
f 114//47 117//47 115//47
f 87//48 112//48 113//48 82//48
f 95//49 114//49 115//49 89//49
f 91//50 116//50 117//50 90//50
f 93//51 118//51 116//51 91//51
f 89//52 115//52 119//52 92//52
f 94//53 120//53 118//53 93//53
f 90//54 117//54 114//54 95//54
f 92//55 119//55 120//55 94//55
f 78//56 100//56 101//56 76//56
f 76//57 101//57 102//57 77//57
f 81//58 103//58 100//58 78//58
f 77//59 102//59 104//59 79//59
f 79//60 104//60 105//60 80//60
f 75//61 106//61 103//61 81//61
f 80//62 105//62 106//62 75//62
f 85//63 107//63 108//63 83//63
f 83//64 108//64 109//64 84//64
f 88//65 110//65 107//65 85//65
f 84//66 109//66 111//66 86//66
f 86//67 111//67 112//67 87//67
f 82//68 113//68 110//68 88//68
f 128//69 126//69 127//69 129//69
f 131//69 128//69 129//69 130//69
f 125//69 131//69 130//69
f 135//69 133//69 134//69 136//69
f 138//69 135//69 136//69 137//69
f 132//69 138//69 137//69
f 139//69 142//69 141//69 140//69
f 142//69 144//69 143//69 141//69
f 145//69 139//69 140//69
f 150//70 154//70 152//70 151//70
f 153//70 155//70 154//70 150//70
f 156//70 155//70 153//70
f 157//70 161//70 159//70 158//70
f 160//70 162//70 161//70 157//70
f 163//70 162//70 160//70
f 165//70 167//70 166//70 169//70
f 169//70 166//70 168//70 170//70
f 164//70 167//70 165//70
f 137//71 162//71 163//71 132//71
f 145//72 164//72 165//72 139//72
f 141//73 166//73 167//73 140//73
f 143//74 168//74 166//74 141//74
f 139//75 165//75 169//75 142//75
f 144//76 170//76 168//76 143//76
f 140//77 167//77 164//77 145//77
f 142//78 169//78 170//78 144//78
f 128//79 150//79 151//79 126//79
f 126//80 151//80 152//80 127//80
f 131//81 153//81 150//81 128//81
f 127//82 152//82 154//82 129//82
f 129//83 154//83 155//83 130//83
f 125//84 156//84 153//84 131//84
f 130//85 155//85 156//85 125//85
f 135//86 157//86 158//86 133//86
f 133//87 158//87 159//87 134//87
f 138//88 160//88 157//88 135//88
f 134//89 159//89 161//89 136//89
f 136//90 161//90 162//90 137//90
f 132//91 163//91 160//91 138//91
f 178//92 176//92 177//92 179//92
f 181//92 178//92 179//92 180//92
f 175//92 181//92 180//92
f 185//92 183//92 184//92 186//92
f 188//92 185//92 186//92 187//92
f 182//92 188//92 187//92
f 189//92 192//92 191//92 190//92
f 192//92 194//92 193//92 191//92
f 195//92 189//92 190//92
f 200//93 204//93 202//93 201//93
f 203//93 205//93 204//93 200//93
f 206//93 205//93 203//93
f 207//93 211//93 209//93 208//93
f 210//93 212//93 211//93 207//93
f 213//93 212//93 210//93
f 215//93 217//93 216//93 219//93
f 219//93 216//93 218//93 220//93
f 214//93 217//93 215//93
f 187//94 212//94 213//94 182//94
f 195//95 214//95 215//95 189//95
f 191//96 216//96 217//96 190//96
f 193//97 218//97 216//97 191//97
f 189//98 215//98 219//98 192//98
f 194//99 220//99 218//99 193//99
f 190//100 217//100 214//100 195//100
f 192//101 219//101 220//101 194//101
f 178//102 200//102 201//102 176//102
f 176//103 201//103 202//103 177//103
f 181//104 203//104 200//104 178//104
f 177//105 202//105 204//105 179//105
f 179//106 204//106 205//106 180//106
f 175//107 206//107 203//107 181//107
f 180//108 205//108 206//108 175//108
f 185//109 207//109 208//109 183//109
f 183//110 208//110 209//110 184//110
f 188//111 210//111 207//111 185//111
f 184//112 209//112 211//112 186//112
f 186//113 211//113 212//113 187//113
f 182//114 213//114 210//114 188//114
f 228//115 226//115 227//115 229//115
f 231//116 228//116 229//116 230//116
f 225//116 231//116 230//116
f 235//116 233//116 234//116 236//116
f 238//116 235//116 236//116 237//116
f 232//116 238//116 237//116
f 239//115 242//115 241//115 240//115
f 242//117 244//117 243//117 241//117
f 245//115 239//115 240//115
f 250//118 254//118 252//118 251//118
f 253//118 255//118 254//118 250//118
f 256//118 255//118 253//118
f 257//118 261//118 259//118 258//118
f 260//118 262//118 261//118 257//118
f 263//118 262//118 260//118
f 265//118 267//118 266//118 269//118
f 269//119 266//119 268//119 270//119
f 264//118 267//118 265//118
f 237//120 262//120 263//120 232//120
f 245//121 264//121 265//121 239//121
f 241//122 266//122 267//122 240//122
f 243//123 268//123 266//123 241//123
f 239//124 265//124 269//124 242//124
f 244//125 270//125 268//125 243//125
f 240//126 267//126 264//126 245//126
f 242//127 269//127 270//127 244//127
f 228//128 250//128 251//128 226//128
f 226//129 251//129 252//129 227//129
f 231//130 253//130 250//130 228//130
f 227//131 252//131 254//131 229//131
f 229//132 254//132 255//132 230//132
f 225//133 256//133 253//133 231//133
f 230//134 255//134 256//134 225//134
f 235//135 257//135 258//135 233//135
f 233//136 258//136 259//136 234//136
f 238//137 260//137 257//137 235//137
f 234//138 259//138 261//138 236//138
f 236//139 261//139 262//139 237//139
f 232//140 263//140 260//140 238//140
