# Blender v2.79 (sub 0) OBJ File: 'Bamboo_1.blend'
# www.blender.org
mtllib Bamboo_1.mtl
o Bamboo_1_Cylinder.019
v -0.014019 -0.001154 -0.006998
v 0.013787 -0.001070 -0.007468
v -0.033547 0.183979 -0.006005
v -0.025416 0.194790 -0.004156
v 0.149811 0.313913 0.016931
v -0.013023 0.159952 -0.009792
v -0.026705 0.173713 -0.007639
v 0.011908 0.167876 -0.008278
v -0.015604 0.196769 -0.003748
v 0.047779 0.250045 0.005558
v 0.074961 0.220103 0.000852
v -0.020559 0.509524 0.047734
v -0.018114 0.183099 -0.006021
v -0.041274 0.182687 -0.006282
v -0.003743 0.214767 -0.000684
v -0.060505 0.214970 -0.001125
v -0.054368 0.339623 0.019462
v 0.004506 0.338026 0.019691
v -0.116931 0.235322 0.001757
v -0.134788 0.199190 -0.004344
v -0.061105 0.160904 -0.010036
v -0.044354 0.196947 -0.003959
v -0.035342 0.159324 -0.010082
v -0.027581 0.177021 -0.007101
v -0.232888 0.268998 0.006337
v -0.013787 0.001070 0.007468
v 0.014019 0.001154 0.006998
v -0.033314 0.186203 0.008461
v -0.025184 0.197015 0.010310
v 0.012141 0.170100 0.006188
v -0.012790 0.162176 0.004675
v -0.026472 0.175937 0.006827
v 0.075194 0.222327 0.015318
v -0.015371 0.198993 0.010718
v 0.048011 0.252269 0.020024
v 0.150044 0.316137 0.031398
v -0.003510 0.216992 0.013782
v -0.017881 0.185324 0.008445
v -0.041041 0.184911 0.008184
v 0.004738 0.340250 0.034157
v -0.060273 0.217194 0.013342
v -0.054136 0.341847 0.033929
v -0.020326 0.511749 0.062200
v -0.232656 0.271222 0.020803
v -0.116698 0.237546 0.016224
v -0.060873 0.163128 0.004430
v -0.134555 0.201414 0.010122
v -0.035110 0.161548 0.004385
v -0.044122 0.199171 0.010507
v -0.027348 0.179245 0.007365
vn 0.0334 0.0164 -0.9993
vn -0.0334 -0.0164 0.9993
vn -0.7899 0.6079 -0.0808
vn 0.9794 0.1968 -0.0460
vn -0.9940 -0.1050 0.0321
vn 0.0082 0.1625 -0.9867
vn -0.0082 -0.1625 0.9867
vn -0.9802 0.1975 -0.0146
vn 0.2702 0.9510 -0.1506
vn -0.4476 -0.8827 0.1429
vn -0.0602 -0.9864 0.1526
vn 0.4539 0.8796 -0.1425
vn 0.9117 -0.4080 0.0481
vn -0.5648 -0.8142 0.1343
vn 0.7514 0.6502 -0.1121
vn 0.2921 -0.9460 0.1408
vn -0.6946 -0.7093 0.1202
vn 0.6247 -0.7732 0.1089
vn -0.8962 0.4405 -0.0533
vn -0.6303 0.7688 -0.1081
vn 0.7718 -0.6303 0.0845
vn -0.5168 0.8474 -0.1220
vn 0.9063 -0.4197 0.0500
vn 0.0159 -0.9883 0.1517
vn 0.9978 -0.0658 -0.0059
vn -0.8487 -0.5205 0.0937
vn -0.9988 0.0477 0.0087
vn 0.9878 0.1508 -0.0391
usemtl Green
s off
f 2//1 1//1 3//1 4//1
f 27//2 29//2 28//2 26//2
f 3//3 28//3 29//3 4//3
f 4//4 29//4 27//4 2//4
f 1//5 26//5 28//5 3//5
usemtl DarkGreen2
f 8//6 6//6 7//6 9//6
f 11//6 8//6 9//6 10//6
f 5//6 11//6 10//6
f 15//6 13//6 14//6 16//6
f 18//6 15//6 16//6 17//6
f 12//6 18//6 17//6
f 19//6 22//6 21//6 20//6
f 22//6 24//6 23//6 21//6
f 25//6 19//6 20//6
f 30//7 34//7 32//7 31//7
f 33//7 35//7 34//7 30//7
f 36//7 35//7 33//7
f 37//7 41//7 39//7 38//7
f 40//7 42//7 41//7 37//7
f 43//7 42//7 40//7
f 45//7 47//7 46//7 49//7
f 49//7 46//7 48//7 50//7
f 44//7 47//7 45//7
f 17//8 42//8 43//8 12//8
f 25//9 44//9 45//9 19//9
f 21//10 46//10 47//10 20//10
f 23//11 48//11 46//11 21//11
f 19//12 45//12 49//12 22//12
f 24//13 50//13 48//13 23//13
f 20//14 47//14 44//14 25//14
f 22//15 49//15 50//15 24//15
f 8//16 30//16 31//16 6//16
f 6//17 31//17 32//17 7//17
f 11//18 33//18 30//18 8//18
f 7//19 32//19 34//19 9//19
f 9//20 34//20 35//20 10//20
f 5//21 36//21 33//21 11//21
f 10//22 35//22 36//22 5//22
f 15//23 37//23 38//23 13//23
f 13//24 38//24 39//24 14//24
f 18//25 40//25 37//25 15//25
f 14//26 39//26 41//26 16//26
f 16//27 41//27 42//27 17//27
f 12//28 43//28 40//28 18//28
