# Blender v2.79 (sub 0) OBJ File: 'Beet_1.blend'
# www.blender.org
mtllib Beet_1.mtl
o Beet_1_Plane
v -0.051053 0.480658 -0.025958
v -0.126950 0.443929 -0.016501
v -0.086223 0.556733 -0.012750
v -0.162120 0.520004 -0.003293
v -0.048804 0.415643 -0.032505
v -0.078902 0.401078 -0.028755
v -0.126297 0.606697 -0.001181
v -0.162329 0.589260 0.003308
v 0.153018 0.488377 -0.060015
v 0.170913 0.459809 -0.065774
v 0.032807 0.318285 -0.055648
v 0.060005 0.299544 -0.062062
v 0.093851 0.452395 -0.053340
v 0.162435 0.405135 -0.069513
v 0.045960 0.382374 -0.051814
v 0.114544 0.335114 -0.067987
v -0.051757 0.481049 -0.030085
v -0.127654 0.444320 -0.020629
v -0.086926 0.557125 -0.016877
v -0.162823 0.520396 -0.007420
v -0.049507 0.416035 -0.036632
v -0.079605 0.401469 -0.032882
v -0.127000 0.607089 -0.005308
v -0.163033 0.589651 -0.000819
v 0.152314 0.488768 -0.064142
v 0.170209 0.460200 -0.069902
v 0.032104 0.318677 -0.059775
v 0.059302 0.299935 -0.066189
v 0.093147 0.452787 -0.057467
v 0.161731 0.405527 -0.073640
v 0.045256 0.382765 -0.055942
v 0.113840 0.335505 -0.072114
v 0.006002 -0.030640 -0.028469
v -0.018174 0.137550 -0.024348
v 0.031755 -0.030283 -0.015725
v 0.007375 0.140670 -0.011569
v 0.027595 -0.030419 0.012708
v 0.003293 0.139478 0.016851
v -0.000729 -0.030861 0.017537
v -0.024779 0.135621 0.021637
v -0.014075 -0.030997 -0.007912
v -0.038046 0.134429 -0.003826
v -0.005939 0.277951 -0.059885
v -0.022483 0.285433 -0.068353
v -0.008318 0.278617 -0.040003
v -0.026331 0.286511 -0.036184
v -0.035086 0.290723 -0.053705
v 0.028663 0.431050 -0.051269
v 0.013161 0.423345 -0.061354
v 0.026682 0.425916 -0.032005
v 0.009957 0.415038 -0.030185
v 0.001601 0.413449 -0.048324
v 0.004904 0.621687 -0.023779
v -0.062104 0.412605 -0.036920
v -0.072222 0.405069 -0.044679
v -0.063092 0.408095 -0.022706
v -0.073543 0.397826 -0.022120
v -0.078938 0.395950 -0.035504
v -0.141607 0.597254 -0.001107
v -0.002839 0.349618 -0.053242
v -0.013430 0.340781 -0.061993
v -0.003692 0.344444 -0.037734
v -0.014741 0.332519 -0.037087
v -0.020677 0.330302 -0.051968
v 0.057994 0.343213 -0.064297
v 0.063492 0.332957 -0.075940
v 0.063424 0.337467 -0.049637
v 0.071709 0.323790 -0.052634
v 0.071528 0.321025 -0.068550
v 0.138909 0.463828 -0.061329
v -0.025710 0.287335 -0.055223
v -0.021124 0.276786 -0.066664
v -0.020752 0.281517 -0.040876
v -0.013193 0.267486 -0.043589
v -0.013446 0.264616 -0.059410
vn 0.1673 -0.0931 0.9815
vn -0.1673 0.0931 -0.9815
vn -0.9653 0.1872 0.1823
vn -0.9859 -0.0188 0.1663
vn -0.8945 -0.4329 0.1115
vn -0.8083 0.5570 0.1906
vn -0.4987 0.8508 0.1657
vn 0.8083 -0.5570 -0.1906
vn 0.8356 0.5418 -0.0911
vn 0.4145 -0.8966 -0.1557
vn -0.5644 -0.8253 0.0180
vn -0.6592 -0.7509 0.0412
vn 0.9740 -0.1388 -0.1792
vn 0.9853 0.0505 -0.1632
vn -0.4145 0.8966 0.1557
vn 0.8945 0.4329 -0.1115
vn 0.5255 -0.8339 -0.1687
vn 0.7700 0.6341 -0.0712
vn 0.4392 0.0847 -0.8944
vn 0.9799 0.1364 0.1452
vn 0.1681 -0.0000 0.9858
vn 0.4141 -0.2571 -0.8732
vn -0.8762 -0.1382 0.4616
vn -0.7107 -0.0854 -0.6983
vn -0.7510 0.2377 -0.6161
vn 0.2017 0.3680 0.9077
vn -0.8731 0.1649 0.4589
vn 0.9814 0.1390 0.1328
vn -0.7252 -0.2060 -0.6570
vn -0.9065 -0.0352 0.4207
vn 0.5001 -0.0744 -0.8628
vn -0.8700 0.2330 0.4346
vn 0.9699 -0.2293 0.0818
vn 0.9861 0.1043 0.1292
vn -0.7768 0.0859 -0.6239
vn 0.1259 -0.0277 0.9917
vn 0.4706 0.1831 -0.8631
vn -0.8571 -0.3339 0.3923
vn 0.9159 0.3599 0.1779
vn -0.7417 -0.1181 -0.6603
vn 0.1184 -0.0640 0.9909
vn 0.4012 0.3379 -0.8514
vn -0.5764 -0.3242 -0.7501
vn 0.1504 -0.0911 0.9844
vn 0.2818 0.4808 -0.8303
vn -0.6518 -0.6686 0.3581
vn 0.7366 0.6283 0.2503
vn 0.9013 -0.4285 0.0642
vn -0.7406 0.4854 0.4646
vn 0.4956 -0.1910 -0.8473
vn 0.2503 -0.0601 0.9663
vn -0.6122 0.4271 -0.6654
vn 0.1828 -0.4207 -0.8886
vn 0.1719 -0.1036 0.9796
vn -0.4477 0.5581 -0.6986
vn 0.5578 -0.8185 0.1377
vn -0.4558 0.7585 0.4657
usemtl DarkGreen
s off
f 1//1 3//1 4//1 2//1
f 2//1 6//1 5//1 1//1
f 3//1 7//1 8//1 4//1
f 14//1 10//1 9//1 13//1
f 15//1 11//1 12//1 16//1
f 16//1 14//1 13//1 15//1
f 17//2 18//2 20//2 19//2
f 18//2 17//2 21//2 22//2
f 19//2 20//2 24//2 23//2
f 30//2 29//2 25//2 26//2
f 31//2 32//2 28//2 27//2
f 32//2 31//2 29//2 30//2
f 11//3 15//3 31//3 27//3
f 4//4 8//4 24//4 20//4
f 2//5 4//5 20//5 18//5
f 15//6 13//6 29//6 31//6
f 13//7 9//7 25//7 29//7
f 14//8 16//8 32//8 30//8
f 9//9 10//9 26//9 25//9
f 5//10 6//10 22//10 21//10
f 12//11 11//11 27//11 28//11
f 6//12 2//12 18//12 22//12
f 10//13 14//13 30//13 26//13
f 1//14 5//14 21//14 17//14
f 8//15 7//15 23//15 24//15
f 3//16 1//16 17//16 19//16
f 16//17 12//17 28//17 32//17
f 7//18 3//18 19//18 23//18
usemtl DarkRed
f 33//19 34//19 36//19 35//19
f 35//20 36//20 38//20 37//20
f 37//21 38//21 40//21 39//21
f 36//22 34//22 44//22 43//22
f 39//23 40//23 42//23 41//23
f 41//24 42//24 34//24 33//24
f 44//25 47//25 52//25 49//25
f 40//26 38//26 45//26 46//26
f 42//27 40//27 46//27 47//27
f 38//28 36//28 43//28 45//28
f 34//29 42//29 47//29 44//29
f 52//30 51//30 53//30
f 46//1 45//1 50//1 51//1
f 43//31 44//31 49//31 48//31
f 47//32 46//32 51//32 52//32
f 45//33 43//33 48//33 50//33
f 50//34 48//34 53//34
f 49//35 52//35 53//35
f 51//36 50//36 53//36
f 48//37 49//37 53//37
f 58//38 57//38 59//38
f 56//39 54//39 59//39
f 55//40 58//40 59//40
f 57//41 56//41 59//41
f 54//42 55//42 59//42
f 58//43 55//43 61//43 64//43
f 56//44 57//44 63//44 62//44
f 55//45 54//45 60//45 61//45
f 57//46 58//46 64//46 63//46
f 54//47 56//47 62//47 60//47
f 69//48 70//48 68//48
f 67//49 70//49 65//49
f 66//50 70//50 69//50
f 68//51 70//51 67//51
f 65//52 70//52 66//52
f 69//53 75//53 72//53 66//53
f 67//54 73//54 74//54 68//54
f 66//55 72//55 71//55 65//55
f 68//56 74//56 75//56 69//56
f 65//57 71//57 73//57 67//57
