# Blender v2.79 (sub 0) OBJ File: 'Beet_3.blend'
# www.blender.org
mtllib Beet_3.mtl
o Beet_3_Cube
v -0.078373 -0.086010 0.078373
v -0.071968 0.064987 0.071968
v -0.078373 -0.086010 -0.078373
v -0.071968 0.064987 -0.071968
v 0.078373 -0.086010 0.078373
v 0.071968 0.064987 0.071968
v 0.078373 -0.086010 -0.078373
v 0.071968 0.064987 -0.071968
v 0.000000 -0.104153 -0.101975
v 0.000000 0.087998 -0.093642
v 0.000000 -0.104153 0.101975
v 0.000000 0.087998 0.093642
v -0.101975 -0.104153 0.000000
v -0.093642 0.087998 0.000000
v 0.101975 -0.104153 0.000000
v 0.093642 0.087998 0.000000
v 0.000000 0.087998 0.000000
v 0.055420 -0.249276 0.000000
v -0.001352 -0.179812 0.000104
v -0.001543 -0.174296 0.024361
v 0.013185 -0.160166 -0.025658
v -0.002407 -0.171459 -0.023057
v 0.053073 -0.155380 0.000104
v 0.048804 -0.152421 -0.023057
v 0.014048 -0.163004 0.026962
v 0.049667 -0.155258 0.024361
v 0.055782 -0.245319 0.006218
v 0.061432 -0.241582 -0.008090
v 0.055782 -0.245319 -0.006218
v 0.067445 -0.233888 0.000000
v 0.065024 -0.233493 -0.006218
v 0.061432 -0.241582 0.008090
v 0.065024 -0.233493 0.006218
v 0.082721 -0.265779 0.000000
v 0.044317 -0.216815 -0.016874
v 0.051206 -0.202075 -0.014637
v 0.054566 -0.203599 0.000052
v 0.051638 -0.203494 0.015289
v 0.034549 -0.230832 0.000052
v 0.034384 -0.226089 0.015289
v 0.033953 -0.224671 -0.014637
v 0.044748 -0.218234 0.017526
v 0.024189 0.074741 -0.010928
v 0.066418 0.137905 -0.010928
v 0.014876 0.079354 -0.003377
v 0.057721 0.143593 -0.003377
v 0.018433 0.077592 0.008841
v 0.061043 0.141421 0.008841
v 0.029945 0.071890 0.008841
v 0.071794 0.134390 0.008841
v 0.033502 0.070128 -0.003377
v 0.075116 0.132217 -0.003377
v 0.122192 0.299105 -0.002670
v 0.129427 0.298719 -0.007934
v 0.124956 0.298958 0.005847
v 0.133899 0.298481 0.005847
v 0.136662 0.298333 -0.002670
v 0.165606 0.410715 -0.002670
v 0.169294 0.404478 -0.007934
v 0.167015 0.408332 0.005847
v 0.171572 0.400623 0.005847
v 0.172981 0.398240 -0.002670
v 0.256760 0.527977 -0.000316
v 0.173409 0.340457 -0.001958
v 0.174465 0.336521 -0.004919
v 0.173812 0.338954 0.002833
v 0.175117 0.334088 0.002833
v 0.175521 0.332585 -0.001958
v 0.242488 0.398349 -0.000316
v 0.136133 0.327146 -0.002081
v 0.137331 0.322681 -0.005439
v 0.136591 0.325440 0.003352
v 0.138071 0.319922 0.003352
v 0.138528 0.318217 -0.002081
v 0.103952 0.240597 -0.000623
v 0.179009 0.420516 -0.000623
v 0.251621 0.532304 -0.000623
v 0.173211 0.218494 -0.000623
v 0.057747 0.133924 -0.000623
v 0.034693 0.262699 -0.000623
v 0.287123 0.403573 -0.000623
v 0.070895 0.437460 -0.000623
v 0.295381 0.570845 -0.000623
v 0.315826 0.511379 -0.000623
v 0.187417 0.553230 -0.000623
v 0.101076 0.134374 -0.000623
v 0.037521 0.186810 -0.000623
v 0.311379 0.550587 -0.000623
v 0.257504 0.571834 -0.000623
v 0.103952 0.240597 -0.003715
v 0.179009 0.420516 -0.003715
v 0.251621 0.532304 -0.003715
v 0.173211 0.218494 -0.003715
v 0.057747 0.133924 -0.003716
v 0.034693 0.262699 -0.003715
v 0.287123 0.403573 -0.003715
v 0.070895 0.437460 -0.003715
v 0.295381 0.570845 -0.003715
v 0.315826 0.511379 -0.003715
v 0.187417 0.553230 -0.003715
v 0.101076 0.134374 -0.003716
v 0.037521 0.186810 -0.003716
v 0.311379 0.550587 -0.003715
v 0.257504 0.571834 -0.003715
v -0.011168 0.057548 -0.010928
v -0.037579 0.128791 -0.010928
v -0.001038 0.059873 -0.003377
v -0.027798 0.132304 -0.003377
v -0.004908 0.058985 0.008841
v -0.031534 0.130962 0.008841
v -0.017428 0.056111 0.008841
v -0.043624 0.126619 0.008841
v -0.021297 0.055223 -0.003377
v -0.047360 0.125278 -0.003377
v -0.054403 0.298535 -0.002670
v -0.061530 0.299839 -0.007934
v -0.057125 0.299033 0.005847
v -0.065935 0.300645 0.005847
v -0.068657 0.301143 -0.002670
v -0.070719 0.417174 -0.002670
v -0.075753 0.411964 -0.007934
v -0.072641 0.415184 0.005847
v -0.078864 0.408743 0.005847
v -0.080787 0.406753 -0.002670
v -0.132156 0.552395 -0.000316
v -0.094619 0.350648 -0.001958
v -0.096560 0.347064 -0.004919
v -0.095361 0.349279 0.002833
v -0.097760 0.344850 0.002833
v -0.098501 0.343481 -0.001958
v -0.148370 0.422996 -0.000316
v -0.061453 0.329046 -0.002081
v -0.063654 0.324982 -0.005439
v -0.062294 0.327493 0.003352
v -0.065015 0.322470 0.003352
v -0.065855 0.320917 -0.002081
v -0.023385 0.258131 -0.002093
v -0.020550 0.254413 -0.005491
v -0.022302 0.256711 0.003404
v -0.018797 0.252115 0.003404
v -0.017714 0.250694 -0.002093
v 0.001531 0.316877 -0.000209
v -0.057152 0.227761 -0.002234
v -0.053936 0.223544 -0.006087
v -0.055923 0.226150 0.004000
v -0.051948 0.220938 0.004000
v -0.050720 0.219327 -0.002234
v -0.050245 0.237390 -0.000623
v -0.081479 0.429820 -0.000623
v -0.126154 0.555412 -0.000623
v -0.122743 0.231971 -0.000623
v -0.030069 0.122905 -0.000623
v 0.022254 0.242809 -0.000623
v -0.190573 0.438440 -0.000623
v 0.027615 0.421199 -0.000623
v -0.159770 0.603059 -0.000623
v -0.193462 0.549964 -0.000623
v -0.058845 0.560859 -0.000623
v -0.072109 0.133403 -0.000623
v 0.001884 0.169650 -0.000623
v -0.180034 0.587068 -0.000623
v -0.122698 0.595226 -0.000623
v -0.050245 0.237390 -0.003715
v -0.081479 0.429820 -0.003715
v -0.126154 0.555412 -0.003715
v -0.122743 0.231971 -0.003715
v -0.030069 0.122905 -0.003716
v 0.022254 0.242809 -0.003715
v -0.190573 0.438440 -0.003715
v 0.027615 0.421199 -0.003715
v -0.159770 0.603059 -0.003715
v -0.193462 0.549964 -0.003715
v -0.058845 0.560859 -0.003715
v -0.072109 0.133403 -0.003716
v 0.001884 0.169650 -0.003716
v -0.180034 0.587068 -0.003715
v -0.122698 0.595226 -0.003715
v -0.088397 -0.010725 0.088397
v -0.088397 -0.010725 -0.088397
v 0.088397 -0.010725 -0.088397
v 0.088397 -0.010725 0.088397
v 0.000000 -0.007864 0.115018
v 0.000000 -0.007864 -0.115018
v 0.115018 -0.007864 0.000000
v -0.115018 -0.007864 0.000000
vn 0.3147 0.2329 0.9202
vn -0.9202 0.2329 -0.3147
vn 0.3147 0.2329 -0.9202
vn 0.9202 0.2329 0.3147
vn -0.1559 0.9754 0.1559
vn 0.9202 0.2329 -0.3147
vn -0.3147 0.2329 -0.9202
vn 0.1559 0.9754 0.1559
vn -0.2309 -0.7368 -0.6354
vn 0.3073 -0.6925 0.6527
vn 0.1559 0.9754 -0.1559
vn -0.9438 -0.1443 0.2974
vn -0.1559 0.9754 -0.1559
vn -0.5802 -0.7473 -0.3239
vn -0.5956 -0.7425 0.3065
vn 0.9062 0.3626 -0.2173
vn 0.4336 -0.0370 -0.9004
vn 0.9064 0.3620 0.2176
vn 0.7344 -0.6080 0.3015
vn -0.2349 -0.7188 0.6543
vn -0.5939 -0.7437 0.3069
vn 0.3068 -0.7157 -0.6274
vn 0.6653 0.2277 0.7110
vn -0.2713 -0.5887 0.7615
vn -0.2713 -0.5887 -0.7615
vn 0.6653 0.2277 -0.7110
vn -0.5964 -0.7251 -0.3442
vn 0.0327 -0.3737 0.9270
vn 0.4574 -0.0502 0.8878
vn 0.0102 -0.3466 -0.9380
vn 0.7090 -0.6260 -0.3247
vn -0.0479 -0.1832 -0.9819
vn 0.1746 -0.1197 0.9773
vn -0.0395 -0.1941 0.9802
vn -0.8009 -0.5700 -0.1836
vn 0.9872 0.0205 0.1582
vn 0.1675 -0.1058 -0.9802
vn 0.9805 0.0224 -0.1950
vn -0.8055 -0.5753 0.1422
vn -0.4902 0.3273 -0.8078
vn -0.7914 0.5281 0.3079
vn 0.0000 -0.0000 1.0000
vn -0.5541 0.2327 -0.7993
vn 0.7905 -0.5295 0.3078
vn 0.4898 -0.3279 -0.8078
vn 0.6029 -0.2233 -0.7659
vn 0.0062 0.0162 0.9998
vn 0.8941 -0.3327 0.2997
vn -0.8820 0.3639 0.2996
vn 0.5644 -0.2060 -0.7994
vn 0.8042 -0.5244 0.2797
vn -0.5996 0.2297 -0.7666
vn 0.9040 -0.3310 0.2706
vn -0.8977 0.3472 0.2714
vn -0.7587 0.5840 0.2888
vn 0.5390 -0.3340 -0.7733
vn 0.0384 0.0227 0.9990
vn -0.4759 0.3858 -0.7904
vn 0.6707 -0.6897 0.2729
vn -0.6202 0.7320 0.2819
vn 0.4615 -0.4509 -0.7640
vn 0.0372 0.0100 0.9993
vn -0.3881 0.4853 -0.7835
vn 0.2160 -0.5493 -0.8072
vn 0.0127 0.0034 0.9999
vn -0.1957 0.5554 -0.8082
vn 0.3436 -0.8874 0.3074
vn -0.3209 0.8956 0.3081
vn 0.5528 0.2046 -0.8078
vn 0.8924 0.3299 0.3079
vn 0.5930 0.0977 -0.7993
vn -0.8918 -0.3316 0.3078
vn -0.5526 -0.2052 -0.8078
vn -0.6383 -0.0773 -0.7659
vn -0.0022 0.0172 0.9998
vn -0.9470 -0.1161 0.2997
vn 0.9423 0.1492 0.2996
vn -0.5968 -0.0693 -0.7994
vn -0.9040 -0.3234 0.2797
vn 0.6366 0.0842 -0.7666
vn -0.9562 -0.1121 0.2706
vn 0.9537 0.1293 0.2714
vn 0.8735 0.3919 0.2888
vn -0.6018 -0.1998 -0.7733
vn -0.0321 0.0310 0.9990
vn 0.5524 0.2648 -0.7904
vn -0.8125 -0.5152 0.2729
vn 0.7732 0.5680 0.2819
vn -0.5536 -0.3314 -0.7640
vn -0.0339 0.0183 0.9993
vn 0.4901 0.3819 -0.7835
vn -0.3376 -0.4841 -0.8072
vn -0.0116 0.0063 0.9999
vn 0.3193 0.4948 -0.8082
vn -0.5403 -0.7833 0.3074
vn 0.5200 0.7967 0.3081
vn 0.9267 -0.2767 0.2541
vn -0.8894 0.3685 0.2705
vn 0.6569 -0.1701 -0.7345
vn 0.0517 0.0394 0.9979
vn -0.5744 0.2684 -0.7733
vn 0.4084 -0.4261 -0.8072
vn 0.0105 0.0080 0.9999
vn -0.3920 0.4395 -0.8082
vn 0.6548 -0.6904 0.3074
vn -0.6369 0.7067 0.3081
vn -0.3147 0.2329 0.9202
vn -0.2974 -0.1443 0.9438
vn -0.9202 0.2329 0.3147
vn -0.2974 -0.1443 -0.9438
vn 0.9438 -0.1443 -0.2974
vn 0.9438 -0.1443 0.2974
vn 0.2974 -0.1443 -0.9438
vn -0.9438 -0.1443 -0.2974
vn 0.2974 -0.1443 0.9438
vn 0.0000 0.0000 -1.0000
vn 0.8516 -0.5242 0.0000
vn 0.9663 -0.2573 0.0000
vn -0.9792 0.2028 0.0000
vn 0.7591 -0.6510 0.0000
vn 0.0104 -0.9999 0.0000
vn -0.9340 -0.3572 0.0000
vn -0.9993 -0.0372 0.0000
vn -0.7048 0.7094 0.0000
vn 0.0261 0.9997 0.0000
vn 0.7848 0.6197 0.0000
vn 0.9936 0.1127 0.0000
vn -0.2566 0.9665 0.0000
vn -0.9500 -0.3121 0.0000
vn -0.9997 -0.0259 0.0000
vn 0.9995 -0.0300 0.0000
vn -0.8895 -0.4569 0.0000
vn -0.2423 -0.9702 0.0000
vn 0.8256 -0.5643 0.0000
vn 0.9634 -0.2682 0.0000
vn 0.8503 0.5264 0.0000
vn 0.2067 0.9784 0.0000
vn -0.6195 0.7850 0.0000
vn -0.9403 0.3403 0.0000
vn 0.4739 0.8806 0.0000
usemtl DarkRed
s off
f 181//1 6//1 12//1 182//1
f 185//2 14//2 4//2 179//2
f 183//3 10//3 8//3 180//3
f 184//4 16//4 6//4 181//4
f 17//5 14//5 2//5 12//5
f 180//6 8//6 16//6 184//6
f 179//7 4//7 10//7 183//7
f 16//8 17//8 12//8 6//8
f 3//9 9//9 21//9 22//9
f 5//10 11//10 25//10 26//10
f 8//11 10//11 17//11 16//11
f 178//12 185//12 13//12 1//12
f 10//13 4//13 14//13 17//13
f 13//14 3//14 22//14 19//14
f 40//15 39//15 18//15 27//15
f 36//16 37//16 30//16 31//16
f 35//17 36//17 31//17 28//17
f 37//18 38//18 33//18 30//18
f 15//19 5//19 26//19 23//19
f 11//20 1//20 20//20 25//20
f 1//21 13//21 19//21 20//21
f 9//22 7//22 24//22 21//22
f 34//23 30//23 33//23 32//23
f 18//24 34//24 32//24 27//24
f 29//25 28//25 34//25 18//25
f 28//26 31//26 30//26 34//26
f 39//27 41//27 29//27 18//27
f 42//28 40//28 27//28 32//28
f 38//29 42//29 32//29 33//29
f 41//30 35//30 28//30 29//30
f 7//31 15//31 23//31 24//31
f 22//32 21//32 35//32 41//32
f 26//33 25//33 42//33 38//33
f 25//34 20//34 40//34 42//34
f 19//35 22//35 41//35 39//35
f 23//36 26//36 38//36 37//36
f 21//37 24//37 36//37 35//37
f 24//38 23//38 37//38 36//38
f 20//39 19//39 39//39 40//39
f 43//40 45//40 46//40 44//40
f 45//41 47//41 48//41 46//41
f 47//42 49//42 50//42 48//42
f 46//43 53//43 54//43 44//43
f 49//44 51//44 52//44 50//44
f 51//45 43//45 44//45 52//45
f 54//46 59//46 62//46 57//46
f 50//47 56//47 55//47 48//47
f 52//48 57//48 56//48 50//48
f 48//49 55//49 53//49 46//49
f 44//50 54//50 57//50 52//50
f 62//51 63//51 61//51
f 56//42 61//42 60//42 55//42
f 53//52 58//52 59//52 54//52
f 57//53 62//53 61//53 56//53
f 55//54 60//54 58//54 53//54
f 60//55 63//55 58//55
f 59//56 63//56 62//56
f 61//57 63//57 60//57
f 58//58 63//58 59//58
f 68//59 69//59 67//59
f 66//60 69//60 64//60
f 65//61 69//61 68//61
f 67//62 69//62 66//62
f 64//63 69//63 65//63
f 68//64 74//64 71//64 65//64
f 66//65 72//65 73//65 67//65
f 65//66 71//66 70//66 64//66
f 67//67 73//67 74//67 68//67
f 64//68 70//68 72//68 66//68
f 105//69 106//69 108//69 107//69
f 107//70 108//70 110//70 109//70
f 109//42 110//42 112//42 111//42
f 108//71 106//71 116//71 115//71
f 111//72 112//72 114//72 113//72
f 113//73 114//73 106//73 105//73
f 116//74 119//74 124//74 121//74
f 112//75 110//75 117//75 118//75
f 114//76 112//76 118//76 119//76
f 110//77 108//77 115//77 117//77
f 106//78 114//78 119//78 116//78
f 124//79 123//79 125//79
f 118//42 117//42 122//42 123//42
f 115//80 116//80 121//80 120//80
f 119//81 118//81 123//81 124//81
f 117//82 115//82 120//82 122//82
f 122//83 120//83 125//83
f 121//84 124//84 125//84
f 123//85 122//85 125//85
f 120//86 121//86 125//86
f 130//87 129//87 131//87
f 128//88 126//88 131//88
f 127//89 130//89 131//89
f 129//90 128//90 131//90
f 126//91 127//91 131//91
f 130//92 127//92 133//92 136//92
f 128//93 129//93 135//93 134//93
f 127//94 126//94 132//94 133//94
f 129//95 130//95 136//95 135//95
f 126//96 128//96 134//96 132//96
f 141//97 142//97 140//97
f 139//98 142//98 137//98
f 138//99 142//99 141//99
f 140//100 142//100 139//100
f 137//101 142//101 138//101
f 141//102 147//102 144//102 138//102
f 139//103 145//103 146//103 140//103
f 138//104 144//104 143//104 137//104
f 140//105 146//105 147//105 141//105
f 137//106 143//106 145//106 139//106
f 182//107 12//107 2//107 178//107
f 11//108 182//108 178//108 1//108
f 2//109 14//109 185//109 178//109
f 3//110 179//110 183//110 9//110
f 7//111 180//111 184//111 15//111
f 15//112 184//112 181//112 5//112
f 9//113 183//113 180//113 7//113
f 13//114 185//114 179//114 3//114
f 5//115 181//115 182//115 11//115
usemtl DarkGreen
f 75//42 79//42 86//42 78//42
f 75//42 80//42 87//42 79//42
f 76//42 75//42 78//42 81//42
f 91//116 90//116 95//116 97//116
f 77//42 76//42 81//42 84//42
f 92//116 91//116 97//116 100//116
f 77//42 83//42 89//42 85//42
f 77//42 84//42 88//42 83//42
f 90//116 93//116 101//116 94//116
f 90//116 94//116 102//116 95//116
f 91//116 96//116 93//116 90//116
f 78//117 93//117 96//117 81//117
f 92//116 99//116 96//116 91//116
f 81//118 96//118 99//118 84//118
f 92//116 100//116 104//116 98//116
f 92//116 98//116 103//116 99//116
f 82//119 97//119 95//119 80//119
f 86//120 101//120 93//120 78//120
f 79//121 94//121 101//121 86//121
f 87//122 102//122 94//122 79//122
f 80//123 95//123 102//123 87//123
f 77//42 85//42 82//42 76//42
f 85//124 100//124 97//124 82//124
f 83//125 98//125 104//125 89//125
f 88//126 103//126 98//126 83//126
f 84//127 99//127 103//127 88//127
f 89//128 104//128 100//128 85//128
f 76//42 82//42 80//42 75//42
f 148//42 151//42 159//42 152//42
f 148//42 152//42 160//42 153//42
f 149//42 154//42 151//42 148//42
f 164//116 170//116 168//116 163//116
f 150//42 157//42 154//42 149//42
f 165//116 173//116 170//116 164//116
f 150//42 158//42 162//42 156//42
f 150//42 156//42 161//42 157//42
f 163//116 167//116 174//116 166//116
f 163//116 168//116 175//116 167//116
f 164//116 163//116 166//116 169//116
f 151//129 154//129 169//129 166//129
f 165//116 164//116 169//116 172//116
f 154//130 157//130 172//130 169//130
f 165//116 171//116 177//116 173//116
f 165//116 172//116 176//116 171//116
f 155//131 153//131 168//131 170//131
f 159//132 151//132 166//132 174//132
f 152//133 159//133 174//133 167//133
f 160//134 152//134 167//134 175//134
f 153//135 160//135 175//135 168//135
f 158//136 155//136 170//136 173//136
f 149//42 148//42 153//42 155//42
f 156//137 162//137 177//137 171//137
f 161//138 156//138 171//138 176//138
f 157//139 161//139 176//139 172//139
f 162//140 158//140 173//140 177//140
f 150//42 149//42 155//42 158//42
