# Blender v2.79 (sub 0) OBJ File: 'Beet_Crop.blend'
# www.blender.org
mtllib Beet_Crop.mtl
o Beet_Crop_Cube.016
v 0.033871 -0.249420 0.033232
v 0.021414 -0.256847 -0.003882
v 0.021912 -0.258484 0.030651
v 0.022102 -0.263957 0.013068
v 0.041821 -0.232411 0.030651
v 0.045201 -0.232532 0.013068
v 0.041323 -0.230774 -0.003882
v 0.033373 -0.247783 -0.006463
v 0.104837 -0.318274 0.013008
v 0.079897 -0.283878 0.020183
v 0.076958 -0.293659 0.022344
v 0.079897 -0.283878 0.005833
v 0.082726 -0.283979 0.013008
v 0.071031 -0.298756 0.005833
v 0.076958 -0.293659 0.003673
v 0.071031 -0.298756 0.020183
v 0.039548 -0.176749 0.041119
v -0.001554 -0.185687 0.044121
v 0.038551 -0.173475 -0.013598
v 0.043478 -0.176890 0.013128
v -0.020542 -0.195444 -0.013598
v -0.002551 -0.182413 -0.016599
v -0.019546 -0.198718 0.041119
v -0.019325 -0.205083 0.013128
v 0.071190 -0.303338 0.013008
v -0.017765 0.103952 0.013008
v -0.175571 0.025418 0.013008
v 0.140041 0.025418 0.013008
v 0.090292 0.103952 0.013008
v 0.099907 -0.117778 0.013008
v -0.125822 0.103952 0.013008
v -0.135438 -0.117778 0.013008
v -0.017765 0.025418 -0.144798
v -0.017765 0.025418 0.170814
v -0.017765 0.103952 0.121065
v -0.017765 -0.117778 0.130681
v -0.017765 0.103952 -0.095049
v -0.017765 -0.117778 -0.104664
v 0.103516 0.008615 0.134290
v 0.103516 0.008615 -0.108273
v -0.139047 0.008615 -0.108273
v -0.139047 0.008615 0.134290
v 0.065282 0.077400 -0.070039
v 0.072672 -0.096841 -0.077429
v 0.065282 0.077400 0.096055
v 0.072672 -0.096841 0.103445
v -0.100812 0.077400 -0.070039
v -0.108202 -0.096841 -0.077429
v -0.100812 0.077400 0.096055
v -0.108202 -0.096841 0.103445
v 0.028186 0.083904 -0.045588
v 0.079993 0.152208 -0.063968
v 0.017329 0.091833 -0.039343
v 0.069898 0.161303 -0.058042
v 0.020753 0.093837 -0.025060
v 0.073032 0.162862 -0.043637
v 0.033727 0.087148 -0.022478
v 0.085063 0.154730 -0.040661
v 0.038321 0.081009 -0.035165
v 0.089365 0.148146 -0.053225
v -0.055645 0.046806 -0.056292
v -0.097233 0.123761 -0.062264
v -0.042518 0.052444 -0.052337
v -0.084700 0.130692 -0.058442
v -0.042551 0.054242 -0.037623
v -0.084505 0.131996 -0.043677
v -0.055698 0.049716 -0.032484
v -0.096919 0.125871 -0.038374
v -0.063791 0.045120 -0.044022
v -0.104785 0.120781 -0.049861
v -0.019911 0.062364 0.026353
v -0.030218 0.156717 0.048738
v -0.004956 0.060624 0.033073
v -0.015322 0.156528 0.055803
v -0.006928 0.057287 0.049098
v -0.017272 0.152598 0.071696
v -0.023102 0.056964 0.052282
v -0.033372 0.150358 0.074453
v -0.031126 0.060102 0.038225
v -0.041373 0.152904 0.060264
v 0.106511 0.188235 -0.065102
v 0.102392 0.194591 -0.053516
v 0.090740 0.201136 -0.056031
v 0.087657 0.198825 -0.069171
v 0.097404 0.190852 -0.074778
v -0.035561 0.198733 0.068224
v -0.027971 0.196568 0.081533
v -0.013018 0.197498 0.078843
v -0.011366 0.200238 0.063870
v -0.025298 0.201002 0.057307
v -0.119475 0.172547 -0.058841
v -0.112252 0.177488 -0.048371
v -0.100457 0.181839 -0.052912
v -0.100390 0.179588 -0.066187
v -0.112144 0.173845 -0.069852
vn -0.5780 -0.7421 -0.3394
vn 0.7634 0.5456 -0.3457
vn -0.2349 -0.7188 0.6543
vn -0.0395 -0.1941 0.9802
vn 0.1746 -0.1197 0.9773
vn 0.1675 -0.1058 -0.9802
vn -0.1952 -0.6181 0.7615
vn 0.2917 0.0505 -0.9552
vn 0.7090 -0.6260 -0.3247
vn -0.0479 -0.1832 -0.9819
vn -0.1952 -0.6181 -0.7615
vn -0.5939 -0.7437 0.3069
vn -0.0450 -0.2656 -0.9630
vn 0.7344 -0.6080 0.3015
vn 0.6314 0.3095 -0.7110
vn 0.6314 0.3095 0.7110
vn -0.7634 0.5456 0.3457
vn 0.9805 0.0224 -0.1950
vn 0.7998 0.5675 0.1955
vn -0.0335 -0.2791 0.9597
vn 0.3036 0.0451 0.9517
vn -0.5802 -0.7473 -0.3239
vn -0.8009 -0.5700 -0.1836
vn 0.9132 -0.2955 -0.2808
vn -0.3457 0.5456 0.7634
vn -0.1559 0.9754 0.1559
vn 0.3457 0.5456 -0.7634
vn 0.3068 -0.7157 -0.6274
vn 0.9872 0.0205 0.1582
vn -0.8055 -0.5753 0.1422
vn -0.5816 -0.7565 0.2991
vn 0.7634 0.5456 0.3457
vn -0.1559 0.9754 -0.1559
vn 0.1559 0.9754 -0.1559
vn -0.2808 -0.2955 0.9132
vn -0.9132 -0.2955 0.2808
vn 0.2808 -0.2955 -0.9132
vn -0.7634 0.5456 -0.3457
vn 0.9132 -0.2955 0.2808
vn 0.8032 0.5680 -0.1795
vn -0.2309 -0.7368 -0.6354
vn -0.9132 -0.2955 -0.2808
vn 0.3457 0.5456 0.7634
vn -0.3457 0.5456 -0.7634
vn -0.2808 -0.2955 -0.9132
vn 0.1559 0.9754 0.1559
vn 0.2808 -0.2955 0.9132
vn 0.3073 -0.6925 0.6527
vn -0.4416 0.0944 -0.8922
vn -0.7798 0.6177 0.1016
vn -0.0414 0.2888 0.9565
vn 0.7533 -0.4413 0.4877
vn 0.5082 -0.5616 -0.6530
vn 0.2600 0.0653 -0.9634
vn 0.8806 0.4707 -0.0544
vn 0.2859 0.2267 0.9311
vn -0.7038 -0.3326 0.6277
vn -0.7215 -0.4323 -0.5408
vn 0.4191 0.2524 -0.8722
vn 0.9876 0.0742 0.1382
vn 0.1930 -0.2065 0.9592
vn -0.8686 -0.2030 0.4520
vn -0.7308 0.0806 -0.6778
vn -0.3941 0.9058 -0.1556
vn -0.0294 0.9838 0.1768
vn 0.5150 0.8154 -0.2642
vn -0.8678 0.0246 0.4963
vn 0.3173 -0.0486 -0.9471
vn 0.1871 -0.1709 0.9674
vn 0.4274 0.1261 -0.8952
vn 0.9899 -0.1076 0.0922
vn -0.7918 -0.1200 0.5989
vn 0.9535 0.2983 -0.0421
vn -0.7741 -0.3144 -0.5495
vn -0.5102 -0.0121 -0.8600
vn -0.0235 0.3169 0.9482
vn 0.8690 -0.2410 0.4321
vn -0.8807 0.4540 0.1350
vn 0.5835 -0.4508 -0.6755
vn 0.2660 0.2581 0.9288
vn -0.7352 0.2060 -0.6458
usemtl DarkRed
s off
f 4//1 2//1 14//1 25//1
f 40//2 43//2 29//2 28//2
f 36//3 50//3 23//3 18//3
f 18//4 23//4 3//4 1//4
f 17//5 18//5 1//5 5//5
f 22//6 19//6 7//6 8//6
f 25//7 9//7 11//7 16//7
f 8//8 7//8 12//8 15//8
f 44//9 30//9 20//9 19//9
f 21//10 22//10 8//10 2//10
f 14//11 15//11 9//11 25//11
f 50//12 32//12 24//12 23//12
f 2//13 8//13 15//13 14//13
f 30//14 46//14 17//14 20//14
f 15//15 12//15 13//15 9//15
f 9//16 13//16 10//16 11//16
f 42//17 49//17 31//17 27//17
f 19//18 20//18 6//18 7//18
f 6//19 5//19 10//19 13//19
f 1//20 3//20 16//20 11//20
f 5//21 1//21 11//21 10//21
f 32//22 48//22 21//22 24//22
f 24//23 21//23 2//23 4//23
f 44//24 40//24 28//24 30//24
f 34//25 35//25 49//25 42//25
f 26//26 31//26 49//26 35//26
f 33//27 37//27 43//27 40//27
f 38//28 44//28 19//28 22//28
f 20//29 17//29 5//29 6//29
f 23//30 24//30 4//30 3//30
f 3//31 4//31 25//31 16//31
f 28//32 29//32 45//32 39//32
f 37//33 47//33 31//33 26//33
f 43//34 37//34 26//34 29//34
f 36//35 34//35 42//35 50//35
f 50//36 42//36 27//36 32//36
f 38//37 33//37 40//37 44//37
f 27//38 31//38 47//38 41//38
f 30//39 28//39 39//39 46//39
f 7//40 6//40 13//40 12//40
f 48//41 38//41 22//41 21//41
f 32//42 27//42 41//42 48//42
f 39//43 45//43 35//43 34//43
f 41//44 47//44 37//44 33//44
f 48//45 41//45 33//45 38//45
f 29//46 26//46 35//46 45//46
f 46//47 39//47 34//47 36//47
f 46//48 36//48 18//48 17//48
f 51//49 53//49 54//49 52//49
f 53//50 55//50 56//50 54//50
f 55//51 57//51 58//51 56//51
f 57//52 59//52 60//52 58//52
f 59//53 51//53 52//53 60//53
f 61//54 62//54 64//54 63//54
f 63//55 64//55 66//55 65//55
f 65//56 66//56 68//56 67//56
f 67//57 68//57 70//57 69//57
f 69//58 70//58 62//58 61//58
f 71//59 72//59 74//59 73//59
f 73//60 74//60 76//60 75//60
f 75//61 76//61 78//61 77//61
f 77//62 78//62 80//62 79//62
f 79//63 80//63 72//63 71//63
f 95//64 91//64 92//64 93//64 94//64
f 90//65 86//65 87//65 88//65 89//65
f 84//66 83//66 82//66 81//66 85//66
f 80//67 78//67 87//67 86//67
f 64//68 62//68 95//68 94//68
f 78//69 76//69 88//69 87//69
f 74//70 72//70 90//70 89//70
f 76//71 74//71 89//71 88//71
f 70//72 68//72 92//72 91//72
f 66//73 64//73 94//73 93//73
f 62//74 70//74 91//74 95//74
f 54//75 84//75 85//75 52//75
f 58//76 82//76 83//76 56//76
f 60//77 81//77 82//77 58//77
f 56//78 83//78 84//78 54//78
f 52//79 85//79 81//79 60//79
f 68//80 66//80 93//80 92//80
f 72//81 80//81 86//81 90//81
