# Blender v2.79 (sub 0) OBJ File: 'Cactus_1.blend'
# www.blender.org
mtllib Cactus_1.mtl
o Cactus_1_Cube.009
v 0.000000 -0.003216 0.000000
v 0.046355 0.129953 0.000892
v -0.000000 0.163824 0.000000
v -0.046355 0.129953 -0.000892
v -0.000892 0.129953 0.046355
v 0.000892 0.129953 -0.046355
v -0.000515 0.003450 0.026761
v 0.026761 0.003450 0.000515
v 0.000515 0.003450 -0.026761
v -0.026761 0.003450 -0.000515
v -0.020071 -0.001549 -0.000386
v -0.030346 0.052585 -0.000584
v -0.019685 0.003450 -0.020457
v 0.000386 -0.001549 -0.020071
v 0.000584 0.052585 -0.030346
v 0.020457 0.003450 -0.019685
v 0.020071 -0.001549 0.000386
v 0.030346 0.052585 0.000584
v 0.019685 0.003450 0.020457
v -0.000386 -0.001549 0.020071
v -0.000584 0.052585 0.030346
v -0.038256 0.099515 -0.000736
v 0.000736 0.099515 -0.038256
v 0.038256 0.099515 0.000736
v -0.000736 0.099515 0.038256
v -0.030891 0.156860 -0.000594
v 0.000594 0.156860 -0.030891
v 0.030891 0.156860 0.000594
v -0.000594 0.156860 0.030891
v 0.035435 0.129953 -0.034097
v 0.034097 0.129953 0.035435
v -0.035435 0.129953 0.034097
v -0.034097 0.129953 -0.035435
v -0.020457 0.003450 0.019685
v -0.000563 0.019974 0.029284
v 0.029284 0.019974 0.000563
v 0.000563 0.019974 -0.029284
v -0.029284 0.019974 -0.000563
v -0.015153 -0.000253 0.014581
v -0.023197 0.052585 0.022321
v -0.014581 -0.000253 -0.015153
v -0.022321 0.052585 -0.023197
v 0.014581 -0.000253 0.015153
v 0.022321 0.052585 0.023197
v 0.015153 -0.000253 -0.014581
v 0.023197 0.052585 -0.022321
v -0.029244 0.099515 0.028140
v -0.028140 0.099515 -0.029244
v 0.029244 0.099515 -0.028140
v 0.028140 0.099515 0.029244
v -0.024492 0.151444 0.023568
v -0.023568 0.151444 -0.024492
v 0.024492 0.151444 -0.023568
v 0.023568 0.151444 0.024492
v -0.022385 0.019974 0.021540
v -0.021540 0.019974 -0.022385
v 0.022385 0.019974 -0.021540
v 0.021540 0.019974 0.022385
vn -0.9420 -0.0309 -0.3343
vn -0.2978 -0.0309 -0.9541
vn 0.3343 -0.0309 -0.9420
vn 0.9541 -0.0309 -0.2978
vn 0.9420 -0.0309 0.3343
vn 0.2978 -0.0309 0.9541
vn -0.3343 -0.0309 0.9420
vn 0.3302 -0.1579 -0.9306
vn -0.0967 -0.9902 -0.1005
vn 0.1005 -0.9902 -0.0967
vn 0.0967 -0.9902 0.1005
vn -0.1005 -0.9902 0.0967
vn 0.9306 -0.1579 0.3302
vn 0.9138 -0.2448 0.3242
vn 0.9255 -0.2448 -0.2889
vn 0.8149 0.5048 -0.2848
vn 0.8033 0.5048 0.3159
vn -0.9306 -0.1579 -0.3302
vn -0.2942 -0.1579 -0.9426
vn -0.3302 -0.1579 0.9306
vn 0.9426 -0.1579 -0.2942
vn -0.9426 -0.1579 0.2942
vn 0.2466 0.9396 -0.2373
vn -0.2373 0.9396 -0.2466
vn -0.2466 0.9396 0.2373
vn 0.2373 0.9396 0.2466
vn -0.9138 -0.2448 -0.3242
vn -0.9255 -0.2448 0.2889
vn -0.8149 0.5048 0.2848
vn -0.8033 0.5048 -0.3159
vn -0.3242 -0.2448 0.9138
vn 0.2889 -0.2448 0.9255
vn 0.2848 0.5048 0.8149
vn -0.3159 0.5048 0.8033
vn 0.3242 -0.2448 -0.9138
vn -0.2889 -0.2448 -0.9255
vn -0.2848 0.5048 -0.8149
vn 0.3159 0.5048 -0.8033
vn 0.1969 -0.8305 0.5210
vn 0.2948 -0.1434 0.9447
vn -0.3310 -0.1434 0.9327
vn -0.2168 -0.8305 0.5131
vn 0.5210 -0.8305 -0.1969
vn 0.9447 -0.1434 -0.2948
vn 0.9327 -0.1434 0.3310
vn 0.5131 -0.8305 0.2168
vn -0.1969 -0.8305 -0.5210
vn -0.2948 -0.1434 -0.9447
vn 0.3310 -0.1434 -0.9327
vn 0.2168 -0.8305 -0.5131
vn -0.5210 -0.8305 0.1969
vn -0.9447 -0.1434 0.2948
vn -0.9327 -0.1434 -0.3310
vn -0.5131 -0.8305 -0.2168
vn -0.9541 -0.0309 0.2978
vn 0.2942 -0.1579 0.9426
usemtl DarkGreen2
s off
f 42//1 56//1 38//1 12//1
f 42//2 15//2 37//2 56//2
f 46//3 57//3 37//3 15//3
f 46//4 18//4 36//4 57//4
f 44//5 58//5 36//5 18//5
f 44//6 21//6 35//6 58//6
f 55//7 35//7 21//7 40//7
f 15//8 23//8 49//8 46//8
f 1//9 11//9 41//9 14//9
f 1//10 14//10 45//10 17//10
f 1//11 17//11 43//11 20//11
f 1//12 20//12 39//12 11//12
f 18//13 24//13 50//13 44//13
f 2//14 31//14 50//14 24//14
f 2//15 24//15 49//15 30//15
f 2//16 30//16 53//16 28//16
f 2//17 28//17 54//17 31//17
f 12//18 22//18 48//18 42//18
f 42//19 48//19 23//19 15//19
f 21//20 25//20 47//20 40//20
f 24//21 18//21 46//21 49//21
f 40//22 47//22 22//22 12//22
f 3//23 28//23 53//23 27//23
f 3//24 27//24 52//24 26//24
f 3//25 26//25 51//25 29//25
f 3//26 29//26 54//26 28//26
f 4//27 33//27 48//27 22//27
f 4//28 22//28 47//28 32//28
f 4//29 32//29 51//29 26//29
f 4//30 26//30 52//30 33//30
f 5//31 32//31 47//31 25//31
f 5//32 25//32 50//32 31//32
f 5//33 31//33 54//33 29//33
f 5//34 29//34 51//34 32//34
f 6//35 30//35 49//35 23//35
f 6//36 23//36 48//36 33//36
f 6//37 33//37 52//37 27//37
f 6//38 27//38 53//38 30//38
f 7//39 20//39 43//39 19//39
f 7//40 19//40 58//40 35//40
f 7//41 35//41 55//41 34//41
f 7//42 34//42 39//42 20//42
f 8//43 17//43 45//43 16//43
f 8//44 16//44 57//44 36//44
f 8//45 36//45 58//45 19//45
f 8//46 19//46 43//46 17//46
f 9//47 14//47 41//47 13//47
f 9//48 13//48 56//48 37//48
f 9//49 37//49 57//49 16//49
f 9//50 16//50 45//50 14//50
f 10//51 11//51 39//51 34//51
f 10//52 34//52 55//52 38//52
f 10//53 38//53 56//53 13//53
f 10//54 13//54 41//54 11//54
f 55//55 40//55 12//55 38//55
f 25//56 21//56 44//56 50//56
