# Blender v2.79 (sub 0) OBJ File: 'Carrot_Crop.blend'
# www.blender.org
mtllib Carrot_Crop.mtl
o Carrot_Crop_Cylinder.014
v -0.007743 -0.035128 0.004619
v -0.046433 0.152098 0.010847
v -0.073806 0.234447 0.013769
v -0.000513 -0.035543 0.028924
v -0.035484 0.151469 0.047635
v -0.059532 0.233827 0.061493
v -0.060992 0.145989 0.015170
v -0.023326 -0.042128 0.009207
v -0.087433 0.229079 0.017846
v -0.016100 -0.042542 0.033496
v -0.050065 0.145359 0.051888
v -0.073118 0.228503 0.065545
v -0.013540 -0.062614 0.010545
v 0.027300 0.070410 -0.001771
v 0.053487 0.127477 -0.005852
v -0.016115 -0.066319 -0.009061
v 0.023465 0.064896 -0.030960
v 0.048517 0.120330 -0.043680
v 0.038940 0.062950 -0.002632
v -0.001113 -0.070748 0.009632
v 0.064487 0.119579 -0.006474
v -0.003687 -0.074449 -0.009958
v 0.035105 0.057435 -0.031823
v 0.059487 0.112389 -0.044527
v -0.014220 -0.058256 0.038833
v -0.001096 0.120812 0.051590
v 0.012364 0.200948 0.063677
v -0.004195 -0.058256 0.017321
v 0.014014 0.120811 0.019167
v 0.031926 0.200948 0.021700
v 0.012273 0.118205 0.057801
v 0.000117 -0.061370 0.045506
v 0.025394 0.197651 0.069740
v 0.010136 -0.061370 0.024009
v 0.027369 0.118205 0.025410
v 0.044949 0.197651 0.027779
v -0.002443 -0.045518 0.001194
v 0.004066 0.148069 -0.017493
v 0.009778 0.234733 -0.036217
v -0.027802 -0.045518 0.001194
v -0.034311 0.148069 -0.017493
v -0.040023 0.234733 -0.036217
v 0.004042 0.145351 -0.033132
v -0.002451 -0.048824 -0.015596
v 0.009776 0.231327 -0.051443
v -0.027794 -0.048824 -0.015596
v -0.034286 0.145351 -0.033132
v -0.040021 0.231327 -0.051443
v 0.000285 -0.196494 -0.088856
v 0.000715 0.008427 -0.079537
v 0.075330 -0.196494 -0.057771
v 0.068884 0.008427 -0.051301
v 0.106415 -0.196494 0.017275
v 0.097120 0.008427 0.016867
v 0.075330 -0.196494 0.092321
v 0.068884 0.008427 0.085036
v 0.000285 -0.196494 0.123406
v 0.000715 0.008427 0.113272
v -0.074761 -0.196494 0.092321
v -0.067453 0.008427 0.085036
v -0.105846 -0.196494 0.017275
v -0.095689 0.008427 0.016867
v -0.074761 -0.196494 -0.057771
v -0.067453 0.008427 -0.051301
v 0.069719 0.008427 -0.049284
v 0.001267 0.038143 -0.043575
v 0.001270 0.038143 0.076256
v -0.058651 0.038143 0.016337
v 0.001269 0.052828 0.016297
v 0.061553 0.038143 0.016340
v -0.020050 -0.610095 -0.004258
v -0.004855 -0.611083 0.002049
v 0.001438 -0.611493 0.017275
v -0.004855 -0.611083 0.032501
v -0.020050 -0.610095 0.038808
v -0.035244 -0.609107 0.032501
v -0.041538 -0.608697 0.017275
v -0.035244 -0.609107 0.002049
v -0.021774 -0.636606 0.028636
v -0.021774 -0.636606 0.005914
v -0.033111 -0.635869 0.017275
v -0.022398 -0.646195 0.017275
v -0.010437 -0.637344 0.017275
v 0.065274 -0.400245 0.017275
v 0.044370 -0.398885 -0.033300
v -0.056567 -0.392320 0.067850
v -0.006099 -0.395603 0.088799
v -0.006099 -0.395603 -0.054249
v -0.056567 -0.392320 -0.033300
v 0.044370 -0.398885 0.067850
v -0.077472 -0.390961 0.017275
v 0.000093 -0.035280 -0.096520
v 0.000285 -0.089526 -0.102238
v 0.084793 -0.089526 -0.067233
v 0.080689 -0.035280 -0.063136
v 0.119797 -0.089526 0.017275
v 0.114073 -0.035280 0.017460
v 0.084793 -0.089526 0.101783
v 0.080689 -0.035280 0.098056
v 0.000285 -0.089526 0.136788
v 0.000093 -0.035280 0.131440
v -0.084224 -0.089526 0.101783
v -0.080503 -0.035280 0.098056
v -0.119228 -0.089526 0.017275
v -0.113887 -0.035280 0.017460
v -0.084224 -0.089526 -0.067233
v -0.080503 -0.035280 -0.063136
vn -0.3802 -0.1148 -0.9178
vn 0.9178 -0.1148 0.3802
vn 0.3802 -0.1148 0.9178
vn -0.3802 -0.1148 0.9178
vn -0.9178 -0.1148 0.3802
vn -0.9178 -0.1148 -0.3802
vn 0.3006 0.9058 -0.2985
vn 0.3802 -0.1148 -0.9178
vn 0.8877 -0.2683 -0.3741
vn 0.9178 -0.1148 -0.3802
vn 0.6218 0.7396 -0.2576
vn 0.2519 0.7528 0.6081
vn -0.6037 0.7569 0.2501
vn -0.2542 0.7475 -0.6137
vn -0.2938 0.9096 0.2938
vn 0.2560 0.7432 -0.6181
vn -0.2501 0.7568 0.6039
vn 0.2949 0.9083 0.2967
vn -0.6078 0.7531 -0.2518
vn 0.6176 0.7437 0.2558
vn -0.2958 0.9083 -0.2959
vn -0.8638 0.3548 -0.3578
vn -0.8608 0.3632 0.3565
vn -0.3566 0.3629 0.8609
vn 0.3579 0.3541 0.8640
vn 0.8683 0.3417 0.3597
vn 0.8711 0.3330 -0.3608
vn 0.3608 0.3333 -0.8710
vn -0.3817 -0.3094 -0.8710
vn -0.3870 -0.1853 0.9033
vn -0.3870 -0.1853 -0.9033
vn 0.3597 -0.2339 -0.9033
vn 0.8877 -0.2683 0.3741
vn -0.9150 -0.1510 0.3741
vn 0.3597 -0.2339 0.9033
vn -0.9150 -0.1510 -0.3741
vn -0.9163 -0.1330 -0.3778
vn -0.8908 -0.2763 -0.3608
vn -0.3817 -0.3094 0.8710
vn 0.3384 -0.3562 0.8710
vn 0.8475 -0.3893 0.3608
vn 0.3384 -0.3562 -0.8710
vn 0.5731 -0.5498 -0.6076
vn -0.6395 -0.4710 0.6076
vn -0.6395 -0.4710 -0.6076
vn 0.8475 -0.3893 -0.3608
vn -0.8908 -0.2763 0.3608
vn 0.5731 -0.5498 0.6076
vn 0.3737 -0.1690 0.9120
vn -0.9163 -0.1330 0.3778
vn 0.9075 -0.1839 0.3776
vn 0.3737 -0.1690 -0.9120
vn -0.3820 -0.1479 -0.9122
vn -0.3820 -0.1479 0.9122
vn 0.9075 -0.1839 -0.3776
vn -0.3809 0.0956 -0.9196
vn -0.9200 0.0919 -0.3811
vn -0.9202 0.0893 0.3812
vn -0.3812 0.0894 0.9202
vn 0.3811 0.0920 0.9200
vn 0.9196 0.0957 0.3809
vn 0.9194 0.0983 -0.3808
vn 0.3808 0.0982 -0.9194
vn -0.3596 0.3424 -0.8680
vn 0.9394 0.2033 -0.2761
vn 0.9117 0.3119 -0.2675
vn -0.9406 -0.1971 0.2765
vn -0.9154 -0.2990 0.2695
vn -0.2736 -0.0244 -0.9615
vn 0.3082 -0.0700 0.9487
vn -0.2651 -0.0536 -0.9627
vn 0.2965 -0.0399 0.9542
vn -0.9022 0.0961 -0.4205
vn -0.8860 0.2111 -0.4129
vn 0.9027 -0.0899 0.4207
vn 0.8865 -0.2085 0.4131
vn -0.4270 -0.0330 0.9036
vn 0.4107 -0.0634 -0.9096
vn -0.4324 -0.0634 0.8995
vn 0.4173 -0.0330 -0.9082
vn -0.0000 0.0961 0.9954
vn -0.0000 0.2112 0.9774
vn 0.0000 -0.0899 -0.9959
vn 0.0000 -0.2083 -0.9781
vn 0.9994 -0.0330 0.0051
vn -0.9979 -0.0636 0.0118
vn 0.9979 -0.0636 0.0118
vn -0.9994 -0.0330 0.0051
vn 0.2027 0.9747 0.0944
vn 0.0000 0.9759 -0.2183
vn -0.3342 0.9358 0.1119
vn -0.9519 0.2986 0.0686
vn -0.9071 0.4191 0.0400
vn 0.9538 -0.2922 -0.0701
vn 0.9097 -0.4132 -0.0415
vn 0.1106 0.0579 0.9922
vn -0.1735 -0.1466 -0.9739
vn 0.0858 0.0304 0.9959
vn -0.1488 -0.1190 -0.9817
vn 0.5600 0.7976 -0.2243
usemtl LightOrange
s off
f 63//1 106//1 93//1 49//1
f 53//2 96//2 98//2 55//2
f 55//3 98//3 100//3 57//3
f 57//4 100//4 102//4 59//4
f 59//5 102//5 104//5 61//5
f 61//6 104//6 106//6 63//6
f 52//7 66//7 69//7 70//7 65//7
f 49//8 93//8 94//8 51//8
f 85//9 84//9 73//9 72//9
f 51//10 94//10 96//10 53//10
f 65//11 70//11 54//11
f 56//12 67//12 58//12
f 60//13 68//13 62//13
f 64//14 66//14 50//14
f 67//15 69//15 68//15 60//15
f 50//16 66//16 52//16
f 58//17 67//17 60//17
f 70//18 69//18 67//18 56//18
f 62//19 68//19 64//19
f 54//20 70//20 56//20
f 68//21 69//21 66//21 64//21
f 105//22 62//22 64//22 107//22
f 103//23 60//23 62//23 105//23
f 101//24 58//24 60//24 103//24
f 99//25 56//25 58//25 101//25
f 97//26 54//26 56//26 99//26
f 95//27 52//27 65//27 54//27 97//27
f 92//28 50//28 52//28 95//28
f 71//29 80//29 78//29
f 87//30 86//30 76//30 75//30
f 89//31 88//31 71//31 78//31
f 88//32 85//32 72//32 71//32
f 84//33 90//33 74//33 73//33
f 86//34 91//34 77//34 76//34
f 90//35 87//35 75//35 74//35
f 91//36 89//36 78//36 77//36
f 61//37 63//37 89//37 91//37
f 78//38 81//38 77//38
f 76//39 79//39 75//39
f 75//40 79//40 74//40
f 74//41 83//41 73//41
f 72//42 80//42 71//42
f 72//43 83//43 82//43 80//43
f 79//44 76//44 81//44 82//44
f 82//45 81//45 78//45 80//45
f 73//46 83//46 72//46
f 77//47 81//47 76//47
f 82//48 83//48 74//48 79//48
f 55//49 57//49 87//49 90//49
f 59//50 61//50 91//50 86//50
f 53//51 55//51 90//51 84//51
f 49//52 51//52 85//52 88//52
f 63//53 49//53 88//53 89//53
f 57//54 59//54 86//54 87//54
f 51//55 53//55 84//55 85//55
f 107//56 92//56 93//56 106//56
f 105//57 107//57 106//57 104//57
f 103//58 105//58 104//58 102//58
f 101//59 103//59 102//59 100//59
f 99//60 101//60 100//60 98//60
f 97//61 99//61 98//61 96//61
f 95//62 97//62 96//62 94//62
f 92//63 95//63 94//63 93//63
f 107//64 64//64 50//64 92//64
usemtl Green
f 4//65 1//65 2//65 5//65
f 3//66 6//66 5//66 2//66
f 10//67 11//67 7//67 8//67
f 9//68 7//68 11//68 12//68
f 1//69 8//69 7//69 2//69
f 6//70 12//70 11//70 5//70
f 2//71 7//71 9//71 3//71
f 5//72 11//72 10//72 4//72
f 28//73 25//73 26//73 29//73
f 27//74 30//74 29//74 26//74
f 34//75 35//75 31//75 32//75
f 33//76 31//76 35//76 36//76
f 25//77 32//77 31//77 26//77
f 30//78 36//78 35//78 29//78
f 26//79 31//79 33//79 27//79
f 29//80 35//80 34//80 28//80
f 40//81 37//81 38//81 41//81
f 39//82 42//82 41//82 38//82
f 46//83 47//83 43//83 44//83
f 45//84 43//84 47//84 48//84
f 37//85 44//85 43//85 38//85
f 42//86 48//86 47//86 41//86
f 38//87 43//87 45//87 39//87
f 41//88 47//88 46//88 40//88
f 27//89 33//89 36//89 30//89
f 39//90 45//90 48//90 42//90
f 3//91 9//91 12//91 6//91
usemtl DarkGreen2
f 16//92 13//92 14//92 17//92
f 15//93 18//93 17//93 14//93
f 22//94 23//94 19//94 20//94
f 21//95 19//95 23//95 24//95
f 13//96 20//96 19//96 14//96
f 18//97 24//97 23//97 17//97
f 14//98 19//98 21//98 15//98
f 17//99 23//99 22//99 16//99
f 15//100 21//100 24//100 18//100
