# Blender v2.79 (sub 0) OBJ File: 'Carrot_2.blend'
# www.blender.org
mtllib Carrot_2.mtl
o Carrot_2_Cylinder.013
v 0.012659 -0.039885 -0.014016
v -0.000098 0.025873 -0.012789
v 0.021817 -0.043588 -0.009924
v 0.008875 0.025873 -0.009072
v 0.025611 -0.045122 -0.000046
v 0.012586 0.025867 -0.000099
v 0.021817 -0.043588 0.009833
v 0.008875 0.025873 0.008874
v 0.012659 -0.039885 0.013924
v -0.000098 0.025873 0.012591
v 0.003501 -0.036182 0.009833
v -0.009072 0.025873 0.008874
v -0.000292 -0.034648 -0.000046
v -0.012788 0.025873 -0.000099
v 0.003501 -0.036182 -0.009924
v -0.009072 0.025873 -0.009072
v 0.008985 0.025873 -0.008807
v -0.000026 0.033413 -0.008055
v -0.000025 0.033413 0.007718
v -0.007913 0.033413 -0.000169
v -0.000026 0.037138 -0.000174
v 0.007910 0.033413 -0.000169
v -0.009106 -0.142222 -0.002880
v -0.007091 -0.142270 -0.002050
v -0.006256 -0.142289 -0.000046
v -0.007091 -0.142270 0.001959
v -0.009106 -0.142222 0.002789
v -0.011121 -0.142175 0.001959
v -0.011956 -0.142156 -0.000046
v -0.011121 -0.142175 -0.002050
v -0.008652 -0.148937 0.001450
v -0.008652 -0.148937 -0.001541
v -0.010155 -0.148902 -0.000046
v -0.008487 -0.151366 -0.000046
v -0.007148 -0.148972 -0.000046
v -0.003319 -0.088119 -0.000046
v -0.006092 -0.088055 -0.006703
v -0.019478 -0.087742 0.006612
v -0.012785 -0.087898 0.009369
v -0.012785 -0.087898 -0.009460
v -0.019478 -0.087742 -0.006703
v -0.006092 -0.088055 0.006612
v -0.022251 -0.087677 -0.000046
v 0.002084 0.014099 -0.015025
v 0.009312 -0.004488 -0.015777
v 0.020271 -0.006308 -0.011170
v 0.012219 0.013277 -0.010630
v 0.025713 -0.006086 -0.000046
v 0.016379 0.012896 -0.000021
v 0.020271 -0.006308 0.011078
v 0.012218 0.013277 0.010588
v 0.009312 -0.004488 0.015686
v 0.002085 0.014100 0.014982
v -0.000718 -0.001665 0.011078
v -0.008144 0.014820 0.010588
v -0.005253 -0.000907 -0.000046
v -0.012422 0.015073 -0.000021
v -0.000718 -0.001665 -0.011170
v -0.008145 0.014818 -0.010630
v 0.000243 0.025616 0.004371
v 0.005285 0.061901 0.006693
v 0.016304 0.098853 0.019347
v 0.026406 0.118766 0.016749
v 0.011414 0.083071 0.009182
v 0.024832 0.118029 0.025523
v 0.038022 0.131482 0.024917
v 0.051585 0.145358 0.015305
v 0.081018 0.161331 0.009808
v 0.054127 0.148751 0.033214
v 0.000306 0.026190 -0.000751
v 0.005332 0.061936 -0.002475
v 0.016612 0.098853 -0.014427
v 0.026665 0.118766 -0.011646
v 0.011510 0.082800 -0.004385
v 0.025252 0.118029 -0.020446
v 0.038428 0.131482 -0.019601
v 0.051814 0.145358 -0.009743
v 0.081141 0.161331 -0.003709
v 0.054682 0.148751 -0.027602
v 0.054144 0.143395 -0.009604
v 0.008486 0.061645 0.006727
v 0.003286 0.024856 0.004382
v 0.053917 0.143395 0.015209
v 0.014766 0.083000 0.009257
v 0.019435 0.097376 0.019365
v 0.028189 0.116438 0.016745
v 0.028310 0.116501 0.025566
v 0.040516 0.129107 0.024940
v 0.056905 0.146105 0.033239
v 0.082207 0.157811 0.009799
v 0.003377 0.025294 -0.000717
v 0.008514 0.061663 -0.002431
v 0.019743 0.097376 -0.014388
v 0.014859 0.082768 -0.004391
v 0.028447 0.116438 -0.011609
v 0.028730 0.116501 -0.020426
v 0.040922 0.129107 -0.019578
v 0.057460 0.146105 -0.027577
v 0.082329 0.157811 -0.003678
v -0.075892 0.121863 0.025007
v -0.049530 0.115343 0.037896
v -0.036907 0.102528 0.027744
v -0.025964 0.093281 0.025576
v -0.027868 0.092911 0.018558
v -0.015799 0.066203 0.009934
v -0.018583 0.078145 0.018840
v -0.009315 0.049373 0.007080
v -0.002284 0.019935 0.004891
v -0.079053 0.121351 0.014355
v -0.063794 0.113033 -0.010172
v -0.047348 0.100837 -0.007443
v -0.036751 0.091533 -0.010776
v -0.034518 0.091834 -0.003852
v -0.026500 0.076862 -0.007838
v -0.019046 0.065872 -0.000848
v -0.056841 0.111769 0.003340
v -0.003403 0.019386 0.000854
v -0.011505 0.049006 -0.000145
v -0.051021 0.112711 0.022951
v -0.047597 0.117754 0.037207
v -0.075285 0.124852 0.024700
v -0.049347 0.114528 0.022468
v -0.035171 0.104692 0.027125
v -0.023378 0.094835 0.024724
v -0.013179 0.066519 0.009110
v -0.026682 0.094975 0.018125
v -0.016260 0.079628 0.018088
v -0.006837 0.049874 0.006334
v 0.000047 0.020936 0.004156
v -0.061861 0.115444 -0.010861
v -0.078455 0.124338 0.014017
v -0.055221 0.113576 0.002671
v -0.045613 0.103001 -0.008062
v -0.034159 0.093088 -0.011609
v -0.016409 0.066223 -0.001610
v -0.033341 0.093897 -0.004318
v -0.024181 0.078345 -0.008607
v -0.009013 0.049494 -0.000903
v -0.001088 0.020272 0.000111
vn -0.4354 -0.0857 -0.8961
vn 0.9156 0.0108 0.4019
vn 0.3942 -0.0115 0.9189
vn -0.4354 -0.0857 0.8961
vn -0.9264 -0.1310 0.3530
vn -0.9264 -0.1310 -0.3530
vn 0.4751 0.7428 -0.4718
vn 0.3942 -0.0115 -0.9189
vn 0.9218 -0.0500 -0.3844
vn 0.9156 0.0108 -0.4019
vn 0.8032 0.4947 -0.3318
vn 0.3291 0.5103 0.7945
vn -0.7919 0.5151 0.3280
vn -0.3305 0.5042 -0.7979
vn -0.4673 0.7505 0.4673
vn 0.3316 0.4994 -0.8004
vn -0.3280 0.5150 0.7919
vn 0.4680 0.7479 0.4708
vn -0.7944 0.5106 -0.3290
vn 0.8008 0.4993 0.3308
vn -0.4694 0.7478 -0.4695
vn -0.9256 -0.0292 -0.3774
vn -0.9257 -0.0238 0.3776
vn -0.3831 0.1127 0.9168
vn 0.3882 0.2380 0.8903
vn 0.8941 0.2744 0.3540
vn 0.8951 0.2704 -0.3544
vn 0.3888 0.2272 -0.8929
vn -0.3769 -0.2056 -0.9031
vn -0.3801 -0.1366 0.9148
vn -0.3801 -0.1366 -0.9148
vn 0.3778 -0.0861 -0.9219
vn 0.9218 -0.0500 0.3844
vn -0.9100 -0.1720 0.3773
vn 0.3778 -0.0861 0.9219
vn -0.9100 -0.1720 -0.3773
vn -0.8561 0.3563 -0.3744
vn -0.8971 -0.2395 -0.3713
vn -0.3769 -0.2056 0.9031
vn 0.3730 -0.1571 0.9144
vn 0.9158 -0.1222 0.3826
vn 0.3730 -0.1571 -0.9144
vn 0.6787 -0.2558 -0.6884
vn -0.6681 -0.3363 0.6638
vn -0.6681 -0.3363 -0.6638
vn 0.9158 -0.1222 -0.3826
vn -0.8971 -0.2395 0.3713
vn 0.6787 -0.2558 0.6884
vn 0.3273 -0.2651 0.9070
vn -0.8561 0.3563 0.3744
vn 0.7767 -0.5179 0.3585
vn 0.3273 -0.2651 -0.9070
vn -0.3718 0.1088 -0.9219
vn -0.3718 0.1088 0.9219
vn 0.7767 -0.5179 -0.3585
vn -0.4227 -0.1437 -0.8948
vn -0.8625 -0.3820 -0.3319
vn -0.8622 -0.3828 0.3318
vn -0.4229 -0.1462 0.8943
vn 0.4054 0.1903 0.8941
vn 0.8451 0.3854 0.3705
vn 0.8448 0.3862 -0.3704
vn 0.4055 0.1926 -0.8936
vn -0.3840 0.1002 -0.9179
vn -0.9904 0.1384 -0.0017
vn -0.9541 0.2995 -0.0099
vn -0.9596 0.2811 -0.0089
vn -0.8935 0.4361 0.1069
vn -0.7362 0.6768 -0.0067
vn -0.7174 0.6967 -0.0065
vn -0.7248 0.6889 0.0145
vn 0.4547 -0.8907 0.0041
vn 0.9082 -0.4184 -0.0095
vn 0.7237 -0.6899 -0.0162
vn -0.8922 0.4516 -0.0081
vn 0.9902 -0.1399 0.0038
vn 0.9497 -0.3131 0.0096
vn 0.9585 -0.2851 0.0078
vn 0.9079 -0.4184 0.0261
vn 0.7233 -0.6899 0.0294
vn 0.9474 0.3199 0.0086
vn -0.7244 0.6889 -0.0277
vn 0.9092 -0.4164 0.0083
vn 0.1647 0.0753 -0.9835
vn -0.0173 -0.0613 0.9980
vn -0.2160 -0.2358 -0.9475
vn -0.3003 -0.2845 -0.9105
vn -0.1067 -0.2536 -0.9614
vn -0.1160 -0.5167 -0.8483
vn -0.4776 0.8786 -0.0044
vn 0.1468 0.0753 0.9863
vn -0.3168 -0.2845 0.9048
vn -0.1369 -0.5224 0.8417
vn -0.2332 -0.2358 0.9434
vn 0.6470 0.7253 0.2352
vn 0.5903 0.8043 -0.0687
vn 0.6512 0.7253 -0.2234
vn 0.0016 -0.0923 -0.9957
vn 0.5889 0.8043 0.0794
vn -0.0221 -0.1108 0.9936
vn 0.0035 -0.0481 -0.9988
vn -0.8914 0.4361 -0.1232
vn 0.7316 -0.6817 0.0067
vn 0.7146 -0.6995 0.0065
vn -0.7658 0.6417 -0.0430
vn 0.4174 -0.4612 0.7830
vn 0.5094 -0.1670 0.8442
vn -0.6188 -0.7542 0.2199
vn 0.6237 0.7497 -0.2211
vn -0.3313 -0.9326 0.1431
vn 0.3545 0.9230 -0.1496
vn -0.6037 -0.7604 0.2395
vn 0.6053 0.7596 -0.2381
vn -0.8117 -0.5103 0.2840
vn 0.8745 0.3979 -0.2774
vn -0.8687 -0.4110 0.2766
vn -0.9252 -0.2429 0.2917
vn 0.7979 0.5425 -0.2628
vn -0.8797 -0.3840 0.2805
vn -0.1341 -0.2839 -0.9494
vn -0.8218 -0.5120 0.2499
vn 0.6035 0.7675 -0.2160
vn -0.8181 -0.5093 0.2672
vn -0.6005 -0.7701 0.2152
vn -0.4367 0.0130 -0.8995
vn -0.6319 0.7403 0.2293
vn -0.9384 0.2181 0.2680
vn 0.2947 -0.0012 0.9556
vn -0.6740 0.7335 0.0874
vn 0.5841 -0.2083 0.7845
vn 0.1230 0.1037 0.9870
vn -0.0570 -0.5441 -0.8371
vn 0.6173 0.7615 -0.1978
vn 0.8326 0.5325 -0.1525
vn -0.6355 0.6628 0.3961
vn -0.2574 -0.1545 -0.9539
vn 0.3006 -0.0451 0.9527
vn -0.2688 -0.1060 -0.9573
vn -0.0280 -0.2541 -0.9668
vn 0.0682 -0.2919 -0.9540
vn 0.4118 -0.1955 0.8901
vn 0.9249 0.2414 -0.2937
vn 0.7672 0.5219 -0.3729
vn 0.8816 0.3802 -0.2797
vn -0.6166 -0.7625 0.1958
vn -0.1242 -0.2536 0.9593
usemtl LightOrange
s off
f 15//1 58//1 45//1 1//1
f 5//2 48//2 50//2 7//2
f 7//3 50//3 52//3 9//3
f 9//4 52//4 54//4 11//4
f 11//5 54//5 56//5 13//5
f 13//6 56//6 58//6 15//6
f 4//7 18//7 21//7 22//7 17//7
f 1//8 45//8 46//8 3//8
f 37//9 36//9 25//9 24//9
f 3//10 46//10 48//10 5//10
f 17//11 22//11 6//11
f 8//12 19//12 10//12
f 12//13 20//13 14//13
f 16//14 18//14 2//14
f 19//15 21//15 20//15 12//15
f 2//16 18//16 4//16
f 10//17 19//17 12//17
f 22//18 21//18 19//18 8//18
f 14//19 20//19 16//19
f 6//20 22//20 8//20
f 20//21 21//21 18//21 16//21
f 57//22 14//22 16//22 59//22
f 55//23 12//23 14//23 57//23
f 53//24 10//24 12//24 55//24
f 51//25 8//25 10//25 53//25
f 49//26 6//26 8//26 51//26
f 47//27 4//27 17//27 6//27 49//27
f 44//28 2//28 4//28 47//28
f 23//29 32//29 30//29
f 39//30 38//30 28//30 27//30
f 41//31 40//31 23//31 30//31
f 40//32 37//32 24//32 23//32
f 36//33 42//33 26//33 25//33
f 38//34 43//34 29//34 28//34
f 42//35 39//35 27//35 26//35
f 43//36 41//36 30//36 29//36
f 13//37 15//37 41//37 43//37
f 30//38 33//38 29//38
f 28//39 31//39 27//39
f 27//40 31//40 26//40
f 26//41 35//41 25//41
f 24//42 32//42 23//42
f 24//43 35//43 34//43 32//43
f 31//44 28//44 33//44 34//44
f 34//45 33//45 30//45 32//45
f 25//46 35//46 24//46
f 29//47 33//47 28//47
f 34//48 35//48 26//48 31//48
f 7//49 9//49 39//49 42//49
f 11//50 13//50 43//50 38//50
f 5//51 7//51 42//51 36//51
f 1//52 3//52 37//52 40//52
f 15//53 1//53 40//53 41//53
f 9//54 11//54 38//54 39//54
f 3//55 5//55 36//55 37//55
f 59//56 44//56 45//56 58//56
f 57//57 59//57 58//57 56//57
f 55//58 57//58 56//58 54//58
f 53//59 55//59 54//59 52//59
f 51//60 53//60 52//60 50//60
f 49//61 51//61 50//61 48//61
f 47//62 49//62 48//62 46//62
f 44//63 47//63 46//63 45//63
f 59//64 16//64 2//64 44//64
usemtl Green
f 70//65 60//65 61//65 71//65
f 62//66 72//66 74//66 64//66
f 64//67 74//67 71//67 61//67
f 75//68 72//68 73//68
f 76//69 73//69 63//69 66//69
f 76//70 66//70 67//70 77//70
f 79//71 76//71 77//71
f 80//72 99//72 90//72 83//72
f 87//73 85//73 86//73
f 89//74 88//74 83//74
f 63//75 73//75 72//75 62//75
f 91//76 92//76 81//76 82//76
f 85//77 84//77 94//77 93//77
f 84//78 81//78 92//78 94//78
f 93//79 96//79 95//79
f 97//80 98//80 80//80
f 68//81 90//81 99//81 78//81
f 66//82 69//82 67//82
f 86//83 85//83 93//83 95//83
f 78//84 99//84 80//84 77//84
f 60//85 82//85 81//85 61//85
f 97//86 76//86 79//86 98//86
f 76//87 97//87 95//87 73//87
f 93//88 72//88 75//88 96//88
f 72//89 93//89 94//89 74//89
f 68//90 78//90 77//90 67//90
f 67//91 83//91 90//91 68//91
f 63//92 86//92 88//92 66//92
f 64//93 84//93 85//93 62//93
f 88//94 89//94 69//94 66//94
f 77//95 80//95 98//95 79//95
f 73//96 95//96 96//96 75//96
f 69//97 89//97 83//97 67//97
f 74//98 94//98 92//98 71//98
f 65//99 87//99 86//99 63//99
f 61//100 81//100 84//100 64//100
f 71//101 92//101 91//101 70//101
f 62//102 65//102 63//102
f 88//103 97//103 80//103 83//103
f 97//104 88//104 86//104 95//104
f 122//105 119//105 101//105 120//105
f 127//106 106//106 105//106 125//106
f 102//107 123//107 120//107 101//107
f 111//108 102//108 119//108 116//108
f 123//109 126//109 136//109 133//109
f 119//110 100//110 109//110 116//110
f 131//111 121//111 122//111 132//111
f 110//112 111//112 116//112
f 120//113 123//113 122//113
f 112//114 114//114 113//114
f 137//115 127//115 125//115 135//115
f 114//116 115//116 105//116 106//116
f 108//117 107//117 118//117 117//117
f 136//118 126//118 127//118 137//118
f 115//119 118//119 107//119 105//119
f 114//120 112//120 134//120 137//120
f 106//121 103//121 104//121
f 123//122 133//122 132//122 122//122
f 113//123 114//123 106//123 104//123
f 102//124 111//124 113//124 104//124
f 132//125 116//125 109//125 131//125
f 126//126 104//126 103//126 124//126
f 131//127 109//127 100//127 121//127
f 128//128 107//128 108//128 129//128
f 134//129 112//129 113//129 136//129
f 123//130 102//130 104//130 126//130
f 121//131 100//131 119//131 122//131
f 135//132 115//132 114//132 137//132
f 133//133 130//133 132//133
f 137//134 134//134 136//134
f 130//135 110//135 116//135 132//135
f 138//136 118//136 115//136 135//136
f 125//137 105//137 107//137 128//137
f 139//138 117//138 118//138 138//138
f 111//139 110//139 130//139 133//139
f 136//140 113//140 111//140 133//140
f 106//141 127//141 124//141 103//141
f 129//142 139//142 138//142 128//142
f 124//143 127//143 126//143
f 135//144 125//144 128//144 138//144
f 102//145 101//145 119//145
f 85//146 87//146 65//146 62//146
