# Blender v2.79 (sub 0) OBJ File: 'Carrot_4.blend'
# www.blender.org
mtllib Carrot_4.mtl
o Carrot_4_Cylinder.004
v -0.006542 0.001348 0.004619
v -0.045232 0.188574 0.010846
v -0.099021 0.343059 -0.012914
v -0.144738 0.414238 0.009525
v -0.072604 0.270922 0.013769
v -0.148302 0.414932 -0.020886
v -0.124977 0.377211 -0.041553
v -0.202445 0.450506 -0.003484
v -0.253272 0.489345 0.046126
v -0.358264 0.505908 0.093133
v -0.282374 0.501648 -0.009453
v -0.251646 0.479147 -0.030851
v 0.000689 0.000933 0.028924
v -0.034283 0.187944 0.047635
v -0.067102 0.340276 0.099780
v -0.119602 0.410377 0.104172
v -0.246488 0.490163 0.088748
v -0.058331 0.270302 0.061493
v -0.107630 0.408667 0.132319
v -0.076131 0.370838 0.137944
v -0.162880 0.444403 0.145399
v -0.231242 0.485946 0.129024
v -0.345553 0.503947 0.140966
v -0.378556 0.504100 0.124115
v -0.228819 0.493386 0.192076
v -0.191744 0.469907 0.194562
v -0.252989 0.470994 0.090103
v -0.237577 0.466030 0.130332
v -0.059791 0.182464 0.015170
v -0.022125 -0.005652 0.009207
v -0.259612 0.469429 0.047412
v -0.086232 0.265555 0.017846
v -0.110109 0.329985 -0.009982
v -0.150270 0.394466 0.010760
v -0.378206 0.480730 0.123568
v -0.159212 0.397915 -0.018353
v -0.136465 0.360780 -0.038774
v -0.208768 0.429775 -0.002227
v -0.288934 0.480284 -0.008143
v -0.357829 0.482545 0.092610
v -0.258236 0.457556 -0.029518
v -0.014899 -0.006067 0.033496
v -0.048864 0.181835 0.051888
v -0.078339 0.326580 0.102949
v -0.071916 0.264978 0.065545
v -0.125168 0.390579 0.105152
v -0.118488 0.391595 0.134918
v -0.087551 0.354384 0.140862
v -0.169193 0.423671 0.146694
v -0.235370 0.472021 0.193420
v -0.345140 0.480588 0.140357
v -0.198334 0.448315 0.195894
v -0.176405 0.447872 0.096883
v -0.189938 0.449960 0.045961
v -0.196941 0.427448 0.046903
v -0.183438 0.425365 0.097715
v -0.012338 -0.026139 0.010545
v 0.028501 0.106886 -0.001771
v 0.117118 0.274071 -0.005125
v 0.054688 0.163953 -0.005852
v 0.156742 0.310177 0.007206
v 0.197214 0.341930 -0.027264
v 0.278597 0.363560 -0.053363
v 0.213113 0.359115 0.016084
v 0.189151 0.339880 0.030630
v -0.014914 -0.029843 -0.009061
v 0.024666 0.101371 -0.030960
v 0.107375 0.260061 -0.079282
v 0.195982 0.338208 -0.059572
v 0.049718 0.156806 -0.043680
v 0.141722 0.288578 -0.107115
v 0.188879 0.329945 -0.090702
v 0.273686 0.356496 -0.090749
v 0.296914 0.362174 -0.074977
v 0.192844 0.329966 -0.138199
v 0.166423 0.307197 -0.142367
v 0.202421 0.322873 -0.059045
v 0.195296 0.314254 -0.090254
v 0.040141 0.099425 -0.002632
v 0.000088 -0.034272 0.009632
v 0.203659 0.326281 -0.026597
v 0.065688 0.156054 -0.006474
v 0.122319 0.259661 -0.004263
v 0.297972 0.343716 -0.073464
v 0.163175 0.294242 0.007808
v 0.219665 0.343006 0.016682
v 0.279657 0.344952 -0.051865
v 0.195753 0.323546 0.031224
v -0.002486 -0.037973 -0.009958
v 0.036306 0.093910 -0.031823
v 0.060688 0.148865 -0.044527
v 0.112511 0.245558 -0.078914
v 0.148151 0.272636 -0.106553
v 0.199391 0.313851 -0.137634
v 0.274753 0.337899 -0.089197
v 0.173025 0.290862 -0.141771
v 0.147142 0.297205 -0.069796
v 0.152247 0.304545 -0.030945
v 0.159427 0.286974 -0.029960
v 0.154333 0.279649 -0.068729
v -0.013019 -0.021780 0.038833
v 0.000105 0.157287 0.051590
v 0.014088 0.304425 0.098378
v 0.046956 0.398207 0.103760
v 0.013565 0.237424 0.063677
v 0.031892 0.395548 0.127753
v 0.011837 0.344577 0.132466
v 0.069017 0.454677 0.142723
v 0.121803 0.520596 0.132385
v 0.213362 0.592746 0.156655
v 0.106484 0.536059 0.187954
v 0.079165 0.498384 0.187918
v -0.002993 -0.021780 0.017321
v 0.015215 0.157287 0.019167
v 0.060037 0.304425 -0.000216
v 0.085297 0.398207 0.021491
v 0.141400 0.524941 0.097706
v 0.033127 0.237424 0.021700
v 0.093982 0.395548 -0.005474
v 0.084692 0.344577 -0.023863
v 0.129321 0.454677 0.013327
v 0.155352 0.520596 0.060397
v 0.232821 0.592746 0.114901
v 0.244783 0.606001 0.145887
v 0.188053 0.536059 0.012929
v 0.170456 0.498384 -0.007968
v 0.150924 0.511386 0.102145
v 0.164930 0.506392 0.064814
v 0.013474 0.154681 0.057801
v 0.001318 -0.024895 0.045506
v 0.131345 0.506392 0.136878
v 0.026595 0.234127 0.069740
v 0.026272 0.295425 0.104064
v 0.055957 0.383715 0.107779
v 0.249564 0.585412 0.148115
v 0.044459 0.386411 0.133581
v 0.024490 0.335238 0.138401
v 0.078702 0.439856 0.147259
v 0.116457 0.520884 0.192620
v 0.218121 0.572092 0.158830
v 0.089229 0.483018 0.192608
v 0.011337 -0.024895 0.024009
v 0.028570 0.154681 0.025410
v 0.072227 0.295425 0.005457
v 0.046150 0.234127 0.027779
v 0.094162 0.383715 0.025799
v 0.106527 0.386411 0.000400
v 0.097375 0.335238 -0.017991
v 0.139023 0.439856 0.017826
v 0.198040 0.520884 0.017564
v 0.237547 0.572092 0.117147
v 0.180519 0.483017 -0.003277
v 0.109747 0.456376 0.055765
v 0.089153 0.456376 0.099954
v 0.099571 0.440203 0.105284
v 0.120120 0.440203 0.061190
v -0.001242 -0.009042 0.001194
v 0.005268 0.184545 -0.017493
v 0.044771 0.343695 -0.052595
v 0.035080 0.444852 -0.087228
v 0.010979 0.271208 -0.036217
v 0.065431 0.441919 -0.083329
v 0.079151 0.387046 -0.065912
v 0.063132 0.506031 -0.126663
v 0.028983 0.577089 -0.173576
v 0.010834 0.655154 -0.274307
v 0.090380 0.593809 -0.183854
v 0.102741 0.553267 -0.157199
v -0.026601 -0.009042 0.001194
v -0.033110 0.184544 -0.017493
v -0.072613 0.343695 -0.052595
v -0.062923 0.444852 -0.087228
v -0.013921 0.581822 -0.176992
v -0.038821 0.271208 -0.036217
v -0.093273 0.441919 -0.083329
v -0.106993 0.387046 -0.065912
v -0.090975 0.506031 -0.126663
v -0.056825 0.577089 -0.173576
v -0.038677 0.655154 -0.274307
v -0.013921 0.669452 -0.300065
v -0.118222 0.593809 -0.183854
v -0.130583 0.553267 -0.157199
v -0.013921 0.567677 -0.188100
v -0.056836 0.562158 -0.184717
v 0.005243 0.181827 -0.033132
v -0.001250 -0.012348 -0.015596
v 0.028994 0.562158 -0.184717
v 0.010978 0.267803 -0.051443
v 0.044776 0.334148 -0.066838
v 0.034915 0.429497 -0.097539
v -0.013921 0.647528 -0.305674
v 0.065408 0.432217 -0.098068
v 0.079186 0.377112 -0.080780
v 0.063153 0.490330 -0.137993
v 0.090397 0.577654 -0.195573
v 0.010790 0.633197 -0.279842
v 0.102740 0.536922 -0.169009
v -0.026593 -0.012348 -0.015596
v -0.033085 0.181827 -0.033132
v -0.072618 0.334148 -0.066838
v -0.038820 0.267803 -0.051443
v -0.062757 0.429498 -0.097539
v -0.093250 0.432217 -0.098068
v -0.107028 0.377112 -0.080780
v -0.090995 0.490330 -0.137993
v -0.118239 0.577654 -0.195573
v -0.038632 0.633197 -0.279842
v -0.130582 0.536922 -0.169009
v -0.040566 0.507730 -0.126848
v 0.012143 0.507730 -0.126848
v 0.012609 0.490677 -0.139177
v -0.039987 0.490677 -0.139177
v 0.001486 -0.160018 -0.088856
v 0.001917 0.044902 -0.079537
v 0.076532 -0.160018 -0.057771
v 0.070085 0.044902 -0.051301
v 0.107617 -0.160018 0.017275
v 0.098321 0.044902 0.016867
v 0.076532 -0.160018 0.092321
v 0.070085 0.044902 0.085036
v 0.001486 -0.160018 0.123406
v 0.001917 0.044902 0.113272
v -0.073560 -0.160018 0.092321
v -0.066252 0.044902 0.085036
v -0.104645 -0.160018 0.017275
v -0.094488 0.044902 0.016867
v -0.073560 -0.160018 -0.057771
v -0.066252 0.044902 -0.051301
v 0.070920 0.044902 -0.049284
v 0.002468 0.074619 -0.043575
v 0.002471 0.074619 0.076256
v -0.057450 0.074619 0.016337
v 0.002470 0.089304 0.016297
v 0.062754 0.074619 0.016340
v -0.018849 -0.573619 -0.004258
v -0.003654 -0.574608 0.002049
v 0.002639 -0.575017 0.017275
v -0.003654 -0.574608 0.032501
v -0.018849 -0.573619 0.038808
v -0.034043 -0.572631 0.032501
v -0.040337 -0.572222 0.017275
v -0.034043 -0.572631 0.002049
v -0.020573 -0.600131 0.028636
v -0.020573 -0.600131 0.005914
v -0.031910 -0.599393 0.017275
v -0.021197 -0.609720 0.017275
v -0.009236 -0.600868 0.017275
v 0.066475 -0.363769 0.017275
v 0.045571 -0.362410 -0.033300
v -0.055366 -0.355845 0.067850
v -0.004898 -0.359127 0.088799
v -0.004898 -0.359127 -0.054249
v -0.055366 -0.355845 -0.033300
v 0.045571 -0.362410 0.067850
v -0.076271 -0.354485 0.017275
v 0.001294 0.001195 -0.096520
v 0.001486 -0.053050 -0.102238
v 0.085994 -0.053050 -0.067233
v 0.081891 0.001195 -0.063136
v 0.120999 -0.053050 0.017275
v 0.115275 0.001195 0.017460
v 0.085994 -0.053050 0.101783
v 0.081891 0.001195 0.098056
v 0.001486 -0.053050 0.136788
v 0.001294 0.001195 0.131440
v -0.083022 -0.053050 0.101783
v -0.079302 0.001195 0.098056
v -0.118027 -0.053050 0.017275
v -0.112686 0.001195 0.017460
v -0.083022 -0.053050 -0.067233
v -0.079302 0.001195 -0.063136
vn -0.3802 -0.1148 -0.9178
vn 0.9178 -0.1148 0.3802
vn 0.3802 -0.1148 0.9178
vn -0.3802 -0.1148 0.9178
vn -0.9178 -0.1148 0.3802
vn -0.9178 -0.1148 -0.3802
vn 0.3006 0.9058 -0.2985
vn 0.3802 -0.1148 -0.9178
vn 0.8877 -0.2683 -0.3741
vn 0.9178 -0.1148 -0.3802
vn 0.6218 0.7396 -0.2576
vn 0.2519 0.7528 0.6081
vn -0.6037 0.7569 0.2501
vn -0.2542 0.7475 -0.6137
vn -0.2938 0.9096 0.2938
vn 0.2560 0.7432 -0.6181
vn -0.2501 0.7568 0.6039
vn 0.2949 0.9083 0.2967
vn -0.6078 0.7531 -0.2518
vn 0.6176 0.7437 0.2558
vn -0.2958 0.9083 -0.2959
vn -0.8638 0.3548 -0.3578
vn -0.8608 0.3632 0.3565
vn -0.3566 0.3629 0.8609
vn 0.3579 0.3541 0.8640
vn 0.8683 0.3417 0.3597
vn 0.8711 0.3330 -0.3608
vn 0.3608 0.3333 -0.8710
vn -0.3817 -0.3094 -0.8710
vn -0.3870 -0.1853 0.9033
vn -0.3870 -0.1853 -0.9033
vn 0.3597 -0.2339 -0.9033
vn 0.8877 -0.2683 0.3741
vn -0.9150 -0.1510 0.3741
vn 0.3597 -0.2339 0.9033
vn -0.9150 -0.1510 -0.3741
vn -0.9163 -0.1330 -0.3778
vn -0.8908 -0.2763 -0.3608
vn -0.3817 -0.3094 0.8710
vn 0.3384 -0.3562 0.8710
vn 0.8475 -0.3893 0.3608
vn 0.3384 -0.3562 -0.8710
vn 0.5731 -0.5498 -0.6076
vn -0.6395 -0.4710 0.6076
vn -0.6395 -0.4710 -0.6076
vn 0.8475 -0.3893 -0.3608
vn -0.8908 -0.2763 0.3608
vn 0.5731 -0.5498 0.6076
vn 0.3737 -0.1690 0.9120
vn -0.9163 -0.1330 0.3778
vn 0.9075 -0.1839 0.3776
vn 0.3737 -0.1690 -0.9120
vn -0.3820 -0.1479 -0.9122
vn -0.3820 -0.1479 0.9122
vn 0.9075 -0.1839 -0.3776
vn -0.3809 0.0956 -0.9196
vn -0.9200 0.0919 -0.3811
vn -0.9202 0.0893 0.3812
vn -0.3812 0.0894 0.9202
vn 0.3811 0.0920 0.9200
vn 0.9196 0.0957 0.3809
vn 0.9194 0.0983 -0.3808
vn 0.3808 0.0982 -0.9194
vn -0.3596 0.3424 -0.8680
vn 0.9394 0.2033 -0.2761
vn 0.9313 0.2521 -0.2628
vn 0.9117 0.3119 -0.2675
vn 0.7572 0.5860 -0.2886
vn 0.5575 0.8223 -0.1145
vn 0.5281 0.8435 -0.0981
vn 0.5365 0.8355 -0.1189
vn 0.1409 0.9893 0.0392
vn -0.8093 -0.5654 0.1590
vn -0.5356 -0.8360 0.1195
vn 0.1232 0.9920 -0.0282
vn 0.7869 0.5846 -0.1978
vn -0.9406 -0.1971 0.2765
vn -0.9337 -0.2444 0.2618
vn -0.9154 -0.2990 0.2695
vn -0.7772 -0.5889 0.2217
vn -0.5529 -0.8267 0.1042
vn -0.5536 -0.8250 0.1133
vn -0.5410 -0.8353 0.0981
vn -0.1100 -0.9936 -0.0239
vn 0.5415 0.8348 -0.0992
vn -0.1039 -0.9946 -0.0007
vn -0.7949 -0.5736 0.1979
vn 0.0989 0.0026 0.9951
vn -0.2736 -0.0244 -0.9615
vn 0.3978 -0.1765 -0.9003
vn 0.6228 -0.1393 0.7699
vn 0.3622 -0.4365 -0.8236
vn 0.5156 -0.3817 0.7671
vn -0.0228 0.0691 0.9974
vn -0.4081 0.0396 -0.9121
vn 0.1546 -0.1057 -0.9823
vn 0.0104 -0.3674 -0.9300
vn -0.5149 0.1053 -0.8508
vn 0.0069 0.1579 0.9874
vn -0.9545 0.2982 0.0033
vn -0.4744 0.1809 -0.8615
vn -0.8654 0.4130 0.2837
vn -0.4536 -0.0294 0.8907
vn -0.8217 0.2877 0.4919
vn 0.3082 -0.0700 0.9487
vn -0.8833 0.4168 0.2146
vn -0.8359 -0.0015 -0.5489
vn -0.2651 -0.0536 -0.9627
vn 0.2965 -0.0399 0.9542
vn 0.7932 -0.2063 0.5729
vn 0.7312 -0.4452 0.5169
vn 0.8261 0.5571 -0.0843
vn 0.5569 0.8250 -0.0963
vn 0.5484 0.8261 -0.1296
vn 0.5227 0.8461 -0.1042
vn 0.5245 0.8439 -0.1124
vn -0.5202 -0.8453 0.1220
vn -0.5289 -0.8442 0.0874
vn -0.5195 -0.8482 0.1032
vn -0.5487 -0.8273 0.1207
vn -0.9022 0.0961 -0.4205
vn -0.8841 0.2203 -0.4120
vn -0.8860 0.2111 -0.4129
vn -0.8832 0.3086 -0.3532
vn -0.7669 0.5330 -0.3574
vn -0.7492 0.5578 -0.3572
vn -0.7615 0.5479 -0.3463
vn -0.5266 0.8026 -0.2803
vn 0.8623 -0.3038 0.4051
vn 0.7616 -0.5483 0.3456
vn -0.5533 0.8026 -0.2230
vn -0.8577 0.3235 -0.3997
vn 0.9027 -0.0899 0.4207
vn 0.8830 -0.2258 0.4115
vn 0.8865 -0.2085 0.4131
vn 0.8648 -0.3038 0.3998
vn 0.7603 -0.5384 0.3634
vn 0.7651 -0.5362 0.3566
vn 0.7544 -0.5483 0.3609
vn 0.5203 -0.8148 0.2558
vn -0.7549 0.5479 -0.3605
vn 0.5305 -0.8148 0.2339
vn 0.8626 -0.3069 0.4020
vn 0.5407 0.0615 -0.8390
vn -0.4270 -0.0330 0.9036
vn -0.7803 -0.3526 0.5165
vn 0.1070 -0.2233 -0.9688
vn -0.6447 -0.5155 0.5644
vn 0.2208 -0.3982 -0.8903
vn 0.6003 0.1545 -0.7847
vn -0.2947 0.0615 0.9536
vn -0.6731 -0.2233 0.7051
vn -0.5398 -0.3982 0.7417
vn -0.2148 0.1545 0.9644
vn 0.5305 0.2008 -0.8236
vn 0.5815 0.5670 0.5834
vn -0.2895 0.2008 0.9359
vn 0.6554 0.7076 0.2640
vn 0.8951 0.1613 -0.4156
vn 0.8207 0.5670 0.0701
vn 0.4107 -0.0634 -0.9096
vn 0.6236 0.7076 0.3321
vn 0.2574 0.1612 0.9528
vn -0.4324 -0.0634 0.8995
vn 0.4173 -0.0330 -0.9082
vn -0.1063 -0.3526 -0.9297
vn 0.0176 -0.5155 -0.8567
vn -0.8384 0.3086 -0.4492
vn -0.7576 0.5370 -0.3710
vn -0.7712 0.5371 -0.3417
vn -0.7506 0.5605 -0.3498
vn -0.7554 0.5577 -0.3440
vn 0.7587 -0.5586 0.3352
vn 0.7445 -0.5587 0.3655
vn 0.7491 -0.5630 0.3491
vn 0.7672 -0.5385 0.3485
vn -0.0000 0.0961 0.9954
vn -0.0000 0.2204 0.9754
vn -0.0000 0.2112 0.9774
vn 0.0545 0.3086 0.9496
vn -0.0000 0.5331 0.8461
vn -0.0064 0.5577 0.8300
vn 0.0088 0.5478 0.8366
vn -0.0316 0.8021 0.5964
vn 0.0013 -0.3037 -0.9528
vn -0.0095 -0.5484 -0.8362
vn 0.0316 0.8021 0.5964
vn -0.0000 0.3239 0.9461
vn 0.0000 -0.0899 -0.9959
vn -0.0000 -0.2260 -0.9741
vn 0.0000 -0.2083 -0.9781
vn -0.0013 -0.3037 -0.9528
vn 0.0074 -0.5385 -0.8426
vn 0.0000 -0.5363 -0.8440
vn 0.0095 -0.5484 -0.8362
vn 0.0109 -0.8151 -0.5792
vn -0.0088 0.5478 0.8366
vn -0.0109 -0.8151 -0.5792
vn 0.0000 -0.3065 -0.9519
vn -0.9887 0.0611 -0.1370
vn 0.9994 -0.0330 0.0051
vn 0.7978 -0.3526 0.4890
vn -0.9238 -0.2218 0.3121
vn 0.7839 -0.5155 0.3460
vn -0.9004 -0.3983 0.1751
vn -0.9649 0.1542 -0.2124
vn 0.9887 0.0611 -0.1370
vn 0.9238 -0.2218 0.3121
vn 0.9004 -0.3983 0.1752
vn 0.9649 0.1542 -0.2124
vn -0.9706 0.2008 -0.1328
vn 0.2821 0.5682 -0.7730
vn 0.9706 0.2008 -0.1328
vn -0.0416 0.7062 -0.7068
vn -0.7554 0.1606 -0.6352
vn -0.2821 0.5682 -0.7730
vn -0.9979 -0.0636 0.0118
vn 0.0416 0.7062 -0.7068
vn 0.7554 0.1606 -0.6352
vn 0.9979 -0.0636 0.0118
vn -0.9994 -0.0330 0.0051
vn -0.7978 -0.3526 0.4890
vn -0.7839 -0.5155 0.3460
vn -0.0545 0.3086 0.9496
vn -0.0150 0.5368 0.8435
vn 0.0148 0.5369 0.8435
vn -0.0000 0.5605 0.8282
vn 0.0064 0.5577 0.8300
vn -0.0154 -0.5586 -0.8293
vn 0.0156 -0.5587 -0.8292
vn -0.0000 -0.5626 -0.8267
vn -0.0073 -0.5385 -0.8426
vn -0.9519 0.2986 0.0686
vn 0.8774 -0.4791 -0.0248
vn -0.9071 0.4191 0.0400
vn -0.6753 0.7358 -0.0503
vn -0.6378 0.7668 -0.0725
vn -0.6477 0.7601 -0.0531
vn -0.2765 0.9445 -0.1771
vn 0.6478 -0.7600 0.0526
vn -0.2694 0.9567 -0.1102
vn 0.9538 -0.2922 -0.0701
vn -0.0191 -0.0031 0.9998
vn 0.9097 -0.4132 -0.0415
vn 0.6599 -0.7483 0.0669
vn 0.6614 -0.7480 0.0544
vn 0.6487 -0.7583 0.0639
vn 0.2571 -0.9525 0.1631
vn -0.6485 0.7585 -0.0635
vn 0.2536 -0.9584 0.1308
vn 0.0224 -0.0533 -0.9983
vn 0.1106 0.0579 0.9922
vn -0.4769 -0.1607 0.8641
vn -0.4965 -0.2143 -0.8412
vn 0.1380 0.0205 -0.9902
vn 0.2797 0.1215 0.9524
vn -0.2500 -0.0492 0.9670
vn -0.2772 -0.1787 -0.9441
vn 0.3917 0.1919 0.8999
vn 0.9224 0.3784 0.0768
vn 0.5670 -0.0356 -0.8230
vn 0.8387 0.3258 -0.4364
vn -0.1735 -0.1466 -0.9739
vn 0.7622 0.0956 0.6403
vn 0.0858 0.0304 0.9959
vn -0.1488 -0.1190 -0.9817
vn -0.6968 -0.3046 -0.6494
vn -0.6714 0.7375 -0.0730
vn -0.6679 0.7436 -0.0311
vn -0.6341 0.7708 -0.0623
vn -0.6360 0.7700 -0.0505
vn 0.6250 -0.7794 0.0423
vn 0.6286 -0.7729 0.0863
vn 0.6207 -0.7812 0.0660
vn 0.6579 -0.7518 0.0434
vn -0.8698 0.4930 0.0211
usemtl LightOrange
s off
f 227//1 270//1 257//1 213//1
f 217//2 260//2 262//2 219//2
f 219//3 262//3 264//3 221//3
f 221//4 264//4 266//4 223//4
f 223//5 266//5 268//5 225//5
f 225//6 268//6 270//6 227//6
f 216//7 230//7 233//7 234//7 229//7
f 213//8 257//8 258//8 215//8
f 249//9 248//9 237//9 236//9
f 215//10 258//10 260//10 217//10
f 229//11 234//11 218//11
f 220//12 231//12 222//12
f 224//13 232//13 226//13
f 228//14 230//14 214//14
f 231//15 233//15 232//15 224//15
f 214//16 230//16 216//16
f 222//17 231//17 224//17
f 234//18 233//18 231//18 220//18
f 226//19 232//19 228//19
f 218//20 234//20 220//20
f 232//21 233//21 230//21 228//21
f 269//22 226//22 228//22 271//22
f 267//23 224//23 226//23 269//23
f 265//24 222//24 224//24 267//24
f 263//25 220//25 222//25 265//25
f 261//26 218//26 220//26 263//26
f 259//27 216//27 229//27 218//27 261//27
f 256//28 214//28 216//28 259//28
f 235//29 244//29 242//29
f 251//30 250//30 240//30 239//30
f 253//31 252//31 235//31 242//31
f 252//32 249//32 236//32 235//32
f 248//33 254//33 238//33 237//33
f 250//34 255//34 241//34 240//34
f 254//35 251//35 239//35 238//35
f 255//36 253//36 242//36 241//36
f 225//37 227//37 253//37 255//37
f 242//38 245//38 241//38
f 240//39 243//39 239//39
f 239//40 243//40 238//40
f 238//41 247//41 237//41
f 236//42 244//42 235//42
f 236//43 247//43 246//43 244//43
f 243//44 240//44 245//44 246//44
f 246//45 245//45 242//45 244//45
f 237//46 247//46 236//46
f 241//47 245//47 240//47
f 246//48 247//48 238//48 243//48
f 219//49 221//49 251//49 254//49
f 223//50 225//50 255//50 250//50
f 217//51 219//51 254//51 248//51
f 213//52 215//52 249//52 252//52
f 227//53 213//53 252//53 253//53
f 221//54 223//54 250//54 251//54
f 215//55 217//55 248//55 249//55
f 271//56 256//56 257//56 270//56
f 269//57 271//57 270//57 268//57
f 267//58 269//58 268//58 266//58
f 265//59 267//59 266//59 264//59
f 263//60 265//60 264//60 262//60
f 261//61 263//61 262//61 260//61
f 259//62 261//62 260//62 258//62
f 256//63 259//63 258//63 257//63
f 271//64 228//64 214//64 256//64
usemtl Green
f 13//65 1//65 2//65 14//65
f 3//66 15//66 18//66 5//66
f 5//67 18//67 14//67 2//67
f 19//68 20//68 15//68 16//68
f 16//69 4//69 54//69 53//69
f 21//70 53//70 17//70 22//70
f 25//71 26//71 21//71 22//71
f 17//72 9//72 10//72 24//72
f 36//73 37//73 33//73 34//73
f 39//74 41//74 38//74 31//74
f 17//75 24//75 23//75 22//75
f 4//76 16//76 15//76 3//76
f 42//77 43//77 29//77 30//77
f 33//78 32//78 45//78 44//78
f 32//79 29//79 43//79 45//79
f 44//80 48//80 47//80 46//80
f 27//81 31//81 38//81 55//81
f 55//82 56//82 27//82
f 49//83 52//83 50//83 28//83
f 27//84 35//84 40//84 31//84
f 8//85 12//85 11//85 9//85
f 27//86 28//86 51//86 35//86
f 34//87 33//87 44//87 46//87
f 23//88 51//88 28//88 22//88
f 1//89 30//89 29//89 2//89
f 8//90 38//90 41//90 12//90
f 21//91 49//91 46//91 16//91
f 3//92 33//92 37//92 7//92
f 15//93 44//93 45//93 18//93
f 25//94 50//94 52//94 26//94
f 9//95 31//95 40//95 10//95
f 4//96 34//96 38//96 8//96
f 5//97 32//97 33//97 3//97
f 12//98 41//98 39//98 11//98
f 19//99 47//99 48//99 20//99
f 22//100 28//100 50//100 25//100
f 7//101 37//101 36//101 6//101
f 16//102 46//102 47//102 19//102
f 24//103 35//103 51//103 23//103
f 11//104 39//104 31//104 9//104
f 18//105 45//105 43//105 14//105
f 6//106 36//106 34//106 4//106
f 10//107 40//107 35//107 24//107
f 2//108 29//108 32//108 5//108
f 14//109 43//109 42//109 13//109
f 26//110 52//110 49//110 21//110
f 20//111 48//111 44//111 15//111
f 3//112 7//112 6//112 4//112
f 53//113 21//113 16//113
f 54//114 4//114 8//114
f 17//115 53//115 54//115
f 54//116 8//116 9//116 17//116
f 49//117 56//117 46//117
f 34//118 55//118 38//118
f 46//119 56//119 55//119 34//119
f 27//120 56//120 49//120 28//120
f 113//121 101//121 102//121 114//121
f 103//122 115//122 118//122 105//122
f 105//123 118//123 114//123 102//123
f 119//124 120//124 115//124 116//124
f 116//125 104//125 154//125 153//125
f 121//126 153//126 117//126 122//126
f 125//127 126//127 121//127 122//127
f 117//128 109//128 110//128 124//128
f 136//129 137//129 133//129 134//129
f 139//130 141//130 138//130 131//130
f 117//131 124//131 123//131 122//131
f 104//132 116//132 115//132 103//132
f 142//133 143//133 129//133 130//133
f 133//134 132//134 145//134 144//134
f 132//135 129//135 143//135 145//135
f 144//136 148//136 147//136 146//136
f 127//137 131//137 138//137 155//137
f 155//138 156//138 127//138
f 149//139 152//139 150//139 128//139
f 127//140 135//140 140//140 131//140
f 108//141 112//141 111//141 109//141
f 127//142 128//142 151//142 135//142
f 134//143 133//143 144//143 146//143
f 123//144 151//144 128//144 122//144
f 101//145 130//145 129//145 102//145
f 108//146 138//146 141//146 112//146
f 121//147 149//147 146//147 116//147
f 103//148 133//148 137//148 107//148
f 115//149 144//149 145//149 118//149
f 125//150 150//150 152//150 126//150
f 109//151 131//151 140//151 110//151
f 104//152 134//152 138//152 108//152
f 105//153 132//153 133//153 103//153
f 112//154 141//154 139//154 111//154
f 119//155 147//155 148//155 120//155
f 122//156 128//156 150//156 125//156
f 107//157 137//157 136//157 106//157
f 116//158 146//158 147//158 119//158
f 124//159 135//159 151//159 123//159
f 111//160 139//160 131//160 109//160
f 118//161 145//161 143//161 114//161
f 106//162 136//162 134//162 104//162
f 110//163 140//163 135//163 124//163
f 102//164 129//164 132//164 105//164
f 114//165 143//165 142//165 113//165
f 126//166 152//166 149//166 121//166
f 120//167 148//167 144//167 115//167
f 103//168 107//168 106//168 104//168
f 153//169 121//169 116//169
f 154//170 104//170 108//170
f 117//171 153//171 154//171
f 154//172 108//172 109//172 117//172
f 149//173 156//173 146//173
f 134//174 155//174 138//174
f 146//175 156//175 155//175 134//175
f 127//176 156//176 149//176 128//176
f 169//177 157//177 158//177 170//177
f 159//178 171//178 174//178 161//178
f 161//179 174//179 170//179 158//179
f 175//180 176//180 171//180 172//180
f 172//181 160//181 210//181 209//181
f 177//182 209//182 173//182 178//182
f 181//183 182//183 177//183 178//183
f 173//184 165//184 166//184 180//184
f 192//185 193//185 189//185 190//185
f 195//186 197//186 194//186 187//186
f 173//187 180//187 179//187 178//187
f 160//188 172//188 171//188 159//188
f 198//189 199//189 185//189 186//189
f 189//190 188//190 201//190 200//190
f 188//191 185//191 199//191 201//191
f 200//192 204//192 203//192 202//192
f 183//193 187//193 194//193 211//193
f 211//194 212//194 183//194
f 205//195 208//195 206//195 184//195
f 183//196 191//196 196//196 187//196
f 164//197 168//197 167//197 165//197
f 183//198 184//198 207//198 191//198
f 190//199 189//199 200//199 202//199
f 179//200 207//200 184//200 178//200
f 157//201 186//201 185//201 158//201
f 164//202 194//202 197//202 168//202
f 177//203 205//203 202//203 172//203
f 159//204 189//204 193//204 163//204
f 171//205 200//205 201//205 174//205
f 181//206 206//206 208//206 182//206
f 165//207 187//207 196//207 166//207
f 160//208 190//208 194//208 164//208
f 161//209 188//209 189//209 159//209
f 168//210 197//210 195//210 167//210
f 175//211 203//211 204//211 176//211
f 178//212 184//212 206//212 181//212
f 163//213 193//213 192//213 162//213
f 172//214 202//214 203//214 175//214
f 180//215 191//215 207//215 179//215
f 167//216 195//216 187//216 165//216
f 174//217 201//217 199//217 170//217
f 162//218 192//218 190//218 160//218
f 166//219 196//219 191//219 180//219
f 158//220 185//220 188//220 161//220
f 170//221 199//221 198//221 169//221
f 182//222 208//222 205//222 177//222
f 176//223 204//223 200//223 171//223
f 159//224 163//224 162//224 160//224
f 209//225 177//225 172//225
f 210//226 160//226 164//226
f 173//227 209//227 210//227
f 210//228 164//228 165//228 173//228
f 205//229 212//229 202//229
f 190//230 211//230 194//230
f 202//231 212//231 211//231 190//231
f 183//232 212//232 205//232 184//232
usemtl DarkGreen2
f 66//233 57//233 58//233 67//233
f 83//234 82//234 91//234 92//234
f 60//235 70//235 67//235 58//235
f 68//236 59//236 98//236 97//236
f 71//237 97//237 69//237 72//237
f 75//238 76//238 71//238 72//238
f 69//239 62//239 63//239 74//239
f 86//240 88//240 85//240 81//240
f 69//241 74//241 73//241 72//241
f 89//242 90//242 79//242 80//242
f 59//243 60//243 82//243 83//243
f 82//244 79//244 90//244 91//244
f 77//245 81//245 85//245 99//245
f 99//246 100//246 77//246
f 93//247 96//247 94//247 78//247
f 77//248 84//248 87//248 81//248
f 61//249 65//249 64//249 62//249
f 77//250 78//250 95//250 84//250
f 73//251 95//251 78//251 72//251
f 57//252 80//252 79//252 58//252
f 61//253 85//253 88//253 65//253
f 71//254 93//254 92//254 68//254
f 75//255 94//255 96//255 76//255
f 62//256 81//256 87//256 63//256
f 59//257 83//257 85//257 61//257
f 68//258 92//258 91//258 70//258
f 65//259 88//259 86//259 64//259
f 72//260 78//260 94//260 75//260
f 74//261 84//261 95//261 73//261
f 64//262 86//262 81//262 62//262
f 70//263 91//263 90//263 67//263
f 63//264 87//264 84//264 74//264
f 58//265 79//265 82//265 60//265
f 67//266 90//266 89//266 66//266
f 76//267 96//267 93//267 71//267
f 97//268 71//268 68//268
f 98//269 59//269 61//269
f 69//270 97//270 98//270
f 98//271 61//271 62//271 69//271
f 93//272 100//272 92//272
f 83//273 99//273 85//273
f 92//274 100//274 99//274 83//274
f 77//275 100//275 93//275 78//275
f 59//276 68//276 70//276 60//276
