# Blender v2.79 (sub 0) OBJ File: 'Carrot_3.blend'
# www.blender.org
mtllib Carrot_3.mtl
o Carrot_3_Cylinder.009
v 0.000000 -0.043561 -0.030221
v 0.000123 0.047839 -0.027568
v 0.021370 -0.043561 -0.021370
v 0.019534 0.047839 -0.019528
v 0.030221 -0.043561 0.000000
v 0.027575 0.047839 -0.000116
v 0.021370 -0.043561 0.021370
v 0.019534 0.047839 0.019295
v -0.000000 -0.043561 0.030221
v 0.000123 0.047839 0.027336
v -0.021370 -0.043561 0.021370
v -0.019289 0.047839 0.019295
v -0.030221 -0.043561 -0.000000
v -0.027329 0.047839 -0.000116
v -0.021370 -0.043561 -0.021370
v -0.019289 0.047839 -0.019528
v 0.019772 0.047839 -0.018953
v 0.000280 0.061093 -0.017327
v 0.000281 0.061093 0.016795
v -0.016782 0.061093 -0.000267
v 0.000280 0.067643 -0.000279
v 0.017447 0.061093 -0.000266
v -0.005790 -0.228036 -0.006132
v -0.001464 -0.228477 -0.004336
v 0.000328 -0.228660 0.000000
v -0.001464 -0.228477 0.004336
v -0.005790 -0.228036 0.006132
v -0.010117 -0.227595 0.004336
v -0.011909 -0.227413 0.000000
v -0.010117 -0.227595 -0.004336
v -0.006281 -0.239861 0.003235
v -0.006281 -0.239861 -0.003235
v -0.009510 -0.239532 0.000000
v -0.006459 -0.244138 0.000000
v -0.003053 -0.240190 0.000000
v 0.018506 -0.134438 0.000000
v 0.012553 -0.133832 -0.014402
v -0.016189 -0.130904 0.014402
v -0.001818 -0.132368 0.020367
v -0.001818 -0.132368 -0.020367
v -0.016189 -0.130904 -0.014402
v 0.012553 -0.133832 0.014402
v -0.022142 -0.130297 0.000000
v -0.000055 0.028344 -0.032404
v 0.000000 0.004150 -0.034032
v 0.024064 0.004150 -0.024064
v 0.022896 0.028344 -0.022898
v 0.034032 0.004150 0.000000
v 0.032402 0.028344 0.000053
v 0.024064 0.004150 0.024064
v 0.022896 0.028344 0.023003
v -0.000000 0.004150 0.034032
v -0.000055 0.028344 0.032509
v -0.024064 0.004150 0.024064
v -0.023005 0.028344 0.023003
v -0.034032 0.004150 -0.000000
v -0.032511 0.028344 0.000053
v -0.024064 0.004150 -0.024064
v -0.023005 0.028344 -0.022898
v 0.008453 0.033389 0.004243
v 0.005917 0.106608 -0.019128
v 0.013079 0.198567 -0.067466
v 0.006348 0.138004 -0.033717
v 0.023762 0.218446 -0.087704
v 0.009419 0.235575 -0.112652
v 0.003056 0.247612 -0.159119
v 0.034301 0.245087 -0.116608
v 0.039510 0.234755 -0.102719
v -0.001420 0.031451 0.003765
v -0.009360 0.103661 -0.019914
v -0.027300 0.190934 -0.069564
v -0.008064 0.233593 -0.115396
v -0.013744 0.134157 -0.034753
v -0.038953 0.206626 -0.090967
v -0.025496 0.229029 -0.114493
v -0.016775 0.243849 -0.160160
v -0.006391 0.246936 -0.170806
v -0.050761 0.229104 -0.121059
v -0.055412 0.216887 -0.107674
v -0.007387 0.226341 -0.118255
v -0.024821 0.221415 -0.117285
v 0.006496 0.102844 -0.024631
v 0.009196 0.029209 -0.001628
v 0.010169 0.228014 -0.115483
v 0.006972 0.134092 -0.038884
v 0.013819 0.191260 -0.069485
v -0.005563 0.237538 -0.171135
v 0.024503 0.210420 -0.090514
v 0.035157 0.236880 -0.119699
v 0.003833 0.238216 -0.159378
v 0.040371 0.226447 -0.105792
v -0.000824 0.027245 -0.002162
v -0.008728 0.099897 -0.025411
v -0.013173 0.130230 -0.039921
v -0.026590 0.183607 -0.071581
v -0.038071 0.198643 -0.093794
v -0.049887 0.220902 -0.124156
v -0.015948 0.234457 -0.160399
v -0.054540 0.208582 -0.110752
v -0.018498 0.211103 -0.090115
v 0.003041 0.215144 -0.088987
v 0.004057 0.206491 -0.091931
v -0.017435 0.202459 -0.093057
v 0.000807 0.045983 0.009297
v 0.010082 0.112226 0.012635
v 0.027549 0.167035 0.032690
v 0.044619 0.200682 0.028301
v 0.019456 0.142007 0.015646
v 0.041960 0.199436 0.043126
v 0.033752 0.181627 0.049530
v 0.064247 0.222169 0.042104
v 0.087165 0.245616 0.025861
v 0.136898 0.272604 0.016572
v 0.091460 0.251349 0.056123
v 0.078956 0.238274 0.061664
v 0.000906 0.045983 -0.001476
v 0.010240 0.112226 -0.004644
v 0.028070 0.167035 -0.024378
v 0.045057 0.200682 -0.019678
v 0.089360 0.247387 0.004718
v 0.019667 0.142007 -0.007484
v 0.042669 0.199436 -0.034549
v 0.034579 0.181627 -0.041102
v 0.064933 0.222169 -0.033120
v 0.087551 0.245616 -0.016462
v 0.137107 0.272604 -0.006267
v 0.149111 0.277360 0.005263
v 0.092398 0.251349 -0.046640
v 0.079997 0.238274 -0.052409
v 0.093340 0.244695 0.004754
v 0.091488 0.242298 -0.016227
v 0.016025 0.111718 0.012639
v 0.007274 0.045108 0.009356
v 0.091106 0.242298 0.025699
v 0.025116 0.141511 0.015743
v 0.032840 0.164539 0.032721
v 0.047631 0.196748 0.028294
v 0.151328 0.271271 0.005283
v 0.047836 0.196855 0.043200
v 0.039662 0.178913 0.049584
v 0.068460 0.218155 0.042142
v 0.096154 0.246877 0.056166
v 0.138906 0.266657 0.016557
v 0.083647 0.233805 0.061707
v 0.007372 0.045108 -0.001417
v 0.016181 0.111718 -0.004540
v 0.033361 0.164539 -0.024312
v 0.025328 0.141511 -0.007478
v 0.048068 0.196748 -0.019616
v 0.048545 0.196855 -0.034515
v 0.040489 0.178913 -0.041048
v 0.069147 0.218155 -0.033081
v 0.097092 0.246877 -0.046597
v 0.139114 0.266657 -0.006215
v 0.084687 0.233805 -0.052366
v 0.064711 0.222169 -0.008770
v 0.064472 0.222169 0.017464
v 0.068683 0.218155 0.017734
v 0.068922 0.218155 -0.008442
v 0.001191 0.049388 -0.005962
v -0.018060 0.113459 -0.002875
v -0.045173 0.166510 -0.014938
v -0.067411 0.189911 -0.004175
v -0.031814 0.141820 -0.001471
v -0.068512 0.190111 -0.019247
v -0.057653 0.177981 -0.028934
v -0.096321 0.202758 -0.010231
v -0.120917 0.215467 0.013692
v -0.172640 0.221533 0.037692
v -0.134828 0.219882 -0.013768
v -0.120428 0.212607 -0.023654
v 0.004263 0.049266 0.004364
v -0.013133 0.113265 0.013686
v -0.029609 0.165556 0.039966
v -0.055093 0.188603 0.042179
v -0.117914 0.215777 0.034808
v -0.025180 0.141621 0.020695
v -0.048570 0.187994 0.055798
v -0.033837 0.175819 0.058481
v -0.077007 0.200708 0.062445
v -0.110051 0.214313 0.054582
v -0.166776 0.220910 0.059758
v -0.182281 0.221074 0.052062
v -0.108444 0.217081 0.085515
v -0.091140 0.209498 0.086556
v -0.120529 0.211788 0.035390
v -0.112455 0.209764 0.054887
v -0.023605 0.112047 -0.001190
v -0.004812 0.047533 -0.004198
v -0.123220 0.210907 0.014381
v -0.036818 0.140793 -0.000013
v -0.049174 0.163259 -0.013802
v -0.068703 0.185134 -0.003931
v -0.182099 0.214601 0.051831
v -0.072874 0.185511 -0.018238
v -0.062222 0.173486 -0.027795
v -0.098672 0.197456 -0.009756
v -0.137448 0.213975 -0.013239
v -0.172312 0.215269 0.037463
v -0.123045 0.206705 -0.023125
v -0.001740 0.047412 0.006128
v -0.018706 0.111854 0.015275
v -0.033754 0.162120 0.041087
v -0.030142 0.140619 0.022238
v -0.056403 0.183828 0.042357
v -0.052921 0.183393 0.056845
v -0.038412 0.171332 0.059623
v -0.079359 0.195405 0.062920
v -0.111064 0.211174 0.086044
v -0.166465 0.214648 0.059464
v -0.093758 0.203595 0.087085
v -0.083259 0.201372 0.038919
v -0.089995 0.202087 0.013574
v -0.092405 0.196791 0.013826
v -0.085685 0.196077 0.039116
vn -0.3816 -0.0736 -0.9214
vn 0.9214 -0.0736 0.3816
vn 0.3816 -0.0736 0.9214
vn -0.3816 -0.0736 0.9214
vn -0.9214 -0.0736 0.3816
vn -0.9214 -0.0736 -0.3816
vn 0.4193 0.8067 -0.4164
vn 0.3816 -0.0736 -0.9214
vn 0.9073 -0.1750 -0.3824
vn 0.9214 -0.0736 -0.3816
vn 0.7563 0.5744 -0.3133
vn 0.3091 0.5897 0.7462
vn -0.7428 0.5946 0.3077
vn -0.3108 0.5834 -0.7504
vn -0.4115 0.8133 0.4115
vn 0.3121 0.5785 -0.7536
vn -0.3077 0.5945 0.7429
vn 0.4124 0.8110 0.4149
vn -0.7459 0.5900 -0.3090
vn 0.7532 0.5791 0.3120
vn -0.4137 0.8110 -0.4138
vn -0.8979 0.2355 -0.3719
vn -0.8965 0.2415 0.3714
vn -0.3714 0.2413 0.8966
vn 0.3720 0.2349 0.8980
vn 0.9000 0.2261 0.3728
vn 0.9013 0.2200 -0.3733
vn 0.3733 0.2202 -0.9012
vn -0.3930 -0.2034 -0.8968
vn -0.3910 -0.1196 0.9126
vn -0.3910 -0.1196 -0.9126
vn 0.3657 -0.1518 -0.9183
vn 0.9073 -0.1750 0.3824
vn -0.9212 -0.0971 0.3767
vn 0.3657 -0.1518 0.9183
vn -0.9212 -0.0971 -0.3767
vn -0.9211 -0.0854 -0.3798
vn -0.9116 -0.1805 -0.3692
vn -0.3930 -0.2034 0.8968
vn 0.3519 -0.2365 0.9057
vn 0.8883 -0.2605 0.3782
vn 0.3519 -0.2365 -0.9057
vn 0.6326 -0.3874 -0.6706
vn -0.6862 -0.3226 0.6520
vn -0.6862 -0.3226 -0.6520
vn 0.8883 -0.2605 -0.3782
vn -0.9116 -0.1805 0.3692
vn 0.6326 -0.3874 0.6706
vn 0.3769 -0.1088 0.9199
vn -0.9211 -0.0854 0.3798
vn 0.9168 -0.1186 0.3814
vn 0.3769 -0.1088 -0.9199
vn -0.3845 -0.0950 -0.9182
vn -0.3845 -0.0950 0.9182
vn 0.9168 -0.1186 -0.3814
vn -0.3820 0.0612 -0.9221
vn -0.9223 0.0588 -0.3820
vn -0.9224 0.0571 0.3821
vn -0.3821 0.0572 0.9224
vn 0.3820 0.0589 0.9223
vn 0.9221 0.0613 0.3820
vn 0.9220 0.0629 -0.3819
vn 0.3819 0.0629 -0.9220
vn -0.3727 0.2266 -0.8998
vn -0.1058 0.2992 0.9483
vn 0.1361 -0.4800 -0.8666
vn -0.1268 0.4193 0.8989
vn -0.1733 0.7392 0.6508
vn -0.1821 0.7665 0.6159
vn -0.1640 0.7584 0.6308
vn -0.2245 0.9431 0.2453
vn 0.1626 -0.7598 -0.6295
vn -0.1590 0.9552 0.2498
vn 0.1065 -0.2927 -0.9503
vn 0.9806 -0.0061 0.1957
vn 0.1259 -0.4132 -0.9019
vn 0.1807 -0.7489 -0.6375
vn 0.1739 -0.7484 -0.6400
vn 0.1884 -0.7556 -0.6273
vn 0.2021 -0.9542 -0.2204
vn -0.1868 0.7554 0.6281
vn 0.1825 -0.9579 -0.2215
vn -0.9767 -0.0490 -0.2089
vn 0.9955 0.0590 0.0745
vn 0.7607 -0.1527 0.6310
vn -0.9170 -0.2038 0.3428
vn -0.9493 0.0171 -0.3140
vn 0.9877 0.1093 -0.1119
vn 0.9043 -0.0463 0.4244
vn -0.9787 -0.1773 0.1033
vn 0.9576 0.1827 -0.2226
vn 0.2378 0.3593 -0.9024
vn -0.7107 -0.0414 -0.7023
vn -0.2655 0.3152 -0.9112
vn -0.9892 -0.1465 -0.0060
vn 0.7741 0.0857 -0.6272
vn 0.9954 0.0280 0.0921
vn -0.9928 -0.1168 -0.0253
vn -0.7654 -0.2906 0.5742
vn -0.1889 0.7401 0.6455
vn -0.1588 0.7450 0.6479
vn -0.1766 0.7705 0.6125
vn -0.1713 0.7681 0.6170
vn 0.1651 -0.7750 -0.6100
vn 0.1904 -0.7719 -0.6066
vn 0.1780 -0.7762 -0.6048
vn 0.1685 -0.7507 -0.6388
vn -0.1382 0.4936 0.8586
vn -0.9902 0.1391 -0.0090
vn -0.9497 0.3130 -0.0087
vn -0.9536 0.3010 -0.0087
vn -0.9025 0.4262 0.0623
vn -0.7362 0.6768 -0.0067
vn -0.7167 0.6974 -0.0021
vn -0.7254 0.6882 0.0119
vn -0.4631 0.8859 -0.0274
vn 0.9083 -0.4182 -0.0103
vn 0.7230 -0.6907 -0.0131
vn -0.4635 0.8859 0.0190
vn -0.8922 0.4516 -0.0081
vn 0.9914 -0.1307 0.0090
vn 0.9461 -0.3237 0.0086
vn 0.9562 -0.2927 0.0087
vn 0.9080 -0.4182 0.0269
vn 0.7321 -0.6812 0.0037
vn 0.7342 -0.6789 0.0067
vn 0.7227 -0.6907 0.0263
vn 0.4339 -0.9010 0.0013
vn -0.7250 0.6882 -0.0251
vn 0.4339 -0.9010 0.0066
vn 0.9092 -0.4164 0.0083
vn 0.1647 0.0753 -0.9835
vn -0.0105 -0.0483 0.9988
vn -0.4642 -0.4801 0.7443
vn -0.3003 -0.2845 -0.9105
vn -0.3112 -0.6579 0.6858
vn -0.1410 -0.5360 -0.8324
vn 0.2149 0.2164 -0.9524
vn 0.1468 0.0753 0.9863
vn -0.3168 -0.2845 0.9048
vn -0.1562 -0.5360 0.8297
vn 0.1974 0.2164 0.9561
vn 0.1355 0.2860 -0.9486
vn 0.6470 0.7253 0.2352
vn 0.1182 0.2860 0.9509
vn 0.5903 0.8043 -0.0687
vn 0.6277 0.2158 -0.7479
vn 0.6512 0.7253 -0.2234
vn 0.0011 -0.0969 -0.9953
vn 0.5889 0.8043 0.0794
vn 0.6139 0.2158 0.7593
vn -0.0171 -0.0969 0.9951
vn 0.0078 -0.0483 -0.9988
vn -0.4505 -0.4801 -0.7527
vn -0.2986 -0.6579 -0.6913
vn -0.9012 0.4262 -0.0788
vn -0.7134 0.7008 -0.0065
vn -0.7166 0.6974 -0.0109
vn 0.7146 -0.6995 0.0065
vn 0.7321 -0.6811 0.0097
vn 0.9185 0.2890 -0.2699
vn 0.8983 0.3589 -0.2534
vn 0.8656 0.4315 -0.2540
vn 0.6374 0.7243 -0.2631
vn 0.4196 0.9036 -0.0860
vn 0.3935 0.9155 -0.0833
vn 0.4009 0.9106 -0.1000
vn 0.1058 0.9941 0.0240
vn -0.6915 -0.7053 0.1564
vn -0.3976 -0.9121 0.1003
vn 0.0939 0.9954 -0.0209
vn 0.6641 0.7289 -0.1666
vn -0.9208 -0.2808 0.2706
vn -0.9000 -0.3558 0.2517
vn -0.8744 -0.4112 0.2575
vn -0.6666 -0.7259 0.1692
vn -0.4136 -0.9062 0.0875
vn -0.4171 -0.9048 0.0853
vn -0.4077 -0.9110 0.0622
vn -0.0674 -0.9977 -0.0075
vn 0.4104 0.9096 -0.0643
vn -0.0687 -0.9976 -0.0126
vn -0.6859 -0.7074 0.1708
vn 0.0861 -0.0157 0.9962
vn -0.2766 -0.0363 -0.9603
vn 0.3900 -0.2523 -0.8856
vn 0.6117 -0.1722 0.7721
vn 0.3259 -0.5798 -0.7467
vn 0.4634 -0.5200 0.7176
vn -0.0174 0.0969 0.9951
vn -0.4196 0.0380 -0.9069
vn 0.1456 -0.1227 -0.9817
vn -0.0092 -0.5042 -0.8636
vn -0.5074 0.1489 -0.8487
vn 0.0069 0.2278 0.9737
vn -0.9008 0.4340 0.0143
vn -0.4666 0.2584 -0.8459
vn -0.7977 0.5212 0.3033
vn -0.4412 -0.0541 0.8958
vn -0.7831 0.4215 0.4573
vn 0.3056 -0.1058 0.9463
vn -0.8357 0.5253 0.1603
vn -0.8281 -0.0130 -0.5604
vn -0.2670 -0.0827 -0.9601
vn 0.2930 -0.0588 0.9543
vn 0.7744 -0.2931 0.5608
vn 0.6577 -0.5902 0.4680
vn 0.7149 0.6971 -0.0541
vn 0.3905 0.9173 -0.0779
vn 0.3958 0.9153 -0.0748
vn -0.3921 -0.9166 0.0783
vn -0.4152 -0.9061 0.0817
usemtl LightOrange
s off
f 15//1 58//1 45//1 1//1
f 5//2 48//2 50//2 7//2
f 7//3 50//3 52//3 9//3
f 9//4 52//4 54//4 11//4
f 11//5 54//5 56//5 13//5
f 13//6 56//6 58//6 15//6
f 4//7 18//7 21//7 22//7 17//7
f 1//8 45//8 46//8 3//8
f 37//9 36//9 25//9 24//9
f 3//10 46//10 48//10 5//10
f 17//11 22//11 6//11
f 8//12 19//12 10//12
f 12//13 20//13 14//13
f 16//14 18//14 2//14
f 19//15 21//15 20//15 12//15
f 2//16 18//16 4//16
f 10//17 19//17 12//17
f 22//18 21//18 19//18 8//18
f 14//19 20//19 16//19
f 6//20 22//20 8//20
f 20//21 21//21 18//21 16//21
f 57//22 14//22 16//22 59//22
f 55//23 12//23 14//23 57//23
f 53//24 10//24 12//24 55//24
f 51//25 8//25 10//25 53//25
f 49//26 6//26 8//26 51//26
f 47//27 4//27 17//27 6//27 49//27
f 44//28 2//28 4//28 47//28
f 23//29 32//29 30//29
f 39//30 38//30 28//30 27//30
f 41//31 40//31 23//31 30//31
f 40//32 37//32 24//32 23//32
f 36//33 42//33 26//33 25//33
f 38//34 43//34 29//34 28//34
f 42//35 39//35 27//35 26//35
f 43//36 41//36 30//36 29//36
f 13//37 15//37 41//37 43//37
f 30//38 33//38 29//38
f 28//39 31//39 27//39
f 27//40 31//40 26//40
f 26//41 35//41 25//41
f 24//42 32//42 23//42
f 24//43 35//43 34//43 32//43
f 31//44 28//44 33//44 34//44
f 34//45 33//45 30//45 32//45
f 25//46 35//46 24//46
f 29//47 33//47 28//47
f 34//48 35//48 26//48 31//48
f 7//49 9//49 39//49 42//49
f 11//50 13//50 43//50 38//50
f 5//51 7//51 42//51 36//51
f 1//52 3//52 37//52 40//52
f 15//53 1//53 40//53 41//53
f 9//54 11//54 38//54 39//54
f 3//55 5//55 36//55 37//55
f 59//56 44//56 45//56 58//56
f 57//57 59//57 58//57 56//57
f 55//58 57//58 56//58 54//58
f 53//59 55//59 54//59 52//59
f 51//60 53//60 52//60 50//60
f 49//61 51//61 50//61 48//61
f 47//62 49//62 48//62 46//62
f 44//63 47//63 46//63 45//63
f 59//64 16//64 2//64 44//64
usemtl Green
f 69//65 60//65 61//65 70//65
f 86//66 85//66 94//66 95//66
f 63//67 73//67 70//67 61//67
f 71//68 62//68 101//68 100//68
f 74//69 100//69 72//69 75//69
f 78//70 79//70 74//70 75//70
f 72//71 65//71 66//71 77//71
f 89//72 91//72 88//72 84//72
f 72//73 77//73 76//73 75//73
f 92//74 93//74 82//74 83//74
f 62//75 63//75 85//75 86//75
f 85//76 82//76 93//76 94//76
f 80//77 84//77 88//77 102//77
f 102//78 103//78 80//78
f 96//79 99//79 97//79 81//79
f 80//80 87//80 90//80 84//80
f 64//81 68//81 67//81 65//81
f 80//82 81//82 98//82 87//82
f 76//83 98//83 81//83 75//83
f 60//84 83//84 82//84 61//84
f 64//85 88//85 91//85 68//85
f 74//86 96//86 95//86 71//86
f 78//87 97//87 99//87 79//87
f 65//88 84//88 90//88 66//88
f 62//89 86//89 88//89 64//89
f 71//90 95//90 94//90 73//90
f 68//91 91//91 89//91 67//91
f 75//92 81//92 97//92 78//92
f 77//93 87//93 98//93 76//93
f 67//94 89//94 84//94 65//94
f 73//95 94//95 93//95 70//95
f 66//96 90//96 87//96 77//96
f 61//97 82//97 85//97 63//97
f 70//98 93//98 92//98 69//98
f 79//99 99//99 96//99 74//99
f 100//100 74//100 71//100
f 101//101 62//101 64//101
f 72//102 100//102 101//102
f 101//103 64//103 65//103 72//103
f 96//104 103//104 95//104
f 86//105 102//105 88//105
f 95//106 103//106 102//106 86//106
f 80//107 103//107 96//107 81//107
f 62//108 71//108 73//108 63//108
f 116//109 104//109 105//109 117//109
f 106//110 118//110 121//110 108//110
f 108//111 121//111 117//111 105//111
f 122//112 123//112 118//112 119//112
f 119//113 107//113 157//113 156//113
f 124//114 156//114 120//114 125//114
f 128//115 129//115 124//115 125//115
f 120//116 112//116 113//116 127//116
f 139//117 140//117 136//117 137//117
f 142//118 144//118 141//118 134//118
f 120//119 127//119 126//119 125//119
f 107//120 119//120 118//120 106//120
f 145//121 146//121 132//121 133//121
f 136//122 135//122 148//122 147//122
f 135//123 132//123 146//123 148//123
f 147//124 151//124 150//124 149//124
f 130//125 134//125 141//125 158//125
f 158//126 159//126 130//126
f 152//127 155//127 153//127 131//127
f 130//128 138//128 143//128 134//128
f 111//129 115//129 114//129 112//129
f 130//130 131//130 154//130 138//130
f 137//131 136//131 147//131 149//131
f 126//132 154//132 131//132 125//132
f 104//133 133//133 132//133 105//133
f 111//134 141//134 144//134 115//134
f 124//135 152//135 149//135 119//135
f 106//136 136//136 140//136 110//136
f 118//137 147//137 148//137 121//137
f 128//138 153//138 155//138 129//138
f 112//139 134//139 143//139 113//139
f 107//140 137//140 141//140 111//140
f 108//141 135//141 136//141 106//141
f 115//142 144//142 142//142 114//142
f 122//143 150//143 151//143 123//143
f 125//144 131//144 153//144 128//144
f 110//145 140//145 139//145 109//145
f 119//146 149//146 150//146 122//146
f 127//147 138//147 154//147 126//147
f 114//148 142//148 134//148 112//148
f 121//149 148//149 146//149 117//149
f 109//150 139//150 137//150 107//150
f 113//151 143//151 138//151 127//151
f 105//152 132//152 135//152 108//152
f 117//153 146//153 145//153 116//153
f 129//154 155//154 152//154 124//154
f 123//155 151//155 147//155 118//155
f 106//156 110//156 109//156 107//156
f 156//113 124//113 119//113
f 157//113 107//113 111//113
f 120//157 156//157 157//157
f 157//158 111//158 112//158 120//158
f 152//159 159//159 149//159
f 137//159 158//159 141//159
f 149//159 159//159 158//159 137//159
f 130//160 159//160 152//160 131//160
f 172//161 160//161 161//161 173//161
f 162//162 174//162 177//162 164//162
f 164//163 177//163 173//163 161//163
f 178//164 179//164 174//164 175//164
f 175//165 163//165 213//165 212//165
f 180//166 212//166 176//166 181//166
f 184//167 185//167 180//167 181//167
f 176//168 168//168 169//168 183//168
f 195//169 196//169 192//169 193//169
f 198//170 200//170 197//170 190//170
f 176//171 183//171 182//171 181//171
f 163//172 175//172 174//172 162//172
f 201//173 202//173 188//173 189//173
f 192//174 191//174 204//174 203//174
f 191//175 188//175 202//175 204//175
f 203//176 207//176 206//176 205//176
f 186//177 190//177 197//177 214//177
f 214//178 215//178 186//178
f 208//179 211//179 209//179 187//179
f 186//180 194//180 199//180 190//180
f 167//181 171//181 170//181 168//181
f 186//182 187//182 210//182 194//182
f 193//183 192//183 203//183 205//183
f 182//184 210//184 187//184 181//184
f 160//185 189//185 188//185 161//185
f 167//186 197//186 200//186 171//186
f 180//187 208//187 205//187 175//187
f 162//188 192//188 196//188 166//188
f 174//189 203//189 204//189 177//189
f 184//190 209//190 211//190 185//190
f 168//191 190//191 199//191 169//191
f 163//192 193//192 197//192 167//192
f 164//193 191//193 192//193 162//193
f 171//194 200//194 198//194 170//194
f 178//195 206//195 207//195 179//195
f 181//196 187//196 209//196 184//196
f 166//197 196//197 195//197 165//197
f 175//198 205//198 206//198 178//198
f 183//199 194//199 210//199 182//199
f 170//200 198//200 190//200 168//200
f 177//201 204//201 202//201 173//201
f 165//202 195//202 193//202 163//202
f 169//203 199//203 194//203 183//203
f 161//204 188//204 191//204 164//204
f 173//205 202//205 201//205 172//205
f 185//206 211//206 208//206 180//206
f 179//207 207//207 203//207 174//207
f 162//208 166//208 165//208 163//208
f 212//165 180//165 175//165
f 213//165 163//165 167//165
f 176//209 212//209 213//209
f 213//210 167//210 168//210 176//210
f 208//211 215//211 205//211
f 193//211 214//211 197//211
f 205//211 215//211 214//211 193//211
f 186//212 215//212 208//212 187//212
