# Blender v2.79 (sub 0) OBJ File: 'Corn_Crop.blend'
# www.blender.org
mtllib Corn_Crop.mtl
o Corn_Crop_Cube.024
v 0.158040 0.064758 -0.000000
v 0.289351 0.000000 -0.000000
v 0.158040 0.000000 0.064758
v 0.158040 0.000000 -0.064758
v 0.158040 -0.064758 -0.000000
v 0.256523 0.034690 -0.000000
v 0.256523 0.000000 -0.034690
v 0.256523 -0.034690 -0.000000
v 0.256523 0.000000 0.034690
v 0.158040 0.048568 0.048568
v 0.158040 0.048568 -0.048568
v 0.158040 -0.048568 0.048568
v 0.158040 -0.048568 -0.048568
v 0.061822 0.050662 0.050662
v 0.061822 0.050662 -0.050662
v 0.061822 -0.050662 0.050662
v 0.061822 -0.050662 -0.050662
v 0.230991 0.029808 0.029808
v 0.230991 0.029808 -0.029808
v 0.230991 -0.029808 -0.029808
v 0.230991 -0.029808 0.029808
v -0.023554 0.068989 -0.000013
v -0.023554 -0.000034 -0.069035
v -0.023554 -0.069056 -0.000013
v -0.023554 -0.000034 0.069009
v 0.155325 0.071296 -0.000013
v 0.155325 -0.000033 0.071316
v 0.155325 -0.000033 -0.071342
v 0.155325 -0.071363 -0.000013
v -0.023554 0.051733 0.051754
v 0.061343 0.074370 -0.000013
v 0.061343 -0.000034 -0.074417
v 0.061343 -0.074437 -0.000013
v 0.061343 -0.000034 0.074391
v 0.061343 0.055769 0.055790
v 0.061343 0.055769 -0.055816
v 0.061343 -0.055836 0.055790
v 0.061343 -0.055836 -0.055816
v -0.023554 0.051733 -0.051780
v -0.023554 -0.051800 -0.051780
v -0.023554 -0.051800 0.051754
v -0.058815 0.007607 0.002961
vn 0.5024 -0.8327 0.2328
vn 0.5024 -0.2285 0.8339
vn 0.5024 0.8348 -0.2252
vn 0.5024 0.2262 0.8346
vn 0.5024 0.8351 0.2243
vn 0.5024 -0.2318 -0.8330
vn 0.5024 -0.8325 -0.2337
vn 0.5024 0.2295 -0.8337
vn -0.0600 0.9470 0.3157
vn -0.0600 0.9470 -0.3157
vn -0.0600 0.3157 -0.9470
vn -0.0600 -0.3157 -0.9470
vn -0.0600 -0.9470 -0.3157
vn -0.0600 -0.9470 0.3157
vn -0.0600 -0.3157 0.9470
vn -0.0600 0.3157 0.9470
vn -0.9164 -0.2831 -0.2831
vn -0.9082 -0.2960 0.2960
vn -0.8929 0.3184 -0.3184
vn -0.8811 0.3344 0.3344
vn 0.0310 -0.9482 0.3161
vn 0.0310 -0.9482 -0.3161
vn 0.0310 0.3161 -0.9482
vn 0.0310 -0.3161 -0.9482
vn 0.0310 0.9482 -0.3161
vn 0.0310 0.9482 0.3161
vn 0.0310 -0.3161 0.9482
vn 0.0310 0.3161 0.9482
vn 0.0275 0.9483 -0.3161
vn 0.0275 0.9483 0.3161
vn 0.2918 0.8956 0.3358
vn 0.2918 0.8956 -0.3358
vn 0.5855 -0.5732 -0.5732
vn 0.5855 0.5732 -0.5732
vn 0.5855 0.5732 0.5732
vn 0.5855 -0.5732 0.5732
vn 0.0275 0.3161 0.9483
vn 0.0275 -0.3161 0.9483
vn 0.2918 -0.3358 0.8956
vn 0.2918 0.3358 0.8956
vn 0.0275 -0.3161 -0.9483
vn 0.0275 0.3161 -0.9483
vn 0.2918 0.3358 -0.8956
vn 0.2918 -0.3358 -0.8956
vn 0.0275 -0.9483 0.3161
vn 0.0275 -0.9483 -0.3161
vn 0.2918 -0.8956 -0.3358
vn 0.2918 -0.8956 0.3358
usemtl DarkGreen2
s off
f 4//1 17//1 38//1 28//1
f 14//2 1//2 26//2 35//2
f 3//3 14//3 35//3 27//3
f 5//4 16//4 37//4 29//4
f 15//5 4//5 28//5 36//5
f 1//6 15//6 36//6 26//6
f 16//7 3//7 27//7 37//7
f 17//8 5//8 29//8 38//8
f 22//9 30//9 35//9 31//9
f 22//10 31//10 36//10 39//10
f 23//11 39//11 36//11 32//11
f 23//12 32//12 38//12 40//12
f 24//13 40//13 38//13 33//13
f 24//14 33//14 37//14 41//14
f 25//15 41//15 37//15 34//15
f 25//16 34//16 35//16 30//16
f 40//17 24//17 42//17 23//17
f 24//18 41//18 25//18 42//18
f 23//19 42//19 22//19 39//19
f 42//20 25//20 30//20 22//20
f 37//21 33//21 29//21
f 38//22 29//22 33//22
f 36//23 28//23 32//23
f 38//24 32//24 28//24
f 36//25 31//25 26//25
f 35//26 26//26 31//26
f 37//27 27//27 34//27
f 35//28 34//28 27//28
usemtl Yellow
f 1//29 11//29 15//29
f 1//30 14//30 10//30
f 1//31 10//31 18//31 6//31
f 1//32 6//32 19//32 11//32
f 2//33 8//33 20//33 7//33
f 2//34 7//34 19//34 6//34
f 2//35 6//35 18//35 9//35
f 2//36 9//36 21//36 8//36
f 3//37 10//37 14//37
f 3//38 16//38 12//38
f 3//39 12//39 21//39 9//39
f 3//40 9//40 18//40 10//40
f 4//41 13//41 17//41
f 4//42 15//42 11//42
f 4//43 11//43 19//43 7//43
f 4//44 7//44 20//44 13//44
f 5//45 12//45 16//45
f 5//46 17//46 13//46
f 5//47 13//47 20//47 8//47
f 5//48 8//48 21//48 12//48
