# Blender v2.79 (sub 0) OBJ File: 'Corn_1.blend'
# www.blender.org
mtllib Corn_1.mtl
o Corn_1_Plane.014
v -0.020504 0.214714 -0.008191
v -0.008253 0.128814 -0.001737
v -0.014459 0.214562 0.014502
v -0.006666 0.128781 0.004246
v -0.039061 0.285264 -0.006549
v -0.031254 0.284990 0.022527
v -0.055081 0.319952 -0.003551
v -0.050158 0.321793 0.019405
v -0.082929 0.357405 0.007651
v -0.081426 0.357728 0.013774
v -0.088808 0.363303 0.011715
v -0.008267 0.000999 -0.001741
v -0.006682 0.000999 0.004242
v 0.002480 0.233257 -0.008474
v -0.010974 0.145136 -0.002398
v -0.003535 0.233241 0.014210
v -0.009116 0.145136 0.003506
v 0.021537 0.305587 -0.006840
v 0.013779 0.305414 0.022190
v 0.038503 0.342266 -0.003818
v 0.033669 0.344204 0.019025
v 0.067679 0.381503 0.007357
v 0.066333 0.381956 0.013373
v 0.074626 0.388412 0.011378
v -0.015393 0.215934 -0.006858
v -0.003033 0.129228 -0.000375
v -0.009382 0.215934 0.015826
v -0.001448 0.129228 0.005607
v -0.034199 0.287359 -0.005279
v -0.026500 0.287359 0.023769
v -0.050691 0.323031 -0.002406
v -0.046008 0.325237 0.020483
v -0.079281 0.361454 0.008591
v -0.078043 0.362037 0.014640
v -0.085793 0.367918 0.012480
v -0.003033 0.000999 -0.000375
v -0.001448 0.000999 0.005607
v 0.007620 0.232125 -0.006858
v -0.005756 0.144491 -0.000792
v 0.001608 0.232125 0.015826
v -0.003898 0.144491 0.005112
v 0.026425 0.303549 -0.005279
v 0.018727 0.303549 0.023769
v 0.042917 0.339221 -0.002406
v 0.038234 0.341427 0.020483
v 0.071507 0.377645 0.008591
v 0.070269 0.378228 0.014640
v 0.078019 0.384108 0.012480
vn -0.9598 -0.1177 0.2547
vn -0.9355 -0.2516 0.2482
vn -0.8752 -0.4272 0.2270
vn -0.7530 -0.6227 0.2128
vn -0.6250 -0.7563 0.1934
vn -0.9666 0.0001 0.2563
vn -0.9836 0.1100 -0.1430
vn -0.9354 0.2519 -0.2482
vn -0.8753 0.4270 -0.2270
vn -0.7542 0.6211 -0.2130
vn -0.6313 0.7499 -0.1978
vn 0.9599 0.1178 -0.2544
vn 0.9355 0.2518 -0.2479
vn 0.8753 0.4271 -0.2268
vn 0.7533 0.6218 -0.2141
vn 0.6271 0.7526 -0.2008
vn 0.9666 0.0000 -0.2562
vn 0.9836 -0.1098 0.1429
vn 0.9355 -0.2518 0.2479
vn 0.8753 -0.4271 0.2268
vn 0.7533 -0.6218 0.2141
vn 0.6271 -0.7526 0.2008
vn 0.2575 -0.0357 -0.9656
vn -0.2276 -0.1352 0.9643
vn 0.2262 0.0815 -0.9707
vn -0.1937 -0.1554 0.9687
vn 0.1658 0.1578 -0.9734
vn -0.2305 -0.0351 0.9724
vn 0.0000 0.2808 -0.9598
vn -0.2164 -0.0345 0.9757
vn -0.2286 0.3542 -0.9068
vn -0.2610 0.0107 0.9653
vn 0.0000 -1.0000 -0.0000
vn -0.2524 0.0000 0.9676
vn 0.2524 -0.0000 -0.9676
vn 0.2783 -0.1084 -0.9543
vn -0.1356 -0.9898 0.0427
vn -0.3104 -0.0957 0.9458
vn 0.2860 -0.0540 -0.9567
vn -0.3101 -0.0310 0.9502
vn 0.2787 -0.0508 -0.9590
vn -0.2132 0.1902 0.9583
vn 0.3262 0.0272 -0.9449
vn -0.1170 0.2498 0.9612
vn 0.4183 0.1121 -0.9014
vn 0.0181 0.2979 0.9544
usemtl Green
s off
f 1//1 2//1 4//1 3//1
f 1//2 3//2 6//2 5//2
f 5//3 6//3 8//3 7//3
f 7//4 8//4 10//4 9//4
f 9//5 10//5 11//5
f 4//6 2//6 12//6 13//6
f 14//7 15//7 17//7 16//7
f 14//8 16//8 19//8 18//8
f 18//9 19//9 21//9 20//9
f 20//10 21//10 23//10 22//10
f 22//11 23//11 24//11
f 25//12 27//12 28//12 26//12
f 25//13 29//13 30//13 27//13
f 29//14 31//14 32//14 30//14
f 31//15 33//15 34//15 32//15
f 33//16 35//16 34//16
f 28//17 37//17 36//17 26//17
f 38//18 40//18 41//18 39//18
f 38//19 42//19 43//19 40//19
f 42//20 44//20 45//20 43//20
f 44//21 46//21 47//21 45//21
f 46//22 48//22 47//22
f 2//23 1//23 25//23 26//23
f 3//24 4//24 28//24 27//24
f 1//25 5//25 29//25 25//25
f 6//26 3//26 27//26 30//26
f 5//27 7//27 31//27 29//27
f 8//28 6//28 30//28 32//28
f 7//29 9//29 33//29 31//29
f 10//30 8//30 32//30 34//30
f 9//31 11//31 35//31 33//31
f 11//32 10//32 34//32 35//32
f 13//33 12//33 36//33 37//33
f 4//34 13//34 37//34 28//34
f 12//35 2//35 26//35 36//35
f 15//36 14//36 38//36 39//36
f 17//37 15//37 39//37 41//37
f 16//38 17//38 41//38 40//38
f 14//39 18//39 42//39 38//39
f 19//40 16//40 40//40 43//40
f 18//41 20//41 44//41 42//41
f 21//42 19//42 43//42 45//42
f 20//43 22//43 46//43 44//43
f 23//44 21//44 45//44 47//44
f 22//45 24//45 48//45 46//45
f 24//46 23//46 47//46 48//46
