# Blender v2.79 (sub 0) OBJ File: 'Corn_3.blend'
# www.blender.org
mtllib Corn_3.mtl
o Corn_3_Cube.014
v 0.010727 1.221752 -0.006988
v 0.023152 1.221415 -0.019339
v 0.035104 1.221362 -0.007539
v 0.022769 1.221664 0.004786
v 0.022373 1.246759 -0.006749
v 0.041080 0.880984 0.002307
v 0.055557 0.880993 -0.012170
v 0.041049 0.880946 -0.026603
v 0.026589 0.880959 -0.012142
v 0.016987 0.266004 0.016606
v 0.036109 0.265971 -0.002588
v 0.055274 0.265999 0.016600
v 0.036138 0.266012 0.035762
v -0.021456 -0.000065 -0.000000
v 0.013654 1.221783 0.001988
v 0.013496 1.240624 -0.006657
v 0.021739 0.265961 0.002184
v -0.000046 0.000068 -0.021499
v 0.022768 1.240254 -0.015866
v 0.050474 0.265976 0.002206
v 0.021452 0.000065 -0.000004
v 0.031428 1.240328 -0.007021
v 0.050484 0.265994 0.030952
v 0.000019 -0.000023 0.021500
v 0.022202 1.240677 0.002188
v 0.030189 0.880940 -0.001272
v 0.013926 1.221614 -0.016103
v 0.032180 1.221332 -0.016481
v 0.031944 1.221493 0.001558
v 0.028505 1.122192 0.003262
v 0.041710 1.122107 -0.009944
v 0.029020 1.122118 -0.022489
v 0.015786 1.122201 -0.009332
v 0.030207 0.880960 -0.022996
v 0.051909 0.880953 -0.022991
v 0.051946 0.881002 -0.001326
v 0.021786 0.266020 0.030986
v 0.004332 0.559261 0.014336
v 0.021241 0.559260 -0.002574
v 0.038175 0.559235 0.014311
v 0.021283 0.559215 0.031204
v -0.016047 -0.000114 0.016132
v 0.015684 1.235818 -0.000071
v -0.016115 -0.000012 -0.016127
v 0.016078 1.235543 -0.013514
v 0.016132 -0.000005 0.016123
v 0.029094 1.235591 -0.000370
v 0.016062 0.000086 -0.016125
v 0.029452 1.235324 -0.013782
v 0.018776 1.122224 0.000323
v 0.019297 1.122153 -0.019117
v 0.038617 1.122098 -0.019459
v 0.038310 1.122144 -0.000229
v 0.008544 0.559278 0.001671
v 0.033951 0.559231 0.001624
v 0.033963 0.559219 0.026980
v 0.008606 0.559206 0.026969
v 0.121344 0.602977 -0.040836
v 0.025934 0.504572 0.009239
v 0.137698 0.609359 0.021357
v 0.032441 0.502729 0.024618
v 0.177673 0.685810 -0.053711
v 0.196605 0.692237 0.025400
v 0.247845 0.712110 -0.067513
v 0.267796 0.719203 -0.006434
v 0.336913 0.729176 -0.063934
v 0.341957 0.731035 -0.047850
v 0.355117 0.730369 -0.058200
v -0.055627 0.845245 -0.049406
v 0.035824 0.746249 0.008265
v -0.009863 0.850874 -0.094447
v 0.045803 0.744406 -0.005124
v -0.098712 0.925585 -0.094192
v -0.040302 0.933512 -0.149258
v -0.145781 0.909498 -0.155706
v -0.100200 0.912960 -0.201479
v -0.175521 0.876539 -0.234837
v -0.163771 0.877268 -0.247046
v -0.176905 0.868331 -0.252167
v 0.078341 1.064093 -0.102304
v 0.030717 0.968747 -0.010226
v 0.124291 1.070228 -0.059381
v 0.041268 0.967329 -0.002900
v 0.117877 1.144256 -0.141472
v 0.174886 1.151014 -0.086771
v 0.214164 1.146716 -0.225608
v 0.259503 1.147118 -0.182851
v 0.267510 1.075849 -0.235204
v 0.279549 1.076078 -0.223895
v 0.279522 1.061619 -0.231941
v 0.175592 1.167255 -0.195792
v 0.227879 1.170435 -0.144849
v -0.089019 0.257600 0.043882
v 0.016685 0.159139 0.023055
v -0.086958 0.263780 -0.020242
v 0.014793 0.157296 0.006464
v -0.146634 0.340363 0.040822
v -0.142750 0.347146 -0.040925
v -0.218287 0.366883 0.034497
v -0.220214 0.374006 -0.029888
v -0.302794 0.383971 0.006033
v -0.303266 0.385863 -0.010970
v -0.319004 0.385194 -0.004624
v 0.119284 0.397809 0.096036
v 0.042250 0.298418 0.019709
v 0.063848 0.403440 0.128596
v 0.034091 0.297256 0.026360
v 0.150063 0.477967 0.149810
v 0.080144 0.485660 0.188084
v 0.180765 0.461690 0.219660
v 0.125424 0.465176 0.252813
v 0.190302 0.428797 0.303434
v 0.176011 0.429527 0.312335
v 0.187425 0.420669 0.320398
v -0.022077 0.733265 0.107634
v 0.031329 0.629849 0.006359
v -0.069398 0.739382 0.066254
v 0.023529 0.628824 0.001317
v -0.060188 0.813348 0.148068
v -0.119072 0.820168 0.095289
v -0.153394 0.815874 0.235280
v -0.200212 0.816215 0.194053
v -0.206389 0.745031 0.246615
v -0.218798 0.745252 0.235713
v -0.218495 0.730819 0.243745
v -0.115939 0.836341 0.204234
v -0.169993 0.839517 0.155055
v 0.126218 0.598412 -0.039523
v 0.030072 0.499235 0.010335
v 0.142202 0.604374 0.022559
v 0.036580 0.497392 0.025713
v 0.180665 0.679640 -0.052868
v 0.201134 0.687274 0.026634
v 0.249297 0.705329 -0.067062
v 0.269762 0.712573 -0.005855
v 0.337654 0.722265 -0.063661
v 0.343062 0.724179 -0.047486
v 0.355492 0.723425 -0.058019
v -0.059870 0.840145 -0.051037
v 0.031752 0.740967 0.006715
v -0.014385 0.846106 -0.096212
v 0.041731 0.739124 -0.006675
v -0.102418 0.920018 -0.095662
v -0.040082 0.926557 -0.149227
v -0.144123 0.902780 -0.155120
v -0.097988 0.906439 -0.200681
v -0.172984 0.870164 -0.233915
v -0.160793 0.871131 -0.245955
v -0.173620 0.862388 -0.250960
v 0.081788 1.058426 -0.101791
v 0.033418 0.962568 -0.009853
v 0.127295 1.064238 -0.058951
v 0.043969 0.961151 -0.002527
v 0.119710 1.137617 -0.141147
v 0.177986 1.145060 -0.086286
v 0.211216 1.140754 -0.225951
v 0.257769 1.140495 -0.183038
v 0.263473 1.070907 -0.235684
v 0.275775 1.070839 -0.224344
v 0.275104 1.057184 -0.232464
v 0.174977 1.160344 -0.195821
v 0.228525 1.163511 -0.144687
v -0.094053 0.253229 0.042362
v 0.012269 0.154051 0.021737
v -0.091823 0.259191 -0.021707
v 0.010377 0.152209 0.005146
v -0.150052 0.334457 0.039759
v -0.147196 0.342091 -0.042286
v -0.219895 0.360146 0.033960
v -0.222210 0.367390 -0.030537
v -0.303682 0.377082 0.005703
v -0.304293 0.378996 -0.011341
v -0.319195 0.378242 -0.004754
v 0.122939 0.392298 0.097604
v 0.045772 0.292780 0.021206
v 0.067812 0.398259 0.130325
v 0.037613 0.291618 0.027858
v 0.153324 0.472171 0.151256
v 0.079809 0.478710 0.188006
v 0.179273 0.454932 0.219088
v 0.123421 0.458592 0.252025
v 0.188052 0.422317 0.302541
v 0.173293 0.423284 0.311246
v 0.184513 0.414541 0.319227
v -0.025363 0.727505 0.107186
v 0.028773 0.623596 0.006024
v -0.072260 0.733317 0.065872
v 0.020973 0.622572 0.000982
v -0.061965 0.806696 0.147772
v -0.122021 0.814139 0.094866
v -0.150621 0.809833 0.235552
v -0.198566 0.809574 0.194199
v -0.202529 0.739986 0.247004
v -0.215198 0.739918 0.236076
v -0.214260 0.726263 0.244170
v -0.115397 0.829423 0.204242
v -0.170604 0.832590 0.154903
vn -0.9516 -0.0547 0.3024
vn -0.9239 0.1531 0.3507
vn -0.9074 0.1704 -0.3841
vn -0.9417 -0.0404 -0.3340
vn -0.3292 0.0107 -0.9442
vn -0.3724 0.1882 -0.9088
vn 0.3526 0.2051 -0.9130
vn 0.3013 0.0481 -0.9523
vn 0.9483 0.0707 -0.3093
vn 0.9117 0.2115 -0.3523
vn 0.9069 0.1949 0.3735
vn 0.9430 0.0547 0.3283
vn 0.3337 0.0046 0.9427
vn 0.3813 0.1637 0.9098
vn -0.3443 0.1459 0.9275
vn -0.2914 -0.0312 0.9561
vn 0.5356 0.6575 -0.5299
vn -0.5310 0.6359 -0.5601
vn -0.5413 0.6537 0.5288
vn 0.5556 0.6385 0.5325
vn 0.3158 0.0656 0.9466
vn 0.3258 0.0137 0.9453
vn -0.3013 -0.0200 0.9533
vn -0.3132 0.1040 0.9440
vn 0.9455 -0.0771 -0.3165
vn 0.9476 0.0571 -0.3143
vn 0.9453 0.0516 0.3222
vn 0.9486 -0.0253 0.3156
vn -0.3161 -0.0513 -0.9473
vn -0.3214 0.0004 -0.9469
vn 0.3087 0.0313 -0.9506
vn 0.3132 -0.0899 -0.9454
vn -0.9441 0.0913 0.3167
vn -0.9511 -0.0466 0.3054
vn -0.9445 -0.0380 -0.3262
vn -0.9481 0.0396 -0.3156
vn -0.9419 0.1164 0.3152
vn -0.9473 -0.0383 0.3181
vn -0.9485 -0.0433 -0.3139
vn -0.9381 0.1549 -0.3099
vn -0.3146 0.1098 -0.9429
vn -0.3161 -0.0159 -0.9486
vn 0.3152 0.0160 -0.9489
vn 0.3164 0.0244 -0.9483
vn 0.9437 -0.1004 -0.3152
vn 0.9474 0.0528 -0.3158
vn 0.9472 0.0577 0.3156
vn 0.9401 -0.1389 0.3115
vn 0.3158 -0.0935 0.9442
vn 0.3169 0.0307 0.9480
vn -0.3163 -0.0012 0.9487
vn -0.3163 -0.0079 0.9486
vn -0.6843 0.7114 0.1601
vn -0.8079 0.5698 0.1501
vn -0.3506 0.9365 0.0069
vn -0.1861 0.9811 -0.0535
vn -0.0321 0.9940 -0.1048
vn 0.4850 0.7113 0.5088
vn 0.5098 0.6042 0.6124
vn -0.2141 0.9705 -0.1112
vn -0.3262 0.9098 -0.2568
vn -0.4251 0.8307 -0.3595
vn -0.5029 0.7056 0.4993
vn -0.6023 0.5689 0.5600
vn 0.2670 0.9114 -0.3130
vn 0.5814 0.5231 -0.6232
vn 0.6305 0.3765 -0.6788
vn -0.2250 0.9639 0.1421
vn 0.7017 0.7114 0.0397
vn 0.8174 0.5700 0.0840
vn 0.3382 0.9364 0.0936
vn 0.1636 0.9811 0.1038
vn 0.0023 0.9939 0.1105
vn -0.3322 0.7110 -0.6198
vn -0.3433 0.6022 -0.7207
vn 0.1798 0.9700 0.1635
vn 0.2536 0.9097 0.3287
vn 0.3245 0.8304 0.4529
vn 0.4856 0.7187 -0.4977
vn 0.5834 0.5687 -0.5798
vn -0.2565 0.9114 0.3217
vn -0.5604 0.5229 0.6423
vn -0.6077 0.3764 0.6993
vn 0.2202 0.9639 -0.1494
vn 0.6844 -0.7112 -0.1609
vn 0.8089 -0.5675 -0.1538
vn 0.3476 -0.9376 -0.0020
vn 0.1860 -0.9811 0.0539
vn 0.0307 -0.9937 0.1074
vn -0.4848 -0.7112 -0.5091
vn -0.5039 -0.5955 -0.6256
vn 0.2136 -0.9677 0.1341
vn 0.3261 -0.9097 0.2571
vn 0.4240 -0.8298 0.3627
vn 0.5026 -0.7054 -0.4998
vn 0.6017 -0.5675 -0.5621
vn -0.2668 -0.9118 0.3122
vn -0.5800 -0.5212 0.6261
vn -0.6297 -0.3740 0.6809
vn 0.2249 -0.9642 -0.1407
vn -0.7019 -0.7112 -0.0393
vn -0.8194 -0.5675 -0.0813
vn -0.3340 -0.9376 -0.0964
vn -0.1631 -0.9811 -0.1043
vn 0.0009 -0.9937 -0.1116
vn 0.3319 -0.7109 0.6201
vn 0.3362 -0.5955 0.7296
vn -0.1744 -0.9677 -0.1822
vn -0.2535 -0.9097 -0.3289
vn -0.3228 -0.8298 -0.4552
vn -0.4852 -0.7186 0.4983
vn -0.5828 -0.5675 0.5817
vn 0.2564 -0.9118 -0.3208
vn 0.5590 -0.5212 -0.6449
vn 0.6069 -0.3740 -0.7013
vn -0.2201 -0.9642 0.1481
vn -0.1299 -0.3443 -0.9298
vn -0.1040 0.1323 0.9857
vn 0.0286 -0.1766 -0.9839
vn -0.1781 0.0786 0.9809
vn -0.1425 -0.1467 -0.9789
vn 0.2997 0.3091 0.9026
vn 0.0479 -0.0451 -0.9978
vn 0.4637 0.1664 0.8702
vn 0.3014 -0.0069 -0.9535
vn 0.6325 0.0982 0.7684
vn -0.4561 0.0941 0.8849
vn 0.6189 -0.2882 -0.7307
vn -0.5449 0.1673 0.8216
vn 0.7395 -0.1752 -0.6500
vn -0.8149 0.0948 0.5719
vn 0.6454 0.0697 -0.7607
vn -0.8765 -0.2322 0.4217
vn 0.5437 0.0986 -0.8335
vn -0.8945 -0.3829 0.2306
vn 0.3585 0.0083 -0.9335
vn -0.6098 -0.3690 -0.7015
vn 0.3446 0.2217 0.9122
vn -0.4091 -0.2355 -0.8816
vn 0.2206 0.1860 0.9575
vn -0.6760 -0.0768 -0.7329
vn 0.7616 -0.0623 0.6450
vn -0.0442 0.1033 -0.9937
vn 0.5591 -0.3010 0.7726
vn 0.1900 -0.0665 -0.9795
vn 0.4453 -0.4546 0.7714
vn -0.5557 0.1774 -0.8122
vn 0.6875 0.2345 0.6873
vn -0.0422 -0.2482 0.9678
vn 0.2707 0.0171 -0.9625
vn -0.1846 -0.0941 0.9783
vn 0.3142 -0.0254 -0.9490
vn -0.1143 -0.0799 0.9902
vn -0.0743 0.2089 -0.9751
vn -0.3197 -0.0018 0.9475
vn -0.2071 0.1198 -0.9710
vn -0.5532 0.0154 0.8329
vn -0.3907 0.0677 -0.9180
vn 0.5847 0.1577 -0.7957
vn -0.7433 -0.3430 0.5743
vn 0.6694 0.2204 -0.7095
vn -0.8590 -0.1924 0.4745
vn 0.9284 0.1061 -0.3562
vn -0.8035 0.1013 0.5867
vn 0.9484 -0.2459 -0.2002
vn -0.7051 0.1583 0.6912
vn 0.9255 -0.3786 -0.0025
vn -0.5301 0.0871 0.8434
vn 0.6289 -0.3511 0.6937
vn -0.3723 0.2163 -0.9026
vn 0.4431 -0.2326 0.8658
vn -0.2535 0.1850 -0.9495
vn 0.6996 -0.0788 0.7101
vn -0.7841 -0.0594 -0.6178
vn 0.0755 0.1043 0.9917
vn -0.5977 -0.2935 -0.7461
vn -0.1677 -0.0579 0.9841
vn -0.4925 -0.4496 -0.7452
vn 0.5872 0.1673 0.7919
vn -0.7133 0.2255 -0.6636
usemtl Green
s off
f 1//1 33//1 50//1 15//1
f 1//2 15//2 43//2 16//2
f 1//3 16//3 45//3 27//3
f 1//4 27//4 51//4 33//4
f 2//5 32//5 51//5 27//5
f 2//6 27//6 45//6 19//6
f 2//7 19//7 49//7 28//7
f 2//8 28//8 52//8 32//8
f 3//9 31//9 52//9 28//9
f 3//10 28//10 49//10 22//10
f 3//11 22//11 47//11 29//11
f 3//12 29//12 53//12 31//12
f 4//13 30//13 53//13 29//13
f 4//14 29//14 47//14 25//14
f 4//15 25//15 43//15 15//15
f 4//16 15//16 50//16 30//16
f 5//17 22//17 49//17 19//17
f 5//18 19//18 45//18 16//18
f 5//19 16//19 43//19 25//19
f 5//20 25//20 47//20 22//20
f 6//21 41//21 56//21 36//21
f 6//22 36//22 53//22 30//22
f 6//23 30//23 50//23 26//23
f 6//24 26//24 57//24 41//24
f 7//25 40//25 55//25 35//25
f 7//26 35//26 52//26 31//26
f 7//27 31//27 53//27 36//27
f 7//28 36//28 56//28 40//28
f 8//29 39//29 54//29 34//29
f 8//30 34//30 51//30 32//30
f 8//31 32//31 52//31 35//31
f 8//32 35//32 55//32 39//32
f 9//33 38//33 57//33 26//33
f 9//34 26//34 50//34 33//34
f 9//35 33//35 51//35 34//35
f 9//36 34//36 54//36 38//36
f 10//37 14//37 42//37 37//37
f 10//38 37//38 57//38 38//38
f 10//39 38//39 54//39 17//39
f 10//40 17//40 44//40 14//40
f 11//41 18//41 44//41 17//41
f 11//42 17//42 54//42 39//42
f 11//43 39//43 55//43 20//43
f 11//44 20//44 48//44 18//44
f 12//45 21//45 48//45 20//45
f 12//46 20//46 55//46 40//46
f 12//47 40//47 56//47 23//47
f 12//48 23//48 46//48 21//48
f 13//49 24//49 46//49 23//49
f 13//50 23//50 56//50 41//50
f 13//51 41//51 57//51 37//51
f 13//52 37//52 42//52 24//52
f 58//53 59//53 61//53 60//53
f 58//54 60//54 63//54 62//54
f 62//55 63//55 65//55 64//55
f 64//56 65//56 67//56 66//56
f 66//57 67//57 68//57
f 69//58 70//58 72//58 71//58
f 69//59 71//59 74//59 73//59
f 73//60 74//60 76//60 75//60
f 75//61 76//61 78//61 77//61
f 77//62 78//62 79//62
f 80//63 81//63 83//63 82//63
f 80//64 82//64 85//64 84//64
f 91//65 92//65 87//65 86//65
f 86//66 87//66 89//66 88//66
f 88//67 89//67 90//67
f 84//68 85//68 92//68 91//68
f 93//69 94//69 96//69 95//69
f 93//70 95//70 98//70 97//70
f 97//71 98//71 100//71 99//71
f 99//72 100//72 102//72 101//72
f 101//73 102//73 103//73
f 104//74 105//74 107//74 106//74
f 104//75 106//75 109//75 108//75
f 108//76 109//76 111//76 110//76
f 110//77 111//77 113//77 112//77
f 112//78 113//78 114//78
f 115//79 116//79 118//79 117//79
f 115//80 117//80 120//80 119//80
f 126//81 127//81 122//81 121//81
f 121//82 122//82 124//82 123//82
f 123//83 124//83 125//83
f 119//84 120//84 127//84 126//84
f 128//85 130//85 131//85 129//85
f 128//86 132//86 133//86 130//86
f 132//87 134//87 135//87 133//87
f 134//88 136//88 137//88 135//88
f 136//89 138//89 137//89
f 139//90 141//90 142//90 140//90
f 139//91 143//91 144//91 141//91
f 143//92 145//92 146//92 144//92
f 145//93 147//93 148//93 146//93
f 147//94 149//94 148//94
f 150//95 152//95 153//95 151//95
f 150//96 154//96 155//96 152//96
f 161//97 156//97 157//97 162//97
f 156//98 158//98 159//98 157//98
f 158//99 160//99 159//99
f 154//100 161//100 162//100 155//100
f 163//101 165//101 166//101 164//101
f 163//102 167//102 168//102 165//102
f 167//103 169//103 170//103 168//103
f 169//104 171//104 172//104 170//104
f 171//105 173//105 172//105
f 174//106 176//106 177//106 175//106
f 174//107 178//107 179//107 176//107
f 178//108 180//108 181//108 179//108
f 180//109 182//109 183//109 181//109
f 182//110 184//110 183//110
f 185//111 187//111 188//111 186//111
f 185//112 189//112 190//112 187//112
f 196//113 191//113 192//113 197//113
f 191//114 193//114 194//114 192//114
f 193//115 195//115 194//115
f 189//116 196//116 197//116 190//116
f 59//117 58//117 128//117 129//117
f 60//118 61//118 131//118 130//118
f 58//119 62//119 132//119 128//119
f 63//120 60//120 130//120 133//120
f 62//121 64//121 134//121 132//121
f 65//122 63//122 133//122 135//122
f 64//123 66//123 136//123 134//123
f 67//124 65//124 135//124 137//124
f 66//125 68//125 138//125 136//125
f 68//126 67//126 137//126 138//126
f 70//127 69//127 139//127 140//127
f 71//128 72//128 142//128 141//128
f 69//129 73//129 143//129 139//129
f 74//130 71//130 141//130 144//130
f 73//131 75//131 145//131 143//131
f 76//132 74//132 144//132 146//132
f 75//133 77//133 147//133 145//133
f 78//134 76//134 146//134 148//134
f 77//135 79//135 149//135 147//135
f 79//136 78//136 148//136 149//136
f 81//137 80//137 150//137 151//137
f 82//138 83//138 153//138 152//138
f 80//139 84//139 154//139 150//139
f 85//140 82//140 152//140 155//140
f 84//141 91//141 161//141 154//141
f 87//142 92//142 162//142 157//142
f 86//143 88//143 158//143 156//143
f 89//144 87//144 157//144 159//144
f 88//145 90//145 160//145 158//145
f 90//146 89//146 159//146 160//146
f 91//147 86//147 156//147 161//147
f 92//148 85//148 155//148 162//148
f 94//149 93//149 163//149 164//149
f 95//150 96//150 166//150 165//150
f 93//151 97//151 167//151 163//151
f 98//152 95//152 165//152 168//152
f 97//153 99//153 169//153 167//153
f 100//154 98//154 168//154 170//154
f 99//155 101//155 171//155 169//155
f 102//156 100//156 170//156 172//156
f 101//157 103//157 173//157 171//157
f 103//158 102//158 172//158 173//158
f 105//159 104//159 174//159 175//159
f 106//160 107//160 177//160 176//160
f 104//161 108//161 178//161 174//161
f 109//162 106//162 176//162 179//162
f 108//163 110//163 180//163 178//163
f 111//164 109//164 179//164 181//164
f 110//165 112//165 182//165 180//165
f 113//166 111//166 181//166 183//166
f 112//167 114//167 184//167 182//167
f 114//168 113//168 183//168 184//168
f 116//169 115//169 185//169 186//169
f 117//170 118//170 188//170 187//170
f 115//171 119//171 189//171 185//171
f 120//172 117//172 187//172 190//172
f 119//173 126//173 196//173 189//173
f 122//174 127//174 197//174 192//174
f 121//175 123//175 193//175 191//175
f 124//176 122//176 192//176 194//176
f 123//177 125//177 195//177 193//177
f 125//178 124//178 194//178 195//178
f 126//179 121//179 191//179 196//179
f 127//180 120//180 190//180 197//180
