# Blender v2.79 (sub 0) OBJ File: 'Flower_3.blend'
# www.blender.org
mtllib Flower_3.mtl
o Flower_3_Plane.022
v 0.018895 0.459644 -0.027779
v 0.023970 0.459648 0.020279
v 0.039554 0.470475 -0.043169
v 0.045712 0.470495 0.030367
v 0.082668 0.485168 -0.034543
v 0.087129 0.484008 0.005688
v 0.094081 0.491048 -0.015789
v -0.026116 0.459648 0.023455
v -0.028493 0.459646 -0.023295
v -0.045404 0.470485 0.041817
v -0.048871 0.470485 -0.038399
v -0.088727 0.486593 0.023895
v -0.090678 0.485626 -0.016525
v -0.100065 0.490532 0.004616
v 0.042782 0.470484 0.039126
v -0.037323 0.470494 0.044511
v 0.026017 0.482078 0.085510
v -0.014340 0.480137 0.087966
v 0.006942 0.483312 0.097772
v -0.045630 0.470490 -0.046802
v 0.034651 0.470480 -0.047655
v -0.026146 0.495397 -0.091043
v 0.014322 0.495071 -0.091854
v -0.006607 0.500421 -0.101469
v 0.017901 0.467200 -0.026543
v 0.022836 0.467197 0.019149
v 0.035086 0.476224 -0.042747
v 0.041317 0.476289 0.030767
v 0.077837 0.490623 -0.033889
v 0.082298 0.489466 0.006360
v 0.089863 0.496953 -0.015151
v -0.024968 0.467190 0.022282
v -0.027259 0.467205 -0.022336
v -0.040899 0.476183 0.041589
v -0.044375 0.476197 -0.038577
v -0.085089 0.492942 0.023603
v -0.087037 0.491968 -0.016835
v -0.097113 0.497186 0.004313
v 0.042455 0.476191 0.034640
v -0.037606 0.476257 0.040067
v 0.025581 0.489036 0.083267
v -0.014794 0.487088 0.085720
v 0.006507 0.490426 0.096264
v -0.045522 0.476279 -0.042398
v 0.034721 0.476256 -0.043244
v -0.026050 0.501454 -0.086927
v 0.014437 0.501122 -0.087737
v -0.006485 0.506834 -0.098015
v 0.012866 0.472046 0.011509
v 0.009929 0.472031 -0.017185
v -0.018366 0.472017 -0.014548
v -0.016850 0.472034 0.013427
v -0.010823 0.118310 0.014780
v 0.007158 0.118310 0.014780
v -0.011130 -0.000307 0.003132
v 0.011130 -0.000307 0.003132
v -0.007932 0.466998 -0.007862
v 0.004212 0.467683 -0.008689
v -0.010913 0.118204 0.008488
v 0.007069 0.118202 0.008488
v -0.011130 0.000308 -0.003132
v 0.011130 0.000308 -0.003132
v -0.008363 0.467062 -0.014140
v 0.003780 0.467747 -0.014968
v -0.010823 0.118310 0.014780
v 0.007158 0.118310 0.014780
v -0.011130 -0.000307 0.003132
v 0.011130 -0.000307 0.003132
v -0.007932 0.466998 -0.007862
v 0.004212 0.467683 -0.008689
v -0.068194 0.392999 -0.015537
v -0.071061 0.367791 -0.017952
v -0.077587 0.381602 -0.019168
v -0.000617 0.384377 0.000399
v -0.002678 0.364238 -0.001638
v -0.010913 0.118204 0.008488
v 0.007069 0.118202 0.008488
v -0.011130 0.000308 -0.003132
v 0.011130 0.000308 -0.003132
v -0.008363 0.467062 -0.014140
v 0.003780 0.467747 -0.014968
v -0.066190 0.393582 -0.023484
v -0.069057 0.368374 -0.025899
v -0.075583 0.382184 -0.027115
v 0.001386 0.384959 -0.007547
v -0.000675 0.364820 -0.009584
vn 0.4507 -0.8917 -0.0415
vn -0.3435 -0.9389 0.0230
vn 0.5646 -0.8208 -0.0863
vn -0.4780 -0.8781 0.0220
vn 0.0304 -0.9732 0.2279
vn -0.3892 -0.9203 0.0408
vn 0.0310 -0.8807 0.4727
vn -0.0092 -0.8726 -0.4883
vn 0.0587 -0.9800 0.1900
vn -0.0187 -0.8946 -0.4465
vn -0.3062 0.9512 0.0379
vn -0.0163 -0.8884 -0.4587
vn -0.0000 -1.0000 0.0001
vn -0.4482 0.8930 0.0415
vn 0.3498 0.9366 -0.0232
vn -0.5661 0.8198 0.0863
vn 0.4764 0.8790 -0.0218
vn -0.0310 0.9699 -0.2416
vn 0.3904 0.9198 -0.0410
vn -0.0312 0.8812 -0.4717
vn 0.0093 0.8717 0.4899
vn -0.0589 0.9798 -0.1913
vn 0.0180 0.8970 0.4417
vn 0.4274 0.2683 0.8633
vn 0.0165 0.8878 0.4599
vn -0.4923 0.8701 0.0258
vn 0.4705 0.8810 -0.0499
vn -0.0456 0.8717 -0.4878
vn 0.0326 0.8633 0.5036
vn -0.4221 -0.1257 0.8978
vn -0.5891 -0.1427 -0.7953
vn 0.1297 0.2009 -0.9710
vn -0.3821 0.2216 -0.8971
vn 0.6136 0.5529 -0.5637
vn 0.7308 0.5327 0.4268
vn 0.5654 -0.1970 -0.8010
vn 0.6589 -0.2047 0.7238
vn -0.2913 0.2370 0.9268
vn -0.8919 0.1691 0.4195
vn -0.7433 0.4012 0.5354
vn -0.8003 0.3842 -0.4603
vn 0.7091 -0.2074 -0.6739
vn 0.9380 0.2050 0.2794
vn 0.9280 0.2082 -0.3089
vn 0.5467 0.2471 0.8001
vn -0.4473 0.2042 0.8707
vn -0.8000 -0.1527 0.5802
vn -0.8742 -0.1395 -0.4651
vn -0.9328 0.2209 -0.2847
vn -0.5194 0.4500 -0.7264
vn 0.4777 0.4495 -0.7549
vn 0.7828 -0.1959 0.5906
vn 0.3097 -0.9501 -0.0384
vn -0.0005 1.0000 -0.0005
vn -0.0259 -0.0658 -0.9975
vn 0.0000 -0.0977 0.9952
vn -0.9991 0.0105 0.0414
vn 0.0000 0.0981 -0.9952
vn 0.9991 0.0061 -0.0414
vn 0.9994 0.0345 -0.0057
vn -1.0000 0.0015 0.0072
vn -0.0554 0.9984 0.0140
vn 0.0259 0.0659 0.9975
vn -0.2401 -0.0687 0.9683
vn 0.2401 0.0687 -0.9683
vn -0.7420 0.6558 -0.1390
vn -0.8667 -0.4316 -0.2501
vn -0.0324 -0.9962 -0.0812
vn 0.9645 -0.1224 0.2342
vn 0.1031 0.9898 0.0985
usemtl Cyan
s off
f 2//1 1//1 3//1 4//1
f 11//2 10//2 12//2 13//2
f 6//3 5//3 7//3
f 9//4 8//4 10//4 11//4
f 16//5 15//5 17//5 18//5
f 13//6 12//6 14//6
f 8//7 2//7 15//7 16//7
f 21//8 20//8 22//8 23//8
f 18//9 17//9 19//9
f 1//10 9//10 20//10 21//10
f 28//11 30//11 29//11 27//11
f 23//12 22//12 24//12
f 2//13 8//13 9//13 1//13
f 26//14 28//14 27//14 25//14
f 35//15 37//15 36//15 34//15
f 30//16 31//16 29//16
f 33//17 35//17 34//17 32//17
f 40//18 42//18 41//18 39//18
f 37//19 38//19 36//19
f 32//20 40//20 39//20 26//20
f 45//21 47//21 46//21 44//21
f 42//22 43//22 41//22
f 25//23 45//23 44//23 33//23
f 4//24 6//24 30//24 28//24
f 47//25 48//25 46//25
f 32//26 52//26 51//26 33//26
f 25//27 50//27 49//27 26//27
f 33//28 51//28 50//28 25//28
f 26//29 49//29 52//29 32//29
f 2//30 4//30 28//30 26//30
f 3//31 1//31 25//31 27//31
f 5//32 3//32 27//32 29//32
f 11//33 13//33 37//33 35//33
f 7//34 5//34 29//34 31//34
f 6//35 7//35 31//35 30//35
f 9//36 11//36 35//36 33//36
f 10//37 8//37 32//37 34//37
f 12//38 10//38 34//38 36//38
f 16//39 18//39 42//39 40//39
f 14//40 12//40 36//40 38//40
f 13//41 14//41 38//41 37//41
f 15//42 2//42 26//42 39//42
f 17//43 15//43 39//43 41//43
f 21//44 23//44 47//44 45//44
f 19//45 17//45 41//45 43//45
f 18//46 19//46 43//46 42//46
f 20//47 9//47 33//47 44//47
f 8//48 16//48 40//48 32//48
f 22//49 20//49 44//49 46//49
f 24//50 22//50 46//50 48//50
f 23//51 24//51 48//51 47//51
f 1//52 21//52 45//52 25//52
f 4//53 3//53 5//53 6//53
f 49//54 50//54 51//54 52//54
usemtl DarkGreen2
f 59//55 63//55 64//55 60//55
f 54//56 53//56 55//56 56//56
f 53//57 57//57 63//57 59//57
f 60//58 62//58 61//58 59//58
f 58//59 54//59 60//59 64//59
f 54//60 56//60 62//60 60//60
f 55//61 53//61 59//61 61//61
f 57//62 58//62 64//62 63//62
f 54//63 58//63 57//63 53//63
f 76//55 80//55 81//55 77//55
f 66//56 65//56 67//56 68//56
f 71//64 73//64 72//64 75//64 74//64
f 65//57 69//57 80//57 76//57
f 77//58 79//58 78//58 76//58
f 82//65 85//65 86//65 83//65 84//65
f 70//59 66//59 77//59 81//59
f 66//60 68//60 79//60 77//60
f 67//61 65//61 76//61 78//61
f 69//62 70//62 81//62 80//62
f 73//66 71//66 82//66 84//66
f 72//67 73//67 84//67 83//67
f 66//63 70//63 69//63 65//63
f 75//68 72//68 83//68 86//68
f 74//69 75//69 86//69 85//69
f 71//70 74//70 85//70 82//70
