# Blender v2.79 (sub 0) OBJ File: 'Flower_1.blend'
# www.blender.org
mtllib Flower_1.mtl
o Flower_1_Plane.021
v -0.011889 0.036284 -0.007691
v -0.002585 -0.000084 -0.002789
v -0.007298 0.036220 0.009544
v -0.001379 -0.000098 0.001755
v -0.025983 0.066153 -0.006444
v -0.020053 0.066037 0.015640
v -0.038150 0.080840 -0.004167
v -0.034411 0.081619 0.013268
v -0.059301 0.096696 0.004341
v -0.058159 0.096833 0.008991
v -0.063766 0.099193 0.007428
v 0.005567 0.044135 -0.007906
v -0.004651 0.006826 -0.003291
v 0.000999 0.044128 0.009322
v -0.003240 0.006826 0.001193
v 0.020041 0.074757 -0.006665
v 0.014149 0.074684 0.015383
v 0.032926 0.090287 -0.004370
v 0.029256 0.091107 0.012980
v 0.055086 0.106899 0.004118
v 0.054063 0.107091 0.008687
v 0.060362 0.109824 0.007172
v -0.008008 0.036801 -0.006678
v 0.001380 0.000091 -0.001755
v -0.003442 0.036801 0.010550
v 0.002584 0.000091 0.002789
v -0.022291 0.067040 -0.005480
v -0.016443 0.067040 0.016583
v -0.034816 0.082143 -0.003297
v -0.031259 0.083077 0.014087
v -0.056530 0.098411 0.005055
v -0.055590 0.098657 0.009649
v -0.061476 0.101147 0.008008
v 0.009471 0.043655 -0.006678
v -0.000688 0.006553 -0.002071
v 0.004905 0.043655 0.010550
v 0.000723 0.006553 0.002412
v 0.023754 0.073895 -0.005480
v 0.017907 0.073895 0.016583
v 0.036279 0.088998 -0.003297
v 0.032723 0.089932 0.014087
v 0.057993 0.105265 0.005055
v 0.057053 0.105512 0.009649
v 0.062939 0.108002 0.008008
vn -0.9454 -0.2080 0.2509
vn -0.8760 -0.4226 0.2325
vn -0.7384 -0.6465 0.1915
vn -0.5521 -0.8191 0.1560
vn -0.4150 -0.9007 0.1284
vn -0.9707 0.1947 -0.1411
vn -0.8758 0.4232 -0.2324
vn -0.7386 0.6464 -0.1915
vn -0.5537 0.8179 -0.1563
vn -0.4211 0.8973 -0.1320
vn 0.9455 0.2082 -0.2506
vn 0.8759 0.4229 -0.2321
vn 0.7385 0.6465 -0.1914
vn 0.5527 0.8184 -0.1571
vn 0.4175 0.8988 -0.1337
vn 0.9707 -0.1943 0.1410
vn 0.8759 -0.4229 0.2321
vn 0.7385 -0.6465 0.1914
vn 0.5527 -0.8184 0.1571
vn 0.4175 -0.8988 0.1337
vn 0.2571 -0.0639 -0.9643
vn -0.2231 -0.2378 0.9453
vn 0.2245 0.1452 -0.9636
vn -0.1888 -0.2715 0.9437
vn 0.1614 0.2756 -0.9476
vn -0.2302 -0.0629 0.9711
vn -0.0000 0.4647 -0.8855
vn -0.2162 -0.0617 0.9744
vn -0.2022 0.5620 -0.8020
vn -0.2610 0.0192 0.9652
vn 0.0498 -0.9987 -0.0147
vn 0.2748 -0.1920 -0.9421
vn -0.0761 -0.9968 0.0240
vn -0.3073 -0.1699 0.9363
vn 0.2851 -0.0965 -0.9536
vn -0.3098 -0.0555 0.9492
vn 0.2779 -0.0908 -0.9563
vn -0.2051 0.3283 0.9220
vn 0.3259 0.0487 -0.9442
vn -0.1097 0.4199 0.9009
vn 0.4126 0.1984 -0.8891
vn 0.0165 0.4885 0.8724
usemtl DarkGreen2
s off
f 1//1 2//1 4//1 3//1
f 1//2 3//2 6//2 5//2
f 5//3 6//3 8//3 7//3
f 7//4 8//4 10//4 9//4
f 9//5 10//5 11//5
f 12//6 13//6 15//6 14//6
f 12//7 14//7 17//7 16//7
f 16//8 17//8 19//8 18//8
f 18//9 19//9 21//9 20//9
f 20//10 21//10 22//10
f 23//11 25//11 26//11 24//11
f 23//12 27//12 28//12 25//12
f 27//13 29//13 30//13 28//13
f 29//14 31//14 32//14 30//14
f 31//15 33//15 32//15
f 34//16 36//16 37//16 35//16
f 34//17 38//17 39//17 36//17
f 38//18 40//18 41//18 39//18
f 40//19 42//19 43//19 41//19
f 42//20 44//20 43//20
f 2//21 1//21 23//21 24//21
f 3//22 4//22 26//22 25//22
f 1//23 5//23 27//23 23//23
f 6//24 3//24 25//24 28//24
f 5//25 7//25 29//25 27//25
f 8//26 6//26 28//26 30//26
f 7//27 9//27 31//27 29//27
f 10//28 8//28 30//28 32//28
f 9//29 11//29 33//29 31//29
f 11//30 10//30 32//30 33//30
f 4//31 2//31 24//31 26//31
f 13//32 12//32 34//32 35//32
f 15//33 13//33 35//33 37//33
f 14//34 15//34 37//34 36//34
f 12//35 16//35 38//35 34//35
f 17//36 14//36 36//36 39//36
f 16//37 18//37 40//37 38//37
f 19//38 17//38 39//38 41//38
f 18//39 20//39 42//39 40//39
f 21//40 19//40 41//40 43//40
f 20//41 22//41 44//41 42//41
f 22//42 21//42 43//42 44//42
