# Blender v2.79 (sub 0) OBJ File: 'Flowers_Harvested.blend'
# www.blender.org
mtllib Flowers_Harvested.mtl
o Flowers_Harvested_Plane.017
v -0.016534 0.180736 0.022579
v 0.010935 0.180736 0.022579
v -0.017002 -0.000470 0.004784
v 0.017002 -0.000470 0.004784
v -0.012117 0.713409 -0.012010
v 0.006434 0.714456 -0.013274
v -0.085326 0.599095 -0.031081
v -0.088680 0.569596 -0.033908
v -0.096317 0.585757 -0.035330
v -0.006244 0.589005 -0.012431
v -0.008656 0.565437 -0.014815
v -0.016671 0.180575 0.012967
v 0.010798 0.180572 0.012967
v -0.017002 0.000470 -0.004784
v 0.017002 0.000470 -0.004784
v -0.012776 0.713507 -0.021601
v 0.005775 0.714554 -0.022865
v -0.082981 0.599777 -0.040381
v -0.086336 0.570277 -0.043207
v -0.093973 0.586439 -0.044630
v -0.003900 0.589686 -0.021731
v -0.006312 0.566118 -0.024114
v 0.086697 0.279210 0.015099
v 0.086638 0.309021 0.016002
v 0.096466 0.294082 0.014662
v 0.004853 0.278303 0.017181
v 0.004571 0.302106 0.017723
v 0.086388 0.279444 0.005493
v 0.086329 0.309255 0.006395
v 0.096156 0.294316 0.005056
v 0.004544 0.278537 0.007575
v 0.004262 0.302340 0.008116
v -0.016534 0.180736 0.022579
v 0.010935 0.180736 0.022579
v -0.017002 -0.000470 0.004784
v 0.017002 -0.000470 0.004784
v -0.012117 0.713409 -0.012010
v 0.006434 0.714456 -0.013274
v -0.085326 0.599095 -0.031081
v -0.088680 0.569596 -0.033908
v -0.096317 0.585757 -0.035330
v -0.006244 0.589005 -0.012431
v -0.008656 0.565437 -0.014815
v -0.016671 0.180575 0.012967
v 0.010798 0.180572 0.012967
v -0.017002 0.000470 -0.004784
v 0.017002 0.000470 -0.004784
v -0.012776 0.713507 -0.021601
v 0.005775 0.714554 -0.022865
v -0.082981 0.599777 -0.040381
v -0.086336 0.570277 -0.043207
v -0.093973 0.586439 -0.044630
v -0.003900 0.589686 -0.021731
v -0.006312 0.566118 -0.024114
v 0.086697 0.279210 0.015099
v 0.086638 0.309021 0.016002
v 0.096466 0.294082 0.014662
v 0.004853 0.278303 0.017181
v 0.004571 0.302106 0.017723
v 0.086388 0.279444 0.005493
v 0.086329 0.309255 0.006395
v 0.096156 0.294316 0.005056
v 0.004544 0.278537 0.007575
v 0.004262 0.302340 0.008116
vn -0.0259 -0.0658 -0.9975
vn 0.0000 -0.0977 0.9952
vn -0.2401 -0.0687 0.9683
vn -0.9991 0.0105 0.0414
vn 0.0000 0.0981 -0.9952
vn 0.2401 0.0687 -0.9683
vn 0.9991 0.0061 -0.0414
vn 0.9994 0.0345 -0.0057
vn -1.0000 0.0015 0.0072
vn -0.0554 0.9984 0.0140
vn -0.7420 0.6558 -0.1390
vn -0.8667 -0.4316 -0.2501
vn 0.0259 0.0659 0.9975
vn -0.0324 -0.9962 -0.0812
vn 0.9645 -0.1224 0.2342
vn 0.0286 -0.0270 0.9992
vn -0.0286 0.0270 -0.9992
vn 0.8346 -0.5494 -0.0402
vn 0.8348 0.5504 -0.0135
vn 0.1031 0.9898 0.0985
vn -0.0834 0.9962 0.0269
vn -0.9994 -0.0126 0.0319
vn 0.0105 -0.9996 -0.0247
usemtl DarkGreen2
s off
f 12//1 16//1 17//1 13//1
f 2//2 1//2 3//2 4//2
f 7//3 9//3 8//3 11//3 10//3
f 1//4 5//4 16//4 12//4
f 13//5 15//5 14//5 12//5
f 18//6 21//6 22//6 19//6 20//6
f 6//7 2//7 13//7 17//7
f 2//8 4//8 15//8 13//8
f 3//9 1//9 12//9 14//9
f 5//10 6//10 17//10 16//10
f 9//11 7//11 18//11 20//11
f 8//12 9//12 20//12 19//12
f 2//13 6//13 5//13 1//13
f 11//14 8//14 19//14 22//14
f 10//15 11//15 22//15 21//15
f 23//16 25//16 24//16 27//16 26//16
f 28//17 31//17 32//17 29//17 30//17
f 25//18 23//18 28//18 30//18
f 24//19 25//19 30//19 29//19
f 7//20 10//20 21//20 18//20
f 27//21 24//21 29//21 32//21
f 26//22 27//22 32//22 31//22
f 23//23 26//23 31//23 28//23
f 44//1 48//1 49//1 45//1
f 34//2 33//2 35//2 36//2
f 39//3 41//3 40//3 43//3 42//3
f 33//4 37//4 48//4 44//4
f 45//5 47//5 46//5 44//5
f 50//6 53//6 54//6 51//6 52//6
f 38//7 34//7 45//7 49//7
f 34//8 36//8 47//8 45//8
f 35//9 33//9 44//9 46//9
f 37//10 38//10 49//10 48//10
f 41//11 39//11 50//11 52//11
f 40//12 41//12 52//12 51//12
f 34//13 38//13 37//13 33//13
f 43//14 40//14 51//14 54//14
f 42//15 43//15 54//15 53//15
f 55//16 57//16 56//16 59//16 58//16
f 60//17 63//17 64//17 61//17 62//17
f 57//18 55//18 60//18 62//18
f 56//19 57//19 62//19 61//19
f 39//20 42//20 53//20 50//20
f 59//21 56//21 61//21 64//21
f 58//22 59//22 64//22 63//22
f 55//23 58//23 63//23 60//23
