# Blender v2.79 (sub 0) OBJ File: 'Flower_2.blend'
# www.blender.org
mtllib Flower_2.mtl
o Flower_2_Plane.019
v -0.010823 0.118310 0.014780
v 0.007158 0.118310 0.014780
v -0.011130 -0.000308 0.003132
v 0.011130 -0.000308 0.003132
v -0.000126 0.308272 -0.007862
v 0.012018 0.308957 -0.008689
v 0.032417 0.376581 -0.027606
v 0.034382 0.376290 0.001006
v -0.036217 0.326618 -0.029599
v 0.044801 0.331188 -0.035119
v -0.033340 0.326191 0.012290
v -0.010913 0.118204 0.008488
v 0.007069 0.118202 0.008488
v -0.011130 0.000308 -0.003132
v 0.011130 0.000308 -0.003132
v -0.000557 0.308336 -0.014140
v 0.011587 0.309021 -0.014968
v 0.047677 0.330761 0.006770
v -0.020956 0.373169 0.004776
v -0.022921 0.373460 -0.023835
v 0.012214 0.411359 -0.008604
v 0.011769 0.411425 -0.015078
v -0.000308 0.410653 -0.007751
v -0.000753 0.410719 -0.014225
vn -0.4639 -0.8856 0.0229
vn -0.0246 -0.1191 -0.9926
vn 0.0000 -0.0977 0.9952
vn -0.9973 0.0601 0.0411
vn 0.0000 0.0981 -0.9952
vn 0.0593 0.1424 0.9880
vn 0.9987 -0.0296 -0.0413
vn 0.9994 0.0345 -0.0057
vn -1.0000 0.0015 0.0072
vn 0.5354 -0.8434 -0.0454
vn 0.0880 -0.6679 0.7390
vn 0.0245 0.1192 0.9926
vn -0.0138 -0.6612 -0.7501
vn -0.0815 0.2941 -0.9523
vn -0.9619 0.2646 0.0688
vn 0.9601 0.2724 -0.0632
vn -0.0753 0.1428 -0.9869
vn -0.0554 0.9984 0.0140
vn 0.0486 0.2924 0.9551
vn -0.8648 0.4979 0.0645
vn 0.8506 0.5231 -0.0531
usemtl DarkGreen2
s off
f 16//1 5//1 11//1 9//1
f 12//2 16//2 17//2 13//2
f 2//3 1//3 3//3 4//3
f 1//4 5//4 16//4 12//4
f 13//5 15//5 14//5 12//5
f 11//6 18//6 8//6 19//6
f 6//7 2//7 13//7 17//7
f 2//8 4//8 15//8 13//8
f 3//9 1//9 12//9 14//9
f 6//10 17//10 10//10 18//10
f 5//11 6//11 18//11 11//11
f 2//12 6//12 5//12 1//12
f 17//13 16//13 9//13 10//13
f 7//14 20//14 24//14 22//14
f 9//15 11//15 19//15 20//15
f 18//16 10//16 7//16 8//16
f 10//17 9//17 20//17 7//17
f 23//18 21//18 22//18 24//18
f 19//19 8//19 21//19 23//19
f 20//20 19//20 23//20 24//20
f 8//21 7//21 22//21 21//21
