# Blender v2.79 (sub 0) OBJ File: 'Grass_2.blend'
# www.blender.org
mtllib Grass_2.mtl
o Grass_2_Plane.038
v -0.073182 0.177184 -0.001125
v -0.067546 -0.015862 -0.024060
v -0.044570 0.177184 0.010564
v -0.032534 -0.015862 -0.009756
v -0.050040 0.507798 -0.016908
v -0.061732 0.177184 -0.102999
v -0.044530 -0.015862 -0.119180
v -0.044077 0.177184 -0.077629
v -0.022927 -0.015862 -0.088137
v -0.033729 0.507798 -0.103659
v 0.045005 0.177184 0.128533
v 0.062180 -0.015862 0.112323
v 0.062703 0.177184 0.153874
v 0.083835 -0.015862 0.143330
v 0.073007 0.507798 0.127827
v 0.147462 0.177184 -0.054080
v 0.159185 -0.015862 -0.033578
v 0.118674 0.177184 -0.042830
v 0.123958 -0.015862 -0.019812
v 0.141571 0.507798 -0.026695
v -0.055357 0.176281 -0.001828
v -0.049767 -0.014237 -0.024760
v -0.026730 0.176692 0.009861
v -0.014756 -0.014237 -0.010456
v -0.032475 0.504484 -0.017600
v -0.043121 0.176832 -0.103207
v -0.025933 -0.015079 -0.119389
v -0.025464 0.176980 -0.077838
v -0.004329 -0.015079 -0.088345
v -0.015184 0.506186 -0.103866
v 0.063615 0.176831 0.128324
v 0.080777 -0.015078 0.112114
v 0.081315 0.176980 0.153664
v 0.102432 -0.015078 0.143121
v 0.091552 0.506184 0.127618
v 0.165228 0.176671 -0.053348
v 0.176886 -0.014181 -0.032849
v 0.136424 0.176247 -0.042099
v 0.141659 -0.014181 -0.019083
v 0.159046 0.504373 -0.025975
vn -0.3755 -0.1201 0.9190
vn -0.3773 0.0705 0.9234
vn -0.8149 -0.1201 0.5671
vn -0.8188 0.0705 0.5698
vn -0.8139 -0.1201 0.5684
vn -0.8178 0.0705 0.5712
vn -0.3613 -0.1201 -0.9247
vn -0.3631 0.0705 -0.9291
vn 0.3746 0.1215 -0.9192
vn 0.3779 -0.0707 -0.9231
vn 0.8146 0.1207 -0.5673
vn 0.8189 -0.0706 -0.5696
vn 0.8137 0.1207 -0.5686
vn 0.8180 -0.0706 -0.5709
vn 0.3605 0.1215 0.9248
vn 0.3638 -0.0707 0.9288
vn -0.0415 0.1174 -0.9922
vn 0.0814 -0.9766 -0.1993
vn 0.0424 -0.1025 0.9938
vn -0.0446 -0.0447 -0.9980
vn 0.0482 0.0839 0.9953
vn -0.0121 0.0827 -0.9965
vn 0.0417 -0.9987 -0.0290
vn 0.0120 -0.0532 0.9985
vn -0.0113 -0.0010 -0.9999
vn 0.0150 0.0782 0.9968
vn -0.0122 0.0828 -0.9965
vn 0.0418 -0.9987 -0.0292
vn 0.0121 -0.0533 0.9985
vn -0.0113 -0.0012 -0.9999
vn 0.0443 -0.1034 -0.9936
vn 0.0836 -0.9732 0.2140
vn -0.0433 0.1179 0.9921
vn 0.0503 0.0837 -0.9952
vn -0.0468 -0.0456 0.9979
usemtl Green_Grass
s off
f 1//1 2//1 4//1 3//1
f 1//2 3//2 5//2
f 6//3 7//3 9//3 8//3
f 6//4 8//4 10//4
f 11//5 12//5 14//5 13//5
f 11//6 13//6 15//6
f 16//7 17//7 19//7 18//7
f 16//8 18//8 20//8
f 21//9 23//9 24//9 22//9
f 21//10 25//10 23//10
f 26//11 28//11 29//11 27//11
f 26//12 30//12 28//12
f 31//13 33//13 34//13 32//13
f 31//14 35//14 33//14
f 36//15 38//15 39//15 37//15
f 36//16 40//16 38//16
f 2//17 1//17 21//17 22//17
f 4//18 2//18 22//18 24//18
f 3//19 4//19 24//19 23//19
f 1//20 5//20 25//20 21//20
f 5//21 3//21 23//21 25//21
f 7//22 6//22 26//22 27//22
f 9//23 7//23 27//23 29//23
f 8//24 9//24 29//24 28//24
f 6//25 10//25 30//25 26//25
f 10//26 8//26 28//26 30//26
f 12//27 11//27 31//27 32//27
f 14//28 12//28 32//28 34//28
f 13//29 14//29 34//29 33//29
f 11//30 15//30 35//30 31//30
f 15//26 13//26 33//26 35//26
f 17//31 16//31 36//31 37//31
f 19//32 17//32 37//32 39//32
f 18//33 19//33 39//33 38//33
f 16//34 20//34 40//34 36//34
f 20//35 18//35 38//35 40//35
