# Blender v2.79 (sub 0) OBJ File: 'Lettuce_Crop.blend'
# www.blender.org
mtllib Lettuce_Crop.mtl
o Lettuce_Crop_Cube.015
v -0.170404 0.313332 0.000000
v 0.000000 0.313332 -0.170404
v 0.170404 0.313332 0.000000
v 0.000000 0.313332 0.170404
v 0.000000 -0.023387 0.000000
v 0.000000 0.400416 0.000000
v 0.000000 0.014347 0.185831
v 0.185831 0.014347 0.000000
v 0.000000 0.014347 -0.185831
v -0.185831 0.014347 0.000000
v 0.000000 0.139165 0.198282
v 0.198282 0.139165 0.000000
v 0.000000 0.139165 -0.198282
v -0.198282 0.139165 0.000000
v -0.126178 -0.013954 0.000000
v -0.127803 0.313332 0.127803
v -0.120833 0.378645 0.000000
v -0.139373 0.014347 -0.139373
v 0.000000 -0.013954 -0.126178
v 0.000000 0.378645 -0.120833
v 0.139373 0.014347 -0.139373
v 0.126178 -0.013954 0.000000
v 0.120833 0.378645 0.000000
v 0.139373 0.014347 0.139373
v 0.000000 -0.013954 0.126178
v 0.000000 0.378645 0.120833
v -0.139373 0.014347 0.139373
v -0.148712 0.139165 -0.148712
v 0.148712 0.139165 -0.148712
v 0.148712 0.139165 0.148712
v 0.000000 0.064419 0.202139
v 0.202139 0.064419 0.000000
v 0.000000 0.064419 -0.202139
v -0.202139 0.064419 0.000000
v -0.148712 0.139165 0.148712
v -0.127803 0.313332 -0.127803
v 0.127803 0.313332 -0.127803
v 0.127803 0.313332 0.127803
v 0.000000 0.226248 0.184343
v 0.184343 0.226248 0.000000
v 0.000000 0.226248 -0.184343
v -0.184343 0.226248 0.000000
v -0.097375 -0.006616 0.097375
v -0.091571 0.361712 0.091571
v -0.097375 -0.006616 -0.097375
v -0.091571 0.361712 -0.091571
v 0.097375 -0.006616 0.097375
v 0.091571 0.361712 0.091571
v 0.097375 -0.006616 -0.097375
v 0.091571 0.361712 -0.091571
v -0.151604 0.064419 0.151604
v -0.151604 0.064419 -0.151604
v 0.151604 0.064419 -0.151604
v 0.151604 0.064419 0.151604
v -0.138257 0.226248 0.138257
v -0.138257 0.226248 -0.138257
v 0.138257 0.226248 -0.138257
v 0.138257 0.226248 0.138257
vn -0.9379 0.1501 0.3126
vn -0.7194 0.6336 0.2846
vn -0.7194 0.6336 -0.2846
vn -0.9379 0.1501 -0.3126
vn -0.3126 0.1501 -0.9379
vn -0.2846 0.6336 -0.7194
vn 0.2846 0.6336 -0.7194
vn 0.3126 0.1501 -0.9379
vn 0.9379 0.1501 -0.3126
vn 0.7194 0.6336 -0.2846
vn 0.7194 0.6336 0.2846
vn 0.9379 0.1501 0.3126
vn 0.3126 0.1501 0.9379
vn 0.2846 0.6336 0.7194
vn -0.2846 0.6336 0.7194
vn -0.3126 0.1501 0.9379
vn -0.0855 -0.9927 -0.0855
vn 0.0855 -0.9927 -0.0855
vn 0.0855 -0.9927 0.0855
vn -0.0855 -0.9927 0.0855
vn 0.2025 0.9581 -0.2025
vn -0.2025 0.9581 -0.2025
vn -0.2025 0.9581 0.2025
vn 0.2025 0.9581 0.2025
vn 0.1493 -0.9126 0.3806
vn 0.3021 -0.2952 0.9064
vn -0.3021 -0.2952 0.9064
vn -0.1493 -0.9126 0.3806
vn 0.3806 -0.9126 -0.1493
vn 0.9064 -0.2952 -0.3021
vn 0.9064 -0.2952 0.3021
vn 0.3806 -0.9126 0.1493
vn -0.1493 -0.9126 -0.3806
vn -0.3021 -0.2952 -0.9064
vn 0.3021 -0.2952 -0.9064
vn 0.1493 -0.9126 -0.3806
vn -0.3806 -0.9126 0.1493
vn -0.9064 -0.2952 0.3021
vn -0.9064 -0.2952 -0.3021
vn -0.3806 -0.9126 -0.1493
vn 0.3158 0.0489 0.9475
vn -0.3158 0.0489 0.9475
vn 0.9475 0.0489 -0.3158
vn 0.9475 0.0489 0.3158
vn -0.3158 0.0489 -0.9475
vn 0.3158 0.0489 -0.9475
vn -0.9475 0.0489 0.3158
vn -0.9475 0.0489 -0.3158
usemtl DarkGreen
s off
f 1//1 42//1 55//1 16//1
f 1//2 16//2 44//2 17//2
f 1//3 17//3 46//3 36//3
f 1//4 36//4 56//4 42//4
f 2//5 41//5 56//5 36//5
f 2//6 36//6 46//6 20//6
f 2//7 20//7 50//7 37//7
f 2//8 37//8 57//8 41//8
f 3//9 40//9 57//9 37//9
f 3//10 37//10 50//10 23//10
f 3//11 23//11 48//11 38//11
f 3//12 38//12 58//12 40//12
f 4//13 39//13 58//13 38//13
f 4//14 38//14 48//14 26//14
f 4//15 26//15 44//15 16//15
f 4//16 16//16 55//16 39//16
f 5//17 15//17 45//17 19//17
f 5//18 19//18 49//18 22//18
f 5//19 22//19 47//19 25//19
f 5//20 25//20 43//20 15//20
f 6//21 23//21 50//21 20//21
f 6//22 20//22 46//22 17//22
f 6//23 17//23 44//23 26//23
f 6//24 26//24 48//24 23//24
f 7//25 25//25 47//25 24//25
f 7//26 24//26 54//26 31//26
f 7//27 31//27 51//27 27//27
f 7//28 27//28 43//28 25//28
f 8//29 22//29 49//29 21//29
f 8//30 21//30 53//30 32//30
f 8//31 32//31 54//31 24//31
f 8//32 24//32 47//32 22//32
f 9//33 19//33 45//33 18//33
f 9//34 18//34 52//34 33//34
f 9//35 33//35 53//35 21//35
f 9//36 21//36 49//36 19//36
f 10//37 15//37 43//37 27//37
f 10//38 27//38 51//38 34//38
f 10//39 34//39 52//39 18//39
f 10//40 18//40 45//40 15//40
f 11//41 31//41 54//41 30//41
f 11//13 30//13 58//13 39//13
f 11//16 39//16 55//16 35//16
f 11//42 35//42 51//42 31//42
f 12//43 32//43 53//43 29//43
f 12//9 29//9 57//9 40//9
f 12//12 40//12 58//12 30//12
f 12//44 30//44 54//44 32//44
f 13//45 33//45 52//45 28//45
f 13//5 28//5 56//5 41//5
f 13//8 41//8 57//8 29//8
f 13//46 29//46 53//46 33//46
f 14//47 34//47 51//47 35//47
f 14//1 35//1 55//1 42//1
f 14//4 42//4 56//4 28//4
f 14//48 28//48 52//48 34//48
