# Blender v2.79 (sub 0) OBJ File: 'Mushroom_Harvested.blend'
# www.blender.org
mtllib Mushroom_Harvested.mtl
o Mushroom_Harvested_Cube.035
v -0.037564 0.129287 -0.031490
v 0.031490 0.129287 -0.037564
v 0.037564 0.129287 0.031490
v -0.031490 0.129287 0.037564
v 0.014436 -0.000000 0.023473
v -0.011825 0.228592 -0.050591
v -0.050238 0.027375 0.059928
v 0.059928 0.027375 0.050238
v 0.050238 0.027375 -0.059927
v -0.059927 0.027375 -0.050238
v 0.050591 0.228592 -0.011826
v -0.050591 0.228592 0.011826
v 0.011826 0.228592 0.050591
v -0.056848 0.072364 0.067813
v 0.067813 0.072364 0.056848
v 0.056849 0.072364 -0.067813
v -0.067813 0.072364 -0.056848
v -0.020141 0.072364 -0.086167
v 0.020142 0.072364 0.086167
v -0.033377 0.228592 0.039815
v -0.017799 0.027375 -0.076147
v 0.017799 0.027375 0.076147
v 0.033377 0.228592 -0.039815
v -0.023472 -0.000000 0.014436
v 0.011157 0.129287 0.047730
v -0.011157 0.129287 -0.047730
v -0.014436 -0.000000 -0.023472
v -0.086167 0.072364 0.020141
v 0.086167 0.072364 -0.020141
v -0.039815 0.228592 -0.033377
v 0.039815 0.228592 0.033377
v -0.076147 0.027375 0.017799
v 0.076147 0.027375 -0.017799
v 0.023473 -0.000000 -0.014436
v 0.047731 0.129287 -0.011157
v -0.047730 0.129287 0.011157
v -0.046118 0.006844 0.013017
v -0.046212 0.129287 0.028421
v -0.032328 0.173767 -0.027101
v -0.045341 0.027375 -0.073724
v -0.013017 0.006844 -0.046118
v 0.027101 0.173767 -0.032328
v 0.073725 0.027375 -0.045341
v 0.046118 0.006844 -0.013017
v 0.032328 0.173767 0.027101
v 0.045341 0.027375 0.073724
v 0.013017 0.006844 0.046118
v -0.027101 0.173767 0.032328
v -0.073724 0.027375 0.045341
v -0.051307 0.072364 -0.083425
v 0.083426 0.072364 -0.051307
v 0.051307 0.072364 0.083426
v -0.063014 0.052310 0.075168
v 0.075168 0.052310 0.063014
v 0.063014 0.052310 -0.075168
v -0.075168 0.052310 -0.063014
v -0.067462 0.265752 -0.054794
v 0.054794 0.265752 -0.067462
v 0.067462 0.265752 0.054794
v -0.054794 0.265752 0.067462
v -0.030124 0.228592 -0.048981
v 0.048982 0.228592 -0.030124
v 0.030124 0.228592 0.048981
v -0.048981 0.228592 0.030124
v -0.083425 0.072364 0.051307
v -0.028420 0.129287 -0.046212
v 0.046212 0.129287 -0.028420
v 0.028421 0.129287 0.046212
v -0.042691 0.095402 0.050925
v 0.050925 0.095402 0.042691
v 0.042691 0.095402 -0.050925
v -0.050925 0.095402 -0.042691
v 0.032423 0.006844 -0.035286
v -0.009602 0.173767 -0.041078
v -0.032423 0.006844 0.035286
v 0.009602 0.173767 0.041078
v 0.022326 0.052310 0.095512
v -0.022326 0.052310 -0.095512
v 0.015125 0.095402 0.064707
v -0.015125 0.095402 -0.064707
v 0.018354 0.072364 -0.076990
v -0.018353 0.072364 0.076990
v -0.010776 0.228592 0.045203
v 0.016219 0.027375 -0.068037
v -0.016219 0.027375 0.068037
v 0.010776 0.228592 -0.045203
v -0.004518 -0.000000 0.018954
v -0.010166 0.129287 0.042647
v 0.010167 0.129287 -0.042647
v -0.035285 0.006844 -0.032423
v -0.041078 0.173767 0.009602
v 0.035286 0.006844 0.032423
v 0.041078 0.173767 -0.009602
v 0.095512 0.052310 -0.022326
v -0.095512 0.052310 0.022326
v 0.064708 0.095402 -0.015125
v -0.064707 0.095402 0.015125
v 0.004519 -0.000000 -0.018954
v -0.018954 -0.000000 -0.004518
v -0.076990 0.072364 -0.018354
v 0.076990 0.072364 0.018354
v -0.045203 0.228592 -0.010776
v 0.045203 0.228592 0.010776
v -0.068037 0.027375 -0.016219
v 0.068037 0.027375 0.016219
v 0.018954 -0.000000 0.004518
v 0.042647 0.129287 0.010167
v -0.042647 0.129287 -0.010167
v -0.051023 0.012167 0.031379
v -0.039771 0.173767 0.024459
v -0.031379 0.012167 -0.051023
v -0.024459 0.173767 -0.039771
v 0.031379 0.012167 0.051023
v 0.024459 0.173767 0.039771
v 0.051023 0.012167 -0.031379
v 0.039771 0.173767 -0.024459
v -0.092473 0.052310 0.056871
v -0.056871 0.052310 -0.092473
v 0.092474 0.052310 -0.056871
v 0.056871 0.052310 0.092473
v -0.080292 0.265928 0.049380
v -0.049380 0.265928 -0.080292
v 0.080292 0.265928 -0.049380
v 0.049380 0.265928 0.080292
v -0.062649 0.095402 0.038529
v -0.038529 0.095402 -0.062649
v 0.062649 0.095402 -0.038529
v 0.038529 0.095402 0.062649
v 0.009703 0.006844 -0.040702
v 0.008750 0.173767 -0.036703
v -0.009703 0.006844 0.040702
v -0.008749 0.173767 0.036703
v -0.020344 0.052310 0.085340
v 0.020344 0.052310 -0.085340
v 0.018514 0.265575 -0.077661
v -0.018513 0.265575 0.077661
v -0.013783 0.095402 0.057816
v 0.013783 0.095402 -0.057816
v -0.040702 0.006844 -0.009703
v -0.036703 0.173767 -0.008750
v 0.040702 0.006844 0.009703
v 0.036703 0.173767 0.008750
v 0.085340 0.052310 0.020344
v -0.085340 0.052310 -0.020344
v -0.077661 0.265575 -0.018514
v 0.077661 0.265575 0.018514
v 0.057816 0.095402 0.013783
v -0.057816 0.095402 -0.013783
v 0.000000 -0.000000 0.000000
v 0.013394 0.177716 0.057299
v -0.013394 0.177716 -0.057299
v 0.057299 0.177716 -0.013394
v -0.057299 0.177716 0.013394
v -0.037803 0.177716 0.045095
v -0.045094 0.177716 -0.037803
v 0.045095 0.177716 0.037803
v 0.037803 0.177716 -0.045095
v -0.033390 0.185130 -0.027991
v 0.027991 0.185130 -0.033390
v 0.033390 0.185130 0.027991
v -0.027991 0.185130 0.033390
v -0.056799 0.170302 -0.047616
v 0.047616 0.170302 -0.056799
v 0.056800 0.170302 0.047616
v -0.047615 0.170302 0.056799
v -0.055476 0.183347 0.034118
v 0.034118 0.183347 0.055477
v 0.055477 0.183347 -0.034118
v -0.034118 0.183347 -0.055476
v 0.009917 0.185130 0.042427
v 0.016870 0.170302 0.072172
v -0.012205 0.172085 0.051197
v -0.042426 0.185130 0.009917
v -0.072172 0.170302 0.016870
v -0.051197 0.172085 -0.012205
v 0.042427 0.185130 -0.009917
v 0.072172 0.170302 -0.016870
v 0.051197 0.172085 0.012205
v -0.009917 0.185130 -0.042427
v -0.016870 0.170302 -0.072172
v 0.012205 0.172085 -0.051197
v -0.041077 0.190761 0.025262
v -0.025262 0.190761 -0.041077
v 0.025262 0.190761 0.041077
v 0.041077 0.190761 -0.025262
v -0.069876 0.175933 0.042974
v -0.042974 0.175933 -0.069876
v 0.042974 0.175933 0.069876
v 0.069876 0.175933 -0.042974
v -0.009037 0.179499 0.037908
v -0.015373 0.164671 0.064486
v -0.037908 0.179499 -0.009037
v -0.064486 0.164671 -0.015373
v 0.037908 0.179499 0.009037
v 0.064486 0.164671 0.015373
v 0.009037 0.179499 -0.037908
v 0.015373 0.164671 -0.064486
v 0.013394 0.172636 0.057299
v 0.009917 0.180050 0.042427
v 0.034118 0.178267 0.055477
v 0.016870 0.165222 0.072172
v -0.012205 0.167005 0.051197
v -0.013394 0.172636 -0.057299
v -0.009917 0.180050 -0.042427
v -0.034118 0.178267 -0.055476
v -0.016870 0.165222 -0.072172
v 0.012205 0.167005 -0.051197
v 0.057299 0.172636 -0.013394
v 0.042427 0.180050 -0.009917
v 0.055477 0.178267 -0.034118
v 0.072172 0.165222 -0.016870
v 0.051197 0.167005 0.012205
v -0.057299 0.172636 0.013394
v -0.042426 0.180050 0.009917
v -0.055476 0.178267 0.034118
v -0.072172 0.165222 0.016870
v -0.051197 0.167005 -0.012205
v -0.037803 0.172636 0.045095
v -0.027991 0.180050 0.033390
v -0.047615 0.165222 0.056799
v -0.045094 0.172636 -0.037803
v -0.033390 0.180050 -0.027991
v -0.056799 0.165222 -0.047616
v 0.045095 0.172636 0.037803
v 0.033390 0.180050 0.027991
v 0.056800 0.165222 0.047616
v 0.037803 0.172636 -0.045095
v 0.027991 0.180050 -0.033390
v 0.047616 0.165222 -0.056799
v -0.037908 0.174419 -0.009037
v -0.025262 0.185681 -0.041077
v 0.009037 0.174419 -0.037908
v 0.041077 0.185681 -0.025262
v 0.037908 0.174419 0.009037
v 0.025262 0.185681 0.041077
v -0.009037 0.174419 0.037908
v -0.041077 0.185681 0.025262
v -0.064486 0.159591 -0.015373
v -0.042974 0.170853 -0.069876
v 0.015373 0.159591 -0.064486
v 0.069876 0.170853 -0.042974
v 0.064486 0.159591 0.015373
v 0.042974 0.170853 0.069876
v -0.015373 0.159591 0.064486
v -0.069876 0.170853 0.042974
v 0.060124 0.294611 -0.013073
v -0.060124 0.294611 0.013073
v 0.013073 0.294611 0.060124
v -0.013073 0.294611 -0.060124
v 0.054981 0.294486 0.013107
v -0.054981 0.294486 -0.013107
v -0.013107 0.294486 0.054981
v 0.013107 0.294486 -0.054981
v 0.034959 0.294736 0.056844
v 0.056844 0.294736 -0.034959
v -0.034959 0.294736 -0.056843
v -0.056843 0.294736 0.034959
v -0.038792 0.294611 0.047760
v 0.047760 0.294611 0.038792
v 0.038792 0.294611 -0.047760
v -0.047760 0.294611 -0.038792
v -0.018466 0.265752 -0.084926
v 0.018466 0.265752 0.084927
v -0.084926 0.265752 0.018466
v 0.084927 0.265752 -0.018466
vn -0.8837 0.4181 -0.2107
vn -0.9637 0.1361 -0.2297
vn -0.8398 0.1503 -0.5216
vn -0.7570 0.4539 -0.4701
vn 0.2107 0.4181 -0.8837
vn 0.2297 0.1361 -0.9637
vn 0.5216 0.1503 -0.8398
vn 0.4701 0.4539 -0.7570
vn 0.8837 0.4181 0.2107
vn 0.9637 0.1361 0.2297
vn 0.8398 0.1503 0.5216
vn 0.7570 0.4539 0.4701
vn -0.2107 0.4181 0.8837
vn -0.2297 0.1361 0.9637
vn -0.5216 0.1503 0.8398
vn -0.4701 0.4539 0.7570
vn 0.0000 -1.0000 -0.0000
vn 0.2847 -0.9562 0.0679
vn 0.1844 -0.9360 0.2999
vn -0.0679 -0.9562 0.2847
vn 0.2290 -0.1574 -0.9606
vn -0.0863 -0.1737 -0.9810
vn -0.0951 -0.6765 -0.7302
vn 0.1537 -0.6626 -0.7330
vn -0.1368 -0.8074 0.5739
vn -0.1888 -0.5807 0.7919
vn -0.4141 -0.6197 0.6667
vn -0.3054 -0.8369 0.4542
vn 0.5739 -0.8074 0.1368
vn 0.7919 -0.5807 0.1888
vn 0.6667 -0.6197 0.4141
vn 0.4542 -0.8369 0.3054
vn 0.1368 -0.8074 -0.5739
vn 0.1888 -0.5807 -0.7919
vn 0.4141 -0.6197 -0.6667
vn 0.3054 -0.8369 -0.4542
vn -0.5739 -0.8074 -0.1368
vn -0.7919 -0.5807 -0.1888
vn -0.6667 -0.6197 -0.4141
vn -0.4542 -0.8369 -0.3054
vn 0.9606 -0.1574 0.2290
vn 0.9810 -0.1737 -0.0863
vn 0.7302 -0.6765 -0.0951
vn 0.7330 -0.6626 0.1537
vn -0.9606 -0.1574 -0.2290
vn -0.9810 -0.1737 0.0863
vn -0.7302 -0.6765 0.0951
vn -0.7330 -0.6626 -0.1537
vn -0.2290 -0.1574 0.9606
vn 0.0863 -0.1737 0.9810
vn 0.0951 -0.6765 0.7302
vn -0.1537 -0.6626 0.7330
vn -0.2132 0.3935 0.8943
vn -0.1762 0.6501 0.7391
vn -0.3831 0.6876 0.6168
vn -0.4768 0.4281 0.7677
vn 0.8943 0.3935 0.2132
vn 0.7391 0.6501 0.1762
vn 0.6168 0.6876 0.3831
vn 0.7677 0.4281 0.4768
vn 0.2132 0.3935 -0.8943
vn 0.1762 0.6501 -0.7391
vn 0.3831 0.6876 -0.6168
vn 0.4768 0.4281 -0.7677
vn -0.8943 0.3935 -0.2132
vn -0.7391 0.6501 -0.1762
vn -0.6168 0.6876 -0.3831
vn -0.7677 0.4281 -0.4768
vn -0.0792 0.4281 -0.9002
vn -0.0636 0.6876 -0.7233
vn 0.0792 0.4281 0.9002
vn 0.0636 0.6876 0.7233
vn -0.5196 -0.1737 0.8366
vn -0.1935 -0.6626 0.7235
vn -0.4143 -0.6765 0.6088
vn -0.0677 -0.8369 -0.5432
vn -0.0688 -0.6197 -0.7818
vn 0.0677 -0.8369 0.5432
vn 0.0688 -0.6197 0.7818
vn 0.5196 -0.1737 -0.8366
vn 0.1935 -0.6626 -0.7235
vn 0.4143 -0.6765 -0.6088
vn -0.2847 -0.9562 -0.0679
vn -0.2999 -0.9360 0.1844
vn 0.0781 0.4539 0.8876
vn 0.0866 0.1503 0.9848
vn -0.0781 0.4539 -0.8876
vn -0.0866 0.1503 -0.9848
vn -0.1844 -0.9360 -0.2999
vn 0.0679 -0.9562 -0.2847
vn -0.9002 0.4281 0.0792
vn -0.7233 0.6876 0.0636
vn 0.9002 0.4281 -0.0792
vn 0.7233 0.6876 -0.0636
vn -0.8366 -0.1737 -0.5196
vn -0.7235 -0.6626 -0.1935
vn -0.6088 -0.6765 -0.4143
vn 0.8366 -0.1737 0.5196
vn 0.7235 -0.6626 0.1935
vn 0.6088 -0.6765 0.4143
vn -0.5432 -0.8369 0.0677
vn -0.7818 -0.6197 0.0688
vn 0.5432 -0.8369 -0.0677
vn 0.7818 -0.6197 -0.0688
vn 0.2999 -0.9360 -0.1844
vn 0.8876 0.4539 -0.0781
vn 0.9848 0.1503 -0.0866
vn -0.8876 0.4539 0.0781
vn -0.9848 0.1503 0.0866
vn -0.3177 0.8376 0.4445
vn -0.2147 0.8318 0.5118
vn -0.1609 0.8515 0.4991
vn -0.2729 0.8500 0.4506
vn 0.3177 0.8376 -0.4445
vn 0.2147 0.8318 -0.5118
vn 0.1609 0.8515 -0.4991
vn 0.2729 0.8500 -0.4506
vn 0.4445 0.8376 0.3177
vn 0.5118 0.8318 0.2147
vn 0.4991 0.8515 0.1609
vn 0.4506 0.8500 0.2729
vn -0.4445 0.8376 -0.3177
vn -0.5118 0.8318 -0.2147
vn -0.4991 0.8515 -0.1609
vn -0.4506 0.8500 -0.2729
vn -0.0393 0.8318 0.5536
vn 0.0830 0.8376 0.5400
vn 0.0403 0.8500 0.5252
vn -0.0816 0.8515 0.5180
vn -0.5536 0.8318 -0.0393
vn -0.5400 0.8376 0.0830
vn -0.5252 0.8500 0.0403
vn -0.5180 0.8515 -0.0816
vn 0.5536 0.8318 0.0393
vn 0.5400 0.8376 -0.0830
vn 0.5252 0.8500 -0.0403
vn 0.5180 0.8515 0.0816
vn 0.0393 0.8318 -0.5536
vn -0.0830 0.8376 -0.5400
vn -0.0403 0.8500 -0.5252
vn 0.0816 0.8515 -0.5180
vn 0.3177 -0.8376 -0.4445
vn 0.2147 -0.8318 -0.5118
vn 0.1609 -0.8515 -0.4991
vn 0.2729 -0.8500 -0.4506
vn -0.3177 -0.8376 0.4445
vn -0.2147 -0.8318 0.5118
vn -0.1609 -0.8515 0.4991
vn -0.2729 -0.8500 0.4506
vn -0.4445 -0.8376 -0.3177
vn -0.5118 -0.8318 -0.2147
vn -0.4991 -0.8515 -0.1609
vn -0.4506 -0.8500 -0.2729
vn 0.4445 -0.8376 0.3177
vn 0.5118 -0.8318 0.2147
vn 0.4991 -0.8515 0.1609
vn 0.4506 -0.8500 0.2729
vn 0.0393 -0.8318 -0.5536
vn -0.0830 -0.8376 -0.5400
vn -0.0403 -0.8500 -0.5252
vn 0.0816 -0.8515 -0.5180
vn 0.5536 -0.8318 0.0393
vn 0.5400 -0.8376 -0.0830
vn 0.5252 -0.8500 -0.0403
vn 0.5180 -0.8515 0.0816
vn -0.5536 -0.8318 -0.0393
vn -0.5400 -0.8376 0.0830
vn -0.5252 -0.8500 0.0403
vn -0.5180 -0.8515 -0.0816
vn -0.0393 -0.8318 0.5536
vn 0.0830 -0.8376 0.5400
vn 0.0403 -0.8500 0.5252
vn -0.0816 -0.8515 0.5180
vn -0.8495 0.0000 -0.5276
vn -0.9962 -0.0000 0.0876
vn 0.2319 0.0000 -0.9727
vn -0.9727 -0.0000 -0.2319
vn -0.0876 0.0000 -0.9962
vn 0.5276 0.0000 -0.8495
vn 0.9962 0.0000 -0.0876
vn 0.9727 0.0000 0.2319
vn 0.0876 0.0000 0.9962
vn 0.8495 0.0000 0.5276
vn -0.2319 0.0000 0.9727
vn -0.5276 -0.0000 0.8495
vn -0.7439 0.6595 0.1078
vn 0.1530 0.6275 -0.7634
vn -0.1078 0.6595 -0.7439
vn 0.7634 0.6275 0.1530
vn 0.7503 0.6275 0.2079
vn -0.7634 0.6275 -0.1530
vn 0.4318 0.6595 -0.6153
vn -0.2079 0.6275 0.7503
vn 0.1078 0.6595 0.7439
vn 0.0000 1.0000 -0.0000
vn -0.6153 0.6595 -0.4318
vn -0.7503 0.6275 -0.2079
vn -0.1530 0.6275 0.7634
vn 0.2079 0.6275 -0.7503
vn -0.4318 0.6595 0.6153
vn 0.6153 0.6595 0.4318
vn 0.7439 0.6595 -0.1078
usemtl Mushroom1
s off
f 1//1 72//1 148//1 108//1
f 1//2 108//2 140//2 39//2
f 1//3 39//3 112//3 66//3
f 1//4 66//4 126//4 72//4
f 2//5 71//5 138//5 89//5
f 2//6 89//6 130//6 42//6
f 2//7 42//7 116//7 67//7
f 2//8 67//8 127//8 71//8
f 3//9 70//9 147//9 107//9
f 3//10 107//10 142//10 45//10
f 3//11 45//11 114//11 68//11
f 3//12 68//12 128//12 70//12
f 4//13 69//13 137//13 88//13
f 4//14 88//14 132//14 48//14
f 4//15 48//15 110//15 38//15
f 4//16 38//16 125//16 69//16
f 5//17 87//17 149//17 106//17
f 5//18 106//18 141//18 92//18
f 5//19 92//19 113//19 47//19
f 5//20 47//20 131//20 87//20
f 6//21 86//21 130//21 74//21
f 6//22 74//22 112//22 61//22
f 6//23 61//23 122//23 262//23
f 6//24 262//24 135//24 86//24
f 7//25 75//25 131//25 85//25
f 7//26 85//26 133//26 53//26
f 7//27 53//27 117//27 49//27
f 7//28 49//28 109//28 75//28
f 8//29 92//29 141//29 105//29
f 8//30 105//30 143//30 54//30
f 8//31 54//31 120//31 46//31
f 8//32 46//32 113//32 92//32
f 9//33 73//33 129//33 84//33
f 9//34 84//34 134//34 55//34
f 9//35 55//35 119//35 43//35
f 9//36 43//36 115//36 73//36
f 10//37 90//37 139//37 104//37
f 10//38 104//38 144//38 56//38
f 10//39 56//39 118//39 40//39
f 10//40 40//40 111//40 90//40
f 11//41 103//41 142//41 93//41
f 11//42 93//42 116//42 62//42
f 11//43 62//43 123//43 265//43
f 11//44 265//44 146//44 103//44
f 12//45 102//45 140//45 91//45
f 12//46 91//46 110//46 64//46
f 12//47 64//47 121//47 264//47
f 12//48 264//48 145//48 102//48
f 13//49 83//49 132//49 76//49
f 13//50 76//50 114//50 63//50
f 13//51 63//51 124//51 263//51
f 13//52 263//52 136//52 83//52
f 14//53 53//53 133//53 82//53
f 14//54 82//54 137//54 69//54
f 14//55 69//55 125//55 65//55
f 14//56 65//56 117//56 53//56
f 15//57 54//57 143//57 101//57
f 15//58 101//58 147//58 70//58
f 15//59 70//59 128//59 52//59
f 15//60 52//60 120//60 54//60
f 16//61 55//61 134//61 81//61
f 16//62 81//62 138//62 71//62
f 16//63 71//63 127//63 51//63
f 16//64 51//64 119//64 55//64
f 17//65 56//65 144//65 100//65
f 17//66 100//66 148//66 72//66
f 17//67 72//67 126//67 50//67
f 17//68 50//68 118//68 56//68
f 18//69 78//69 118//69 50//69
f 18//70 50//70 126//70 80//70
f 18//62 80//62 138//62 81//62
f 18//61 81//61 134//61 78//61
f 19//71 77//71 120//71 52//71
f 19//72 52//72 128//72 79//72
f 19//54 79//54 137//54 82//54
f 19//53 82//53 133//53 77//53
f 20//73 64//73 110//73 48//73
f 20//49 48//49 132//49 83//49
f 20//74 83//74 136//74 60//74
f 20//75 60//75 121//75 64//75
f 21//76 41//76 111//76 40//76
f 21//77 40//77 118//77 78//77
f 21//34 78//34 134//34 84//34
f 21//33 84//33 129//33 41//33
f 22//78 47//78 113//78 46//78
f 22//79 46//79 120//79 77//79
f 22//26 77//26 133//26 85//26
f 22//25 85//25 131//25 47//25
f 23//80 62//80 116//80 42//80
f 23//21 42//21 130//21 86//21
f 23//81 86//81 135//81 58//81
f 23//82 58//82 123//82 62//82
f 24//83 37//83 139//83 99//83
f 24//17 99//17 149//17 87//17
f 24//20 87//20 131//20 75//20
f 24//84 75//84 109//84 37//84
f 25//85 79//85 128//85 68//85
f 25//86 68//86 114//86 76//86
f 25//14 76//14 132//14 88//14
f 25//13 88//13 137//13 79//13
f 26//87 80//87 126//87 66//87
f 26//88 66//88 112//88 74//88
f 26//6 74//6 130//6 89//6
f 26//5 89//5 138//5 80//5
f 27//89 90//89 111//89 41//89
f 27//90 41//90 129//90 98//90
f 27//17 98//17 149//17 99//17
f 27//83 99//83 139//83 90//83
f 28//91 95//91 117//91 65//91
f 28//92 65//92 125//92 97//92
f 28//66 97//66 148//66 100//66
f 28//65 100//65 144//65 95//65
f 29//93 94//93 119//93 51//93
f 29//94 51//94 127//94 96//94
f 29//58 96//58 147//58 101//58
f 29//57 101//57 143//57 94//57
f 30//95 61//95 112//95 39//95
f 30//45 39//45 140//45 102//45
f 30//96 102//96 145//96 57//96
f 30//97 57//97 122//97 61//97
f 31//98 63//98 114//98 45//98
f 31//41 45//41 142//41 103//41
f 31//99 103//99 146//99 59//99
f 31//100 59//100 124//100 63//100
f 32//101 37//101 109//101 49//101
f 32//102 49//102 117//102 95//102
f 32//38 95//38 144//38 104//38
f 32//37 104//37 139//37 37//37
f 33//103 44//103 115//103 43//103
f 33//104 43//104 119//104 94//104
f 33//30 94//30 143//30 105//30
f 33//29 105//29 141//29 44//29
f 34//90 98//90 129//90 73//90
f 34//105 73//105 115//105 44//105
f 34//18 44//18 141//18 106//18
f 34//17 106//17 149//17 98//17
f 35//106 96//106 127//106 67//106
f 35//107 67//107 116//107 93//107
f 35//10 93//10 142//10 107//10
f 35//9 107//9 147//9 96//9
f 36//108 97//108 125//108 38//108
f 36//109 38//109 110//109 91//109
f 36//2 91//2 140//2 108//2
f 36//1 108//1 148//1 97//1
f 150//110 170//110 190//110 172//110
f 150//111 167//111 184//111 170//111
f 150//112 171//112 188//112 167//112
f 150//113 172//113 191//113 171//113
f 151//114 179//114 196//114 181//114
f 151//115 169//115 183//115 179//115
f 151//116 180//116 187//116 169//116
f 151//117 181//117 197//117 180//117
f 152//118 176//118 194//118 178//118
f 152//119 168//119 185//119 176//119
f 152//120 177//120 189//120 168//120
f 152//121 178//121 195//121 177//121
f 153//122 173//122 192//122 175//122
f 153//123 166//123 182//123 173//123
f 153//124 174//124 186//124 166//124
f 153//125 175//125 193//125 174//125
f 154//126 161//126 182//126 166//126
f 154//127 172//127 190//127 161//127
f 154//128 165//128 191//128 172//128
f 154//129 166//129 186//129 165//129
f 155//130 158//130 183//130 169//130
f 155//131 175//131 192//131 158//131
f 155//132 162//132 193//132 175//132
f 155//133 169//133 187//133 162//133
f 156//134 160//134 184//134 167//134
f 156//135 178//135 194//135 160//135
f 156//136 164//136 195//136 178//136
f 156//137 167//137 188//137 164//137
f 157//138 159//138 185//138 168//138
f 157//139 181//139 196//139 159//139
f 157//140 163//140 197//140 181//140
f 157//141 168//141 189//141 163//141
f 198//142 202//142 236//142 199//142
f 198//143 199//143 235//143 200//143
f 198//144 200//144 243//144 201//144
f 198//145 201//145 244//145 202//145
f 203//146 207//146 232//146 204//146
f 203//147 204//147 231//147 205//147
f 203//148 205//148 239//148 206//148
f 203//149 206//149 240//149 207//149
f 208//150 212//150 234//150 209//150
f 208//151 209//151 233//151 210//151
f 208//152 210//152 241//152 211//152
f 208//153 211//153 242//153 212//153
f 213//154 217//154 230//154 214//154
f 213//155 214//155 237//155 215//155
f 213//156 215//156 245//156 216//156
f 213//157 216//157 238//157 217//157
f 218//158 215//158 237//158 219//158
f 218//159 219//159 236//159 202//159
f 218//160 202//160 244//160 220//160
f 218//161 220//161 245//161 215//161
f 221//162 205//162 231//162 222//162
f 221//163 222//163 230//163 217//163
f 221//164 217//164 238//164 223//164
f 221//165 223//165 239//165 205//165
f 224//166 200//166 235//166 225//166
f 224//167 225//167 234//167 212//167
f 224//168 212//168 242//168 226//168
f 224//169 226//169 243//169 200//169
f 227//170 210//170 233//170 228//170
f 227//171 228//171 232//171 207//171
f 227//172 207//172 240//172 229//172
f 227//173 229//173 241//173 210//173
f 162//174 187//174 239//174 223//174
f 176//175 185//175 233//175 209//175
f 197//176 163//176 229//176 240//176
f 194//177 176//177 209//177 234//177
f 170//178 184//178 235//178 199//178
f 163//179 189//179 241//179 229//179
f 189//180 177//180 211//180 241//180
f 190//176 170//176 199//176 236//176
f 195//181 164//181 226//181 242//181
f 177//181 195//181 242//181 211//181
f 188//182 171//182 201//182 243//182
f 164//183 188//183 243//183 226//183
f 158//181 192//181 230//181 222//181
f 171//184 191//184 244//184 201//184
f 191//184 165//184 220//184 244//184
f 183//183 158//183 222//183 231//183
f 165//185 186//185 245//185 220//185
f 179//182 183//182 231//182 204//182
f 159//184 196//184 232//184 228//184
f 196//184 179//184 204//184 232//184
f 185//185 159//185 228//185 233//185
f 173//180 182//180 237//180 214//180
f 187//178 180//178 206//178 239//178
f 160//177 194//177 234//177 225//177
f 192//181 173//181 214//181 230//181
f 180//176 197//176 240//176 206//176
f 184//174 160//174 225//174 235//174
f 186//175 174//175 216//175 245//175
f 161//176 190//176 236//176 219//176
f 174//177 193//177 238//177 216//177
f 182//179 161//179 219//179 237//179
f 193//177 162//177 223//177 238//177
f 264//186 121//186 257//186 247//186
f 135//187 262//187 249//187 253//187
f 262//188 122//188 256//188 249//188
f 146//189 265//189 246//189 250//189
f 59//190 146//190 250//190 259//190
f 145//191 264//191 247//191 251//191
f 123//192 58//192 260//192 255//192
f 60//193 136//193 252//193 258//193
f 263//194 124//194 254//194 248//194
f 246//195 255//195 260//195 253//195 249//195 256//195 261//195 251//195 247//195 257//195 258//195 252//195 248//195 254//195 259//195 250//195
f 122//196 57//196 261//196 256//196
f 57//197 145//197 251//197 261//197
f 136//198 263//198 248//198 252//198
f 58//199 135//199 253//199 260//199
f 121//200 60//200 258//200 257//200
f 124//201 59//201 259//201 254//201
f 265//202 123//202 255//202 246//202
