# Blender v2.79 (sub 0) OBJ File: 'Mushroom_1.blend'
# www.blender.org
mtllib Mushroom_1.mtl
o Mushroom_1_Cube.008
v 0.000710 0.035640 0.034411
v -0.034244 0.035640 -0.001103
v 0.001270 0.035640 -0.036057
v 0.036224 0.035640 -0.000543
v 0.000990 0.000479 -0.000823
v -0.033236 0.059918 -0.001095
v 0.036224 0.009098 -0.000543
v 0.001270 0.009098 -0.036057
v -0.034244 0.009098 -0.001103
v 0.000710 0.009098 0.034411
v 0.001262 0.059918 -0.035049
v 0.000718 0.059918 0.033403
v 0.035216 0.059918 -0.000551
v 0.000990 0.119118 -0.000823
v 0.000564 0.086249 0.052769
v 0.001416 0.086249 -0.054416
v -0.052603 0.086249 -0.001249
v 0.054582 0.086249 -0.000397
v 0.055240 0.074463 -0.000392
v -0.053260 0.074463 -0.001254
v 0.001421 0.074463 -0.055073
v 0.000559 0.074463 0.053427
v 0.000816 0.002634 0.021113
v 0.027205 0.035640 0.025813
v 0.000748 0.050671 0.029669
v -0.025646 0.009098 0.025392
v -0.020946 0.002634 -0.000997
v -0.029503 0.050671 -0.001065
v -0.025226 0.009098 -0.027459
v 0.001164 0.002634 -0.022759
v 0.001232 0.050671 -0.031316
v 0.027626 0.009098 -0.027039
v 0.022926 0.002634 -0.000649
v 0.031483 0.050671 -0.000581
v 0.027205 0.009098 0.025813
v -0.025646 0.035640 0.025392
v -0.025226 0.035640 -0.027459
v 0.027626 0.035640 -0.027039
v 0.040714 0.020043 -0.000507
v 0.001306 0.020043 -0.040547
v -0.038734 0.020043 -0.001139
v 0.000674 0.020043 0.038901
v 0.000683 0.068877 0.037830
v -0.037663 0.068877 -0.001130
v 0.001297 0.068877 -0.039476
v 0.039643 0.068877 -0.000516
v -0.024884 0.059918 0.024642
v -0.024475 0.059918 -0.026697
v 0.026863 0.059918 -0.026288
v 0.026455 0.059918 0.025050
v 0.000716 0.111508 0.033599
v -0.033432 0.111508 -0.001097
v 0.001264 0.111508 -0.035245
v 0.035412 0.111508 -0.000549
v 0.041354 0.074463 0.040188
v -0.039374 0.074463 -0.041834
v 0.041504 0.086249 -0.040698
v -0.039524 0.086249 0.039052
v 0.040865 0.086249 0.039691
v -0.038885 0.086249 -0.041337
v 0.042001 0.074463 -0.041187
v -0.040021 0.074463 0.039541
v 0.018429 0.004310 0.016896
v 0.023678 0.050671 0.022228
v -0.016729 0.004310 0.016616
v -0.022061 0.050671 0.021865
v 0.018709 0.004310 -0.018263
v 0.024041 0.050671 -0.023511
v -0.016449 0.004310 -0.018542
v -0.021698 0.050671 -0.023874
v 0.030546 0.020043 0.029207
v -0.029040 0.020043 0.028733
v -0.028566 0.020043 -0.030853
v 0.031020 0.020043 -0.030379
v 0.029749 0.068877 0.028397
v -0.028230 0.068877 0.027936
v -0.027769 0.068877 -0.030043
v 0.030210 0.068877 -0.029582
v 0.028315 0.105590 0.026940
v -0.026773 0.105590 0.026502
v -0.026335 0.105590 -0.028586
v 0.028753 0.105590 -0.028148
vn 0.2978 0.2634 0.9176
vn 0.2957 0.2867 0.9112
vn -0.3102 0.2867 0.9064
vn -0.3123 0.2634 0.9127
vn -0.9176 0.2634 0.2978
vn -0.9112 0.2867 0.2957
vn -0.9064 0.2867 -0.3102
vn -0.9127 0.2634 -0.3123
vn -0.2978 0.2634 -0.9176
vn -0.2957 0.2867 -0.9112
vn 0.3102 0.2867 -0.9064
vn 0.3123 0.2634 -0.9127
vn 0.9176 0.2634 -0.2978
vn 0.9112 0.2867 -0.2957
vn 0.9064 0.2867 0.3102
vn 0.9127 0.2634 0.3123
vn -0.1085 -0.9883 0.1068
vn -0.1068 -0.9883 -0.1085
vn 0.1085 -0.9883 -0.1068
vn 0.1068 -0.9883 0.1085
vn -0.8835 -0.3577 -0.3023
vn -0.8882 -0.3577 0.2883
vn -0.8612 -0.4245 0.2795
vn -0.8567 -0.4245 -0.2931
vn 0.3994 -0.9044 -0.1504
vn 0.8864 -0.3627 -0.2877
vn 0.8817 -0.3627 0.3017
vn 0.3970 -0.9044 0.1567
vn -0.1504 -0.9044 -0.3994
vn -0.2877 -0.3627 -0.8864
vn 0.3017 -0.3627 -0.8817
vn 0.1567 -0.9044 -0.3970
vn -0.3994 -0.9044 0.1504
vn -0.8864 -0.3627 0.2877
vn -0.8817 -0.3627 -0.3017
vn -0.3970 -0.9044 -0.1567
vn 0.1504 -0.9044 0.3994
vn 0.2877 -0.3627 0.8864
vn -0.3017 -0.3627 0.8817
vn -0.1567 -0.9044 0.3970
vn 0.3023 -0.3577 -0.8835
vn -0.2883 -0.3577 -0.8882
vn -0.2795 -0.4245 -0.8612
vn 0.2931 -0.4245 -0.8567
vn -0.3023 -0.3577 0.8835
vn 0.2883 -0.3577 0.8882
vn 0.2795 -0.4245 0.8612
vn -0.2931 -0.4245 0.8567
vn 0.8835 -0.3577 0.3023
vn 0.8882 -0.3577 -0.2883
vn 0.8612 -0.4245 -0.2795
vn 0.8567 -0.4245 0.2931
vn 0.9498 0.0528 -0.3082
vn 0.7415 0.6089 0.2817
vn -0.7459 0.6089 0.2699
vn -0.2301 0.9447 -0.2338
vn -0.2338 0.9447 0.2301
vn 0.2301 0.9447 0.2338
vn 0.2338 0.9447 -0.2301
vn -0.7415 0.6089 -0.2817
vn -0.2699 0.6089 -0.7459
vn 0.2817 0.6089 -0.7415
vn 0.2699 0.6089 0.7459
vn -0.2817 0.6089 0.7415
vn 0.7459 0.6089 -0.2699
vn -0.3233 0.0528 0.9448
vn 0.3082 0.0528 0.9498
vn 0.3233 0.0528 -0.9448
vn -0.3082 0.0528 -0.9498
vn -0.9448 0.0528 -0.3233
vn -0.9498 0.0528 0.3082
vn 0.9448 0.0528 0.3233
vn 0.3341 -0.9356 0.1143
vn 0.3359 -0.9356 -0.1090
vn -0.3341 -0.9356 -0.1143
vn -0.3359 -0.9356 0.1090
vn 0.1143 -0.9356 -0.3341
vn -0.1090 -0.9356 -0.3359
vn -0.1143 -0.9356 0.3341
vn 0.1090 -0.9356 0.3359
usemtl Mushroom1
s off
f 1//1 42//1 71//1 24//1
f 1//2 24//2 64//2 25//2
f 1//3 25//3 66//3 36//3
f 1//4 36//4 72//4 42//4
f 2//5 41//5 72//5 36//5
f 2//6 36//6 66//6 28//6
f 2//7 28//7 70//7 37//7
f 2//8 37//8 73//8 41//8
f 3//9 40//9 73//9 37//9
f 3//10 37//10 70//10 31//10
f 3//11 31//11 68//11 38//11
f 3//12 38//12 74//12 40//12
f 4//13 39//13 74//13 38//13
f 4//14 38//14 68//14 34//14
f 4//15 34//15 64//15 24//15
f 4//16 24//16 71//16 39//16
f 5//17 23//17 65//17 27//17
f 5//18 27//18 69//18 30//18
f 5//19 30//19 67//19 33//19
f 5//20 33//20 63//20 23//20
f 6//21 48//21 70//21 28//21
f 6//22 28//22 66//22 47//22
f 6//23 47//23 76//23 44//23
f 6//24 44//24 77//24 48//24
f 7//25 33//25 67//25 32//25
f 7//26 32//26 74//26 39//26
f 7//27 39//27 71//27 35//27
f 7//28 35//28 63//28 33//28
f 8//29 30//29 69//29 29//29
f 8//30 29//30 73//30 40//30
f 8//31 40//31 74//31 32//31
f 8//32 32//32 67//32 30//32
f 9//33 27//33 65//33 26//33
f 9//34 26//34 72//34 41//34
f 9//35 41//35 73//35 29//35
f 9//36 29//36 69//36 27//36
f 10//37 23//37 63//37 35//37
f 10//38 35//38 71//38 42//38
f 10//39 42//39 72//39 26//39
f 10//40 26//40 65//40 23//40
f 11//41 49//41 68//41 31//41
f 11//42 31//42 70//42 48//42
f 11//43 48//43 77//43 45//43
f 11//44 45//44 78//44 49//44
f 12//45 47//45 66//45 25//45
f 12//46 25//46 64//46 50//46
f 12//47 50//47 75//47 43//47
f 12//48 43//48 76//48 47//48
f 13//49 50//49 64//49 34//49
f 13//50 34//50 68//50 49//50
f 13//51 49//51 78//51 46//51
f 13//52 46//52 75//52 50//52
usemtl Red
f 19//53 61//53 57//53 18//53
f 18//54 54//54 79//54 59//54
f 17//55 58//55 80//55 52//55
f 14//56 53//56 81//56 52//56
f 14//57 52//57 80//57 51//57
f 14//58 51//58 79//58 54//58
f 14//59 54//59 82//59 53//59
f 17//60 52//60 81//60 60//60
f 16//61 60//61 81//61 53//61
f 16//62 53//62 82//62 57//62
f 15//63 59//63 79//63 51//63
f 15//64 51//64 80//64 58//64
f 18//65 57//65 82//65 54//65
f 22//66 15//66 58//66 62//66
f 22//67 55//67 59//67 15//67
f 21//68 16//68 57//68 61//68
f 21//69 56//69 60//69 16//69
f 20//70 17//70 60//70 56//70
f 20//71 62//71 58//71 17//71
f 19//72 18//72 59//72 55//72
f 19//73 55//73 75//73 46//73
f 19//74 46//74 78//74 61//74
f 20//75 56//75 77//75 44//75
f 20//76 44//76 76//76 62//76
f 21//77 61//77 78//77 45//77
f 21//78 45//78 77//78 56//78
f 22//79 62//79 76//79 43//79
f 22//80 43//80 75//80 55//80
