# Blender v2.79 (sub 0) OBJ File: 'Orange_3.blend'
# www.blender.org
mtllib Orange_3.mtl
o Orange_3_Cube.059
v 0.025758 0.018717 0.078485
v 0.078486 0.018735 -0.025758
v -0.025756 0.018717 -0.078486
v -0.078484 0.018698 0.025757
v 0.058694 0.671939 -0.019262
v -0.035247 0.701802 0.011567
v 0.026092 0.686871 0.039935
v -0.002645 0.686871 -0.047630
v 0.293403 1.163804 -0.161998
v 0.109775 0.969707 0.001473
v 0.088284 0.971041 -0.067650
v 0.122682 0.943426 -0.040715
v 0.425015 1.373653 -0.165106
v 0.334491 1.160992 -0.135919
v 0.271331 1.178531 -0.120884
v 0.376126 1.379016 -0.152115
v 0.407790 1.380553 -0.132567
v 0.393351 1.372116 -0.184654
v 0.168332 1.005836 -0.056513
v 0.124808 1.059935 -0.043063
v 0.157629 1.032828 -0.015981
v 0.073865 0.846088 -0.024430
v 0.025858 0.863946 -0.052633
v 0.051421 0.863389 0.026780
v 0.003415 0.881247 -0.001423
v -0.051312 0.372299 0.016840
v -0.012150 0.367098 -0.059468
v 0.064612 0.361896 -0.021204
v 0.025450 0.367098 0.055104
v -0.039543 0.018703 0.078188
v 0.023065 0.078787 0.068511
v 0.069190 0.078343 -0.022707
v -0.022016 0.078787 -0.068855
v -0.068140 0.079231 0.022362
v -0.078183 0.018703 -0.039552
v 0.039549 0.018731 -0.078177
v 0.078181 0.018731 0.039540
v -0.088391 -0.000005 0.029008
v -0.029008 -0.000000 -0.088391
v 0.088391 0.000005 -0.029008
v 0.029008 -0.000000 0.088391
v -0.029467 0.602480 0.009671
v 0.005980 0.586402 -0.052680
v 0.071479 0.570324 -0.023458
v 0.036032 0.586402 0.038893
v 0.036050 0.675672 -0.048626
v 0.057853 0.675672 0.017809
v -0.012853 0.698069 0.040170
v -0.034156 0.698069 -0.024743
v 0.097192 1.042822 -0.033327
v 0.103429 1.003109 -0.081482
v 0.141012 0.972821 -0.046972
v 0.130007 1.000552 -0.006476
v 0.086266 0.995890 0.008458
v 0.002601 0.877011 -0.034388
v 0.124904 0.949542 -0.013150
v 0.055506 0.850742 -0.051025
v 0.307300 1.244974 -0.133083
v 0.328177 1.232841 -0.172566
v 0.367016 1.230756 -0.148001
v 0.351472 1.253609 -0.106734
v 0.271759 1.172235 -0.147695
v 0.161156 1.014565 -0.091191
v 0.171343 1.012246 -0.029804
v 0.279976 1.185877 -0.092164
v 0.390721 1.586166 -0.171027
v 0.408879 1.585724 -0.197847
v 0.433338 1.591220 -0.183437
v 0.419729 1.593066 -0.158135
v 0.413738 1.370851 -0.183055
v 0.424070 1.377796 -0.143910
v 0.387900 1.381202 -0.134245
v 0.376573 1.375490 -0.173232
v 0.319801 1.158351 -0.159503
v 0.341719 1.169637 -0.106711
v 0.280916 1.138365 -0.075147
v 0.244433 1.147020 -0.107017
v 0.305331 1.125201 -0.121409
v 0.265125 1.130192 -0.147528
v 0.118235 1.067890 -0.078742
v 0.138385 1.053437 -0.019061
v 0.021841 0.876694 0.025789
v 0.065393 0.996847 -0.060157
v 0.074611 0.850224 0.007917
v 0.108634 0.950784 -0.064467
v 0.103560 0.905299 -0.034337
v 0.063832 0.929093 -0.061768
v 0.086918 0.928063 0.011386
v 0.037008 0.950024 -0.012950
v -0.022823 0.370998 0.054739
v -0.050820 0.370998 -0.030571
v 0.064323 0.363197 0.026825
v 0.035919 0.363197 -0.059723
v -0.034075 0.079120 0.068221
v -0.067873 0.079120 -0.034764
v 0.035112 0.078454 -0.068605
v 0.068936 0.078454 0.034459
v -0.088049 -0.000004 -0.044539
v 0.044537 0.000004 -0.088048
v 0.088049 0.000004 0.044536
v -0.044536 -0.000004 0.088051
v -0.005846 0.598460 0.039057
v -0.027852 0.598460 -0.027998
v 0.047324 0.574344 -0.054470
v 0.070397 0.574344 0.015836
v 0.105429 1.028259 -0.004796
v 0.088401 1.033403 -0.067253
v 0.128217 0.983391 -0.079648
v 0.143640 0.979291 -0.020299
v 0.314872 1.236944 -0.103259
v 0.307663 1.239911 -0.158682
v 0.353181 1.228284 -0.170438
v 0.365113 1.225606 -0.115335
v 0.407865 1.606166 -0.158897
v 0.399174 1.600407 -0.190708
v 0.424618 1.587922 -0.196770
v 0.432541 1.593605 -0.167380
v 0.244524 1.139949 -0.133713
v 0.290605 1.123394 -0.144686
v 0.312199 1.136054 -0.091758
v 0.261160 1.152655 -0.079885
v 0.306587 1.180296 -0.086640
v 0.138109 1.037075 -0.097744
v 0.060631 0.956335 0.012988
v 0.041751 0.956966 -0.048058
v 0.105204 0.910639 -0.004899
v 0.087824 0.911598 -0.059202
v 0.281170 1.899974 -0.716615
v 0.123250 1.426965 0.142821
v 0.151409 1.790447 0.098398
v 0.330212 1.720512 -0.849012
v 0.550697 1.854692 -0.204966
v 0.664773 1.646762 -0.133270
v 0.629138 1.429411 -0.007826
v 0.604473 1.359591 -0.080077
v 0.560406 1.727619 -0.867268
v 0.024846 1.440902 -0.060470
v -0.089387 1.689875 -0.563958
v 0.267594 1.444412 0.240828
v 0.158727 1.264409 0.123713
v 0.203152 1.909980 0.040417
v 0.316478 1.998317 -0.228506
v 0.092166 2.002170 -0.176313
v 0.138546 2.101064 -0.550089
v -0.006366 2.007545 -0.472946
v 0.817343 1.639396 -0.280911
v 0.046980 1.810626 -0.071544
v -0.031154 1.871917 -0.511193
v 0.284800 1.745849 0.189990
v 0.178207 1.604209 0.103458
v 0.642137 1.279347 -0.222135
v 0.560600 1.869490 -0.287224
v 0.374754 1.928337 -0.707905
v 0.360235 1.564589 -0.874371
v 0.322269 1.824000 -0.769992
v 0.640263 1.834421 -0.168612
v 0.672425 1.497706 -0.072885
v 0.658187 1.394204 -0.042254
v 0.793609 1.436874 -0.224806
v 0.430804 2.009697 -0.206011
v 0.183889 2.024531 -0.615442
v 0.552462 1.633534 -0.865255
v 0.064718 1.997822 -0.081472
v 0.105913 1.344852 -0.087911
v -0.104356 1.585759 -0.581700
v -0.031090 1.969378 -0.497643
v 0.291653 1.800508 0.091619
v 0.265010 1.369839 0.202094
v 0.272421 2.116603 -0.224104
v 0.119488 2.124262 -0.501865
v 0.107733 2.010828 -0.205565
v 0.017359 2.017313 -0.453796
v 0.677760 1.767437 -0.318827
v 0.507835 1.917577 -0.837824
v 0.048471 1.629929 -0.068671
v -0.049852 1.773502 -0.534657
v 0.275759 1.594653 0.239017
v 0.066385 0.999263 -0.036878
vt 0.000000 0.000000
vt 0.000000 0.000000
vt 0.000000 0.000000
vt 0.000000 0.000000
vt 0.000000 0.000000
vt 0.000000 0.000000
vt 0.000000 0.000000
vt 0.000000 0.000000
vt 0.000000 0.000000
vt 0.000000 0.000000
vt 0.000000 0.000000
vt 0.000000 0.000000
vt 0.000000 0.000000
vt 0.000000 0.000000
vt 0.000000 0.000000
vt 0.000000 0.000000
vt 0.000000 0.000000
vt 0.000000 0.000000
vt 0.000000 0.000000
vt 0.000000 0.000000
vt 0.000000 0.000000
vt 0.000000 0.000000
vt 0.000000 0.000000
vt 0.000000 0.000000
vt 0.000000 0.000000
vt 0.000000 0.000000
vt 0.000000 0.000000
vt 0.000000 0.000000
vt 0.000000 0.000000
vt 0.000000 0.000000
vt 0.000000 0.000000
vt 0.000000 0.000000
vt 0.000000 0.000000
vt 0.000000 0.000000
vt 0.000000 0.000000
vt 0.000000 0.000000
vt 0.000000 0.000000
vt 0.000000 0.000000
vt 0.000000 0.000000
vt 0.000000 0.000000
vt 0.000000 0.000000
vt 0.000000 0.000000
vt 0.000000 0.000000
vt 0.000000 0.000000
vt 0.000000 0.000000
vt 0.000000 0.000000
vt 0.000000 0.000000
vt 0.000000 0.000000
vt 0.000000 0.000000
vt 0.000000 0.000000
vt 0.000000 0.000000
vt 0.000000 0.000000
vt 0.000000 0.000000
vt 0.000000 0.000000
vt 0.000000 0.000000
vt 0.000000 0.000000
vt 0.000000 0.000000
vt 0.000000 0.000000
vt 0.000000 0.000000
vt 0.000000 0.000000
vt 0.000000 0.000000
vt 0.000000 0.000000
vt 0.000000 0.000000
vt 0.000000 0.000000
vt 0.000000 0.000000
vt 0.000000 0.000000
vt 0.000000 0.000000
vt 0.000000 0.000000
vt 0.000000 0.000000
vt 0.000000 0.000000
vt 0.000000 0.000000
vt 0.000000 0.000000
vt 0.000000 0.000000
vt 0.000000 0.000000
vt 0.000000 0.000000
vt 0.000000 0.000000
vt 0.000000 0.000000
vt 0.000000 0.000000
vt 0.000000 0.000000
vt 0.000000 0.000000
vt 0.000000 0.000000
vt 0.000000 0.000000
vt 0.000000 0.000000
vt 0.000000 0.000000
vt 0.000000 0.000000
vt 0.000000 0.000000
vt 0.000000 0.000000
vt 0.000000 0.000000
vt 0.000000 0.000000
vt 0.000000 0.000000
vt 0.000000 0.000000
vt 0.000000 0.000000
vt 0.000000 0.000000
vt 0.000000 0.000000
vt 0.000000 0.000000
vt 0.000000 0.000000
vt 0.000000 0.000000
vt 0.000000 0.000000
vt 0.000000 0.000000
vt 0.000000 0.000000
vt 0.000000 0.000000
vt 0.000000 0.000000
vt 0.000000 0.000000
vt 0.000000 0.000000
vt 0.000000 0.000000
vt 0.000000 0.000000
vt 0.000000 0.000000
vt 0.000000 0.000000
vt 0.000000 0.000000
vt 0.000000 0.000000
vt 0.000000 0.000000
vt 0.000000 0.000000
vt 0.000000 0.000000
vt 0.000000 0.000000
vt 0.000000 0.000000
vt 0.000000 0.000000
vt 0.000000 0.000000
vt 0.000000 0.000000
vt 0.000000 0.000000
vt 0.000000 0.000000
vt 0.000000 0.000000
vt 0.000000 0.000000
vt 0.000000 0.000000
vt 0.000000 0.000000
vt 0.000000 0.000000
vt 0.000000 0.000000
vt 0.000000 0.000000
vt 0.000000 0.000000
vt 0.000000 0.000000
vt 0.000000 0.000000
vt 0.000000 0.000000
vt 0.000000 0.000000
vt 0.000000 0.000000
vt 0.000000 0.000000
vt 0.000000 0.000000
vt 0.000000 0.000000
vt 0.000000 0.000000
vt 0.000000 0.000000
vt 0.000000 0.000000
vt 0.000000 0.000000
vt 0.000000 0.000000
vt 0.000000 0.000000
vt 0.000000 0.000000
vt 0.000000 0.000000
vt 0.000000 0.000000
vt 0.000000 0.000000
vt 0.000000 0.000000
vt 0.000000 0.000000
vt 0.000000 0.000000
vt 0.000000 0.000000
vt 0.000000 0.000000
vt 0.000000 0.000000
vt 0.000000 0.000000
vt 0.000000 0.000000
vt 0.000000 0.000000
vt 0.000000 0.000000
vt 0.000000 0.000000
vt 0.000000 0.000000
vt 0.000000 0.000000
vt 0.000000 0.000000
vt 0.000000 0.000000
vt 0.000000 0.000000
vt 0.000000 0.000000
vt 0.000000 0.000000
vt 0.000000 0.000000
vt 0.000000 0.000000
vt 0.000000 0.000000
vt 0.000000 0.000000
vt 0.000000 0.000000
vt 0.000000 0.000000
vt 0.000000 0.000000
vt 0.000000 0.000000
vt 0.000000 0.000000
vt 0.000000 0.000000
vt 0.000000 0.000000
vt 0.000000 0.000000
vt 0.000000 0.000000
vt 0.000000 0.000000
vn -0.9983 0.0578 -0.0080
vn -0.5954 0.0464 -0.8021
vn 0.0012 0.0318 -0.9995
vn 0.8025 0.0162 -0.5964
vn 0.9999 0.0162 0.0049
vn 0.5932 0.0318 0.8044
vn -0.0043 0.0464 0.9989
vn 0.7947 -0.0303 -0.6063
vn -0.7832 0.0971 0.6142
vn 0.9994 -0.0303 0.0175
vn 0.5272 0.4672 0.7098
vn 0.5890 0.1583 0.7925
vn -0.0043 0.1634 0.9866
vn -0.0041 0.4672 0.8841
vn 0.7099 0.4670 -0.5273
vn 0.7934 0.1536 -0.5890
vn 0.9881 0.1536 0.0044
vn 0.8843 0.4670 0.0041
vn -0.5272 0.4672 -0.7098
vn -0.5880 0.1634 -0.7922
vn 0.0049 0.1583 -0.9874
vn 0.0041 0.4672 -0.8842
vn -0.7097 0.4674 0.5271
vn -0.7912 0.1684 0.5879
vn -0.9857 0.1684 -0.0047
vn -0.8840 0.4674 -0.0041
vn 0.9923 0.1235 0.0125
vn 0.7919 0.1235 -0.5980
vn 0.9958 -0.0907 0.0116
vn 0.5926 -0.0182 0.8053
vn 0.5780 0.0292 0.8155
vn -0.9948 0.0971 -0.0307
vn -0.5828 0.0706 -0.8096
vn 0.0103 0.0706 0.9975
vn -0.7754 0.2045 0.5974
vn -0.0176 0.0292 -0.9994
vn -0.9978 -0.0598 -0.0302
vn -0.7858 -0.0598 0.6156
vn -0.9785 0.2042 -0.0274
vn -0.5782 0.0726 -0.8127
vn 0.0019 -0.0106 0.9999
vn 0.5758 0.0520 0.8159
vn 0.0157 0.0747 0.9971
vn -0.0196 0.0520 -0.9985
vn -0.5910 -0.0106 -0.8066
vn 0.0014 -0.0212 -0.9998
vn 0.7966 -0.0919 -0.5975
vn 0.0016 -0.3939 -0.9192
vn -0.5282 0.0800 -0.8453
vn -0.5164 0.1336 -0.8458
vn 0.0536 -0.1783 -0.9825
vn 0.2165 0.0442 0.9753
vn 0.5893 -0.1316 0.7971
vn 0.5657 -0.1624 0.8085
vn 0.3088 0.1239 0.9430
vn 0.0085 -0.1408 -0.9900
vn -0.3958 0.0309 -0.9178
vn -0.4898 0.0065 -0.8718
vn -0.1803 -0.3203 -0.9300
vn 0.8948 -0.4455 0.0289
vn 0.7019 -0.4461 -0.5553
vn 0.6556 -0.5715 -0.4935
vn 0.8511 -0.5231 0.0453
vn 0.9310 -0.3624 0.0424
vn 0.8064 -0.3819 -0.4515
vn 0.8468 -0.0762 -0.5264
vn 0.9981 -0.0336 0.0526
vn 0.7689 -0.6387 0.0275
vn 0.6497 -0.6782 -0.3434
vn 0.7837 -0.4417 -0.4367
vn 0.9089 -0.4133 -0.0549
vn -0.7858 0.5982 -0.1571
vn -0.7599 0.6180 0.2015
vn -0.8122 0.5356 0.2312
vn -0.8838 0.4543 -0.1118
vn -0.8912 0.4432 -0.0969
vn -0.7946 0.4733 0.3803
vn -0.7589 0.1251 0.6390
vn -0.9783 0.0677 -0.1956
vn -0.0311 0.2191 0.9752
vn 0.5193 -0.0481 0.8533
vn 0.5797 0.0654 0.8122
vn -0.0261 0.1159 0.9929
vn 0.0664 -0.1165 -0.9910
vn -0.5196 0.1724 -0.8368
vn -0.5771 -0.0069 -0.8167
vn 0.0754 -0.0668 -0.9949
vn -0.0598 -0.3932 -0.9175
vn 0.5409 -0.7864 -0.2983
vn 0.4734 -0.0547 0.8791
vn -0.0643 0.3354 0.9399
vn 0.4769 -0.0411 0.8780
vn -0.0820 0.2916 0.9530
vn 0.7759 -0.6271 0.0694
vn 0.6088 -0.6964 -0.3800
vn 0.6812 -0.7248 0.1026
vn -0.4802 0.8248 0.2985
vn -0.6371 0.7606 0.1246
vn -0.3700 0.7990 0.4740
vn -0.5194 0.8520 0.0661
vn 0.5072 -0.1346 0.8512
vn 0.1886 0.1990 0.9617
vn 0.5243 -0.2037 0.8268
vn 0.1435 0.3663 0.9194
vn -0.5248 0.1553 -0.8369
vn -0.4848 0.2042 -0.8504
vn -0.0997 -0.3013 -0.9483
vn 0.6997 -0.4455 -0.5584
vn 0.8950 -0.4447 0.0336
vn -0.4926 0.1265 -0.8610
vn -0.0006 -0.1358 -0.9907
vn 0.5845 -0.1281 0.8012
vn 0.1113 0.1351 0.9846
vn -0.7122 0.4374 0.5490
vn -0.9001 0.4343 -0.0347
vn -0.7106 0.5717 0.4102
vn -0.8293 0.5582 0.0263
vn -0.7994 0.0578 0.5980
vn -0.8622 0.5064 -0.0161
vn -0.7366 0.5373 0.4108
vn -0.4100 0.6098 -0.6782
vn -0.5125 0.4934 -0.7028
vn -0.9778 0.0586 0.2010
vn -0.5617 0.4461 -0.6968
vn -0.3868 0.9092 0.1539
vn 0.1195 0.2165 0.9690
vn 0.0296 -0.9996 -0.0018
vn 0.3647 -0.8050 0.4680
vn 0.5892 0.4228 0.6885
vn 0.6498 0.2576 0.7151
vn 0.4157 0.6995 0.5813
vn -0.8173 0.2432 0.5224
vn -0.8739 -0.4334 0.2199
vn -0.4621 -0.2701 0.8447
vn -0.6814 0.2191 0.6983
vn 0.3615 0.8090 0.4635
vn -0.2194 -0.9190 -0.3277
vn -0.6865 0.6707 -0.2806
vn 0.6010 0.1011 0.7928
vn 0.3629 0.9298 -0.0614
vn 0.8974 -0.1752 -0.4050
vn -0.6748 0.3019 0.6734
vn -0.8273 -0.0517 0.5594
vn -0.6895 0.0791 0.7199
vn -0.0122 0.6702 0.7421
vn 0.5069 -0.3901 0.7687
vn -0.5423 0.2795 -0.7923
vn -0.4645 0.2720 -0.8428
vn -0.0258 0.9988 -0.0408
vn 0.4913 -0.7322 -0.4717
vn -0.0377 0.0896 -0.9953
vn -0.2604 0.2870 -0.9218
vn -0.9310 -0.3383 0.1368
vn 0.7993 0.4873 -0.3515
vn -0.5283 0.8410 0.1168
vn 0.8383 0.5008 -0.2157
vn -0.5554 0.7837 0.2780
vn -0.9785 0.0455 0.2010
vn -0.5447 0.1063 -0.8319
vn 0.5124 0.8368 -0.1929
vn 0.4307 0.9017 0.0375
vn 0.5088 0.8564 -0.0885
vn 0.7462 0.1784 0.6413
vn 0.7834 0.4945 0.3764
vn 0.7938 0.0696 0.6041
vn 0.5905 -0.7031 0.3962
vn -0.9385 0.1953 0.2849
usemtl Wood
s off
f 91/1/1 95/2/1 34/3/1 26/4/1
f 91/1/2 27/5/2 33/6/2 95/2/2
f 93/7/3 96/8/3 33/6/3 27/5/3
f 93/7/4 28/9/4 32/10/4 96/8/4
f 92/11/5 97/12/5 32/10/5 28/9/5
f 92/11/6 29/13/6 31/14/6 97/12/6
f 94/15/7 31/14/7 29/13/7 90/16/7
f 93/7/8 104/17/8 44/18/8 28/9/8
f 90/16/9 102/19/9 42/20/9 26/4/9
f 28/9/10 44/18/10 105/21/10 92/11/10
f 1/22/11 41/23/11 100/24/11 37/25/11
f 1/22/12 37/25/12 97/12/12 31/14/12
f 1/22/13 31/14/13 94/15/13 30/26/13
f 1/22/14 30/26/14 101/27/14 41/23/14
f 2/28/15 40/29/15 99/30/15 36/31/15
f 2/28/16 36/31/16 96/8/16 32/10/16
f 2/28/17 32/10/17 97/12/17 37/25/17
f 2/28/18 37/25/18 100/24/18 40/29/18
f 3/32/19 39/33/19 98/34/19 35/35/19
f 3/32/20 35/35/20 95/2/20 33/6/20
f 3/32/21 33/6/21 96/8/21 36/31/21
f 3/32/22 36/31/22 99/30/22 39/33/22
f 4/36/23 38/37/23 101/27/23 30/26/23
f 4/36/24 30/26/24 94/15/24 34/3/24
f 4/36/25 34/3/25 95/2/25 35/35/25
f 4/36/26 35/35/26 98/34/26 38/37/26
f 5/38/27 47/39/27 105/21/27 44/18/27
f 5/38/28 44/18/28 104/17/28 46/40/28
f 22/41/29 84/42/29 47/39/29 5/38/29
f 24/43/30 7/44/30 47/39/30 84/42/30
f 105/21/31 45/45/31 29/13/31 92/11/31
f 26/4/32 42/20/32 103/46/32 91/1/32
f 103/46/33 43/47/33 27/5/33 91/1/33
f 29/13/34 45/45/34 102/19/34 90/16/34
f 25/48/35 6/49/35 48/50/35 82/51/35
f 27/5/36 43/47/36 104/17/36 93/7/36
f 6/49/37 49/52/37 103/46/37 42/20/37
f 6/49/38 42/20/38 102/19/38 48/50/38
f 25/48/39 55/53/39 49/52/39 6/49/39
f 23/54/40 8/55/40 49/52/40 55/53/40
f 7/44/41 48/50/41 102/19/41 45/45/41
f 7/44/42 45/45/42 105/21/42 47/39/42
f 24/43/43 82/51/43 48/50/43 7/44/43
f 8/55/44 46/40/44 104/17/44 43/47/44
f 8/55/45 43/47/45 103/46/45 49/52/45
f 23/54/46 57/56/46 46/40/46 8/55/46
f 22/41/47 5/38/47 46/40/47 57/56/47
f 9/57/48 74/58/48 119/59/48 79/60/48
f 9/57/49 79/60/49 118/61/49 62/62/49
f 9/57/50 62/62/50 111/63/50 59/64/50
f 9/57/51 59/64/51 112/65/51 74/58/51
f 10/66/52 54/67/52 124/68/52 88/69/52
f 10/66/53 88/69/53 126/70/53 56/71/53
f 10/66/54 56/71/54 109/72/54 53/73/54
f 10/66/55 53/73/55 106/74/55 54/67/55
f 11/75/56 85/76/56 127/77/56 87/78/56
f 11/75/57 87/78/57 125/79/57 83/80/57
f 11/75/58 83/80/58 107/81/58 51/82/58
f 11/75/59 51/82/59 108/83/59 85/76/59
f 12/84/60 56/71/60 126/70/60 86/85/60
f 12/84/61 86/85/61 127/77/61 85/76/61
f 12/84/62 85/76/62 108/83/62 52/86/62
f 12/84/63 52/86/63 109/72/63 56/71/63
f 13/87/64 71/88/64 113/89/64 60/90/64
f 13/87/65 60/90/65 112/65/65 70/91/65
f 13/87/66 70/91/66 116/92/66 68/93/66
f 13/87/67 68/93/67 117/94/67 71/88/67
f 14/95/68 75/96/68 120/97/68 78/98/68
f 14/95/69 78/98/69 119/59/69 74/58/69
f 14/95/70 74/58/70 112/65/70 60/90/70
f 14/95/71 60/90/71 113/89/71 75/96/71
f 15/99/72 62/62/72 118/61/72 77/100/72
f 15/99/73 77/100/73 121/101/73 65/102/73
f 15/99/74 65/102/74 110/103/74 58/104/74
f 15/99/75 58/104/75 111/63/75 62/62/75
f 16/105/76 73/106/76 111/63/76 58/104/76
f 16/105/77 58/104/77 110/103/77 72/107/77
f 16/105/78 72/107/78 114/108/78 66/109/78
f 16/105/79 66/109/79 115/110/79 73/106/79
f 17/111/80 72/107/80 110/103/80 61/112/80
f 17/111/81 61/112/81 113/89/81 71/88/81
f 17/111/82 71/88/82 117/94/82 69/113/82
f 17/111/83 69/113/83 114/108/83 72/107/83
f 18/114/84 70/91/84 112/65/84 59/64/84
f 18/114/85 59/64/85 111/63/85 73/106/85
f 18/114/86 73/106/86 115/110/86 67/115/86
f 18/114/87 67/115/87 116/92/87 70/91/87
f 63/116/88 123/117/88 79/60/88 119/59/88
f 119/59/89 78/98/89 19/118/89 63/116/89
f 122/119/90 75/96/90 113/89/90 61/112/90
f 122/119/91 65/102/91 121/101/91 76/120/91
f 76/120/92 120/97/92 75/96/92 122/119/92
f 61/112/93 110/103/93 65/102/93 122/119/93
f 19/118/94 64/121/94 109/72/94 52/86/94
f 19/118/95 52/86/95 108/83/95 63/116/95
f 19/118/96 78/98/96 120/97/96 64/121/96
f 81/122/97 121/101/97 77/100/97 20/123/97
f 20/123/98 80/124/98 107/81/98 50/125/98
f 20/123/99 50/125/99 106/74/99 81/122/99
f 20/123/100 77/100/100 118/61/100 80/124/100
f 120/97/101 76/120/101 21/126/101 64/121/101
f 21/126/102 81/122/102 106/74/102 53/73/102
f 21/126/103 53/73/103 109/72/103 64/121/103
f 21/126/104 76/120/104 121/101/104 81/122/104
f 80/124/105 123/117/105 51/82/105 107/81/105
f 123/117/106 80/124/106 118/61/106 79/60/106
f 51/82/107 123/117/107 63/116/107 108/83/107
f 22/41/108 57/56/108 127/77/108 86/85/108
f 22/41/109 86/85/109 126/70/109 84/42/109
f 23/54/110 55/53/110 125/79/110 87/78/110
f 23/54/111 87/78/111 127/77/111 57/56/111
f 24/43/112 84/42/112 126/70/112 88/69/112
f 24/43/113 88/69/113 124/68/113 82/51/113
f 25/48/114 82/51/114 124/68/114 89/127/114
f 25/48/115 89/127/115 125/79/115 55/53/115
f 54/67/116 178/128/116 89/127/116 124/68/116
f 50/125/117 107/81/117 83/80/117 178/128/117
f 94/15/118 90/16/118 26/4/118 34/3/118
f 89/127/119 178/128/119 83/80/119 125/79/119
f 178/128/120 54/67/120 106/74/120 50/125/120
usemtl Green_Tree
f 128/129/121 153/130/121 174/131/121 155/132/121
f 131/133/122 138/134/122 176/135/122 155/132/122
f 163/136/123 166/137/123 148/138/123 147/139/123
f 166/137/124 145/140/124 144/141/124 161/142/124
f 171/143/125 172/144/125 145/140/125 143/145/125
f 171/143/126 143/145/126 142/146/126 169/147/126
f 135/148/127 140/149/127 164/150/127 151/151/127
f 135/148/128 158/152/128 168/153/128 140/149/128
f 133/154/129 156/155/129 167/156/129 149/157/129
f 133/154/130 149/157/130 177/158/130 157/159/130
f 132/160/131 152/161/131 160/162/131 163/136/131 141/163/131
f 129/164/132 150/165/132 175/166/132 137/167/132
f 129/164/133 137/167/133 164/150/133 140/149/133
f 129/164/134 140/149/134 168/153/134 139/168/134
f 129/164/135 139/168/135 177/158/135 150/165/135
f 132/160/136 141/163/136 167/156/136 156/155/136
f 165/169/137 154/170/137 151/151/137 164/150/137
f 172/144/138 170/171/138 144/141/138 145/140/138
f 134/172/139 157/159/139 177/158/139 139/168/139
f 160/162/140 161/142/140 144/141/140 142/146/140
f 136/173/141 146/174/141 159/175/141 162/176/141
f 130/177/142 141/163/142 163/136/142 147/139/142
f 130/177/143 147/139/143 175/166/143 150/165/143
f 130/177/144 150/165/144 177/158/144 149/157/144
f 130/177/145 149/157/145 167/156/145 141/163/145
f 134/172/146 139/168/146 168/153/146 158/152/146
f 128/129/147 155/132/147 176/135/147 148/138/147
f 166/137/148 161/142/148 153/130/148 128/129/148 148/138/148
f 163/136/149 160/162/149 142/146/149 143/145/149
f 154/170/150 162/176/150 159/175/150 151/151/150
f 131/133/151 136/173/151 162/176/151 154/170/151
f 131/133/152 155/132/152 174/131/152 136/173/152
f 137/167/153 138/134/153 165/169/153 164/150/153
f 144/141/154 170/171/154 169/147/154 142/146/154
f 143/145/155 145/140/155 166/137/155 163/136/155
f 174/131/156 173/178/156 146/174/156 136/173/156
f 171/143/157 169/147/157 170/171/157 172/144/157
f 147/139/158 148/138/158 176/135/158 175/166/158
f 131/133/159 154/170/159 165/169/159 138/134/159
f 152/161/160 153/130/160 161/142/160 160/162/160
f 174/131/161 153/130/161 152/161/161 173/178/161
f 132/160/162 156/155/162 173/178/162 152/161/162
f 133/154/163 157/159/163 159/175/163 146/174/163
f 133/154/164 146/174/164 173/178/164 156/155/164
f 134/172/165 158/152/165 159/175/165 157/159/165
f 135/148/166 151/151/166 159/175/166 158/152/166
f 175/166/167 176/135/167 138/134/167 137/167/167
