# Blender v2.79 (sub 0) OBJ File: 'Orange_Crop.blend'
# www.blender.org
mtllib Orange_Crop.mtl
o Orange_Crop_Cube.064
v 0.000000 0.006529 -0.075664
v -0.030205 0.006529 -0.070580
v 0.001403 0.027006 -0.072607
v 0.029961 0.002308 -0.069226
v 0.000000 -0.023676 -0.070580
v -0.028112 -0.021583 -0.065795
v -0.028376 0.027833 -0.066406
v 0.028372 0.027833 -0.066406
v 0.028112 -0.021583 -0.065795
v 0.075664 0.006529 -0.000000
v 0.070550 0.001917 -0.029920
v 0.071234 0.029946 0.000000
v 0.070619 0.001024 0.030395
v 0.070579 -0.023676 -0.000000
v 0.065794 -0.021583 -0.028112
v 0.066405 0.027833 -0.028373
v 0.066405 0.027833 0.028374
v 0.065794 -0.021583 0.028112
v 0.000000 0.006529 0.075663
v 0.030206 0.006529 0.070579
v -0.000002 0.029946 0.071237
v -0.030205 0.006529 0.070579
v 0.000000 -0.023676 0.070579
v 0.028112 -0.021583 0.065794
v 0.028372 0.027833 0.066407
v -0.028376 0.027833 0.066407
v -0.028112 -0.021583 0.065794
v -0.075663 0.006529 -0.000000
v -0.070579 0.006529 0.030205
v -0.071239 0.029946 0.000000
v -0.070579 0.006529 -0.030206
v -0.070579 -0.023676 -0.000000
v -0.065794 -0.021583 0.028112
v -0.066409 0.027833 0.028374
v -0.066409 0.027833 -0.028373
v -0.065794 -0.021583 -0.028113
v 0.000000 -0.069134 -0.000000
v 0.030206 -0.064050 -0.000000
v 0.000000 -0.064050 0.030205
v -0.030205 -0.064050 -0.000000
v 0.000000 -0.064050 -0.030206
v 0.028112 -0.059265 -0.028113
v 0.028112 -0.059265 0.028112
v -0.028112 -0.059265 0.028112
v -0.028112 -0.059265 -0.028113
v 0.029905 0.069878 0.000000
v 0.000000 0.069878 -0.029905
v -0.029905 0.069878 -0.000000
v -0.000000 0.069878 0.029905
v 0.027833 0.065140 0.027833
v 0.027833 0.065140 -0.027833
v -0.027833 0.065140 -0.027833
v -0.027833 0.065140 0.027833
v 0.026019 -0.045059 -0.051589
v 0.000000 -0.048872 -0.055402
v -0.026018 -0.045059 -0.051589
v -0.051588 -0.019489 -0.051589
v -0.055402 0.006529 -0.055402
v -0.051720 0.028239 -0.051044
v -0.025760 0.051076 -0.051076
v 0.000000 0.054851 -0.054851
v 0.025760 0.051076 -0.051076
v 0.052067 0.025720 -0.052069
v 0.055402 0.006529 -0.055402
v 0.051589 -0.019489 -0.051589
v 0.051589 -0.045059 0.026018
v 0.055402 -0.048872 -0.000000
v 0.051589 -0.045059 -0.026019
v 0.051076 0.051076 -0.025760
v 0.054851 0.054851 0.000000
v 0.051076 0.051076 0.025760
v 0.052067 0.025720 0.052069
v 0.054511 0.003688 0.055988
v 0.051589 -0.019489 0.051588
v -0.026018 -0.045059 0.051588
v 0.000000 -0.048872 0.055401
v 0.026019 -0.045059 0.051588
v 0.025760 0.051076 0.051076
v -0.000000 0.054851 0.054851
v -0.025760 0.051076 0.051076
v -0.052071 0.025720 0.052069
v -0.055402 0.006529 0.055401
v -0.051588 -0.019489 0.051588
v -0.051588 -0.045059 -0.026019
v -0.055402 -0.048872 -0.000000
v -0.051588 -0.045059 0.026018
v -0.051076 0.051076 0.025760
v -0.054851 0.054851 -0.000000
v -0.051076 0.051076 -0.025760
v -0.043863 -0.037334 -0.043863
v -0.043427 0.043427 -0.043427
v 0.043863 -0.037334 -0.043863
v 0.043427 0.043427 -0.043427
v -0.043863 -0.037334 0.043862
v -0.043427 0.043427 0.043427
v 0.043863 -0.037334 0.043862
v 0.043427 0.043427 0.043427
v -0.009796 0.073263 -0.000000
v -0.000000 0.073478 0.008516
v 0.008986 0.073399 0.000000
v 0.000000 0.073478 -0.008515
v -0.000041 0.081692 0.000000
v -0.007359 0.080460 0.000000
v -0.000041 0.080621 0.006362
v 0.006673 0.080562 0.000000
v -0.000041 0.080621 -0.006361
vt 0.000000 0.000000
vt 0.000000 0.000000
vt 0.000000 0.000000
vt 0.000000 0.000000
vt 0.000000 0.000000
vt 0.000000 0.000000
vt 0.000000 0.000000
vt 0.000000 0.000000
vt 0.000000 0.000000
vt 0.000000 0.000000
vt 0.000000 0.000000
vt 0.000000 0.000000
vt 0.000000 0.000000
vt 0.000000 0.000000
vt 0.000000 0.000000
vt 0.000000 0.000000
vt 0.000000 0.000000
vt 0.000000 0.000000
vt 0.000000 0.000000
vt 0.000000 0.000000
vt 0.000000 0.000000
vt 0.000000 0.000000
vt 0.000000 0.000000
vt 0.000000 0.000000
vt 0.000000 0.000000
vt 0.000000 0.000000
vt 0.000000 0.000000
vt 0.000000 0.000000
vt 0.000000 0.000000
vt 0.000000 0.000000
vt 0.000000 0.000000
vt 0.000000 0.000000
vt 0.000000 0.000000
vt 0.000000 0.000000
vt 0.000000 0.000000
vt 0.000000 0.000000
vt 0.000000 0.000000
vt 0.000000 0.000000
vt 0.000000 0.000000
vt 0.000000 0.000000
vt 0.000000 0.000000
vt 0.000000 0.000000
vt 0.000000 0.000000
vt 0.000000 0.000000
vt 0.000000 0.000000
vt 0.000000 0.000000
vt 0.000000 0.000000
vt 0.000000 0.000000
vt 0.000000 0.000000
vt 0.000000 0.000000
vt 0.000000 0.000000
vt 0.000000 0.000000
vt 0.000000 0.000000
vt 0.000000 0.000000
vt 0.000000 0.000000
vt 0.000000 0.000000
vt 0.000000 0.000000
vt 0.000000 0.000000
vt 0.000000 0.000000
vt 0.000000 0.000000
vt 0.000000 0.000000
vt 0.000000 0.000000
vt 0.000000 0.000000
vt 0.000000 0.000000
vt 0.000000 0.000000
vt 0.000000 0.000000
vt 0.000000 0.000000
vt 0.000000 0.000000
vt 0.000000 0.000000
vt 0.000000 0.000000
vt 0.000000 0.000000
vt 0.000000 0.000000
vt 0.000000 0.000000
vt 0.000000 0.000000
vt 0.000000 0.000000
vt 0.000000 0.000000
vt 0.000000 0.000000
vt 0.000000 0.000000
vt 0.000000 0.000000
vt 0.000000 0.000000
vt 0.000000 0.000000
vt 0.000000 0.000000
vt 0.000000 0.000000
vt 0.000000 0.000000
vt 0.000000 0.000000
vt 0.000000 0.000000
vt 0.000000 0.000000
vt 0.000000 0.000000
vt 0.000000 0.000000
vt 0.000000 0.000000
vt 0.000000 0.000000
vt 0.000000 0.000000
vt 0.000000 0.000000
vt 0.000000 0.000000
vt 0.000000 0.000000
vt 0.000000 0.000000
vt 0.000000 0.000000
vt 0.000000 0.000000
vt 0.000000 0.000000
vt 0.000000 0.000000
vt 0.000000 0.000000
vt 0.000000 0.000000
vt 0.000000 0.000000
vt 0.000000 0.000000
vt 0.000000 0.000000
vt 0.000000 0.000000
vn -0.1704 -0.1704 -0.9705
vn -0.5134 -0.1890 -0.8371
vn -0.1890 -0.5134 -0.8371
vn -0.4961 -0.4961 -0.7126
vn -0.1794 0.1812 -0.9669
vn -0.1766 0.5380 -0.8242
vn -0.5169 0.2298 -0.8246
vn -0.4812 0.5461 -0.6857
vn 0.2221 0.1244 -0.9671
vn 0.4843 0.1714 -0.8579
vn 0.1852 0.5444 -0.8181
vn 0.4913 0.5366 -0.6860
vn 0.1817 -0.1590 -0.9704
vn 0.1890 -0.5134 -0.8371
vn 0.5064 -0.1799 -0.8433
vn 0.4961 -0.4961 -0.7126
vn 0.9704 -0.1831 -0.1576
vn 0.8274 -0.2026 -0.5238
vn 0.8371 -0.5134 -0.1890
vn 0.7126 -0.4961 -0.4961
vn 0.9672 0.1739 -0.1850
vn 0.8153 0.5473 -0.1891
vn 0.8457 0.1940 -0.4972
vn 0.6860 0.5366 -0.4913
vn 0.9672 0.1739 0.1851
vn 0.8382 0.1770 0.5158
vn 0.8153 0.5473 0.1891
vn 0.6860 0.5366 0.4913
vn 0.9702 -0.1886 0.1520
vn 0.8371 -0.5134 0.1890
vn 0.8212 -0.2160 0.5282
vn 0.7126 -0.4961 0.4961
vn 0.1704 -0.1704 0.9705
vn 0.5035 -0.1998 0.8406
vn 0.1890 -0.5134 0.8371
vn 0.4961 -0.4961 0.7126
vn 0.1705 0.1928 0.9663
vn 0.1891 0.5473 0.8153
vn 0.5206 0.2061 0.8285
vn 0.4913 0.5366 0.6860
vn -0.1705 0.1927 0.9663
vn -0.5112 0.2191 0.8311
vn -0.1891 0.5473 0.8153
vn -0.4913 0.5367 0.6860
vn -0.1704 -0.1704 0.9705
vn -0.1890 -0.5134 0.8371
vn -0.5134 -0.1890 0.8371
vn -0.4961 -0.4961 0.7126
vn -0.9705 -0.1704 0.1704
vn -0.8371 -0.1890 0.5134
vn -0.8371 -0.5134 0.1890
vn -0.7126 -0.4961 0.4961
vn -0.9663 0.1927 0.1705
vn -0.8152 0.5474 0.1891
vn -0.8311 0.2191 0.5112
vn -0.6860 0.5367 0.4913
vn -0.9663 0.1927 -0.1705
vn -0.8275 0.2251 -0.5144
vn -0.8152 0.5474 -0.1891
vn -0.6856 0.5488 -0.4782
vn -0.9705 -0.1704 -0.1704
vn -0.8371 -0.5134 -0.1890
vn -0.8371 -0.1890 -0.5134
vn -0.7126 -0.4961 -0.4961
vn 0.1704 -0.9705 -0.1704
vn 0.5134 -0.8371 -0.1890
vn 0.1890 -0.8371 -0.5134
vn 0.4961 -0.7126 -0.4961
vn 0.1704 -0.9705 0.1704
vn 0.1890 -0.8371 0.5134
vn 0.5134 -0.8371 0.1890
vn 0.4961 -0.7126 0.4961
vn -0.1704 -0.9705 0.1704
vn -0.5134 -0.8371 0.1890
vn -0.1890 -0.8371 0.5134
vn -0.4961 -0.7126 0.4961
vn -0.1704 -0.9705 -0.1704
vn -0.1890 -0.8371 -0.5134
vn -0.5134 -0.8371 -0.1890
vn -0.4961 -0.7126 -0.4961
vn 0.6724 0.2172 0.7076
vn 0.5134 0.8371 0.1890
vn 0.1890 0.8371 0.5134
vn 0.4961 0.7126 0.4961
vn 0.6724 0.2172 -0.7076
vn 0.1890 0.8371 -0.5134
vn 0.5134 0.8371 -0.1890
vn 0.4961 0.7126 -0.4961
vn -0.6431 0.2177 0.7342
vn -0.5134 0.8371 -0.1890
vn -0.1890 0.8371 -0.5134
vn -0.4961 0.7126 -0.4961
vn -0.6430 0.2177 -0.7342
vn -0.1890 0.8371 0.5134
vn -0.5134 0.8371 0.1890
vn -0.4961 0.7126 0.4961
vn 0.1637 0.9728 0.1637
vn 0.1707 0.9704 -0.1707
vn -0.1707 0.9704 -0.1707
vn -0.1707 0.9704 0.1707
vn 0.1707 0.9704 0.1707
vn 0.1637 0.9728 -0.1637
vn -0.1637 0.9728 -0.1637
vn -0.1637 0.9728 0.1637
usemtl Orange
s off
f 1/1/1 5/2/1 6/3/1 2/4/1
f 2/4/2 6/3/2 57/5/2 58/6/2
f 5/2/3 55/7/3 56/8/3 6/3/3
f 6/3/4 56/8/4 90/9/4 57/5/4
f 1/1/5 2/4/5 7/10/5 3/11/5
f 3/11/6 7/10/6 60/12/6 61/13/6
f 2/4/7 58/6/7 59/14/7 7/10/7
f 7/10/8 59/14/8 91/15/8 60/12/8
f 1/1/9 3/11/9 8/16/9 4/17/9
f 4/17/10 8/16/10 63/18/10 64/19/10
f 3/11/11 61/13/11 62/20/11 8/16/11
f 8/16/12 62/20/12 93/21/12 63/18/12
f 1/1/13 4/17/13 9/22/13 5/2/13
f 5/2/14 9/22/14 54/23/14 55/7/14
f 4/17/15 64/19/15 65/24/15 9/22/15
f 9/22/16 65/24/16 92/25/16 54/23/16
f 10/26/17 14/27/17 15/28/17 11/29/17
f 11/29/18 15/28/18 65/24/18 64/19/18
f 14/27/19 67/30/19 68/31/19 15/28/19
f 15/28/20 68/31/20 92/25/20 65/24/20
f 10/26/21 11/29/21 16/32/21 12/33/21
f 12/33/22 16/32/22 69/34/22 70/35/22
f 11/29/23 64/19/23 63/18/23 16/32/23
f 16/32/24 63/18/24 93/21/24 69/34/24
f 10/26/25 12/33/25 17/36/25 13/37/25
f 13/37/26 17/36/26 72/38/26 73/39/26
f 12/33/27 70/35/27 71/40/27 17/36/27
f 17/36/28 71/40/28 97/41/28 72/38/28
f 10/26/29 13/37/29 18/42/29 14/27/29
f 14/27/30 18/42/30 66/43/30 67/30/30
f 13/37/31 73/39/31 74/44/31 18/42/31
f 18/42/32 74/44/32 96/45/32 66/43/32
f 19/46/33 23/47/33 24/48/33 20/49/33
f 20/49/34 24/48/34 74/44/34 73/39/34
f 23/47/35 76/50/35 77/51/35 24/48/35
f 24/48/36 77/51/36 96/45/36 74/44/36
f 19/46/37 20/49/37 25/52/37 21/53/37
f 21/53/38 25/52/38 78/54/38 79/55/38
f 20/49/39 73/39/39 72/38/39 25/52/39
f 25/52/40 72/38/40 97/41/40 78/54/40
f 19/46/41 21/53/41 26/56/41 22/57/41
f 22/57/42 26/56/42 81/58/42 82/59/42
f 21/53/43 79/55/43 80/60/43 26/56/43
f 26/56/44 80/60/44 95/61/44 81/58/44
f 19/46/45 22/57/45 27/62/45 23/47/45
f 23/47/46 27/62/46 75/63/46 76/50/46
f 22/57/47 82/59/47 83/64/47 27/62/47
f 27/62/48 83/64/48 94/65/48 75/63/48
f 28/66/49 32/67/49 33/68/49 29/69/49
f 29/69/50 33/68/50 83/64/50 82/59/50
f 32/67/51 85/70/51 86/71/51 33/68/51
f 33/68/52 86/71/52 94/65/52 83/64/52
f 28/66/53 29/69/53 34/72/53 30/73/53
f 30/73/54 34/72/54 87/74/54 88/75/54
f 29/69/55 82/59/55 81/58/55 34/72/55
f 34/72/56 81/58/56 95/61/56 87/74/56
f 28/66/57 30/73/57 35/76/57 31/77/57
f 31/77/58 35/76/58 59/14/58 58/6/58
f 30/73/59 88/75/59 89/78/59 35/76/59
f 35/76/60 89/78/60 91/15/60 59/14/60
f 28/66/61 31/77/61 36/79/61 32/67/61
f 32/67/62 36/79/62 84/80/62 85/70/62
f 31/77/63 58/6/63 57/5/63 36/79/63
f 36/79/64 57/5/64 90/9/64 84/80/64
f 37/81/65 41/82/65 42/83/65 38/84/65
f 38/84/66 42/83/66 68/31/66 67/30/66
f 41/82/67 55/7/67 54/23/67 42/83/67
f 42/83/68 54/23/68 92/25/68 68/31/68
f 37/81/69 38/84/69 43/85/69 39/86/69
f 39/86/70 43/85/70 77/51/70 76/50/70
f 38/84/71 67/30/71 66/43/71 43/85/71
f 43/85/72 66/43/72 96/45/72 77/51/72
f 37/81/73 39/86/73 44/87/73 40/88/73
f 40/88/74 44/87/74 86/71/74 85/70/74
f 39/86/75 76/50/75 75/63/75 44/87/75
f 44/87/76 75/63/76 94/65/76 86/71/76
f 37/81/77 40/88/77 45/89/77 41/82/77
f 41/82/78 45/89/78 56/8/78 55/7/78
f 40/88/79 85/70/79 84/80/79 45/89/79
f 45/89/80 84/80/80 90/9/80 56/8/80
f 99/90/81 100/91/81 105/92/81 104/93/81
f 46/94/82 50/95/82 71/40/82 70/35/82
f 49/96/83 79/55/83 78/54/83 50/95/83
f 50/95/84 78/54/84 97/41/84 71/40/84
f 100/91/85 101/97/85 106/98/85 105/92/85
f 47/99/86 51/100/86 62/20/86 61/13/86
f 46/94/87 70/35/87 69/34/87 51/100/87
f 51/100/88 69/34/88 93/21/88 62/20/88
f 98/101/89 99/90/89 104/93/89 103/102/89
f 48/103/90 52/104/90 89/78/90 88/75/90
f 47/99/91 61/13/91 60/12/91 52/104/91
f 52/104/92 60/12/92 91/15/92 89/78/92
f 101/97/93 98/101/93 103/102/93 106/98/93
f 49/96/94 53/105/94 80/60/94 79/55/94
f 48/103/95 88/75/95 87/74/95 53/105/95
f 53/105/96 87/74/96 95/61/96 80/60/96
f 102/106/97 104/93/97 105/92/97
f 101/97/98 100/91/98 46/94/98 51/100/98 47/99/98
f 98/101/99 101/97/99 47/99/99 52/104/99 48/103/99
f 99/90/100 98/101/100 48/103/100 53/105/100 49/96/100
f 100/91/101 99/90/101 49/96/101 50/95/101 46/94/101
f 102/106/102 105/92/102 106/98/102
f 102/106/103 106/98/103 103/102/103
f 102/106/104 103/102/104 104/93/104
