# Blender v2.79 (sub 0) OBJ File: 'Rice_1.blend'
# www.blender.org
mtllib Rice_1.mtl
o Rice_1_Plane.000
v -0.019470 0.203882 -0.007777
v -0.007837 0.122315 -0.001649
v -0.013730 0.203738 0.013770
v -0.006329 0.122284 0.004032
v -0.037090 0.270872 -0.006218
v -0.029677 0.270612 0.021391
v -0.052302 0.303810 -0.003372
v -0.047627 0.305558 0.018426
v -0.078746 0.339373 0.007265
v -0.077318 0.339680 0.013079
v -0.084328 0.344974 0.011124
v -0.007850 0.000949 -0.001653
v -0.006345 0.000949 0.004028
v 0.002355 0.221489 -0.008047
v -0.010420 0.137814 -0.002277
v -0.003357 0.221473 0.013493
v -0.008656 0.137814 0.003329
v 0.020450 0.290169 -0.006495
v 0.013084 0.290006 0.021070
v 0.036560 0.324998 -0.003626
v 0.031971 0.326838 0.018065
v 0.064265 0.362255 0.006986
v 0.062986 0.362686 0.012698
v 0.070861 0.368816 0.010804
v -0.014617 0.205040 -0.006512
v -0.002880 0.122709 -0.000357
v -0.008908 0.205040 0.015028
v -0.001375 0.122709 0.005324
v -0.032474 0.272861 -0.005013
v -0.025163 0.272861 0.022570
v -0.048134 0.306733 -0.002284
v -0.043687 0.308828 0.019450
v -0.075281 0.343218 0.008158
v -0.074106 0.343772 0.013901
v -0.081465 0.349356 0.011850
v -0.002880 0.000949 -0.000357
v -0.001375 0.000949 0.005324
v 0.007235 0.220414 -0.006512
v -0.005466 0.137201 -0.000752
v 0.001527 0.220414 0.015028
v -0.003701 0.137201 0.004854
v 0.025092 0.288235 -0.005013
v 0.017782 0.288235 0.022570
v 0.040752 0.322107 -0.002284
v 0.036305 0.324202 0.019450
v 0.067899 0.358592 0.008158
v 0.066724 0.359146 0.013901
v 0.074083 0.364729 0.011850
vn -0.9598 -0.1177 0.2547
vn -0.9355 -0.2516 0.2482
vn -0.8752 -0.4272 0.2270
vn -0.7530 -0.6227 0.2128
vn -0.6250 -0.7563 0.1934
vn -0.9666 0.0001 0.2563
vn -0.9836 0.1100 -0.1430
vn -0.9354 0.2519 -0.2482
vn -0.8753 0.4270 -0.2270
vn -0.7542 0.6211 -0.2130
vn -0.6313 0.7499 -0.1979
vn 0.9599 0.1178 -0.2544
vn 0.9355 0.2518 -0.2479
vn 0.8753 0.4271 -0.2268
vn 0.7533 0.6218 -0.2141
vn 0.6271 0.7526 -0.2008
vn 0.9666 0.0000 -0.2562
vn 0.9836 -0.1098 0.1429
vn 0.9355 -0.2518 0.2479
vn 0.8753 -0.4271 0.2268
vn 0.7533 -0.6218 0.2141
vn 0.6271 -0.7526 0.2008
vn 0.2575 -0.0357 -0.9656
vn -0.2276 -0.1352 0.9643
vn 0.2262 0.0815 -0.9707
vn -0.1937 -0.1554 0.9687
vn 0.1658 0.1578 -0.9734
vn -0.2305 -0.0351 0.9724
vn 0.0000 0.2808 -0.9598
vn -0.2164 -0.0345 0.9757
vn -0.2286 0.3542 -0.9068
vn -0.2610 0.0107 0.9653
vn 0.0000 -1.0000 0.0000
vn -0.2524 0.0000 0.9676
vn 0.2524 -0.0000 -0.9676
vn 0.2783 -0.1084 -0.9543
vn -0.1356 -0.9898 0.0427
vn -0.3104 -0.0957 0.9458
vn 0.2860 -0.0540 -0.9567
vn -0.3101 -0.0310 0.9502
vn 0.2787 -0.0508 -0.9590
vn -0.2132 0.1902 0.9583
vn 0.3262 0.0272 -0.9449
vn -0.1170 0.2498 0.9612
vn 0.4183 0.1121 -0.9014
vn 0.0181 0.2979 0.9544
usemtl Green
s off
f 1//1 2//1 4//1 3//1
f 1//2 3//2 6//2 5//2
f 5//3 6//3 8//3 7//3
f 7//4 8//4 10//4 9//4
f 9//5 10//5 11//5
f 4//6 2//6 12//6 13//6
f 14//7 15//7 17//7 16//7
f 14//8 16//8 19//8 18//8
f 18//9 19//9 21//9 20//9
f 20//10 21//10 23//10 22//10
f 22//11 23//11 24//11
f 25//12 27//12 28//12 26//12
f 25//13 29//13 30//13 27//13
f 29//14 31//14 32//14 30//14
f 31//15 33//15 34//15 32//15
f 33//16 35//16 34//16
f 28//17 37//17 36//17 26//17
f 38//18 40//18 41//18 39//18
f 38//19 42//19 43//19 40//19
f 42//20 44//20 45//20 43//20
f 44//21 46//21 47//21 45//21
f 46//22 48//22 47//22
f 2//23 1//23 25//23 26//23
f 3//24 4//24 28//24 27//24
f 1//25 5//25 29//25 25//25
f 6//26 3//26 27//26 30//26
f 5//27 7//27 31//27 29//27
f 8//28 6//28 30//28 32//28
f 7//29 9//29 33//29 31//29
f 10//30 8//30 32//30 34//30
f 9//31 11//31 35//31 33//31
f 11//32 10//32 34//32 35//32
f 13//33 12//33 36//33 37//33
f 4//34 13//34 37//34 28//34
f 12//35 2//35 26//35 36//35
f 15//36 14//36 38//36 39//36
f 17//37 15//37 39//37 41//37
f 16//38 17//38 41//38 40//38
f 14//39 18//39 42//39 38//39
f 19//40 16//40 40//40 43//40
f 18//41 20//41 44//41 42//41
f 21//42 19//42 43//42 45//42
f 20//43 22//43 46//43 44//43
f 23//44 21//44 45//44 47//44
f 22//45 24//45 48//45 46//45
f 24//46 23//46 47//46 48//46
