# Blender v2.79 (sub 0) OBJ File: 'Rice_Crop.blend'
# www.blender.org
mtllib Rice_Crop.mtl
o Rice_Crop_Plane.024
v -0.221985 -0.038382 0.084579
v 0.179123 -0.036383 -0.091788
v -0.220983 -0.027383 0.088273
v 0.172466 -0.038996 -0.093100
v -0.224630 -0.034555 0.073902
v 0.178789 -0.016751 -0.088317
v -0.223628 -0.023555 0.077597
v 0.193652 -0.024566 -0.071776
v -0.083509 -0.039964 0.055946
v -0.082558 -0.029523 0.059453
v -0.086355 -0.025894 0.049679
v -0.087306 -0.036335 0.046172
v 0.137000 -0.037158 -0.035353
v 0.139681 -0.027986 -0.033430
v 0.133580 -0.024733 -0.040314
v 0.130911 -0.033949 -0.042234
v 0.187327 -0.046809 -0.076560
v 0.183152 -0.022309 -0.088761
v 0.192549 -0.027246 -0.078295
v 0.188540 -0.041343 -0.081299
v 0.204525 -0.041590 -0.128675
v 0.212577 -0.013240 -0.122573
v 0.231522 -0.023200 -0.101494
v 0.223468 -0.051548 -0.107597
v 0.215054 -0.037198 -0.128156
v 0.219905 -0.021672 -0.124725
v 0.229822 -0.026304 -0.111095
v 0.225024 -0.044004 -0.114521
v 0.236481 -0.040709 -0.159119
v 0.243543 -0.016196 -0.154018
v 0.262822 -0.024786 -0.138559
v 0.255647 -0.049313 -0.143750
v 0.249175 -0.035544 -0.160431
v 0.253016 -0.023170 -0.157656
v 0.262910 -0.027156 -0.149311
v 0.259252 -0.040600 -0.151980
v 0.259317 -0.033087 -0.194576
v 0.266724 -0.007673 -0.189450
v 0.292660 -0.016117 -0.179578
v 0.284963 -0.042146 -0.184965
v 0.267857 -0.026889 -0.196932
v 0.272556 -0.011752 -0.193646
v 0.290008 -0.017302 -0.187941
v 0.286032 -0.031585 -0.190908
v 0.276788 -0.028025 -0.219863
v 0.283234 -0.005886 -0.215290
v 0.307282 -0.013209 -0.208465
v 0.300591 -0.035738 -0.213136
v 0.285049 -0.026175 -0.222493
v 0.289440 -0.011569 -0.219309
v 0.304281 -0.016402 -0.214485
v 0.300178 -0.031009 -0.217620
v 0.295549 -0.022195 -0.244975
v 0.308228 -0.026695 -0.239354
v 0.299337 -0.008779 -0.241817
v 0.311780 -0.013278 -0.236267
v 0.304376 -0.016182 -0.249464
v 0.066075 -0.029403 0.010135
v 0.062579 -0.026019 0.001171
v 0.060852 -0.035621 -0.001743
v 0.064343 -0.038976 0.007216
v -0.499654 -0.027405 0.095556
v -0.500656 -0.038404 0.091861
v -0.502300 -0.023578 0.084879
v -0.503302 -0.034577 0.081185
v -0.228708 -0.038382 0.115927
v 0.180554 -0.036383 -0.040592
v -0.227888 -0.027383 0.119666
v 0.173969 -0.038996 -0.042228
v -0.230827 -0.034554 0.105133
v 0.180050 -0.016751 -0.037142
v -0.230007 -0.023555 0.108873
v 0.194086 -0.024566 -0.019892
v -0.088996 -0.039964 0.094107
v -0.088218 -0.029523 0.097657
v -0.091532 -0.025894 0.087709
v -0.092310 -0.036335 0.084160
v 0.135719 -0.037158 0.013714
v 0.138302 -0.027986 0.015766
v 0.132545 -0.024733 0.008591
v 0.129973 -0.033949 0.006542
v 0.188002 -0.046809 -0.024980
v 0.184430 -0.022309 -0.037371
v 0.193303 -0.027246 -0.026457
v 0.189445 -0.041342 -0.029654
v 0.207731 -0.041590 -0.076191
v 0.215474 -0.013240 -0.069702
v 0.233365 -0.023200 -0.047720
v 0.225619 -0.051548 -0.054211
v 0.218222 -0.037198 -0.075157
v 0.222899 -0.021672 -0.071493
v 0.232137 -0.026304 -0.057394
v 0.227512 -0.044004 -0.061050
v 0.241140 -0.040709 -0.105033
v 0.247943 -0.016196 -0.099593
v 0.266442 -0.024786 -0.083209
v 0.259529 -0.049313 -0.088745
v 0.253882 -0.035544 -0.105723
v 0.257583 -0.023170 -0.102763
v 0.267056 -0.027156 -0.093944
v 0.263533 -0.040600 -0.096788
v 0.265684 -0.033087 -0.139330
v 0.272831 -0.007673 -0.133847
v 0.298253 -0.016117 -0.122718
v 0.290829 -0.042146 -0.128476
v 0.274329 -0.026889 -0.141265
v 0.278861 -0.011752 -0.137753
v 0.296013 -0.017302 -0.131201
v 0.292187 -0.031585 -0.134359
v 0.284371 -0.028024 -0.163732
v 0.290586 -0.005886 -0.158848
v 0.314271 -0.013209 -0.150855
v 0.307817 -0.035738 -0.155847
v 0.292752 -0.026175 -0.165954
v 0.296982 -0.011569 -0.162559
v 0.311569 -0.016402 -0.157014
v 0.307624 -0.031009 -0.160346
v 0.304340 -0.022195 -0.187895
v 0.316729 -0.026695 -0.181660
v 0.307968 -0.008779 -0.184556
v 0.320125 -0.013278 -0.178403
v 0.313375 -0.016181 -0.191947
v 0.062652 -0.029403 0.055675
v 0.059599 -0.026019 0.046551
v 0.058017 -0.035621 0.043555
v 0.061064 -0.038976 0.052674
v -0.506582 -0.027405 0.113297
v -0.507401 -0.038404 0.109558
v -0.508701 -0.023578 0.102504
v -0.509521 -0.034577 0.098764
v -0.224130 -0.022745 0.065037
v 0.167119 -0.021061 -0.126877
v -0.223736 -0.034330 0.066167
v 0.160839 -0.017415 -0.127254
v -0.227398 -0.023940 0.053923
v 0.164267 -0.040774 -0.127800
v -0.227004 -0.035525 0.055053
v 0.180360 -0.038779 -0.110692
v -0.086947 -0.022770 0.030706
v -0.086573 -0.033767 0.031779
v -0.090944 -0.034904 0.021644
v -0.091318 -0.023907 0.020572
v 0.126605 -0.027758 -0.069661
v 0.128091 -0.037388 -0.069937
v 0.121477 -0.038229 -0.077062
v 0.120009 -0.028559 -0.076773
v 0.176929 -0.015422 -0.110148
v 0.169316 -0.035844 -0.127223
v 0.179490 -0.034589 -0.116400
v 0.177315 -0.019792 -0.116027
v 0.192241 -0.010897 -0.162913
v 0.196603 -0.040667 -0.163601
v 0.217115 -0.038126 -0.141800
v 0.212750 -0.008357 -0.141114
v 0.202107 -0.016565 -0.163889
v 0.204936 -0.032944 -0.164201
v 0.215648 -0.032759 -0.150389
v 0.213159 -0.014286 -0.149595
v 0.223186 -0.008877 -0.194331
v 0.227053 -0.034591 -0.195103
v 0.247602 -0.032153 -0.179096
v 0.243622 -0.006391 -0.178404
v 0.235058 -0.015150 -0.197369
v 0.237289 -0.028209 -0.197577
v 0.247787 -0.027459 -0.189054
v 0.245881 -0.013411 -0.188516
v 0.244101 -0.011116 -0.231672
v 0.248193 -0.037749 -0.232633
v 0.275209 -0.035023 -0.222428
v 0.270906 -0.007701 -0.221571
v 0.259310 -0.012473 -0.234369
v 0.262870 -0.035697 -0.235101
v 0.287806 -0.033136 -0.228018
v 0.284052 -0.009482 -0.227283
v 0.267201 -0.014695 -0.237742
v 0.269690 -0.030072 -0.238070
v 0.285133 -0.028326 -0.233033
v 0.282930 -0.012995 -0.232672
v 0.276632 -0.014796 -0.261036
v 0.289904 -0.013283 -0.255190
v 0.278679 -0.028942 -0.261097
v 0.291716 -0.027384 -0.255309
v 0.284496 -0.020695 -0.267165
v 0.056203 -0.036668 -0.023576
v 0.052112 -0.037492 -0.032883
v 0.051609 -0.027342 -0.033524
v 0.055689 -0.026545 -0.024229
v -0.582487 -0.037290 0.081569
v -0.582881 -0.025705 0.080440
v -0.585754 -0.038485 0.070455
v -0.586149 -0.026901 0.069325
vn 0.9634 -0.2621 -0.0555
vn 0.1236 0.1748 -0.9768
vn 0.7179 0.5928 -0.3650
vn 0.3846 -0.6519 -0.6535
vn -0.0087 -0.9420 -0.3355
vn -0.3118 -0.9363 -0.1617
vn -0.0769 -0.9443 -0.3201
vn -0.1829 0.3280 -0.9268
vn 0.0810 0.9444 0.3188
vn 0.1877 -0.3281 0.9258
vn -0.1510 -0.9422 -0.2991
vn -0.4808 0.3218 -0.8157
vn 0.1580 0.9412 0.2985
vn 0.4854 -0.3241 0.8120
vn 0.1565 0.9398 0.3039
vn -0.7131 0.3350 -0.6158
vn 0.5615 -0.3236 0.7616
vn 0.1077 0.9329 0.3438
vn -0.3582 -0.9264 -0.1160
vn 0.5095 -0.3165 0.8001
vn -0.7530 0.3361 -0.5656
vn 0.6957 0.6503 -0.3051
vn 0.3522 -0.6937 -0.6283
vn 0.9644 -0.2533 -0.0764
vn -0.0386 0.2230 -0.9741
vn 0.6192 -0.3217 0.7163
vn -0.7574 0.3436 -0.5552
vn 0.1571 0.9489 0.2737
vn -0.3368 -0.9287 -0.1551
vn -0.1904 0.2585 -0.9471
vn 0.5186 0.8323 -0.1958
vn 0.9529 -0.2902 0.0884
vn 0.0853 0.8931 0.4416
vn 0.7334 -0.3320 0.5932
vn -0.9147 0.3231 -0.2429
vn 0.9428 -0.2213 -0.2494
vn -0.4319 0.3050 -0.8488
vn 0.3827 0.8826 -0.2730
vn 0.1452 -0.5047 -0.8510
vn 0.1836 0.9225 0.3396
vn -0.2749 -0.9610 -0.0304
vn 0.7553 -0.3356 0.5629
vn -0.8750 0.3353 -0.3493
vn 0.3939 0.7474 -0.5350
vn -0.0253 -0.7199 -0.6937
vn 0.9231 -0.1991 -0.3290
vn -0.3357 0.2883 -0.8968
vn -0.2148 -0.9396 -0.2664
vn 0.2396 0.9455 0.2204
vn -0.8763 0.3343 -0.3470
vn 0.9110 -0.3094 0.2726
vn -0.2883 -0.9429 -0.1668
vn 0.2134 -0.7112 -0.6698
vn 0.8767 -0.1253 -0.4644
vn -0.5999 0.3399 -0.7243
vn 0.4710 0.7683 -0.4334
vn 0.0861 -0.6740 -0.7337
vn 0.2977 -0.3278 0.8966
vn 0.1030 0.9441 0.3133
vn -0.2923 0.3270 -0.8987
vn -0.0972 -0.9443 -0.3143
vn -0.9701 0.0068 0.2428
vn 0.0087 0.9420 0.3355
vn 0.0248 -0.3204 0.9470
vn -0.0248 0.3204 -0.9470
vn 0.9650 -0.2621 -0.0083
vn 0.1713 0.1748 -0.9696
vn 0.7349 0.5928 -0.3294
vn 0.4162 -0.6519 -0.6339
vn 0.0077 -0.9420 -0.3356
vn -0.3035 -0.9363 -0.1768
vn -0.0612 -0.9443 -0.3234
vn -0.1373 0.3280 -0.9347
vn 0.0652 0.9444 0.3224
vn 0.1421 -0.3281 0.9339
vn -0.1362 -0.9422 -0.3062
vn -0.4403 0.3218 -0.8382
vn 0.1432 0.9412 0.3059
vn 0.4450 -0.3241 0.8348
vn 0.1415 0.9398 0.3112
vn -0.6821 0.3350 -0.6500
vn 0.5236 -0.3236 0.7881
vn 0.0907 0.9329 0.3486
vn -0.3521 -0.9264 -0.1334
vn 0.4697 -0.3165 0.8241
vn -0.7245 0.3361 -0.6018
vn 0.7098 0.6503 -0.2707
vn 0.3825 -0.6937 -0.6103
vn 0.9669 -0.2533 -0.0291
vn 0.0091 0.2230 -0.9748
vn 0.5833 -0.3217 0.7458
vn -0.7293 0.3436 -0.5917
vn 0.1435 0.9489 0.2810
vn -0.3288 -0.9287 -0.1714
vn -0.1438 0.2585 -0.9552
vn 0.5275 0.8323 -0.1702
vn 0.9474 -0.2902 0.1350
vn 0.0636 0.8931 0.4453
vn 0.7035 -0.3320 0.6284
vn -0.9017 0.3231 -0.2874
vn 0.9539 -0.2213 -0.2029
vn -0.3898 0.3050 -0.8689
vn 0.3956 0.8826 -0.2540
vn 0.1867 -0.5047 -0.8429
vn 0.1668 0.9225 0.3482
vn -0.2730 -0.9610 -0.0438
vn 0.7269 -0.3356 0.5992
vn -0.8568 0.3353 -0.3917
vn 0.4196 0.7474 -0.5151
vn 0.0087 -0.7199 -0.6941
vn 0.9381 -0.1991 -0.2835
vn -0.2914 0.2883 -0.9121
vn -0.2015 -0.9396 -0.2766
vn 0.2285 0.9455 0.2318
vn -0.8583 0.3343 -0.3895
vn 0.8966 -0.3094 0.3169
vn -0.2797 -0.9429 -0.1807
vn 0.2459 -0.7112 -0.6586
vn 0.8984 -0.1253 -0.4209
vn -0.5637 0.3399 -0.7528
vn 0.4917 0.7683 -0.4098
vn 0.1219 -0.6740 -0.7286
vn 0.2535 -0.3278 0.9101
vn 0.0875 0.9441 0.3179
vn -0.2480 0.3270 -0.9119
vn -0.0817 -0.9443 -0.3187
vn -0.9808 0.0068 0.1950
vn -0.0077 0.9420 0.3356
vn -0.0216 -0.3204 0.9471
vn 0.0216 0.3204 -0.9471
vn 0.9883 0.1462 -0.0436
vn 0.0799 0.0351 -0.9962
vn 0.6260 -0.5800 -0.5212
vn 0.4541 0.7291 -0.5121
vn -0.0126 0.9946 -0.1032
vn -0.1888 0.9799 0.0638
vn -0.0249 0.9947 -0.1002
vn -0.2368 -0.1023 -0.9662
vn 0.0288 -0.9947 0.0988
vn 0.2415 0.1023 0.9650
vn -0.0314 0.9966 -0.0767
vn -0.5353 -0.0682 -0.8419
vn 0.0384 -0.9964 0.0759
vn 0.5400 0.0706 0.8387
vn 0.0373 -0.9960 0.0816
vn -0.7632 -0.0970 -0.6388
vn 0.6145 0.0720 0.7857
vn -0.0094 -0.9922 0.1243
vn -0.2351 0.9659 0.1084
vn 0.5628 0.0630 0.8242
vn -0.8020 -0.1044 -0.5881
vn 0.5976 -0.6464 -0.4744
vn 0.4279 0.7679 -0.4767
vn 0.9876 0.1423 -0.0659
vn -0.0872 0.0080 -0.9962
vn 0.6704 0.0733 0.7384
vn -0.8071 -0.1135 -0.5795
vn 0.0360 -0.9981 0.0501
vn -0.2144 0.9743 0.0697
vn -0.2418 -0.0135 -0.9702
vn 0.4002 -0.8248 -0.3994
vn 0.9844 0.1424 0.1033
vn -0.0244 -0.9730 0.2295
vn 0.7825 0.0967 0.6151
vn -0.9540 -0.1442 -0.2629
vn 0.1231 -0.9901 -0.0672
vn 0.4016 0.0349 0.9152
vn -0.1704 0.0073 -0.9853
vn 0.2811 -0.6511 -0.7050
vn 0.0560 0.8547 -0.5161
vn 0.9345 0.1518 -0.3220
vn -0.3887 -0.0356 -0.9207
vn -0.0943 0.9946 -0.0422
vn 0.1172 -0.9931 -0.0051
vn -0.9195 -0.1364 -0.3687
vn 0.9491 0.1248 0.2891
vn -0.1647 0.9846 0.0592
vn 0.2919 0.8113 -0.5065
vn 0.8761 0.1166 -0.4678
vn -0.6539 -0.0914 -0.7511
vn 0.3568 -0.7037 -0.6144
vn 0.1595 0.8055 -0.5707
vn 0.3608 0.0910 0.9282
vn 0.0167 -0.9955 0.0932
vn -0.3553 -0.0902 -0.9304
vn -0.0109 0.9955 -0.0944
vn -0.9592 -0.0051 0.2826
vn 0.0126 -0.9946 0.1032
vn 0.0419 0.0984 0.9943
vn -0.0419 -0.0984 -0.9943
vn 0.0001 0.9370 -0.3495
usemtl LightGreen
s off
f 8//1 17//1 20//1 19//1
f 4//2 6//2 18//2 2//2
f 6//3 8//3 19//3 18//3
f 17//4 4//4 2//4 20//4
f 5//5 1//5 63//5 65//5
f 13//6 16//6 4//6 17//6
f 5//7 12//7 9//7 1//7
f 7//8 11//8 12//8 5//8
f 3//9 10//9 11//9 7//9
f 1//10 9//10 10//10 3//10
f 60//11 16//11 13//11 61//11
f 59//12 15//12 16//12 60//12
f 58//13 14//13 15//13 59//13
f 61//14 13//14 14//14 58//14
f 15//15 14//15 8//15 6//15
f 16//16 15//16 6//16 4//16
f 14//17 13//17 17//17 8//17
f 18//18 19//18 23//18 22//18
f 20//19 2//19 21//19 24//19
f 19//20 20//20 24//20 23//20
f 2//21 18//21 22//21 21//21
f 22//22 23//22 27//22 26//22
f 24//23 21//23 25//23 28//23
f 23//24 24//24 28//24 27//24
f 21//25 22//25 26//25 25//25
f 27//26 28//26 32//26 31//26
f 25//27 26//27 30//27 29//27
f 26//28 27//28 31//28 30//28
f 28//29 25//29 29//29 32//29
f 29//30 30//30 34//30 33//30
f 30//31 31//31 35//31 34//31
f 31//32 32//32 36//32 35//32
f 34//33 35//33 39//33 38//33
f 35//34 36//34 40//34 39//34
f 33//35 34//35 38//35 37//35
f 39//36 40//36 44//36 43//36
f 37//37 38//37 42//37 41//37
f 38//38 39//38 43//38 42//38
f 40//39 37//39 41//39 44//39
f 42//40 43//40 47//40 46//40
f 44//41 41//41 45//41 48//41
f 43//42 44//42 48//42 47//42
f 41//43 42//43 46//43 45//43
f 46//44 47//44 51//44 50//44
f 48//45 45//45 49//45 52//45
f 47//46 48//46 52//46 51//46
f 45//47 46//47 50//47 49//47
f 52//48 49//48 53//48 54//48
f 50//49 51//49 56//49 55//49
f 49//50 50//50 55//50 53//50
f 51//51 52//51 54//51 56//51
f 37//52 40//52 36//52 33//52
f 29//53 33//53 36//53 32//53
f 56//54 54//54 57//54
f 53//55 55//55 57//55
f 55//56 56//56 57//56
f 54//57 53//57 57//57
f 9//58 61//58 58//58 10//58
f 10//59 58//59 59//59 11//59
f 11//60 59//60 60//60 12//60
f 12//61 60//61 61//61 9//61
f 62//62 64//62 65//62 63//62
f 3//63 7//63 64//63 62//63
f 1//64 3//64 62//64 63//64
f 7//65 5//65 65//65 64//65
f 73//66 82//66 85//66 84//66
f 69//67 71//67 83//67 67//67
f 71//68 73//68 84//68 83//68
f 82//69 69//69 67//69 85//69
f 70//70 66//70 128//70 130//70
f 78//71 81//71 69//71 82//71
f 70//72 77//72 74//72 66//72
f 72//73 76//73 77//73 70//73
f 68//74 75//74 76//74 72//74
f 66//75 74//75 75//75 68//75
f 125//76 81//76 78//76 126//76
f 124//77 80//77 81//77 125//77
f 123//78 79//78 80//78 124//78
f 126//79 78//79 79//79 123//79
f 80//80 79//80 73//80 71//80
f 81//81 80//81 71//81 69//81
f 79//82 78//82 82//82 73//82
f 83//83 84//83 88//83 87//83
f 85//84 67//84 86//84 89//84
f 84//85 85//85 89//85 88//85
f 67//86 83//86 87//86 86//86
f 87//87 88//87 92//87 91//87
f 89//88 86//88 90//88 93//88
f 88//89 89//89 93//89 92//89
f 86//90 87//90 91//90 90//90
f 92//91 93//91 97//91 96//91
f 90//92 91//92 95//92 94//92
f 91//93 92//93 96//93 95//93
f 93//94 90//94 94//94 97//94
f 94//95 95//95 99//95 98//95
f 95//96 96//96 100//96 99//96
f 96//97 97//97 101//97 100//97
f 99//98 100//98 104//98 103//98
f 100//99 101//99 105//99 104//99
f 98//100 99//100 103//100 102//100
f 104//101 105//101 109//101 108//101
f 102//102 103//102 107//102 106//102
f 103//103 104//103 108//103 107//103
f 105//104 102//104 106//104 109//104
f 107//105 108//105 112//105 111//105
f 109//106 106//106 110//106 113//106
f 108//107 109//107 113//107 112//107
f 106//108 107//108 111//108 110//108
f 111//109 112//109 116//109 115//109
f 113//110 110//110 114//110 117//110
f 112//111 113//111 117//111 116//111
f 110//112 111//112 115//112 114//112
f 117//113 114//113 118//113 119//113
f 115//114 116//114 121//114 120//114
f 114//115 115//115 120//115 118//115
f 116//116 117//116 119//116 121//116
f 102//117 105//117 101//117 98//117
f 94//118 98//118 101//118 97//118
f 121//119 119//119 122//119
f 118//120 120//120 122//120
f 120//121 121//121 122//121
f 119//122 118//122 122//122
f 74//123 126//123 123//123 75//123
f 75//124 123//124 124//124 76//124
f 76//125 124//125 125//125 77//125
f 77//126 125//126 126//126 74//126
f 127//127 129//127 130//127 128//127
f 68//128 72//128 129//128 127//128
f 66//129 68//129 127//129 128//129
f 72//130 70//130 130//130 129//130
f 138//131 149//131 150//131 147//131
f 134//132 132//132 148//132 136//132
f 136//133 148//133 149//133 138//133
f 147//134 150//134 132//134 134//134
f 135//135 191//135 189//135 131//135
f 143//136 147//136 134//136 146//136
f 135//137 131//137 139//137 142//137
f 137//138 135//138 142//138 141//138
f 133//139 137//139 141//139 140//139
f 131//140 133//140 140//140 139//140
f 186//141 187//141 143//141 146//141
f 185//142 186//142 146//142 145//142
f 184//143 185//143 145//143 144//143
f 187//144 184//144 144//144 143//144
f 145//145 136//145 138//145 144//145
f 146//146 134//146 136//146 145//146
f 144//147 138//147 147//147 143//147
f 148//148 152//148 153//148 149//148
f 150//149 154//149 151//149 132//149
f 149//150 153//150 154//150 150//150
f 132//151 151//151 152//151 148//151
f 152//152 156//152 157//152 153//152
f 154//153 158//153 155//153 151//153
f 153//154 157//154 158//154 154//154
f 151//155 155//155 156//155 152//155
f 157//156 161//156 162//156 158//156
f 155//157 159//157 160//157 156//157
f 156//158 160//158 161//158 157//158
f 158//159 162//159 159//159 155//159
f 159//160 163//160 164//160 160//160
f 160//161 164//161 165//161 161//161
f 161//162 165//162 166//162 162//162
f 164//163 168//163 169//163 165//163
f 165//164 169//164 170//164 166//164
f 163//165 167//165 168//165 164//165
f 169//166 168//166 172//166 173//166
f 170//167 169//167 173//167 174//167
f 168//168 167//168 171//168 172//168
f 172//169 176//169 177//169 173//169
f 174//170 178//170 175//170 171//170
f 173//171 177//171 178//171 174//171
f 171//172 175//172 176//172 172//172
f 178//173 180//173 179//173 175//173
f 176//174 181//174 182//174 177//174
f 175//175 179//175 181//175 176//175
f 177//176 182//176 180//176 178//176
f 167//177 163//177 166//177 170//177
f 159//178 162//178 166//178 163//178
f 182//179 183//179 180//179
f 179//180 183//180 181//180
f 181//181 183//181 182//181
f 180//182 183//182 179//182
f 139//183 140//183 184//183 187//183
f 140//184 141//184 185//184 184//184
f 141//185 142//185 186//185 185//185
f 142//186 139//186 187//186 186//186
f 188//187 189//187 191//187 190//187
f 133//188 188//188 190//188 137//188
f 131//189 189//189 188//189 133//189
f 137//190 190//190 191//190 135//190
f 167//191 170//191 174//191 171//191
