# Blender v2.79 (sub 0) OBJ File: 'Tomato_Crop.blend'
# www.blender.org
mtllib Tomato_Crop.mtl
o Tomato_Crop_Cube.025
v -0.088985 0.017642 -0.000000
v -0.083006 0.017642 0.035523
v -0.082459 0.037490 -0.001597
v -0.081414 0.013699 -0.035236
v -0.083006 -0.010573 -0.000000
v -0.077379 -0.008618 0.033061
v -0.075417 0.038430 0.032223
v -0.075417 0.038430 -0.032224
v -0.077379 -0.008618 -0.033062
v -0.000001 0.017642 -0.088985
v -0.035188 0.013334 -0.082971
v -0.000000 0.040829 -0.080902
v 0.035745 0.012500 -0.083052
v -0.000001 -0.010573 -0.083006
v -0.033062 -0.008618 -0.077378
v -0.032224 0.038430 -0.075417
v 0.032223 0.038430 -0.075417
v 0.033060 -0.008618 -0.077378
v 0.088983 0.017642 -0.000000
v 0.083004 0.017642 -0.035524
v 0.080901 0.040829 -0.000001
v 0.083004 0.017642 0.035523
v 0.083004 -0.010573 -0.000000
v 0.077377 -0.008618 -0.033062
v 0.075417 0.038430 -0.032224
v 0.075417 0.038430 0.032223
v 0.077377 -0.008618 0.033061
v -0.000001 0.017642 0.088984
v 0.035522 0.017642 0.083005
v -0.000000 0.040829 0.080901
v -0.035524 0.017642 0.083005
v -0.000001 -0.010573 0.083005
v 0.033060 -0.008618 0.077377
v 0.032223 0.038430 0.075416
v -0.032224 0.038430 0.075416
v -0.033062 -0.008618 0.077377
v -0.000001 -0.053037 -0.000000
v -0.000001 -0.048288 -0.035524
v 0.035522 -0.048288 -0.000000
v -0.000001 -0.048288 0.035523
v -0.035524 -0.048288 -0.000000
v -0.033062 -0.043818 -0.033062
v 0.033060 -0.043818 -0.033062
v 0.033060 -0.043818 0.033061
v -0.033062 -0.043818 0.033061
v 0.000000 0.081354 -0.034817
v -0.034817 0.081354 0.000000
v 0.000000 0.080362 0.034817
v 0.034817 0.081354 0.000000
v 0.032404 0.075838 -0.032404
v -0.032404 0.075838 -0.032404
v -0.032404 0.075838 0.032404
v 0.032404 0.075838 0.032404
v -0.060672 -0.030548 -0.030600
v -0.065157 -0.034110 -0.000000
v -0.060672 -0.030548 0.030599
v -0.060672 -0.006662 0.060671
v -0.065157 0.017642 0.065155
v -0.057970 0.038891 0.058734
v -0.059464 0.059464 0.029991
v -0.063859 0.063859 0.000000
v -0.059464 0.059464 -0.029991
v -0.059134 0.036030 -0.059134
v -0.065157 0.017642 -0.065156
v -0.060672 -0.006662 -0.060672
v 0.030598 -0.030548 -0.060672
v -0.000001 -0.034110 -0.065156
v -0.030600 -0.030548 -0.060672
v -0.029991 0.059464 -0.059464
v 0.000000 0.063859 -0.063859
v 0.029991 0.059464 -0.059464
v 0.059133 0.036030 -0.059134
v 0.065845 0.014989 -0.064108
v 0.060670 -0.006662 -0.060672
v 0.060670 -0.030548 0.030599
v 0.065155 -0.034110 -0.000000
v 0.060670 -0.030548 -0.030600
v 0.059464 0.059464 -0.029991
v 0.063859 0.063859 0.000000
v 0.059464 0.059464 0.029991
v 0.059133 0.036030 0.059133
v 0.065155 0.017642 0.065155
v 0.060670 -0.006662 0.060671
v -0.030600 -0.030548 0.060671
v -0.000001 -0.034110 0.065155
v 0.030598 -0.030548 0.060671
v 0.029991 0.059464 0.059464
v 0.000000 0.063859 0.063859
v -0.029991 0.059464 0.059464
v -0.051586 -0.023331 0.051585
v -0.050559 0.050559 0.050559
v -0.051586 -0.023331 -0.051586
v -0.050559 0.050559 -0.050559
v 0.051584 -0.023331 0.051585
v 0.050559 0.050559 0.050559
v 0.051584 -0.023331 -0.051586
v 0.050559 0.050559 -0.050559
v 0.000000 0.084409 0.011404
v 0.009914 0.084660 0.000000
v 0.000000 0.084568 -0.010462
v -0.009913 0.084660 0.000000
v 0.000000 0.095108 0.000048
v 0.000000 0.093674 0.008568
v 0.007407 0.093861 0.000048
v 0.000000 0.093792 -0.007768
v -0.007406 0.093861 0.000048
v 0.005567 0.083059 -0.029012
v 0.029220 0.082881 -0.003875
v 0.012547 0.081830 0.026561
v -0.021501 0.081662 0.020446
v -0.025933 0.082264 -0.014028
v 0.045792 0.073172 0.014371
v 0.036934 0.075193 0.030620
v 0.062041 0.059372 0.027692
v 0.057644 0.058403 0.035822
v 0.070327 0.042538 0.035107
v 0.069136 0.041912 0.037288
v 0.000330 0.074662 0.048844
v -0.017942 0.072897 0.045760
v -0.007143 0.057372 0.068816
v -0.016204 0.056443 0.067301
v -0.011462 0.040104 0.079201
v -0.013914 0.039947 0.078785
v -0.046819 0.073017 0.016256
v -0.049389 0.074643 -0.002070
v -0.068334 0.055779 0.015460
v -0.069627 0.057192 0.006382
v -0.079742 0.039041 0.014570
v -0.080102 0.039209 0.012113
v -0.028461 0.074837 -0.039812
v -0.011649 0.073546 -0.047555
v -0.033777 0.058985 -0.060595
v -0.025431 0.058311 -0.064398
v -0.036421 0.041915 -0.071668
v -0.034149 0.042810 -0.072689
v 0.028816 0.074150 -0.039621
v 0.041535 0.073436 -0.026192
v 0.046484 0.055644 -0.051291
v 0.052800 0.055879 -0.044600
v 0.055953 0.041389 -0.057181
v 0.057657 0.041162 -0.055377
v 0.028630 0.086185 -0.003796
v 0.005453 0.086360 -0.028429
v 0.012292 0.085155 0.026029
v -0.021072 0.084990 0.020036
v -0.025415 0.085580 -0.013746
v 0.036189 0.078652 0.030006
v 0.044869 0.076671 0.014083
v 0.056484 0.062198 0.035103
v 0.060792 0.063148 0.027137
v 0.067745 0.046039 0.036540
v 0.068912 0.046653 0.034403
v -0.017585 0.076401 0.044842
v 0.000320 0.078131 0.047864
v -0.015881 0.060278 0.065950
v -0.007003 0.061189 0.067435
v -0.013637 0.044114 0.077204
v -0.011235 0.044267 0.077611
v -0.048400 0.078113 -0.002028
v -0.045882 0.076520 0.015930
v -0.068232 0.061012 0.006254
v -0.066965 0.059628 0.015150
v -0.078496 0.043391 0.011871
v -0.078144 0.043225 0.014278
v -0.011419 0.077037 -0.046599
v -0.027892 0.078303 -0.039011
v -0.024923 0.062109 -0.063104
v -0.033102 0.062769 -0.059377
v -0.033466 0.046919 -0.071228
v -0.035693 0.046042 -0.070228
v 0.040698 0.076930 -0.025665
v 0.028234 0.077630 -0.038824
v 0.051737 0.059725 -0.043703
v 0.045547 0.059495 -0.050260
v 0.056496 0.045304 -0.054264
v 0.054827 0.045526 -0.056032
vt 0.000000 0.000000
vt 0.000000 0.000000
vt 0.000000 0.000000
vt 0.000000 0.000000
vt 0.000000 0.000000
vt 0.000000 0.000000
vt 0.000000 0.000000
vt 0.000000 0.000000
vt 0.000000 0.000000
vt 0.000000 0.000000
vt 0.000000 0.000000
vt 0.000000 0.000000
vt 0.000000 0.000000
vt 0.000000 0.000000
vt 0.000000 0.000000
vt 0.000000 0.000000
vt 0.000000 0.000000
vt 0.000000 0.000000
vt 0.000000 0.000000
vt 0.000000 0.000000
vt 0.000000 0.000000
vt 0.000000 0.000000
vt 0.000000 0.000000
vt 0.000000 0.000000
vt 0.000000 0.000000
vt 0.000000 0.000000
vt 0.000000 0.000000
vt 0.000000 0.000000
vt 0.000000 0.000000
vt 0.000000 0.000000
vt 0.000000 0.000000
vt 0.000000 0.000000
vt 0.000000 0.000000
vt 0.000000 0.000000
vt 0.000000 0.000000
vt 0.000000 0.000000
vt 0.000000 0.000000
vt 0.000000 0.000000
vt 0.000000 0.000000
vt 0.000000 0.000000
vt 0.000000 0.000000
vt 0.000000 0.000000
vt 0.000000 0.000000
vt 0.000000 0.000000
vt 0.000000 0.000000
vt 0.000000 0.000000
vt 0.000000 0.000000
vt 0.000000 0.000000
vt 0.000000 0.000000
vt 0.000000 0.000000
vt 0.000000 0.000000
vt 0.000000 0.000000
vt 0.000000 0.000000
vt 0.000000 0.000000
vt 0.000000 0.000000
vt 0.000000 0.000000
vt 0.000000 0.000000
vt 0.000000 0.000000
vt 0.000000 0.000000
vt 0.000000 0.000000
vt 0.000000 0.000000
vt 0.000000 0.000000
vt 0.000000 0.000000
vt 0.000000 0.000000
vt 0.000000 0.000000
vt 0.000000 0.000000
vt 0.000000 0.000000
vt 0.000000 0.000000
vt 0.000000 0.000000
vt 0.000000 0.000000
vt 0.000000 0.000000
vt 0.000000 0.000000
vt 0.000000 0.000000
vt 0.000000 0.000000
vt 0.000000 0.000000
vt 0.000000 0.000000
vt 0.000000 0.000000
vt 0.000000 0.000000
vt 0.000000 0.000000
vt 0.000000 0.000000
vt 0.000000 0.000000
vt 0.000000 0.000000
vt 0.000000 0.000000
vt 0.000000 0.000000
vt 0.000000 0.000000
vt 0.000000 0.000000
vt 0.000000 0.000000
vt 0.000000 0.000000
vt 0.000000 0.000000
vt 0.000000 0.000000
vt 0.000000 0.000000
vt 0.000000 0.000000
vt 0.000000 0.000000
vt 0.000000 0.000000
vt 0.000000 0.000000
vt 0.000000 0.000000
vt 0.000000 0.000000
vt 0.000000 0.000000
vt 0.000000 0.000000
vt 0.000000 0.000000
vt 0.000000 0.000000
vt 0.000000 0.000000
vt 0.000000 0.000000
vt 0.000000 0.000000
vt 0.000000 0.000000
vt 0.000000 0.000000
vt 0.000000 0.000000
vt 0.000000 0.000000
vt 0.000000 0.000000
vt 0.000000 0.000000
vt 0.000000 0.000000
vt 0.000000 0.000000
vt 0.000000 0.000000
vt 0.000000 0.000000
vt 0.000000 0.000000
vt 0.000000 0.000000
vt 0.000000 0.000000
vt 0.000000 0.000000
vt 0.000000 0.000000
vt 0.000000 0.000000
vt 0.000000 0.000000
vt 0.000000 0.000000
vt 0.000000 0.000000
vt 0.000000 0.000000
vt 0.000000 0.000000
vt 0.000000 0.000000
vt 0.000000 0.000000
vt 0.000000 0.000000
vt 0.000000 0.000000
vt 0.000000 0.000000
vt 0.000000 0.000000
vt 0.000000 0.000000
vt 0.000000 0.000000
vt 0.000000 0.000000
vt 0.000000 0.000000
vt 0.000000 0.000000
vt 0.000000 0.000000
vt 0.000000 0.000000
vt 0.000000 0.000000
vt 0.000000 0.000000
vt 0.000000 0.000000
vt 0.000000 0.000000
vt 0.000000 0.000000
vt 0.000000 0.000000
vt 0.000000 0.000000
vt 0.000000 0.000000
vt 0.000000 0.000000
vt 0.000000 0.000000
vt 0.000000 0.000000
vt 0.000000 0.000000
vt 0.000000 0.000000
vt 0.000000 0.000000
vt 0.000000 0.000000
vt 0.000000 0.000000
vt 0.000000 0.000000
vt 0.000000 0.000000
vt 0.000000 0.000000
vt 0.000000 0.000000
vt 0.000000 0.000000
vt 0.000000 0.000000
vt 0.000000 0.000000
vt 0.000000 0.000000
vt 0.000000 0.000000
vt 0.000000 0.000000
vt 0.000000 0.000000
vt 0.000000 0.000000
vt 0.000000 0.000000
vt 0.000000 0.000000
vt 0.000000 0.000000
vt 0.000000 0.000000
vt 0.000000 0.000000
vt 0.000000 0.000000
vt 0.000000 0.000000
vt 0.000000 0.000000
vt 0.000000 0.000000
vt 0.000000 0.000000
vn -0.9624 -0.2127 0.1689
vn -0.8284 -0.2355 0.5082
vn -0.7791 -0.6017 0.1759
vn -0.6662 -0.5840 0.4638
vn -0.9246 0.3415 0.1690
vn -0.7947 0.5816 0.1739
vn -0.7818 0.3877 0.4883
vn -0.6417 0.6075 0.4681
vn -0.9372 0.2703 -0.2203
vn -0.8240 0.3267 -0.4629
vn -0.7875 0.5888 -0.1822
vn -0.6452 0.5918 -0.4832
vn -0.9633 -0.1987 -0.1804
vn -0.7791 -0.6017 -0.1759
vn -0.8354 -0.2243 -0.5017
vn -0.6662 -0.5840 -0.4638
vn -0.1560 -0.2283 -0.9610
vn -0.5176 -0.2521 -0.8176
vn -0.1759 -0.6017 -0.7791
vn -0.4638 -0.5840 -0.6662
vn -0.1899 0.3130 -0.9306
vn -0.1890 0.5947 -0.7814
vn -0.4729 0.3502 -0.8085
vn -0.4832 0.5918 -0.6452
vn 0.1909 0.3116 -0.9308
vn 0.4969 0.3243 -0.8049
vn 0.1890 0.5947 -0.7814
vn 0.4832 0.5918 -0.6452
vn 0.1505 -0.2350 -0.9603
vn 0.1759 -0.6017 -0.7791
vn 0.5212 -0.2683 -0.8102
vn 0.4638 -0.5840 -0.6662
vn 0.9624 -0.2127 -0.1689
vn 0.8310 -0.2486 -0.4977
vn 0.7791 -0.6017 -0.1759
vn 0.6662 -0.5840 -0.4638
vn 0.9244 0.3421 -0.1685
vn 0.7814 0.5947 -0.1890
vn 0.7816 0.3670 -0.5044
vn 0.6452 0.5918 -0.4832
vn 0.9244 0.3421 0.1685
vn 0.7817 0.3878 0.4884
vn 0.7814 0.5947 0.1890
vn 0.6452 0.5918 0.4832
vn 0.9624 -0.2127 0.1689
vn 0.7791 -0.6017 0.1759
vn 0.8284 -0.2355 0.5082
vn 0.6662 -0.5840 0.4638
vn 0.1689 -0.2127 0.9624
vn 0.5082 -0.2355 0.8284
vn 0.1759 -0.6017 0.7791
vn 0.4638 -0.5840 0.6662
vn 0.1685 0.3421 0.9244
vn 0.1890 0.5947 0.7814
vn 0.4884 0.3878 0.7817
vn 0.4832 0.5918 0.6452
vn -0.1685 0.3421 0.9244
vn -0.4864 0.3831 0.7853
vn -0.1890 0.5947 0.7814
vn -0.4654 0.6103 0.6411
vn -0.1689 -0.2127 0.9624
vn -0.1759 -0.6017 0.7791
vn -0.5082 -0.2355 0.8284
vn -0.4638 -0.5840 0.6662
vn -0.1368 -0.9811 -0.1368
vn -0.1592 -0.8875 -0.4324
vn -0.4324 -0.8875 -0.1592
vn -0.4356 -0.7877 -0.4356
vn 0.1368 -0.9811 -0.1368
vn 0.4324 -0.8875 -0.1592
vn 0.1592 -0.8875 -0.4324
vn 0.4356 -0.7877 -0.4356
vn 0.1368 -0.9811 0.1368
vn 0.1592 -0.8875 0.4324
vn 0.4324 -0.8875 0.1592
vn 0.4356 -0.7877 0.4356
vn -0.1368 -0.9811 0.1368
vn -0.4324 -0.8875 0.1592
vn -0.1592 -0.8875 0.4324
vn -0.4356 -0.7877 0.4356
vn 0.1890 0.8371 -0.5134
vn 0.5134 0.8371 -0.1890
vn 0.4961 0.7126 -0.4961
vn -0.5134 0.8371 -0.1890
vn -0.1890 0.8371 -0.5134
vn -0.4961 0.7126 -0.4961
vn -0.1759 0.8460 0.5033
vn -0.5134 0.8371 0.1890
vn -0.4961 0.7126 0.4961
vn 0.5134 0.8371 0.1890
vn 0.1759 0.8460 0.5033
vn 0.4961 0.7126 0.4961
vn -0.1535 0.9761 -0.1537
vn -0.1435 0.9753 0.1682
vn 0.1435 0.9753 0.1682
vn 0.1535 0.9761 -0.1537
vn 0.7107 0.1972 -0.6753
vn -0.7108 0.1972 -0.6752
vn 0.7376 0.1977 0.6456
vn -0.7377 0.1977 0.6456
vn 0.1637 0.9728 -0.1637
vn -0.1637 0.9728 -0.1637
vn -0.1637 0.9728 0.1637
vn 0.1637 0.9728 0.1637
vn 0.0136 -0.9997 -0.0225
vn -0.2984 -0.9436 -0.1436
vn -0.5365 -0.8038 -0.2570
vn -0.7020 -0.5403 -0.4640
vn 0.0881 -0.9493 -0.3018
vn 0.1783 -0.7755 -0.6057
vn 0.1885 -0.5418 -0.8191
vn 0.3038 -0.9493 -0.0803
vn 0.6107 -0.7730 -0.1718
vn 0.8181 -0.5423 -0.1915
vn 0.1323 -0.9441 0.3019
vn 0.1959 -0.8025 0.5636
vn 0.3507 -0.5659 0.7462
vn -0.2683 -0.9351 0.2314
vn -0.4844 -0.7559 0.4404
vn -0.5801 -0.6023 0.5483
vn -0.0136 0.9997 0.0225
vn 0.2984 0.9436 0.1436
vn 0.5365 0.8038 0.2570
vn 0.7020 0.5403 0.4640
vn -0.0881 0.9493 0.3018
vn -0.1783 0.7755 0.6057
vn -0.1885 0.5418 0.8191
vn -0.3038 0.9493 0.0803
vn -0.6107 0.7730 0.1718
vn -0.8181 0.5423 0.1915
vn -0.1323 0.9441 -0.3019
vn -0.1959 0.8025 -0.5636
vn -0.3507 0.5659 -0.7462
vn 0.2683 0.9351 -0.2314
vn 0.4844 0.7559 -0.4404
vn 0.5801 0.6023 -0.5483
vn 0.8877 0.1275 0.4425
vn 0.9016 0.1552 0.4038
vn -0.9710 0.1482 0.1878
vn -0.9699 0.1493 0.1923
vn 0.7001 0.3617 -0.6156
vn -0.9873 0.1496 0.0537
vn -0.1783 0.3595 0.9160
vn -0.3218 0.1710 -0.9312
vn 0.7303 0.2086 0.6505
vn 0.9646 0.2426 0.1035
vn 0.7706 0.1523 -0.6189
vn -0.9799 0.1249 0.1554
vn -0.8118 0.2535 0.5261
vn 0.8467 0.1469 0.5115
vn -0.1231 0.1478 0.9813
vn 0.6967 0.1462 -0.7023
vn 0.8911 0.1489 0.4287
vn -0.4968 0.3628 -0.7884
vn -0.2099 0.1461 0.9668
vn -0.3623 0.1500 -0.9199
vn 0.6896 0.1232 -0.7136
vn -0.9778 0.1973 -0.0706
vn -0.1274 0.1468 0.9809
vn 0.3995 0.2474 -0.8827
vn -0.1393 0.1286 0.9819
vn 0.7734 0.3559 0.5247
vn 0.6850 0.1499 -0.7129
vn -0.4881 0.1496 -0.8598
vn 0.8558 0.2138 -0.4710
vn -0.9185 0.3620 0.1592
vn 0.2408 0.2511 0.9375
vn -0.4872 0.1494 -0.8604
vn -0.3715 0.2051 0.9055
vn -0.7681 0.2611 -0.5847
vn -0.4507 0.1269 -0.8836
usemtl Red
s off
f 1/1/1 5/2/1 6/3/1 2/4/1
f 2/4/2 6/3/2 57/5/2 58/6/2
f 5/2/3 55/7/3 56/8/3 6/3/3
f 6/3/4 56/8/4 90/9/4 57/5/4
f 1/1/5 2/4/5 7/10/5 3/11/5
f 3/11/6 7/10/6 60/12/6 61/13/6
f 2/4/7 58/6/7 59/14/7 7/10/7
f 7/10/8 59/14/8 91/15/8 60/12/8
f 1/1/9 3/11/9 8/16/9 4/17/9
f 4/17/10 8/16/10 63/18/10 64/19/10
f 3/11/11 61/13/11 62/20/11 8/16/11
f 8/16/12 62/20/12 93/21/12 63/18/12
f 1/1/13 4/17/13 9/22/13 5/2/13
f 5/2/14 9/22/14 54/23/14 55/7/14
f 4/17/15 64/19/15 65/24/15 9/22/15
f 9/22/16 65/24/16 92/25/16 54/23/16
f 10/26/17 14/27/17 15/28/17 11/29/17
f 11/29/18 15/28/18 65/24/18 64/19/18
f 14/27/19 67/30/19 68/31/19 15/28/19
f 15/28/20 68/31/20 92/25/20 65/24/20
f 10/26/21 11/29/21 16/32/21 12/33/21
f 12/33/22 16/32/22 69/34/22 70/35/22
f 11/29/23 64/19/23 63/18/23 16/32/23
f 16/32/24 63/18/24 93/21/24 69/34/24
f 10/26/25 12/33/25 17/36/25 13/37/25
f 13/37/26 17/36/26 72/38/26 73/39/26
f 12/33/27 70/35/27 71/40/27 17/36/27
f 17/36/28 71/40/28 97/41/28 72/38/28
f 10/26/29 13/37/29 18/42/29 14/27/29
f 14/27/30 18/42/30 66/43/30 67/30/30
f 13/37/31 73/39/31 74/44/31 18/42/31
f 18/42/32 74/44/32 96/45/32 66/43/32
f 19/46/33 23/47/33 24/48/33 20/49/33
f 20/49/34 24/48/34 74/44/34 73/39/34
f 23/47/35 76/50/35 77/51/35 24/48/35
f 24/48/36 77/51/36 96/45/36 74/44/36
f 19/46/37 20/49/37 25/52/37 21/53/37
f 21/53/38 25/52/38 78/54/38 79/55/38
f 20/49/39 73/39/39 72/38/39 25/52/39
f 25/52/40 72/38/40 97/41/40 78/54/40
f 19/46/41 21/53/41 26/56/41 22/57/41
f 22/57/42 26/56/42 81/58/42 82/59/42
f 21/53/43 79/55/43 80/60/43 26/56/43
f 26/56/44 80/60/44 95/61/44 81/58/44
f 19/46/45 22/57/45 27/62/45 23/47/45
f 23/47/46 27/62/46 75/63/46 76/50/46
f 22/57/47 82/59/47 83/64/47 27/62/47
f 27/62/48 83/64/48 94/65/48 75/63/48
f 28/66/49 32/67/49 33/68/49 29/69/49
f 29/69/50 33/68/50 83/64/50 82/59/50
f 32/67/51 85/70/51 86/71/51 33/68/51
f 33/68/52 86/71/52 94/65/52 83/64/52
f 28/66/53 29/69/53 34/72/53 30/73/53
f 30/73/54 34/72/54 87/74/54 88/75/54
f 29/69/55 82/59/55 81/58/55 34/72/55
f 34/72/56 81/58/56 95/61/56 87/74/56
f 28/66/57 30/73/57 35/76/57 31/77/57
f 31/77/58 35/76/58 59/14/58 58/6/58
f 30/73/59 88/75/59 89/78/59 35/76/59
f 35/76/60 89/78/60 91/15/60 59/14/60
f 28/66/61 31/77/61 36/79/61 32/67/61
f 32/67/62 36/79/62 84/80/62 85/70/62
f 31/77/63 58/6/63 57/5/63 36/79/63
f 36/79/64 57/5/64 90/9/64 84/80/64
f 37/81/65 41/82/65 42/83/65 38/84/65
f 38/84/66 42/83/66 68/31/66 67/30/66
f 41/82/67 55/7/67 54/23/67 42/83/67
f 42/83/68 54/23/68 92/25/68 68/31/68
f 37/81/69 38/84/69 43/85/69 39/86/69
f 39/86/70 43/85/70 77/51/70 76/50/70
f 38/84/71 67/30/71 66/43/71 43/85/71
f 43/85/72 66/43/72 96/45/72 77/51/72
f 37/81/73 39/86/73 44/87/73 40/88/73
f 40/88/74 44/87/74 86/71/74 85/70/74
f 39/86/75 76/50/75 75/63/75 44/87/75
f 44/87/76 75/63/76 94/65/76 86/71/76
f 37/81/77 40/88/77 45/89/77 41/82/77
f 41/82/78 45/89/78 56/8/78 55/7/78
f 40/88/79 85/70/79 84/80/79 45/89/79
f 45/89/80 84/80/80 90/9/80 56/8/80
f 46/90/81 50/91/81 71/40/81 70/35/81
f 49/92/82 79/55/82 78/54/82 50/91/82
f 50/91/83 78/54/83 97/41/83 71/40/83
f 47/93/84 51/94/84 62/20/84 61/13/84
f 46/90/85 70/35/85 69/34/85 51/94/85
f 51/94/86 69/34/86 93/21/86 62/20/86
f 48/95/87 52/96/87 89/78/87 88/75/87
f 47/93/88 61/13/88 60/12/88 52/96/88
f 52/96/89 60/12/89 91/15/89 89/78/89
f 49/92/90 53/97/90 80/60/90 79/55/90
f 48/95/91 88/75/91 87/74/91 53/97/91
f 53/97/92 87/74/92 95/61/92 80/60/92
f 101/98/93 100/99/93 46/90/93 51/94/93 47/93/93
f 98/100/94 101/98/94 47/93/94 52/96/94 48/95/94
f 99/101/95 98/100/95 48/95/95 53/97/95 49/92/95
f 100/99/96 99/101/96 49/92/96 50/91/96 46/90/96
usemtl DarkGreen
f 99/101/97 100/99/97 105/102/97 104/103/97
f 100/99/98 101/98/98 106/104/98 105/102/98
f 98/100/99 99/101/99 104/103/99 103/105/99
f 101/98/100 98/100/100 103/105/100 106/104/100
f 102/106/101 104/103/101 105/102/101
f 102/106/102 105/102/102 106/104/102
f 102/106/103 106/104/103 103/105/103
f 102/106/104 103/105/104 104/103/104
f 108/107/105 109/108/105 110/109/105 111/110/105 107/111/105
f 108/107/106 112/112/106 113/113/106 109/108/106
f 112/112/107 114/114/107 115/115/107 113/113/107
f 114/114/108 116/116/108 117/117/108 115/115/108
f 109/108/109 118/118/109 119/119/109 110/109/109
f 118/118/110 120/120/110 121/121/110 119/119/110
f 120/120/111 122/122/111 123/123/111 121/121/111
f 110/109/112 124/124/112 125/125/112 111/110/112
f 124/124/113 126/126/113 127/127/113 125/125/113
f 126/126/114 128/128/114 129/129/114 127/127/114
f 111/110/115 130/130/115 131/131/115 107/111/115
f 130/130/116 132/132/116 133/133/116 131/131/116
f 132/132/117 134/134/117 135/135/117 133/133/117
f 107/111/118 136/136/118 137/137/118 108/107/118
f 136/136/119 138/138/119 139/139/119 137/137/119
f 138/138/120 140/140/120 141/141/120 139/139/120
f 142/142/121 143/143/121 146/144/121 145/145/121 144/146/121
f 142/142/122 144/146/122 147/147/122 148/148/122
f 148/148/123 147/147/123 149/149/123 150/150/123
f 150/150/124 149/149/124 151/151/124 152/152/124
f 144/146/125 145/145/125 153/153/125 154/154/125
f 154/154/126 153/153/126 155/155/126 156/156/126
f 156/156/127 155/155/127 157/157/127 158/158/127
f 145/145/128 146/144/128 159/159/128 160/160/128
f 160/160/129 159/159/129 161/161/129 162/162/129
f 162/162/130 161/161/130 163/163/130 164/164/130
f 146/144/131 143/143/131 165/165/131 166/166/131
f 166/166/132 165/165/132 167/167/132 168/168/132
f 168/168/133 167/167/133 169/169/133 170/170/133
f 143/143/134 142/142/134 171/171/134 172/172/134
f 172/172/135 171/171/135 173/173/135 174/174/135
f 174/174/136 173/173/136 175/175/136 176/176/136
f 120/120/137 118/118/137 154/154/137 156/156/137
f 137/137/138 139/139/138 173/173/138 171/171/138
f 110/109/139 119/119/139 153/153/139 145/145/139
f 119/119/140 121/121/140 155/155/140 153/153/140
f 141/141/141 140/140/141 176/176/141 175/175/141
f 130/130/142 111/110/142 146/144/142 166/166/142
f 123/123/143 122/122/143 158/158/143 157/157/143
f 140/140/144 138/138/144 174/174/144 176/176/144
f 122/122/145 120/120/145 156/156/145 158/158/145
f 139/139/146 141/141/146 175/175/146 173/173/146
f 112/112/147 108/107/147 142/142/147 148/148/147
f 132/132/148 130/130/148 166/166/148 168/168/148
f 121/121/149 123/123/149 157/157/149 155/155/149
f 118/118/150 109/108/150 144/146/150 154/154/150
f 109/108/151 113/113/151 147/147/151 144/146/151
f 131/131/152 133/133/152 167/167/152 165/165/152
f 108/107/153 137/137/153 171/171/153 142/142/153
f 135/135/154 134/134/154 170/170/154 169/169/154
f 124/124/155 110/109/155 145/145/155 160/160/155
f 136/136/156 107/111/156 143/143/156 172/172/156
f 114/114/157 112/112/157 148/148/157 150/150/157
f 134/134/158 132/132/158 168/168/158 170/170/158
f 113/113/159 115/115/159 149/149/159 147/147/159
f 133/133/160 135/135/160 169/169/160 167/167/160
f 126/126/161 124/124/161 160/160/161 162/162/161
f 117/117/162 116/116/162 152/152/162 151/151/162
f 107/111/163 131/131/163 165/165/163 143/143/163
f 125/125/164 127/127/164 161/161/164 159/159/164
f 116/116/165 114/114/165 150/150/165 152/152/165
f 129/129/166 128/128/166 164/164/166 163/163/166
f 115/115/167 117/117/167 151/151/167 149/149/167
f 111/110/168 125/125/168 159/159/168 146/144/168
f 128/128/169 126/126/169 162/162/169 164/164/169
f 127/127/170 129/129/170 163/163/170 161/161/170
f 138/138/171 136/136/171 172/172/171 174/174/171
