# Blender v2.79 (sub 0) OBJ File: 'Tomato_1.blend'
# www.blender.org
mtllib Tomato_1.mtl
o Tomato_1_Plane.003
v 0.045562 0.148491 0.014002
v 0.042847 0.145875 0.011074
v 0.015079 0.168847 0.017172
v 0.019595 0.179471 0.026137
v -0.032625 0.156117 -0.019354
v -0.024506 0.147911 -0.028320
v -0.022691 0.083468 -0.021544
v -0.034235 0.083468 -0.012579
v -0.010180 0.000133 0.018394
v 0.001364 0.000133 0.009429
v 0.043859 0.146495 0.017365
v 0.041144 0.143878 0.014437
v 0.012672 0.161182 0.027467
v 0.017189 0.171805 0.036432
v -0.026443 0.150985 -0.009059
v -0.018325 0.142779 -0.018024
v -0.014695 0.084253 -0.011249
v -0.026239 0.084253 -0.002284
v -0.002184 0.000917 0.028689
v 0.009359 0.000917 0.019724
v 0.052165 0.131558 -0.001224
v 0.066838 0.141574 0.012574
v 0.042682 0.123623 0.014621
v 0.057356 0.133639 0.028418
v 0.059934 0.087334 0.007191
v 0.063750 0.084831 0.010736
v 0.057121 0.088809 0.011261
v 0.060937 0.086305 0.014806
v -0.008405 0.177716 0.003391
v -0.006604 0.168302 -0.005574
v -0.006517 0.171318 0.013687
v -0.004716 0.161903 0.004721
vn 0.2853 0.5495 -0.7852
vn 0.5708 0.5032 -0.6488
vn -0.6884 -0.0724 -0.7217
vn -0.5550 -0.4258 -0.7146
vn -0.0598 -0.6488 0.7586
vn -0.6654 -0.4457 0.5988
vn 0.6927 0.0985 0.7145
vn 0.5550 0.4258 0.7146
vn 0.5391 -0.7017 -0.4657
vn 0.2837 0.7743 0.5656
vn -0.7898 0.0000 0.6134
vn -0.8156 0.0641 0.5751
vn 0.0369 -0.9982 0.0474
vn -0.8097 0.3162 0.4944
vn -0.5965 -0.5596 -0.5754
vn 0.7898 -0.0000 -0.6134
vn 0.7490 0.4134 0.5178
vn 0.8207 -0.0266 -0.5707
vn -0.7831 -0.2563 -0.5666
vn -0.8433 -0.0785 -0.5317
vn -0.6715 -0.0541 0.7390
vn 0.1683 0.6946 -0.6995
vn -0.5167 -0.8548 -0.0474
vn -0.5914 -0.2855 0.7542
vn 0.8589 -0.0712 0.5072
vn 0.6874 -0.0154 -0.7261
vn -0.4644 0.7367 0.4915
vn 0.8756 -0.1844 -0.4464
vn -0.0652 -0.7295 0.6808
vn 0.0291 0.7209 -0.6924
usemtl Green
s off
f 4//1 1//1 2//1 3//1
f 29//2 4//2 3//2 30//2
f 8//3 5//3 6//3 7//3
f 9//4 8//4 7//4 10//4
f 14//5 13//5 12//5 11//5
f 31//6 32//6 13//6 14//6
f 18//7 17//7 16//7 15//7
f 19//8 20//8 17//8 18//8
f 30//9 3//9 13//9 32//9
f 1//10 11//10 24//10 22//10
f 8//11 9//11 19//11 18//11
f 5//12 8//12 18//12 15//12
f 9//13 10//13 20//13 19//13
f 29//14 5//14 15//14 31//14
f 3//15 2//15 12//15 13//15
f 10//16 7//16 17//16 20//16
f 1//17 4//17 14//17 11//17
f 7//18 6//18 16//18 17//18
f 23//19 21//19 25//19 27//19
f 12//20 2//20 21//20 23//20
f 11//21 12//21 23//21 24//21
f 2//22 1//22 22//22 21//22
f 25//23 26//23 28//23 27//23
f 24//24 23//24 27//24 28//24
f 22//25 24//25 28//25 26//25
f 21//26 22//26 26//26 25//26
f 4//27 29//27 31//27 14//27
f 6//28 30//28 32//28 16//28
f 15//29 16//29 32//29 31//29
f 5//30 29//30 30//30 6//30
