# Blender v2.79 (sub 0) OBJ File: 'Watermelon_1.blend'
# www.blender.org
mtllib Watermelon_1.mtl
o Watermelon_1_Plane.042
v 0.007491 0.391338 0.003508
v 0.007491 0.391338 0.008282
v -0.004052 0.253816 0.013203
v -0.004052 0.253816 -0.001413
v 0.053548 0.159451 -0.001413
v 0.053548 0.159451 0.013203
v 0.044969 0.083468 0.013203
v 0.044969 0.083468 -0.001413
v 0.005752 0.000133 -0.001413
v 0.005752 0.000133 0.013203
v 0.003233 0.391595 0.003508
v 0.003233 0.391595 0.008282
v -0.017087 0.254600 0.013203
v -0.017087 0.254600 -0.001413
v 0.040512 0.160235 -0.001413
v 0.040512 0.160235 0.013203
v 0.031934 0.084253 0.013203
v 0.031934 0.084253 -0.001413
v -0.007283 0.000917 -0.001413
v -0.007283 0.000917 0.013203
v 0.050956 0.264159 0.026240
v 0.023156 0.238998 0.008711
v 0.051279 0.264320 -0.020516
v 0.023278 0.239128 -0.000116
v 0.074133 0.268469 0.033190
v 0.074223 0.268478 -0.026200
v 0.093387 0.268808 0.027010
v 0.093492 0.268799 -0.019420
v 0.121939 0.263205 0.014321
v 0.122035 0.263178 -0.008130
v 0.139160 0.256398 0.003273
v 0.008638 0.220419 0.008122
v 0.008638 0.220419 -0.000524
v -0.008032 0.152307 0.004886
v 0.023871 0.127739 0.009644
v 0.011381 0.152785 0.047900
v 0.027462 0.128014 0.017762
v -0.031638 0.156564 0.008289
v -0.006261 0.156601 0.062184
v -0.046084 0.156923 0.021831
v -0.026330 0.156893 0.064060
v -0.066112 0.151407 0.045269
v -0.056660 0.151317 0.065792
v -0.076794 0.144645 0.062554
v 0.037029 0.109432 0.004083
v 0.040760 0.109432 0.011882
v 0.050583 0.270582 0.026798
v 0.022144 0.244999 0.010226
v 0.050583 0.270582 -0.019474
v 0.022144 0.244999 0.001581
v 0.074066 0.274954 0.033290
v 0.074066 0.274954 -0.025966
v 0.093528 0.275286 0.026798
v 0.093528 0.275286 -0.019474
v 0.122296 0.269634 0.013787
v 0.122296 0.269634 -0.008522
v 0.139587 0.262801 0.002633
v 0.007398 0.226162 0.009977
v 0.007398 0.226162 0.001332
v -0.007574 0.158676 0.003835
v 0.025232 0.133093 0.006515
v 0.012391 0.158676 0.045579
v 0.028962 0.133093 0.014314
v -0.031560 0.163048 0.008112
v -0.005993 0.163048 0.061568
v -0.046317 0.163379 0.022365
v -0.026351 0.163379 0.064109
v -0.066655 0.157727 0.046516
v -0.057029 0.157727 0.066641
v -0.077441 0.150894 0.064039
v 0.038642 0.114256 0.000377
v 0.042372 0.114256 0.008176
vn 0.9965 -0.0836 0.0000
vn 0.8536 0.5210 0.0000
vn 0.9937 -0.1122 0.0000
vn 0.9048 -0.4258 0.0000
vn -0.9892 0.1467 -0.0000
vn -0.8536 -0.5210 -0.0000
vn -0.9937 0.1122 -0.0000
vn -0.9048 0.4258 -0.0000
vn 0.0000 -0.0000 1.0000
vn 0.0601 0.9982 0.0000
vn 0.0000 0.0000 -1.0000
vn -0.0601 -0.9982 -0.0000
vn 0.0021 0.0356 0.9994
vn 0.0021 0.0356 -0.9994
vn 0.6700 -0.7424 0.0015
vn 0.1806 -0.9836 -0.0009
vn 0.0171 -0.9999 0.0000
vn -0.1929 -0.9812 -0.0001
vn -0.3679 -0.9299 -0.0004
vn 0.7877 -0.6160 0.0009
vn -0.6096 -0.7396 0.2852
vn -0.1589 -0.9842 0.0787
vn -0.0155 -0.9999 0.0074
vn 0.1746 -0.9811 -0.0831
vn 0.3334 -0.9295 -0.1576
vn -0.7119 -0.6155 0.3381
vn -0.6688 0.7435 -0.0000
vn -0.1830 0.9831 0.0000
vn -0.0170 0.9999 -0.0000
vn 0.1928 0.9812 -0.0000
vn 0.3675 0.9300 0.0000
vn -0.7874 0.6164 0.0000
vn 0.6033 0.7435 -0.2886
vn 0.1651 0.9831 -0.0790
vn 0.0154 0.9999 -0.0074
vn -0.1739 0.9812 0.0832
vn -0.3316 0.9300 0.1586
vn 0.7104 0.6164 -0.3398
vn -0.3754 -0.1931 0.9065
vn -0.6347 0.0778 -0.7688
vn -0.2663 -0.0582 0.9621
vn -0.2664 0.0784 -0.9607
vn 0.3110 0.0064 0.9504
vn 0.3239 0.0162 -0.9460
vn 0.4148 0.0365 0.9092
vn 0.3546 -0.0403 -0.9341
vn 0.5524 0.0424 0.8325
vn 0.5188 -0.0960 -0.8495
vn -0.9775 -0.2112 0.0000
vn -0.2729 0.2299 -0.9341
vn 0.2557 -0.2211 0.9411
vn -0.1354 -0.3140 -0.9397
vn 0.8930 0.0317 0.4489
vn -0.1740 -0.0865 -0.9809
vn 0.6540 0.1104 0.7484
vn -0.6893 0.0117 -0.7244
vn 0.1091 0.0415 0.9932
vn -0.7668 0.0428 -0.6404
vn 0.0818 -0.0668 0.9944
vn -0.8561 0.0312 -0.5158
vn -0.0788 -0.1869 0.9792
vn 0.7622 -0.5350 -0.3645
vn 0.6855 0.2724 0.6752
vn -0.6745 -0.2655 -0.6888
usemtl Green
s off
f 4//1 1//1 2//1 3//1
f 5//2 4//2 3//2 6//2
f 8//3 5//3 6//3 7//3
f 9//4 8//4 7//4 10//4
f 14//5 13//5 12//5 11//5
f 15//6 16//6 13//6 14//6
f 18//7 17//7 16//7 15//7
f 19//8 20//8 17//8 18//8
f 6//9 3//9 13//9 16//9
f 2//10 1//10 11//10 12//10
f 8//11 9//11 19//11 18//11
f 5//11 8//11 18//11 15//11
f 9//12 10//12 20//12 19//12
f 4//11 5//11 15//11 14//11
f 3//13 2//13 12//13 13//13
f 10//9 7//9 17//9 20//9
f 1//14 4//14 14//14 11//14
f 7//9 6//9 16//9 17//9
usemtl DarkGreen
f 21//15 22//15 24//15 23//15
f 21//16 23//16 26//16 25//16
f 25//17 26//17 28//17 27//17
f 27//18 28//18 30//18 29//18
f 29//19 30//19 31//19
f 24//20 22//20 32//20 33//20
f 34//21 35//21 37//21 36//21
f 34//22 36//22 39//22 38//22
f 38//23 39//23 41//23 40//23
f 40//24 41//24 43//24 42//24
f 42//25 43//25 44//25
f 37//26 35//26 45//26 46//26
f 47//27 49//27 50//27 48//27
f 47//28 51//28 52//28 49//28
f 51//29 53//29 54//29 52//29
f 53//30 55//30 56//30 54//30
f 55//31 57//31 56//31
f 50//32 59//32 58//32 48//32
f 60//33 62//33 63//33 61//33
f 60//34 64//34 65//34 62//34
f 64//35 66//35 67//35 65//35
f 66//36 68//36 69//36 67//36
f 68//37 70//37 69//37
f 63//38 72//38 71//38 61//38
f 22//39 21//39 47//39 48//39
f 23//40 24//40 50//40 49//40
f 21//41 25//41 51//41 47//41
f 26//42 23//42 49//42 52//42
f 25//43 27//43 53//43 51//43
f 28//44 26//44 52//44 54//44
f 27//45 29//45 55//45 53//45
f 30//46 28//46 54//46 56//46
f 29//47 31//47 57//47 55//47
f 31//48 30//48 56//48 57//48
f 33//49 32//49 58//49 59//49
f 24//50 33//50 59//50 50//50
f 32//51 22//51 48//51 58//51
f 35//52 34//52 60//52 61//52
f 36//53 37//53 63//53 62//53
f 34//54 38//54 64//54 60//54
f 39//55 36//55 62//55 65//55
f 38//56 40//56 66//56 64//56
f 41//57 39//57 65//57 67//57
f 40//58 42//58 68//58 66//58
f 43//59 41//59 67//59 69//59
f 42//60 44//60 70//60 68//60
f 44//61 43//61 69//61 70//61
f 46//62 45//62 71//62 72//62
f 37//63 46//63 72//63 63//63
f 45//64 35//64 61//64 71//64
