# Blender v2.79 (sub 0) OBJ File: 'Wheat_2.blend'
# www.blender.org
mtllib Wheat_2.mtl
o Wheat_2_Cube.007
v -0.005522 0.000000 -0.014121
v 0.014121 0.000000 -0.005522
v -0.014121 0.000000 0.005522
v 0.005522 0.000000 0.014121
v -0.004999 0.165831 -0.001577
v 0.004550 0.165831 0.002603
v 0.000385 0.164850 0.012118
v -0.009164 0.164850 0.007937
v -0.009788 0.303749 0.006630
v -0.000084 0.304480 0.010840
v -0.004313 0.304702 0.020557
v -0.014018 0.303971 0.016347
v -0.031918 0.434511 0.019429
v -0.007894 0.436329 0.029851
v 0.002385 0.438726 0.005809
v -0.021638 0.436923 -0.004613
v -0.043499 0.474943 0.030937
v -0.009620 0.477692 0.045167
v 0.004412 0.483215 0.011044
v -0.029467 0.480465 -0.003186
v -0.034035 0.483076 0.027046
v -0.013599 0.484735 0.035629
v -0.005183 0.489528 0.014924
v -0.025619 0.487870 0.006340
v -0.037400 0.506549 0.032882
v -0.018878 0.508052 0.040662
v -0.011392 0.512440 0.022222
v -0.029914 0.510937 0.014443
v -0.031034 0.538891 0.038508
v -0.004562 0.104991 0.001174
v -0.001564 0.104991 0.003290
v -0.017433 0.134325 0.022149
v -0.002763 0.134601 0.032832
v -0.027969 0.147550 0.039118
v -0.016510 0.147683 0.047918
v -0.040219 0.144075 0.064762
v -0.037214 0.144036 0.067110
v -0.041804 0.142409 0.070090
v -0.004141 0.106686 -0.000822
v -0.001144 0.106686 0.001294
v -0.016774 0.136611 0.020869
v -0.002220 0.136611 0.031143
v -0.027147 0.150114 0.038946
v -0.015783 0.150114 0.046969
v -0.039380 0.146581 0.065146
v -0.036377 0.146581 0.067266
v -0.040966 0.144889 0.070580
v -0.008301 0.290964 0.015513
v -0.011298 0.290964 0.013397
v 0.004571 0.320298 -0.005462
v -0.010099 0.320575 -0.016145
v 0.015106 0.333524 -0.022431
v 0.003648 0.333657 -0.031231
v 0.027357 0.330049 -0.048075
v 0.024351 0.330010 -0.050423
v 0.028941 0.328383 -0.053403
v -0.008722 0.292659 0.017509
v -0.011719 0.292659 0.015393
v 0.003911 0.322585 -0.004181
v -0.010642 0.322585 -0.014456
v 0.014285 0.336088 -0.022259
v 0.002920 0.336088 -0.030282
v 0.026518 0.332555 -0.048459
v 0.023515 0.332555 -0.050579
v 0.028104 0.330863 -0.053892
vn 0.0000 -1.0000 0.0000
vn -0.9160 0.0333 -0.3998
vn -0.4010 -0.0014 0.9161
vn 0.9152 0.0333 0.4017
vn 0.4001 0.0679 -0.9140
vn -0.9164 -0.0079 -0.4003
vn -0.3963 -0.0689 0.9155
vn 0.9164 0.0067 0.4003
vn 0.3964 0.0679 -0.9156
vn 0.9188 -0.0025 0.3947
vn -0.3921 -0.0754 0.9168
vn 0.4003 -0.0417 -0.9154
vn -0.9228 -0.0370 -0.3835
vn 0.9231 -0.0926 0.3732
vn 0.3836 0.0948 -0.9186
vn -0.9052 -0.1478 -0.3985
vn 0.2148 0.7272 -0.6520
vn -0.3272 0.6898 0.6459
vn 0.5682 0.7346 0.3708
vn -0.7181 0.6757 -0.1669
vn 0.3347 0.3672 -0.8678
vn -0.3536 -0.2731 0.8946
vn 0.9097 0.1200 0.3977
vn 0.2541 0.6368 -0.7279
vn -0.3799 -0.0854 0.9211
vn 0.8325 0.3577 0.4231
vn -0.9187 0.2359 -0.3168
vn 0.4426 0.6412 -0.6269
vn -0.3188 -0.8368 0.4452
vn 0.0816 -0.9919 -0.0976
vn 0.1789 -0.9529 -0.2448
vn -0.9064 -0.0934 -0.4121
vn 0.3146 0.8382 -0.4456
vn -0.0711 0.9924 0.1006
vn -0.1738 0.9535 0.2462
vn -0.4432 -0.6420 0.6256
vn 0.9831 -0.1092 0.1471
vn 0.3869 -0.7416 -0.5480
vn -0.8258 0.0850 -0.5575
vn 0.7946 0.1256 0.5940
vn -0.8769 0.3028 -0.3732
vn 0.6968 -0.1060 0.7094
vn -0.9254 0.3404 -0.1664
vn 0.6107 -0.2978 0.7337
vn -0.3450 -0.3427 0.8738
vn -0.9099 -0.1150 -0.3985
vn -0.4426 0.6412 0.6269
vn 0.3188 -0.8368 -0.4452
vn -0.0816 -0.9919 0.0975
vn -0.1789 -0.9529 0.2448
vn 0.9064 -0.0934 0.4120
vn -0.3146 0.8382 0.4456
vn 0.0711 0.9924 -0.1006
vn 0.1738 0.9535 -0.2461
vn 0.4432 -0.6420 -0.6256
vn -0.9831 -0.1092 -0.1471
vn -0.3869 -0.7416 0.5480
vn 0.8258 0.0850 0.5575
vn -0.7946 0.1256 -0.5940
vn 0.8769 0.3028 0.3732
vn -0.6968 -0.1060 -0.7094
vn 0.9254 0.3404 0.1664
vn -0.6107 -0.2978 -0.7337
usemtl Green
s off
f 2//1 4//1 3//1 1//1
f 3//2 8//2 5//2 1//2
f 4//3 7//3 8//3 3//3
f 2//4 6//4 7//4 4//4
f 1//5 5//5 6//5 2//5
f 8//6 12//6 9//6 5//6
f 7//7 11//7 12//7 8//7
f 6//8 10//8 11//8 7//8
f 5//9 9//9 10//9 6//9
f 10//10 15//10 14//10 11//10
f 11//11 14//11 13//11 12//11
f 9//12 16//12 15//12 10//12
f 21//13 25//13 28//13 24//13
f 15//14 19//14 18//14 14//14
f 16//15 20//15 19//15 15//15
f 20//16 16//16 13//16 17//16
f 19//17 20//17 24//17 23//17
f 17//18 18//18 22//18 21//18
f 18//19 19//19 23//19 22//19
f 20//20 17//20 21//20 24//20
f 24//21 28//21 27//21 23//21
f 22//22 26//22 25//22 21//22
f 23//23 27//23 26//23 22//23
f 27//24 28//24 29//24
f 25//25 26//25 29//25
f 26//26 27//26 29//26
f 28//27 25//27 29//27
f 39//28 41//28 42//28 40//28
f 32//29 33//29 35//29 34//29
f 34//30 35//30 37//30 36//30
f 36//31 37//31 38//31
f 30//32 32//32 41//32 39//32
f 41//33 43//33 44//33 42//33
f 43//34 45//34 46//34 44//34
f 45//35 47//35 46//35
f 31//36 33//36 32//36 30//36
f 33//37 31//37 40//37 42//37
f 31//38 30//38 39//38 40//38
f 32//39 34//39 43//39 41//39
f 35//40 33//40 42//40 44//40
f 34//41 36//41 45//41 43//41
f 37//42 35//42 44//42 46//42
f 36//43 38//43 47//43 45//43
f 38//44 37//44 46//44 47//44
f 14//45 18//45 17//45 13//45
f 12//46 13//46 16//46 9//46
f 57//47 59//47 60//47 58//47
f 50//48 51//48 53//48 52//48
f 52//49 53//49 55//49 54//49
f 54//50 55//50 56//50
f 48//51 50//51 59//51 57//51
f 59//52 61//52 62//52 60//52
f 61//53 63//53 64//53 62//53
f 63//54 65//54 64//54
f 49//55 51//55 50//55 48//55
f 51//56 49//56 58//56 60//56
f 49//57 48//57 57//57 58//57
f 50//58 52//58 61//58 59//58
f 53//59 51//59 60//59 62//59
f 52//60 54//60 63//60 61//60
f 55//61 53//61 62//61 64//61
f 54//62 56//62 65//62 63//62
f 56//63 55//63 64//63 65//63
